<svg width="43" height="50" viewBox="0 0 43 50" fill="none" xmlns="http://www.w3.org/2000/svg">
<g clip-path="url(#clip0_145_754)">
<path d="M26.875 6.38153C26.8753 7.76157 26.4795 9.10258 25.7497 10.1937C25.02 11.2848 23.9978 12.0642 22.8438 12.4092V28.2391C25.1631 28.4974 26.875 29.4123 26.875 30.4983C26.875 31.7866 24.4697 32.8322 21.5 32.8322C18.5303 32.8322 16.125 31.7866 16.125 30.4983C16.125 29.4092 17.8369 28.4974 20.1563 28.2391V12.4092C19.1829 12.1182 18.2996 11.517 17.6065 10.6738C16.9135 9.83069 16.4386 8.77941 16.2356 7.6394C16.0327 6.49939 16.11 5.31633 16.4586 4.22461C16.8073 3.13288 17.4133 2.17624 18.208 1.46334C19.0026 0.75044 19.954 0.309852 20.954 0.191618C21.9541 0.0733848 22.9627 0.282245 23.8654 0.794475C24.7681 1.30671 25.5286 2.10178 26.0606 3.08939C26.5926 4.077 26.8747 5.21756 26.875 6.38153Z" fill="black"/>
<path d="M4.06619e-10 30.2339V35.5769C0.000266462 36.1547 0.139436 36.7209 0.401922 37.2123C0.664408 37.7036 1.03985 38.1007 1.48619 38.3589L19.0974 48.5564C19.8434 48.9881 20.666 49.2128 21.5 49.2128C22.334 49.2128 23.1566 48.9881 23.9026 48.5564L41.5138 38.3589C41.9602 38.1007 42.3356 37.7036 42.5981 37.2123C42.8606 36.7209 42.9997 36.1547 43 35.5769V30.2339C43 29.9227 42.8387 29.6426 42.5915 29.5182L25.5312 21.054V24.144L39.5788 30.9216C39.6395 30.9512 39.6914 31.0008 39.7279 31.0642C39.7645 31.1277 39.7842 31.2022 39.7844 31.2784C39.7847 31.3547 39.7656 31.4294 39.7296 31.4932C39.6935 31.557 39.642 31.6071 39.5815 31.6373L23.6178 39.5601C22.9486 39.8922 22.2281 40.0635 21.5 40.0635C20.7719 40.0635 20.0514 39.8922 19.3822 39.5601L3.4185 31.6373C3.35801 31.6071 3.30652 31.557 3.27044 31.4932C3.23436 31.4294 3.21527 31.3547 3.21556 31.2784C3.21585 31.2022 3.23549 31.1277 3.27205 31.0642C3.30861 31.0008 3.36047 30.9512 3.42119 30.9216L17.4688 24.144L17.4338 21.0695L0.4085 29.5182C0.287311 29.578 0.183976 29.6777 0.111346 29.8049C0.0387159 29.9322 -4.58163e-06 30.0814 4.06619e-10 30.2339Z" fill="black"/>
</g>
<defs>
<clipPath id="clip0_145_754">
<rect width="43" height="49.7895" fill="white" transform="translate(0 0.157959)"/>
</clipPath>
</defs>
</svg>
