<svg width="24" height="28" viewBox="0 0 24 28" fill="none" xmlns="http://www.w3.org/2000/svg">
<g clip-path="url(#clip0_206_1085)">
<path fill-rule="evenodd" clip-rule="evenodd" d="M8.29315 14.3552C8.10567 14.1433 8.00036 13.8561 8.00036 13.5565C8.00036 13.2569 8.10567 12.9696 8.29315 12.7578L13.9501 6.36704C14.0424 6.25914 14.1527 6.17308 14.2747 6.11387C14.3967 6.05467 14.528 6.0235 14.6607 6.0222C14.7935 6.02089 14.9252 6.04948 15.0481 6.10628C15.171 6.16308 15.2826 6.24697 15.3765 6.35304C15.4704 6.45911 15.5447 6.58524 15.595 6.72408C15.6452 6.86292 15.6705 7.01168 15.6694 7.16168C15.6682 7.31168 15.6407 7.45992 15.5882 7.59775C15.5358 7.73558 15.4597 7.86024 15.3641 7.96445L10.4141 13.5565L15.3641 19.1485C15.5463 19.3616 15.6471 19.647 15.6448 19.9432C15.6425 20.2394 15.5374 20.5227 15.352 20.7322C15.1666 20.9416 14.9157 21.0605 14.6535 21.063C14.3913 21.0656 14.1387 20.9517 13.9501 20.746L8.29315 14.3552Z" fill="black"/>
</g>
<defs>
<clipPath id="clip0_206_1085">
<rect width="27.113" height="24" fill="white" transform="translate(24) rotate(90)"/>
</clipPath>
</defs>
</svg>
