<svg width="28" height="25" viewBox="0 0 28 25" fill="none" xmlns="http://www.w3.org/2000/svg">
<g clip-path="url(#clip0_206_862)">
<path fill-rule="evenodd" clip-rule="evenodd" d="M9.81246 13.5731C9.60068 13.3855 9.4817 13.1312 9.4817 12.8661C9.4817 12.6009 9.60068 12.3466 9.81246 12.1591L16.2032 6.50207C16.3074 6.40656 16.4321 6.33037 16.5699 6.27796C16.7077 6.22556 16.856 6.19797 17.006 6.19682C17.156 6.19566 17.3047 6.22096 17.4436 6.27124C17.5824 6.32153 17.7086 6.39578 17.8146 6.48967C17.9207 6.58356 18.0046 6.69522 18.0614 6.81811C18.1182 6.94101 18.1468 7.07269 18.1455 7.20547C18.1442 7.33825 18.113 7.46947 18.0538 7.59147C17.9946 7.71347 17.9085 7.82382 17.8006 7.91607L12.2086 12.8661L17.8006 17.8161C18.0064 18.0047 18.1203 18.2573 18.1177 18.5195C18.1151 18.7817 17.9963 19.0325 17.7869 19.2179C17.5774 19.4033 17.2941 19.5085 16.9979 19.5107C16.7016 19.513 16.4163 19.4122 16.2032 19.2301L9.81246 13.5731Z" fill="black"/>
</g>
<defs>
<clipPath id="clip0_206_862">
<rect width="24" height="27.113" fill="white" transform="matrix(0 1 -1 0 27.5566 0.865967)"/>
</clipPath>
</defs>
</svg>
