<svg width="24" height="28" viewBox="0 0 24 28" fill="none" xmlns="http://www.w3.org/2000/svg">
<g clip-path="url(#clip0_206_1089)">
<path fill-rule="evenodd" clip-rule="evenodd" d="M12.7069 17.8991C12.5193 18.1109 12.265 18.2298 11.9999 18.2298C11.7347 18.2298 11.4804 18.1109 11.2929 17.8991L5.63585 11.5083C5.54034 11.4041 5.46416 11.2795 5.41175 11.1416C5.35934 11.0038 5.33176 10.8556 5.3306 10.7056C5.32945 10.5556 5.35475 10.4068 5.40503 10.268C5.45531 10.1291 5.52957 10.003 5.62346 9.89692C5.71735 9.79085 5.829 9.70697 5.9519 9.65017C6.0748 9.59336 6.20648 9.56478 6.33926 9.56608C6.47204 9.56739 6.60325 9.59855 6.72526 9.65776C6.84726 9.71696 6.95761 9.80303 7.04985 9.91093L11.9999 15.503L16.9499 9.91093C17.1385 9.70514 17.3911 9.59127 17.6533 9.59385C17.9155 9.59642 18.1663 9.71523 18.3517 9.92469C18.5371 10.1341 18.6423 10.4175 18.6445 10.7137C18.6468 11.0099 18.546 11.2953 18.3639 11.5083L12.7069 17.8991Z" fill="black"/>
</g>
<defs>
<clipPath id="clip0_206_1089">
<rect width="24" height="27.113" fill="white" transform="translate(0 0.154785)"/>
</clipPath>
</defs>
</svg>
