<svg width="28" height="25" viewBox="0 0 28 25" fill="none" xmlns="http://www.w3.org/2000/svg">
<path fill-rule="evenodd" clip-rule="evenodd" d="M14.7989 16.2635C14.587 16.451 14.2997 16.5563 14.0002 16.5563C13.7006 16.5563 13.4133 16.451 13.2015 16.2635L6.81071 10.6065C6.70281 10.5142 6.61674 10.4039 6.55754 10.2819C6.49833 10.1599 6.46717 10.0287 6.46586 9.8959C6.46456 9.76312 6.49314 9.63144 6.54995 9.50854C6.60675 9.38565 6.69063 9.27399 6.7967 9.1801C6.90278 9.08621 7.02891 9.01195 7.16775 8.96167C7.30658 8.91139 7.45534 8.88609 7.60534 8.88724C7.75535 8.8884 7.90359 8.91598 8.04141 8.96839C8.17924 9.0208 8.3039 9.09698 8.40811 9.19249L14.0002 14.1425L19.5922 9.19249C19.8053 9.01034 20.0906 8.90954 20.3868 8.91182C20.6831 8.9141 20.9664 9.01927 21.1759 9.20468C21.3853 9.39008 21.5041 9.6409 21.5067 9.90309C21.5093 10.1653 21.3954 10.4179 21.1896 10.6065L14.7989 16.2635Z" fill="black"/>
</svg>
