<svg width="24" height="28" viewBox="0 0 24 28" fill="none" xmlns="http://www.w3.org/2000/svg">
<g clip-path="url(#clip0_163_3147)">
<path fill-rule="evenodd" clip-rule="evenodd" d="M12.7073 18.0539C12.5198 18.2657 12.2655 18.3846 12.0003 18.3846C11.7352 18.3846 11.4809 18.2657 11.2933 18.0539L5.63634 11.6631C5.54083 11.5589 5.46465 11.4342 5.41224 11.2964C5.35983 11.1586 5.33225 11.0104 5.33109 10.8603C5.32994 10.7103 5.35524 10.5616 5.40552 10.4228C5.4558 10.2839 5.53006 10.1578 5.62395 10.0517C5.71784 9.94564 5.82949 9.86175 5.95239 9.80495C6.07529 9.74815 6.20696 9.71956 6.33974 9.72087C6.47252 9.72217 6.60374 9.75334 6.72575 9.81254C6.84775 9.87175 6.9581 9.95781 7.05034 10.0657L12.0003 15.6578L16.9503 10.0657C17.1389 9.85993 17.3915 9.74606 17.6537 9.74863C17.9159 9.75121 18.1668 9.87002 18.3522 10.0795C18.5376 10.2889 18.6427 10.5723 18.645 10.8685C18.6473 11.1647 18.5465 11.4501 18.3643 11.6631L12.7073 18.0539Z" fill="black"/>
</g>
<defs>
<clipPath id="clip0_163_3147">
<rect width="24" height="27.113" fill="white" transform="translate(0 0.30957)"/>
</clipPath>
</defs>
</svg>
