<svg width="24" height="28" viewBox="0 0 24 28" fill="none" xmlns="http://www.w3.org/2000/svg">
<g clip-path="url(#clip0_206_1097)">
<path fill-rule="evenodd" clip-rule="evenodd" d="M12.7069 18.2087C12.5193 18.4204 12.265 18.5394 11.9999 18.5394C11.7347 18.5394 11.4804 18.4204 11.2929 18.2087L5.63585 11.8179C5.54034 11.7137 5.46416 11.589 5.41175 11.4512C5.35934 11.3134 5.33176 11.1651 5.3306 11.0151C5.32945 10.8651 5.35475 10.7164 5.40503 10.5775C5.45531 10.4387 5.52957 10.3126 5.62346 10.2065C5.71735 10.1004 5.829 10.0165 5.9519 9.95974C6.0748 9.90293 6.20648 9.87435 6.33926 9.87565C6.47204 9.87696 6.60325 9.90812 6.72526 9.96733C6.84726 10.0265 6.95761 10.1126 7.04985 10.2205L11.9999 15.8125L16.9499 10.2205C17.1385 10.0147 17.3911 9.90084 17.6533 9.90342C17.9155 9.90599 18.1663 10.0248 18.3517 10.2343C18.5371 10.4437 18.6423 10.7271 18.6445 11.0233C18.6468 11.3195 18.546 11.6048 18.3639 11.8179L12.7069 18.2087Z" fill="black"/>
</g>
<defs>
<clipPath id="clip0_206_1097">
<rect width="24" height="27.113" fill="white" transform="translate(0 0.464355)"/>
</clipPath>
</defs>
</svg>
