<svg width="24" height="28" viewBox="0 0 24 28" fill="none" xmlns="http://www.w3.org/2000/svg">
<g clip-path="url(#clip0_206_858)">
<path fill-rule="evenodd" clip-rule="evenodd" d="M12.7073 17.8992C12.5198 18.111 12.2655 18.23 12.0003 18.23C11.7352 18.23 11.4809 18.111 11.2933 17.8992L5.63634 11.5085C5.54083 11.4042 5.46465 11.2796 5.41224 11.1418C5.35983 11.0039 5.33225 10.8557 5.33109 10.7057C5.32994 10.5557 5.35524 10.4069 5.40552 10.2681C5.4558 10.1293 5.53006 10.0031 5.62395 9.89705C5.71784 9.79097 5.82949 9.70709 5.95239 9.65029C6.07529 9.59348 6.20696 9.5649 6.33974 9.5662C6.47252 9.56751 6.60374 9.59867 6.72575 9.65788C6.84775 9.71709 6.9581 9.80315 7.05034 9.91105L12.0003 15.5031L16.9503 9.91105C17.1389 9.70526 17.3915 9.59139 17.6537 9.59397C17.9159 9.59654 18.1668 9.71535 18.3522 9.92481C18.5376 10.1343 18.6427 10.4176 18.645 10.7138C18.6473 11.01 18.5465 11.2954 18.3643 11.5085L12.7073 17.8992Z" fill="black"/>
</g>
<defs>
<clipPath id="clip0_206_858">
<rect width="24" height="27.113" fill="white" transform="translate(0 0.154785)"/>
</clipPath>
</defs>
</svg>
