<svg width="28" height="25" viewBox="0 0 28 25" fill="none" xmlns="http://www.w3.org/2000/svg">
<path fill-rule="evenodd" clip-rule="evenodd" d="M14.7989 16.2634C14.587 16.4509 14.2997 16.5562 14.0002 16.5562C13.7006 16.5562 13.4133 16.4509 13.2015 16.2634L6.81071 10.6064C6.70281 10.5142 6.61674 10.4038 6.55754 10.2818C6.49833 10.1598 6.46717 10.0286 6.46586 9.89584C6.46456 9.76306 6.49314 9.63138 6.54995 9.50848C6.60675 9.38558 6.69063 9.27393 6.7967 9.18004C6.90278 9.08615 7.02891 9.01189 7.16775 8.96161C7.30658 8.91133 7.45534 8.88603 7.60534 8.88718C7.75535 8.88834 7.90359 8.91592 8.04141 8.96833C8.17924 9.02074 8.3039 9.09692 8.40811 9.19243L14.0002 14.1424L19.5922 9.19243C19.8053 9.01028 20.0906 8.90948 20.3868 8.91176C20.6831 8.91404 20.9664 9.01921 21.1759 9.20462C21.3853 9.39002 21.5041 9.64084 21.5067 9.90303C21.5093 10.1652 21.3954 10.4178 21.1896 10.6064L14.7989 16.2634Z" fill="black"/>
</svg>
