<svg width="24" height="28" viewBox="0 0 24 28" fill="none" xmlns="http://www.w3.org/2000/svg">
<g clip-path="url(#clip0_153_2974)">
<path fill-rule="evenodd" clip-rule="evenodd" d="M12.7073 17.8991C12.5198 18.1109 12.2655 18.2298 12.0003 18.2298C11.7352 18.2298 11.4809 18.1109 11.2933 17.8991L5.63634 11.5083C5.54083 11.4041 5.46465 11.2795 5.41224 11.1416C5.35983 11.0038 5.33225 10.8556 5.33109 10.7056C5.32994 10.5556 5.35524 10.4068 5.40552 10.268C5.4558 10.1291 5.53006 10.003 5.62395 9.89692C5.71784 9.79085 5.82949 9.70697 5.95239 9.65017C6.07529 9.59336 6.20696 9.56478 6.33974 9.56608C6.47252 9.56739 6.60374 9.59855 6.72575 9.65776C6.84775 9.71696 6.9581 9.80303 7.05034 9.91093L12.0003 15.503L16.9503 9.91093C17.1389 9.70514 17.3915 9.59127 17.6537 9.59385C17.9159 9.59642 18.1668 9.71523 18.3522 9.92469C18.5376 10.1341 18.6427 10.4175 18.645 10.7137C18.6473 11.0099 18.5465 11.2953 18.3643 11.5083L12.7073 17.8991Z" fill="black"/>
</g>
<defs>
<clipPath id="clip0_153_2974">
<rect width="24" height="27.113" fill="white" transform="translate(0 0.154785)"/>
</clipPath>
</defs>
</svg>
