<svg width="24" height="28" viewBox="0 0 24 28" fill="none" xmlns="http://www.w3.org/2000/svg">
<g clip-path="url(#clip0_206_1093)">
<path fill-rule="evenodd" clip-rule="evenodd" d="M12.7069 18.0539C12.5193 18.2657 12.265 18.3846 11.9999 18.3846C11.7347 18.3846 11.4804 18.2657 11.2929 18.0539L5.63585 11.6631C5.54034 11.5589 5.46416 11.4342 5.41175 11.2964C5.35934 11.1586 5.33176 11.0104 5.3306 10.8603C5.32945 10.7103 5.35475 10.5616 5.40503 10.4228C5.45531 10.2839 5.52957 10.1578 5.62346 10.0517C5.71735 9.94564 5.829 9.86175 5.9519 9.80495C6.0748 9.74815 6.20648 9.71956 6.33926 9.72087C6.47204 9.72217 6.60325 9.75334 6.72526 9.81254C6.84726 9.87175 6.95761 9.95781 7.04985 10.0657L11.9999 15.6578L16.9499 10.0657C17.1385 9.85993 17.3911 9.74606 17.6533 9.74863C17.9155 9.75121 18.1663 9.87002 18.3517 10.0795C18.5371 10.2889 18.6423 10.5723 18.6445 10.8685C18.6468 11.1647 18.546 11.4501 18.3639 11.6631L12.7069 18.0539Z" fill="black"/>
</g>
<defs>
<clipPath id="clip0_206_1093">
<rect width="24" height="27.113" fill="white" transform="translate(0 0.30957)"/>
</clipPath>
</defs>
</svg>
