<svg width="24" height="28" viewBox="0 0 24 28" fill="none" xmlns="http://www.w3.org/2000/svg">
<g clip-path="url(#clip0_206_866)">
<path fill-rule="evenodd" clip-rule="evenodd" d="M12.7073 17.7444C12.5198 17.9562 12.2655 18.0752 12.0003 18.0752C11.7352 18.0752 11.4809 17.9562 11.2933 17.7444L5.63634 11.3537C5.54083 11.2495 5.46465 11.1248 5.41224 10.987C5.35983 10.8491 5.33225 10.7009 5.33109 10.5509C5.32994 10.4009 5.35524 10.2521 5.40552 10.1133C5.4558 9.97447 5.53006 9.84833 5.62395 9.74226C5.71784 9.63619 5.82949 9.5523 5.95239 9.4955C6.07529 9.4387 6.20696 9.41012 6.33974 9.41142C6.47252 9.41272 6.60374 9.44389 6.72575 9.50309C6.84775 9.5623 6.9581 9.64836 7.05034 9.75626L12.0003 15.3483L16.9503 9.75626C17.1389 9.55048 17.3915 9.43661 17.6537 9.43918C17.9159 9.44176 18.1668 9.56057 18.3522 9.77002C18.5376 9.97948 18.6427 10.2628 18.645 10.559C18.6473 10.8552 18.5465 11.1406 18.3643 11.3537L12.7073 17.7444Z" fill="black"/>
</g>
<defs>
<clipPath id="clip0_206_866">
<rect width="24" height="27.113" fill="white"/>
</clipPath>
</defs>
</svg>
