<svg width="28" height="25" viewBox="0 0 28 25" fill="none" xmlns="http://www.w3.org/2000/svg">
<g clip-path="url(#clip0_163_3151)">
<path fill-rule="evenodd" clip-rule="evenodd" d="M9.81246 12.7279C9.60068 12.5403 9.4817 12.286 9.4817 12.0209C9.4817 11.7557 9.60068 11.5014 9.81246 11.3139L16.2032 5.65685C16.3074 5.56134 16.4321 5.48516 16.5699 5.43275C16.7077 5.38034 16.856 5.35275 17.006 5.3516C17.156 5.35045 17.3047 5.37575 17.4436 5.42603C17.5824 5.47631 17.7086 5.55056 17.8146 5.64446C17.9207 5.73835 18.0046 5.85 18.0614 5.9729C18.1182 6.09579 18.1468 6.22747 18.1455 6.36025C18.1442 6.49303 18.113 6.62425 18.0538 6.74626C17.9946 6.86826 17.9085 6.9786 17.8006 7.07085L12.2086 12.0209L17.8006 16.9709C18.0064 17.1595 18.1203 17.4121 18.1177 17.6743C18.1151 17.9364 17.9963 18.1873 17.7869 18.3727C17.5774 18.5581 17.2941 18.6632 16.9979 18.6655C16.7016 18.6678 16.4163 18.567 16.2032 18.3849L9.81246 12.7279Z" fill="black"/>
</g>
<defs>
<clipPath id="clip0_163_3151">
<rect width="24" height="27.113" fill="white" transform="translate(27.5566 0.020874) rotate(90)"/>
</clipPath>
</defs>
</svg>
