<svg width="49" height="49" viewBox="0 0 49 49" fill="none" xmlns="http://www.w3.org/2000/svg">
<path fill-rule="evenodd" clip-rule="evenodd" d="M30.6253 42.875C30.6253 44.4995 29.98 46.0574 28.8314 47.206C27.6827 48.3547 26.1248 49 24.5003 49C22.8759 49 21.318 48.3547 20.1693 47.206C19.0206 46.0574 18.3753 44.4995 18.3753 42.875C18.3753 41.2505 19.0206 39.6926 20.1693 38.544C21.318 37.3953 22.8759 36.75 24.5003 36.75C26.1248 36.75 27.6827 37.3953 28.8314 38.544C29.98 39.6926 30.6253 41.2505 30.6253 42.875ZM36.0766 15.7994C35.6459 15.3693 35.0621 15.1277 34.4534 15.1277C33.8448 15.1277 33.261 15.3693 32.8303 15.7994L26.7972 21.8326V2.29688C26.7972 1.68771 26.5552 1.10349 26.1245 0.672739C25.6937 0.241991 25.1095 0 24.5003 0C23.8912 0 23.3069 0.241991 22.8762 0.672739C22.4454 1.10349 22.2034 1.68771 22.2034 2.29688V21.8326L16.1703 15.7994C15.7349 15.3937 15.159 15.1728 14.564 15.1833C13.9689 15.1938 13.4012 15.4349 12.9804 15.8557C12.5595 16.2765 12.3185 16.8443 12.308 17.4393C12.2975 18.0344 12.5184 18.6103 12.9241 19.0457L22.8772 28.9988L24.5003 30.625L26.1234 29.0019L36.0766 19.0487C36.29 18.8354 36.4593 18.5822 36.5749 18.3034C36.6904 18.0246 36.7498 17.7258 36.7498 17.4241C36.7498 17.1223 36.6904 16.8235 36.5749 16.5448C36.4593 16.266 36.29 16.0127 36.0766 15.7994Z" fill="black"/>
</svg>
