<svg width="30" height="30" viewBox="0 0 30 30" fill="none" xmlns="http://www.w3.org/2000/svg">
<path d="M14.008 1.77582C14.1566 0.611212 15.8434 0.611209 15.992 1.77582L17.278 11.8566C17.3356 12.3085 17.6915 12.6644 18.1434 12.722L28.2242 14.008C29.3888 14.1566 29.3888 15.8434 28.2242 15.992L18.1434 17.278C17.6915 17.3356 17.3356 17.6915 17.278 18.1434L15.992 28.2242C15.8434 29.3888 14.1566 29.3888 14.008 28.2242L12.722 18.1434C12.6644 17.6915 12.3085 17.3356 11.8566 17.278L1.77582 15.992C0.611212 15.8434 0.611209 14.1566 1.77582 14.008L11.8566 12.722C12.3085 12.6644 12.6644 12.3085 12.722 11.8566L14.008 1.77582Z" fill="black"/>
</svg>
