<svg width="494" height="729" viewBox="0 0 494 729" fill="none" xmlns="http://www.w3.org/2000/svg">
<path fill-rule="evenodd" clip-rule="evenodd" d="M20 0H68.0372V10H20C14.4771 10 10 14.4771 10 20V63.0935H0V20C0 8.95429 8.9543 0 20 0ZM0 655.578H10V709C10 714.523 14.4772 719 20 719H68.0372V729H20C8.95432 729 0 720.046 0 709V655.578ZM423.32 729H474C485.046 729 494 720.046 494 709V655.578H484V709C484 714.523 479.523 719 474 719H423.32V729ZM484 63.0935V20C484 14.4772 479.523 10 474 10H423.32V0H474C485.046 0 494 8.95431 494 20V63.0935H484Z" fill="white"/>
</svg>
