<svg width="63" height="44" viewBox="0 0 63 44" fill="none" xmlns="http://www.w3.org/2000/svg">
<path d="M2.32662 0.322738C2.57361 0.323359 2.57361 0.323359 2.82559 0.323992C2.99913 0.323703 3.17267 0.323413 3.35146 0.323115C3.93765 0.32237 4.52383 0.322963 5.11002 0.323545C5.52837 0.323293 5.94671 0.322963 6.36505 0.322559C7.50475 0.32171 8.64445 0.322043 9.78415 0.32263C10.974 0.323098 12.1638 0.322664 13.3536 0.322373C15.4803 0.322013 17.6069 0.322591 19.7336 0.323534C21.6638 0.324363 23.5939 0.324219 25.5241 0.323363C27.7629 0.322372 30.0017 0.322 32.2405 0.322549C33.4266 0.322839 34.6126 0.322875 35.7987 0.322264C36.9135 0.32173 38.0283 0.322096 39.1431 0.323172C39.5535 0.323419 39.9639 0.323345 40.3743 0.322938C40.9321 0.322435 41.4898 0.323062 42.0475 0.323992C42.2122 0.323578 42.3768 0.323164 42.5465 0.322738C43.6605 0.326373 43.6605 0.326373 43.8672 0.5331C43.8862 0.882888 43.8924 1.23338 43.8935 1.58369C43.8955 1.92106 43.8955 1.92106 43.8975 2.26524C43.898 2.44686 43.898 2.44686 43.8985 2.63215C43.8998 3.01144 43.9027 3.39068 43.9062 3.76996C43.9159 4.8487 43.9248 5.92743 43.9277 7.00622C43.9296 7.66577 43.935 8.32521 43.9428 8.98472C43.9461 9.356 43.9457 9.72731 43.9451 10.0986C43.9626 11.4069 44.0156 12.6068 44.795 13.7069C45.2178 14.0453 45.5914 14.2258 46.0938 14.4491C46.2162 14.5103 46.3387 14.5716 46.4649 14.6347C47.9226 14.8471 49.183 14.5286 50.5585 14.0896C53.1036 13.2804 55.2995 13.0268 57.8064 14.1824C59.9757 15.3563 61.6492 17.1303 62.4103 19.5053C62.9236 21.7572 62.7682 24.1329 61.6399 26.1755C61.3678 26.5643 61.0743 26.9034 60.752 27.2518C60.5274 27.5048 60.5274 27.5048 60.2983 27.7628C58.6522 29.5552 56.8841 30.4078 54.4434 30.5917C53.0152 30.6443 51.791 30.2879 50.4541 29.8379C48.821 29.2916 47.2908 28.8875 45.6299 29.5828C44.7175 30.1139 44.3801 30.9086 44.0528 31.8905C44.033 32.2442 44.0238 32.5985 44.0206 32.9527C44.0168 33.2796 44.0168 33.2796 44.013 33.6132C44.011 33.8486 44.0091 34.084 44.0071 34.3265C44.0026 34.6952 43.998 35.0638 43.9933 35.4324C43.982 36.3427 43.9726 37.2529 43.9643 38.1632C43.9595 38.674 43.9538 39.1848 43.9471 39.6957C43.9408 40.1774 43.936 40.6592 43.9328 41.1409C43.9282 41.467 43.9282 41.467 43.9234 41.7996C43.9215 41.9915 43.9196 42.1835 43.9176 42.3813C43.8672 42.8378 43.8672 42.8378 43.4961 43.2089C43.1453 43.256 43.1453 43.256 42.7134 43.2569C42.5518 43.2581 42.3901 43.2592 42.2236 43.2604C42.0487 43.2597 41.8738 43.2589 41.6936 43.2582C41.5142 43.2585 41.3348 43.2589 41.15 43.2592C40.7702 43.2595 40.3904 43.2588 40.0106 43.2573C39.4287 43.2553 38.8469 43.2572 38.2649 43.2596C37.8964 43.2594 37.5278 43.2589 37.1593 43.2582C36.9847 43.2589 36.8102 43.2597 36.6303 43.2604C36.387 43.2587 36.387 43.2587 36.1388 43.2569C35.9248 43.2565 35.9248 43.2565 35.7064 43.256C35.3321 43.2089 35.3321 43.2089 34.7754 42.8378C34.8558 42.6197 34.9361 42.4015 35.019 42.1768C36.3056 38.2678 36.1749 34.491 34.4043 30.7772C32.7165 27.6184 30.1533 25.3753 26.7157 24.3063C22.946 23.1692 19.2269 23.5365 15.7424 25.3891C12.5507 27.291 10.4407 30.0553 9.45986 33.6764C8.84585 36.2259 9.00345 38.7819 9.73166 41.2824C9.89851 41.8627 10.011 42.4265 10.0977 43.0233C9.2107 43.251 8.34371 43.2357 7.43479 43.2335C7.18546 43.2338 7.18546 43.2338 6.93109 43.2341C6.58083 43.2342 6.23056 43.2338 5.8803 43.2331C5.34364 43.2321 4.80701 43.2331 4.27035 43.2342C3.9297 43.2341 3.58904 43.2339 3.24839 43.2335C3.08777 43.2339 2.92715 43.2343 2.76167 43.2347C2.6124 43.2341 2.46313 43.2335 2.30933 43.2329C2.11267 43.2327 2.11267 43.2327 1.91203 43.2324C1.56252 43.2089 1.56252 43.2089 1.00588 43.0233C1.00166 37.6135 0.99837 32.2036 0.996409 26.7938C0.996177 26.1558 0.995937 25.5178 0.995692 24.8797C0.995643 24.7527 0.995594 24.6257 0.995544 24.4948C0.994736 22.4354 0.993272 20.376 0.991569 18.3166C0.989836 16.205 0.988817 14.0934 0.988426 11.9818C0.988184 10.7951 0.987611 9.60843 0.986266 8.42174C0.985013 7.30619 0.984617 6.19065 0.984897 5.07511C0.984846 4.66438 0.984474 4.25365 0.983766 3.84292C0.982851 3.28478 0.983062 2.72665 0.983571 2.16851C0.983031 2.00372 0.98249 1.83893 0.981934 1.66915C0.985208 0.353938 1.01136 0.32703 2.32662 0.322738Z" fill="#8AE1D8"/>
</svg>
