<svg width="1" height="4" viewBox="0 0 1 4" fill="none" xmlns="http://www.w3.org/2000/svg">
<path d="M0.5 0.107422C0.622461 0.107422 0.744922 0.107422 0.871094 0.107422C0.876094 0.652477 0.87978 1.19749 0.88269 1.74255C0.884245 1.89718 0.8858 2.05182 0.887402 2.21113C0.888 2.36002 0.888597 2.50891 0.889214 2.66232C0.890185 2.79932 0.891157 2.93633 0.892158 3.07749C0.871094 3.44727 0.871094 3.44727 0.685547 4.00391C0.563086 4.00391 0.440625 4.00391 0.314453 4.00391C0.327847 3.81591 0.341241 3.62791 0.355042 3.43422C0.372457 3.18344 0.38985 2.93266 0.407227 2.68188C0.416076 2.55847 0.424926 2.43505 0.434044 2.30789C0.484491 1.57281 0.509181 0.844157 0.5 0.107422Z" fill="#8AE1D8"/>
</svg>
