<svg width="6" height="12" viewBox="0 0 6 12" fill="none" xmlns="http://www.w3.org/2000/svg">
<path d="M4.76947 0.3125C4.89193 0.37373 5.01439 0.434961 5.14057 0.498047C5.14916 1.87059 5.15575 3.24314 5.15979 4.6157C5.16173 5.25301 5.16436 5.8903 5.16856 6.5276C5.17336 7.25987 5.17516 7.99215 5.17681 8.72444C5.17872 8.95387 5.18064 9.18329 5.18261 9.41967C5.18264 9.63138 5.18267 9.8431 5.18269 10.0612C5.18352 10.2483 5.18434 10.4354 5.18519 10.6281C5.14057 11.0742 5.14057 11.0742 4.76947 11.4453C4.35557 11.4904 4.35557 11.4904 3.84681 11.4881C3.57361 11.4875 3.57361 11.4875 3.29488 11.487C3.10413 11.4847 2.91339 11.4824 2.71686 11.4801C2.5254 11.48 2.33393 11.4799 2.13666 11.4797C0.713447 11.4713 0.713447 11.4713 0.501894 11.2598C0.494322 10.8887 0.494 10.5175 0.501894 10.1465C0.563124 10.1465 0.624355 10.1465 0.687441 10.1465C0.687441 10.4526 0.687441 10.7588 0.687441 11.0742C2.6162 10.9824 2.6162 10.9824 4.58393 10.8887C4.64516 7.39853 4.70639 3.9084 4.76947 0.3125Z" fill="#8AE1D8"/>
</svg>
