<svg width="24" height="29" viewBox="0 0 24 29" fill="none" xmlns="http://www.w3.org/2000/svg">
<path d="M18.8176 0.588615C19.0589 0.588376 19.3002 0.588137 19.5489 0.587891C19.7384 0.588474 19.7384 0.588474 19.9317 0.589068C20.3177 0.590061 20.7037 0.589078 21.0898 0.587891C21.4518 0.588249 21.4518 0.588249 21.8211 0.588615C22.0444 0.588825 22.2677 0.589034 22.4977 0.58925C23.0098 0.613258 23.0098 0.613258 23.1953 0.798805C23.214 1.15017 23.2196 1.50224 23.2201 1.8541C23.2213 2.19793 23.2213 2.19793 23.2225 2.5487C23.2225 2.80506 23.2224 3.06142 23.2223 3.31778C23.2228 3.58592 23.2234 3.85407 23.2242 4.12221C23.2258 4.85251 23.2262 5.5828 23.2263 6.31309C23.2265 6.92178 23.2272 7.53046 23.2279 8.13915C23.2294 9.57467 23.2298 11.0102 23.2297 12.4457C23.2296 13.9288 23.2315 15.4118 23.2345 16.8949C23.2369 18.1662 23.2379 19.4375 23.2378 20.7088C23.2377 21.469 23.2383 22.2292 23.2402 22.9893C23.242 23.7041 23.242 24.4188 23.2407 25.1335C23.2405 25.3963 23.2409 25.6592 23.242 25.922C23.2435 26.2798 23.2424 26.6376 23.2412 26.9953C23.2413 27.1959 23.2414 27.3964 23.2415 27.6031C23.1953 28.0742 23.1953 28.0742 22.8242 28.4453C22.4133 28.4933 22.4133 28.4933 21.9081 28.4946C21.7268 28.4951 21.5455 28.4955 21.3587 28.496C21.1688 28.4946 20.9789 28.4932 20.7832 28.4917C20.5933 28.4931 20.4034 28.4945 20.2077 28.496C20.0264 28.4955 19.8451 28.4951 19.6583 28.4946C19.4916 28.4942 19.3249 28.4937 19.1531 28.4933C18.7422 28.4453 18.7422 28.4453 18.3711 28.0742C18.3256 27.623 18.3018 27.1912 18.2943 26.7391C18.2907 26.6079 18.2871 26.4766 18.2834 26.3414C18.2723 25.9217 18.2637 25.502 18.2551 25.0823C18.248 24.7979 18.2408 24.5135 18.2334 24.2292C18.2156 23.5317 18.2 22.8342 18.1855 22.1367C17.0374 22.0535 15.891 21.9933 14.7405 21.9532C14.3504 21.9365 13.9606 21.9138 13.5712 21.8847C11.3927 21.6653 11.3927 21.6653 9.44615 22.4514C8.75863 23.2354 8.27777 24.112 7.82553 25.0467C7.48781 25.7183 7.07306 26.3352 6.65845 26.9609C6.52785 27.1676 6.39726 27.3742 6.26271 27.5871C5.93945 28.0742 5.93945 28.0742 5.56836 28.4453C5.06635 28.4874 5.06635 28.4874 4.43623 28.4815C4.09899 28.4797 4.09899 28.4797 3.75493 28.4779C3.5191 28.4748 3.28326 28.4717 3.04028 28.4685C2.80301 28.4668 2.56575 28.4651 2.32129 28.4634C1.73369 28.459 1.14616 28.4529 0.558594 28.4453C0.433386 28.1323 0.433386 28.1323 0.373047 27.7031C0.575083 27.2631 0.575083 27.2631 0.891998 26.7739C1.06553 26.5018 1.06553 26.5018 1.24257 26.2243C1.36893 26.0311 1.4953 25.8379 1.62549 25.6389C1.88489 25.2341 2.14412 24.8292 2.40319 24.4241C2.59625 24.1244 2.59625 24.1244 2.79322 23.8186C3.2794 23.0571 3.74616 22.2848 4.21155 21.5105C4.98125 20.2395 5.78975 18.9979 6.62198 17.767C7.78633 16.0444 8.87899 14.2805 9.9519 12.4999C11.0863 10.6263 12.265 8.78576 13.4674 6.95537C13.8454 6.37826 14.2184 5.79801 14.5906 5.21714C15.2313 4.21918 15.8726 3.22168 16.5156 2.2252C16.6497 2.01686 16.6497 2.01686 16.7864 1.80432C17.5708 0.589784 17.5708 0.589784 18.8176 0.588615ZM18.1855 8.59177C17.9661 8.89929 17.7558 9.2134 17.5492 9.52966C17.4177 9.73043 17.2863 9.93121 17.1509 10.1381C17.0086 10.357 16.8665 10.5761 16.7244 10.7951C16.618 10.9587 16.618 10.9587 16.5094 11.1255C15.5982 12.5265 14.6934 13.9316 13.8136 15.3526C13.7286 15.4883 13.6436 15.624 13.556 15.7639C13.1044 16.4845 13.1044 16.4845 12.9902 17.3125C14.7659 17.3125 16.5416 17.3125 18.3711 17.3125C18.3711 14.4346 18.3711 11.5568 18.3711 8.59177C18.3099 8.59177 18.2486 8.59177 18.1855 8.59177Z" fill="#8AE1D8"/>
</svg>
