<svg width="62" height="44" viewBox="0 0 62 44" fill="none" xmlns="http://www.w3.org/2000/svg">
<path d="M54.105 0.915792C54.2721 0.919521 54.4392 0.92325 54.6114 0.927092C54.7912 0.932108 54.971 0.937124 55.1562 0.942293C55.433 0.948864 55.433 0.948864 55.7154 0.955568C56.3053 0.969785 56.8951 0.985377 57.4849 1.001C57.8846 1.01088 58.2844 1.02066 58.6841 1.03035C59.6644 1.05432 60.6447 1.07942 61.6249 1.10537C61.6528 6.46162 61.6797 11.8179 61.7053 17.1741C61.7084 17.8061 61.7114 18.4381 61.7144 19.07C61.715 19.1958 61.7156 19.3217 61.7162 19.4513C61.726 21.4901 61.7365 23.5288 61.7472 25.5676C61.7582 27.6586 61.7684 29.7497 61.778 31.8407C61.7834 33.0156 61.7892 34.1905 61.7957 35.3654C61.8019 36.4702 61.8072 37.5751 61.8117 38.68C61.8136 39.0864 61.8157 39.4928 61.8183 39.8992C61.8216 40.4523 61.8238 41.0054 61.8258 41.5586C61.827 41.7208 61.8283 41.8831 61.8296 42.0503C61.8308 42.6748 61.8239 43.1843 61.6249 43.7812C47.5419 43.7812 33.4589 43.7812 18.9492 43.7812C18.8879 40.1073 18.8267 36.4335 18.7636 32.6483C18.3478 30.9276 18.3478 30.9276 17.2792 29.8651C15.6499 29.0875 13.9148 29.5433 12.2695 30.0507C11.9402 30.1844 11.6117 30.3197 11.2838 30.4566C9.26646 31.2094 7.14521 30.9232 5.21869 30.0507C2.84218 28.8815 1.59364 27.2847 0.61481 24.8517C-0.039263 22.7669 0.265633 20.1781 1.19029 18.2279C2.37661 16.1217 4.04567 14.8763 6.34357 14.1284C8.59833 13.5373 10.5517 13.7763 12.7101 14.6851C14.0614 15.2023 15.805 15.362 17.1814 14.8511C17.9013 14.3788 18.2863 13.7745 18.5781 12.9804C18.7249 12.2381 18.7893 11.5287 18.7988 10.7728C18.8019 10.5617 18.805 10.3507 18.8082 10.1332C18.8107 9.9082 18.8132 9.68319 18.8158 9.45136C18.8192 9.21862 18.8226 8.98589 18.8261 8.7461C18.8389 7.87791 18.8502 7.0097 18.8612 6.14148C18.8722 5.28878 18.8844 4.43611 18.897 3.58344C18.8995 3.35655 18.902 3.12965 18.9046 2.89589C18.9077 2.68775 18.9108 2.47962 18.914 2.26517C18.9175 1.989 18.9175 1.989 18.9211 1.70725C18.9492 1.29092 18.9492 1.29092 19.1347 1.10537C19.4081 1.08811 19.6824 1.08358 19.9563 1.08431C20.1309 1.08432 20.3055 1.08433 20.4853 1.08435C20.6751 1.08531 20.8649 1.08626 21.0605 1.08725C21.2538 1.08751 21.4471 1.08778 21.6462 1.08805C22.2664 1.08909 22.8865 1.09142 23.5067 1.09377C23.9259 1.0947 24.3452 1.09555 24.7645 1.09631C25.7948 1.09836 26.8251 1.10147 27.8554 1.10537C28.0951 1.82459 27.9296 2.1319 27.6931 2.84487C26.5918 6.19473 26.7769 10.0461 28.3316 13.2246C30.2473 16.8106 33.104 18.9843 36.9472 20.2167C40.6583 21.0899 44.2491 20.4416 47.5466 18.5932C50.5452 16.7046 52.5904 13.731 53.4365 10.3015C53.9546 7.8552 54.0391 4.65704 52.8868 2.37303C52.6704 1.93556 52.692 1.58667 52.7187 1.10537C53.2518 0.927671 53.5545 0.901914 54.105 0.915792Z" fill="#8AE1D8"/>
</svg>
