<svg width="61" height="62" viewBox="0 0 61 62" fill="none" xmlns="http://www.w3.org/2000/svg">
<path d="M29.9961 0C30.7585 0.259825 31.3006 0.849733 31.8748 1.3916C31.9809 1.4908 32.087 1.59 32.1963 1.69221C33.3727 2.79744 34.5513 3.90595 35.5973 5.13733C36.9865 6.75797 38.5438 8.283 40.1722 9.66148C41.5689 10.9114 42.8918 12.2665 44.1042 13.695C45.2558 14.9793 46.4932 16.2321 47.8086 17.3486C49.3522 18.6588 50.7856 20.1437 52.0951 21.6858C53.1759 22.8956 54.3401 24.0698 55.5784 25.1184C56.7246 26.0903 57.7614 27.1898 58.8142 28.2606C59.0916 28.5387 59.3773 28.8087 59.6641 29.0772C60.0614 29.5092 60.1864 29.6734 60.2403 30.2441C60.0456 30.5692 60.0456 30.5692 59.7293 30.9044C59.6087 31.0336 59.4881 31.1627 59.3639 31.2957C59.2245 31.4385 59.0851 31.5814 58.9414 31.7285C58.7874 31.8874 58.6334 32.0462 58.4748 32.2099C58.0461 32.6471 57.6149 33.0812 57.181 33.5132C56.9124 33.7807 56.6449 34.0492 56.3775 34.3178C55.5024 35.1934 54.6127 36.0375 53.6731 36.8435C52.7638 37.6546 51.9787 38.7178 51.8443 39.9448C51.7822 41.2337 52.0403 41.9805 52.867 42.9505C53.6008 43.6689 54.4654 44.0621 55.3813 44.4965C57.7769 45.6398 59.5158 47.3465 60.47 49.8389C61.1604 52.009 60.9445 54.3346 60.0547 56.4062C58.9191 58.5532 57.2213 60.0013 54.9174 60.7318C52.7125 61.3107 50.4528 61.2548 48.3877 60.2208C46.2863 58.9611 45.1061 57.4973 44.0977 55.293C43.8615 54.8522 43.617 54.4173 43.37 53.9825C43.2308 53.7323 43.1009 53.4768 42.9786 53.2179C42.7401 52.7706 42.5213 52.7034 42.0567 52.5098C41.8883 52.4103 41.7199 52.3108 41.5464 52.2083C40.6946 51.8479 39.9673 51.7931 39.093 52.0684C37.7442 52.6717 36.6897 53.7257 35.7387 54.8327C34.9097 55.7893 34.0267 56.6911 33.1356 57.5892C32.943 57.7839 32.7512 57.9795 32.5603 58.1759C32.2809 58.4631 31.9992 58.7479 31.7168 59.0322C31.5511 59.2005 31.3855 59.3689 31.2148 59.5424C30.7135 59.9519 30.4556 60.1107 29.8106 60.1172C29.4662 59.9213 29.4662 59.9213 29.1365 59.604C29.0092 59.4836 28.8819 59.3632 28.7508 59.2391C28.5406 59.0308 28.5406 59.0308 28.3262 58.8184C28.1684 58.6652 28.0106 58.512 27.848 58.3541C27.3308 57.8479 26.8191 57.3366 26.3084 56.8237C26.1306 56.6466 25.9528 56.4695 25.7749 56.2925C25.607 56.1243 25.4391 55.9562 25.2661 55.7829C25.1143 55.6309 24.9624 55.4788 24.806 55.3221C24.2326 54.7121 24.0586 54.4816 24.0586 53.623C24.2316 53.5396 24.4045 53.4561 24.5827 53.3701C27.9574 51.6887 30.7807 49.2086 32.0785 45.5641C33.1884 41.8047 32.965 37.9455 31.179 34.4189C29.2881 31.1417 26.4273 28.8913 22.783 27.8668C19.1684 27.0689 15.5262 27.5157 12.3054 29.3621C9.87748 30.9652 7.66341 33.4499 6.61722 36.1816C6.23512 36.2557 6.23512 36.2557 5.68949 36.1816C5.20217 35.8399 4.79788 35.4199 4.38124 34.9966C4.259 34.8753 4.13676 34.7539 4.01081 34.6289C3.75316 34.3718 3.49667 34.1136 3.24127 33.8544C2.84972 33.4579 2.45346 33.0665 2.05646 32.6755C1.80672 32.4251 1.55726 32.1744 1.30812 31.9235C1.18927 31.8065 1.07042 31.6895 0.947971 31.569C0.785297 31.402 0.785297 31.402 0.619337 31.2315C0.523249 31.1347 0.42716 31.0379 0.32816 30.9381C0.0437126 30.4903 0.0507273 30.2086 0.123081 29.6875C0.345547 29.3522 0.345547 29.3522 0.661602 29.0407C0.838297 28.8632 0.838297 28.8632 1.01856 28.6821C1.14784 28.5571 1.27712 28.432 1.41031 28.3031C1.5427 28.1716 1.67509 28.0401 1.81148 27.9046C2.23614 27.4839 2.66396 27.0666 3.09183 26.6492C3.37446 26.3696 3.65689 26.0898 3.93911 25.8099C5.06661 24.6959 6.1917 23.5926 7.39711 22.5624C7.96563 22.0563 8.47093 21.4942 8.98294 20.932C10.1141 19.7086 11.273 18.516 12.4504 17.337C12.604 17.1826 12.7576 17.0282 12.9159 16.869C13.593 16.1935 14.2736 15.5336 14.9994 14.9104C15.7064 14.302 16.334 13.6424 16.9615 12.9535C18.0926 11.7301 19.2515 10.5375 20.4289 9.35852C20.5825 9.20408 20.7361 9.04965 20.8944 8.89053C21.5708 8.2157 22.2506 7.55643 22.9758 6.93409C23.6957 6.31453 24.3352 5.64123 24.9748 4.94019C26.0282 3.80134 27.1025 2.68661 28.1986 1.58875C28.3351 1.45148 28.4715 1.31422 28.6121 1.1728C28.8024 0.982969 28.8024 0.982969 28.9966 0.789299C29.1091 0.677018 29.2216 0.564737 29.3375 0.449054C29.625 0.185547 29.625 0.185547 29.9961 0Z" fill="#8AE1D8"/>
</svg>
