<svg width="13" height="15" viewBox="0 0 13 15" fill="none" xmlns="http://www.w3.org/2000/svg">
<path d="M4.47406 0.083252C4.62198 0.083664 4.7699 0.084076 4.9223 0.0845005C5.08945 0.0845145 5.2566 0.0845286 5.42882 0.084543C5.6105 0.0855006 5.79218 0.0864583 5.97936 0.087445C6.16443 0.0877075 6.34949 0.0879701 6.54017 0.0882406C7.13384 0.0892829 7.7275 0.0916125 8.32117 0.0939681C8.72258 0.0948982 9.12399 0.0957449 9.52541 0.0965049C10.5117 0.0985556 11.4981 0.101664 12.4844 0.105565C12.4844 0.166795 12.4844 0.228026 12.4844 0.291112C9.79023 0.352342 7.09609 0.413573 4.32031 0.476659C4.32462 1.11623 4.32892 1.7558 4.33336 2.41475C4.33626 3.04239 4.33851 3.67003 4.3407 4.29767C4.34255 4.7299 4.34507 5.16211 4.34831 5.59433C4.39807 12.4181 4.39807 12.4181 3.09324 13.7766C2.36654 14.2878 1.90128 14.505 0.980469 14.3927C1.07614 14.3506 1.17181 14.3085 1.27039 14.2651C2.35235 13.6825 3.13749 13.1801 3.57812 11.9806C3.72499 11.2383 3.78932 10.5289 3.79882 9.77298C3.80193 9.56192 3.80503 9.35086 3.80822 9.13341C3.81074 8.90839 3.81326 8.68338 3.81586 8.45155C3.81927 8.21882 3.82269 7.98608 3.82621 7.7463C3.83894 6.8781 3.85022 6.00989 3.86128 5.14167C3.87221 4.28898 3.88447 3.4363 3.89703 2.58363C3.89955 2.35674 3.90207 2.12985 3.90467 1.89608C3.90777 1.68795 3.91087 1.47981 3.91407 1.26537C3.91639 1.08125 3.91872 0.897139 3.92111 0.707445C3.95546 0.198633 3.96431 0.116774 4.47406 0.083252Z" fill="#8AE1D8"/>
</svg>
