<svg width="6" height="7" viewBox="0 0 6 7" fill="none" xmlns="http://www.w3.org/2000/svg">
<path d="M0.123138 0.6875C0.184369 0.871191 0.245599 1.05488 0.308685 1.24414C0.431146 1.24414 0.553607 1.24414 0.679779 1.24414C0.86347 1.51968 0.86347 1.51968 1.05087 1.80078C1.35606 2.11516 1.66544 2.42225 1.97861 2.72852C2.23906 2.98846 2.49924 3.24869 2.75921 3.50912C2.89853 3.64844 3.03786 3.78776 3.1814 3.93131C3.8319 4.58181 4.4824 5.23231 5.1329 5.88281C4.94921 5.94404 4.76552 6.00527 4.57626 6.06836C3.9391 5.45414 3.30505 4.83692 2.67368 4.21674C2.45852 4.00624 2.24254 3.79659 2.02572 3.5878C1.71402 3.28736 1.40542 2.98402 1.09726 2.67995C0.95115 2.54103 0.95115 2.54103 0.802088 2.39929C0.362868 1.96042 0.134298 1.71246 0.0622559 1.08482C0.0823471 0.953706 0.102438 0.82259 0.123138 0.6875Z" fill="#8AE1D8"/>
</svg>
