<svg width="5" height="7" viewBox="0 0 5 7" fill="none" xmlns="http://www.w3.org/2000/svg">
<path d="M0.507812 0.580078C1.19749 0.80997 1.25736 1.00544 1.6095 1.62378C1.70541 1.79073 1.80132 1.95768 1.90014 2.12968C1.99175 2.29185 2.08335 2.45401 2.17773 2.62109C2.25595 2.75264 2.33416 2.88419 2.41474 3.01973C2.91992 3.87188 2.91992 3.87188 2.91992 4.29102C3.04238 4.29102 3.16484 4.29102 3.29102 4.29102C3.34459 4.4594 3.39817 4.62778 3.45337 4.80127C3.61856 5.2785 3.79476 5.70367 4.0332 6.14648C3.32572 5.91066 3.26955 5.68991 2.91412 5.04842C2.75734 4.76804 2.75734 4.76804 2.59739 4.482C2.43558 4.18655 2.43558 4.18655 2.27051 3.88513C2.16264 3.69175 2.05477 3.49838 1.94363 3.29914C1.44499 2.4017 0.962833 1.50055 0.507812 0.580078Z" fill="#8AE1D8"/>
</svg>
