<svg width="5" height="2" viewBox="0 0 5 2" fill="none" xmlns="http://www.w3.org/2000/svg">
<path d="M0.0332031 0.332031C0.216895 0.332031 0.400586 0.332031 0.589844 0.332031C0.651074 0.515723 0.712305 0.699414 0.775391 0.888672C2.12246 0.949902 3.46953 1.01113 4.85742 1.07422C4.79619 1.19668 4.73496 1.31914 4.67188 1.44531C4.00316 1.46146 3.3345 1.47136 2.66565 1.4801C2.3806 1.4871 2.3806 1.4871 2.0898 1.49424C1.81624 1.49693 1.81624 1.49693 1.53715 1.49967C1.36905 1.50259 1.20095 1.5055 1.02775 1.50851C0.589844 1.44531 0.589844 1.44531 0.252317 1.19838C0.0332031 0.888672 0.0332031 0.888672 0.0332031 0.332031Z" fill="#8AE1D8"/>
</svg>
