<svg width="5" height="5" viewBox="0 0 5 5" fill="none" xmlns="http://www.w3.org/2000/svg">
<path d="M0.357422 0.292969C0.418652 0.41543 0.479883 0.537891 0.542969 0.664062C0.696523 0.732947 0.696523 0.732947 0.85318 0.803223C1.48844 1.1443 1.94156 1.63794 2.44482 2.14844C2.54767 2.24985 2.65052 2.35126 2.75648 2.45575C3.51172 3.2147 3.51172 3.2147 3.51172 3.63281C3.6227 3.68256 3.73368 3.73231 3.84802 3.78357C4.25362 4.00375 4.51614 4.20726 4.81055 4.56055C4.81055 4.68301 4.81055 4.80547 4.81055 4.93164C3.72879 4.47346 2.98174 3.53476 2.1665 2.71667C1.99286 2.54602 1.81921 2.37536 1.6403 2.19954C1.47623 2.03558 1.31215 1.87162 1.1431 1.70269C0.992353 1.5525 0.841609 1.40231 0.686296 1.24757C0.357422 0.849609 0.357422 0.849609 0.357422 0.292969Z" fill="#8AE1D8"/>
</svg>
