<svg width="44" height="43" viewBox="0 0 44 43" fill="none" xmlns="http://www.w3.org/2000/svg">
<path d="M43.4394 0.476562C43.5007 0.476562 43.5619 0.476562 43.625 0.476562C43.6529 5.78554 43.6798 11.0945 43.7054 16.4035C43.7084 17.0299 43.7114 17.6563 43.7145 18.2827C43.7154 18.4697 43.7154 18.4697 43.7163 18.6606C43.7261 20.6813 43.7366 22.7021 43.7473 24.7229C43.7582 26.7954 43.7685 28.868 43.7781 30.9406C43.7835 32.1052 43.7893 33.2697 43.7958 34.4342C43.8019 35.5293 43.8072 36.6245 43.8118 37.7196C43.8136 38.1224 43.8158 38.5252 43.8183 38.928C43.8217 39.4762 43.8239 40.0245 43.8258 40.5728C43.8271 40.7336 43.8283 40.8944 43.8296 41.0601C43.8308 41.6817 43.823 42.1872 43.625 42.7812C29.542 42.7812 15.459 42.7812 0.949219 42.7812C0.887988 39.1074 0.826758 35.4336 0.763672 31.6484C0.702441 31.1586 0.641211 30.6688 0.578125 30.1641C0.974908 30.4746 1.12257 30.6715 1.24493 31.1654C1.35066 32.1031 1.33925 33.0307 1.33191 33.9736C1.33121 34.1794 1.3305 34.3852 1.32978 34.5973C1.32675 35.4752 1.32153 36.3531 1.31651 37.2311C1.31315 37.8731 1.31091 38.5152 1.30872 39.1573C1.30718 39.355 1.30564 39.5528 1.30405 39.7565C1.30313 40.0352 1.30313 40.0352 1.30219 40.3195C1.30074 40.5629 1.30074 40.5629 1.29925 40.8112C1.31515 41.4049 1.31515 41.4049 1.50586 42.4102C15.3439 42.4714 29.182 42.5326 43.4394 42.5957C43.4394 28.6964 43.4394 14.7971 43.4394 0.476562Z" fill="#8AE1D8"/>
</svg>
