<svg width="22" height="29" viewBox="0 0 22 29" fill="none" xmlns="http://www.w3.org/2000/svg">
<path d="M3.09135 0.497334C3.40671 0.481189 3.40671 0.481189 3.72844 0.464718C5.23337 0.441783 5.23337 0.441783 5.81689 0.889175C6.11652 1.27625 6.34346 1.66413 6.57035 2.09768C6.65368 2.23679 6.737 2.3759 6.82285 2.51923C7.09197 2.96928 7.34783 3.42517 7.60246 3.88356C7.79694 4.22846 7.99167 4.57322 8.18664 4.91784C8.28656 5.09469 8.38648 5.27153 8.48942 5.45374C9.63442 7.46608 10.7984 9.47256 12.0672 11.4098C12.8114 12.548 13.4941 13.7161 14.1652 14.8987C14.8136 16.0363 15.5086 17.1403 16.2188 18.2403C16.2512 16.7907 16.2817 15.3411 16.3116 13.8915C16.3161 13.6752 16.3206 13.4589 16.3252 13.236C16.3729 10.914 16.4129 8.5929 16.4036 6.27031C16.403 6.09295 16.4023 5.91559 16.4016 5.73286C16.3979 4.89955 16.3912 4.06637 16.3811 3.23311C16.3789 2.93726 16.3768 2.64141 16.3746 2.34555C16.3721 2.21168 16.3696 2.07782 16.367 1.93989C16.3654 1.62115 16.3831 1.30243 16.4043 0.984394C16.7754 0.613301 16.7754 0.613301 17.2234 0.568228C17.4068 0.56899 17.5903 0.569752 17.7793 0.570538C17.9781 0.570897 18.177 0.571255 18.3819 0.571625C18.5904 0.573897 18.7988 0.576169 19.0136 0.578511C19.3273 0.57869 19.3273 0.57869 19.6474 0.578873C21.2026 0.587299 21.2026 0.587299 21.4141 0.798847C21.4328 1.15021 21.4384 1.50228 21.4389 1.85414C21.4401 2.19797 21.4401 2.19797 21.4413 2.54874C21.4412 2.8051 21.4412 3.06146 21.4411 3.31782C21.4416 3.58596 21.4422 3.85411 21.4429 4.12225C21.4446 4.85255 21.445 5.58284 21.4451 6.31313C21.4453 6.92182 21.446 7.53051 21.4467 8.13919C21.4482 9.57472 21.4486 11.0102 21.4485 12.4458C21.4484 13.9288 21.4503 15.4119 21.4533 16.8949C21.4557 18.1662 21.4567 19.4376 21.4566 20.7089C21.4565 21.4691 21.4571 22.2292 21.459 22.9894C21.4608 23.7041 21.4608 24.4188 21.4595 25.1335C21.4593 25.3964 21.4597 25.6592 21.4608 25.9221C21.4623 26.2798 21.4612 26.6376 21.46 26.9954C21.4601 27.1959 21.4602 27.3965 21.4603 27.6031C21.4141 28.0742 21.4141 28.0742 21.043 28.4453C20.3209 28.5548 19.5923 28.5485 18.8628 28.5613C18.5607 28.5774 18.5607 28.5774 18.2526 28.5939C16.8136 28.6168 16.8136 28.6168 16.2395 28.1768C15.9368 27.7879 15.7074 27.3964 15.4766 26.961C15.3864 26.8084 15.2963 26.6558 15.2034 26.4986C14.9065 25.9925 14.6227 25.4805 14.3401 24.9663C12.7484 22.112 11.0561 19.3251 9.33081 16.5499C8.34591 14.9635 7.38485 13.363 6.42856 11.7592C6.16728 11.3215 5.90489 10.8844 5.64262 10.4473C5.58139 16.3254 5.52016 22.2035 5.45707 28.2598C4.9966 28.49 4.68441 28.4693 4.16984 28.47C3.98854 28.4702 3.80724 28.4705 3.62045 28.4707C3.43054 28.47 3.24063 28.4693 3.04496 28.4685C2.7601 28.4696 2.7601 28.4696 2.46948 28.4707C2.28818 28.4705 2.10688 28.4702 1.92008 28.47C1.75337 28.4698 1.58666 28.4696 1.4149 28.4693C1.00395 28.4453 1.00395 28.4453 0.632852 28.2598C0.599985 24.7099 0.569243 21.1601 0.541048 17.6102C0.527908 15.962 0.514065 14.3139 0.498585 12.6657C0.485097 11.2296 0.472913 9.79344 0.462308 8.35729C0.456645 7.59649 0.450318 6.8357 0.442432 6.07492C0.435037 5.35946 0.429378 4.644 0.425074 3.92851C0.423181 3.66536 0.420643 3.40221 0.417426 3.13908C0.413141 2.7809 0.411361 2.4227 0.409724 2.0645C0.408014 1.8637 0.406303 1.66291 0.404541 1.45603C0.521994 0.160685 2.10792 0.51389 3.09135 0.497334Z" fill="#8AE1D8"/>
</svg>
