<svg width="30" height="29" viewBox="0 0 30 29" fill="none" xmlns="http://www.w3.org/2000/svg">
<path d="M20.7969 1.35554C21.006 1.43877 21.006 1.43877 21.2194 1.52369C21.5961 1.69009 21.9313 1.88026 22.2813 2.09772C22.4657 2.21181 22.6501 2.3259 22.8401 2.44345C26.0933 4.53391 28.2316 7.70937 29.0675 11.4852C29.5759 15.5528 29.123 19.5235 26.646 22.8789C24.4358 25.7111 21.5863 27.7197 18.0137 28.4454C17.7661 28.496 17.7661 28.496 17.5136 28.5476C13.768 29.0567 9.83669 28.4654 6.74723 26.1669C6.06418 25.6099 5.45053 24.998 4.83984 24.3633C4.68509 24.2079 4.53034 24.0524 4.3709 23.8922C1.75619 21.1514 0.794122 17.6872 0.757812 13.9727C0.901525 10.2262 2.38438 6.96979 5.02539 4.32429C5.15287 4.19465 5.28036 4.06501 5.41171 3.93145C9.34681 0.178865 15.846 -0.819554 20.7969 1.35554ZM7.82816 8.31282C6.22725 10.2167 5.4374 12.4449 5.5313 14.9367C5.81014 17.7968 7.07366 20.1126 9.29297 21.9512C11.589 23.6749 14.0318 24.2392 16.8656 23.8763C19.2873 23.4376 21.4932 21.7694 22.9249 19.8008C24.4026 17.4749 24.7874 15.0211 24.3107 12.3376C23.7429 9.85755 22.279 7.88398 20.1888 6.48417C15.9357 3.92134 11.2097 4.77563 7.82816 8.31282Z" fill="#8AE1D8"/>
</svg>
