<svg width="6" height="5" viewBox="0 0 6 5" fill="none" xmlns="http://www.w3.org/2000/svg">
<path d="M5.05078 0.726532C4.94793 0.802592 4.84509 0.878652 4.73912 0.957016C4.6047 1.05699 4.47028 1.15697 4.33179 1.25998C4.19832 1.359 4.06486 1.45802 3.92735 1.56004C3.55109 1.83958 3.55109 1.83958 3.19531 2.21091C3.01162 2.21091 2.82793 2.21091 2.63867 2.21091C2.26845 2.51095 1.92685 2.81068 1.58337 3.13864C1.44112 3.27139 1.44112 3.27139 1.29599 3.40682C1.06206 3.62544 0.829705 3.84575 0.597656 4.06638C0.536426 3.88268 0.475195 3.69899 0.412109 3.50974C4.01172 0.380178 4.01172 0.380178 5.05078 0.726532Z" fill="#8AE1D8"/>
</svg>
