<svg width="40" height="35" viewBox="0 0 40 35" fill="none" xmlns="http://www.w3.org/2000/svg">
<path d="M32.1199 15.1271L21.121 4.13115L21.1209 4.13111C20.722 3.73221 20.4979 3.19118 20.4979 2.62705C20.4979 2.06292 20.722 1.5219 21.1209 1.123C21.5198 0.724099 22.0609 0.5 22.625 0.5C23.1891 0.5 23.7302 0.724099 24.1291 1.123L38.7536 15.7476L32.1199 15.1271ZM32.1199 15.1271H3.125C2.56141 15.1271 2.02091 15.3509 1.6224 15.7495C1.22388 16.148 1 16.6885 1 17.2521C1 17.8156 1.22388 18.3561 1.6224 18.7547C2.02091 19.1532 2.56142 19.3771 3.125 19.3771H32.1199L21.121 30.3729L21.1209 30.373C20.722 30.7719 20.4979 31.3129 20.4979 31.8771C20.4979 32.4412 20.722 32.9822 21.1209 33.3811C21.5198 33.78 22.0609 34.0041 22.625 34.0041C23.1891 34.0041 23.7302 33.78 24.1291 33.3811L38.7536 18.7566C38.9515 18.5592 39.1085 18.3247 39.2156 18.0665C39.3228 17.8083 39.3779 17.5316 39.3779 17.2521C39.3779 16.9725 39.3228 16.6958 39.2156 16.4376C39.1086 16.1796 38.9517 15.9453 38.7541 15.748L32.1199 15.1271Z" fill="black" stroke="black"/>
</svg>
