<svg width="16" height="29" viewBox="0 0 16 29" fill="none" xmlns="http://www.w3.org/2000/svg">
<path d="M0.929824 0.798828C0.991055 0.798828 1.05229 0.798828 1.11537 0.798828C1.1766 9.79971 1.23783 18.8006 1.30092 28.0742C5.83197 28.0742 10.363 28.0742 15.0314 28.0742C15.0314 28.1967 15.0314 28.3191 15.0314 28.4453C13.2202 28.4496 11.409 28.4529 9.59773 28.4549C8.7568 28.4559 7.91587 28.4572 7.07493 28.4593C6.26407 28.4613 5.45321 28.4624 4.64234 28.4629C4.33229 28.4633 4.02223 28.4639 3.71218 28.4649C3.27941 28.4663 2.84665 28.4665 2.41388 28.4664C2.28442 28.467 2.15497 28.4677 2.02159 28.4684C1.13653 28.4665 1.13653 28.4665 0.929824 28.2598C0.911902 27.9052 0.907211 27.5499 0.907511 27.1949C0.907256 26.9636 0.907001 26.7323 0.906738 26.494C0.907395 26.2353 0.908069 25.9766 0.90876 25.7179C0.908812 25.4473 0.908783 25.1767 0.908678 24.9061C0.908624 24.1694 0.909718 23.4326 0.911011 22.6958C0.912167 21.9266 0.912279 21.1575 0.9125 20.3883C0.913078 18.9308 0.914602 17.4733 0.916461 16.0158C0.918532 14.3569 0.919554 12.698 0.920487 11.0391C0.922428 7.62566 0.925694 4.21224 0.929824 0.798828Z" fill="#8AE1D8"/>
</svg>
