<svg width="3" height="11" viewBox="0 0 3 11" fill="none" xmlns="http://www.w3.org/2000/svg">
<path d="M1.5332 0.560547C1.59443 0.560547 1.65566 0.560547 1.71875 0.560547C2.43898 3.46452 1.96854 7.41108 0.488777 9.99445C0.362848 10.1925 0.362848 10.1925 0.234375 10.3945C0.173145 10.2721 0.111914 10.1496 0.0488281 10.0234C0.186539 9.6335 0.186539 9.6335 0.396728 9.16528C0.657237 8.54881 0.842664 8.01129 0.906982 7.3446C0.976562 6.68359 0.976562 6.68359 1.34766 6.12695C1.41631 5.53322 1.41631 5.53322 1.42448 4.85494C1.42808 4.73218 1.43167 4.60941 1.43537 4.48293C1.44645 4.09163 1.45507 3.70032 1.46362 3.30896C1.47071 3.04332 1.47796 2.77768 1.48537 2.51205C1.50317 1.86159 1.51877 1.21109 1.5332 0.560547Z" fill="#8AE1D8"/>
</svg>
