<svg width="20" height="29" viewBox="0 0 20 29" fill="none" xmlns="http://www.w3.org/2000/svg">
<path d="M14.7971 0.346528C15.0088 0.344644 15.2205 0.342761 15.4386 0.34082C16.7962 0.35488 18.2698 0.402652 19.416 1.21764C19.7443 1.68209 19.6911 2.00693 19.6583 2.56947C19.6482 2.76859 19.638 2.9677 19.6275 3.17286C19.6072 3.48445 19.6072 3.48445 19.5866 3.80234C19.5752 4.01222 19.5638 4.2221 19.5521 4.43834C19.5237 4.95714 19.4925 5.47563 19.459 5.99411C18.7801 6.22042 18.6354 6.11276 17.9978 5.83176C15.8366 4.88663 13.1088 4.95606 10.9043 5.74913C8.50011 6.84577 6.86527 8.74647 5.91408 11.1894C5.12461 13.6875 5.13932 16.3565 6.34461 18.7207C6.61635 19.1938 6.90473 19.6456 7.21291 20.0957C7.29041 20.21 7.3679 20.3243 7.44774 20.4421C8.67532 22.0468 10.6274 23.2364 12.5938 23.6211C12.7851 23.6632 12.9765 23.7053 13.1736 23.7486C15.0319 23.9506 16.8713 23.7696 18.5313 22.8789C19.0647 22.8441 19.0647 22.8441 19.459 22.8789C19.7939 23.9528 19.6681 25.1079 19.6446 26.2187C19.6457 26.3773 19.6469 26.5359 19.6482 26.6993C19.633 27.0885 19.633 27.0885 19.459 27.7031C18.978 28.0037 18.6924 28.1284 18.1602 28.2597C18.0374 28.2924 17.9146 28.3252 17.788 28.3589C16.7255 28.6164 15.715 28.7024 14.6232 28.7004C14.454 28.7001 14.2848 28.6998 14.1105 28.6995C12.5307 28.6713 11.1212 28.3778 9.62502 27.8886C9.45448 27.8351 9.28395 27.7815 9.10824 27.7263C5.60315 26.482 3.08535 23.4605 1.36819 20.2696C0.0480303 17.3851 -0.173785 13.5249 0.687606 10.4675C1.44757 8.44436 2.43343 6.68706 3.87307 5.06638C3.97759 4.93554 4.08211 4.80471 4.1898 4.66992C6.81531 1.44183 10.812 0.371879 14.7971 0.346528Z" fill="#8AE1D8"/>
</svg>
