<svg width="2" height="13" viewBox="0 0 2 13" fill="none" xmlns="http://www.w3.org/2000/svg">
<path d="M0.578125 0.164062C0.974908 0.474588 1.12257 0.671499 1.24493 1.16536C1.35066 2.10313 1.33925 3.03071 1.33191 3.97357C1.33121 4.17939 1.3305 4.38522 1.32978 4.59728C1.32675 5.47521 1.32153 6.35313 1.31651 7.23106C1.31315 7.87314 1.31091 8.51521 1.30872 9.15729C1.30718 9.35504 1.30564 9.55279 1.30405 9.75653C1.29035 11.0946 1.29035 11.0946 1.50586 12.4102C1.62832 12.5326 1.75078 12.6551 1.87695 12.7812C1.5708 12.7812 1.26465 12.7812 0.949219 12.7812C0.94635 12.577 0.94635 12.577 0.943423 12.3686C0.925183 11.0802 0.906154 9.79188 0.886255 8.50354C0.876055 7.84132 0.866151 7.1791 0.856944 6.51687C0.848034 5.87682 0.83832 5.23679 0.828068 4.59677C0.822491 4.23585 0.817729 3.87492 0.812983 3.51399C0.794188 2.38258 0.749756 1.28302 0.578125 0.164062Z" fill="#8AE1D8"/>
</svg>
