<svg width="7" height="7" viewBox="0 0 7 7" fill="none" xmlns="http://www.w3.org/2000/svg">
<path d="M6.71875 0.0917969C6.8106 0.275488 6.8106 0.275488 6.9043 0.462891C6.02852 1.51136 5.08861 2.4782 4.10497 3.42457C3.85622 3.66762 3.61669 3.92004 3.37891 4.17383C3.37891 4.29629 3.37891 4.41875 3.37891 4.54492C3.06158 4.8434 2.73053 5.12742 2.39319 5.40308C2.21021 5.55472 2.02724 5.70636 1.83872 5.86259C1.33789 6.21484 1.33789 6.21484 0.78125 6.21484C0.900123 6.09812 1.019 5.9814 1.14147 5.86115C2.21803 4.79922 2.21803 4.79922 3.22815 3.67517C4.30956 2.40741 5.53393 1.26176 6.71875 0.0917969Z" fill="#8AE1D8"/>
</svg>
