<svg width="9" height="12" viewBox="0 0 9 12" fill="none" xmlns="http://www.w3.org/2000/svg">
<path d="M0.796875 0.4375C0.858105 0.4375 0.919336 0.4375 0.982422 0.4375C1.04365 2.58057 1.10488 4.72363 1.16797 6.93164C1.67264 6.92734 2.17731 6.92303 2.69728 6.91859C3.18485 6.9157 3.67243 6.91345 4.16 6.91126C4.49945 6.90939 4.8389 6.90685 5.17834 6.90365C5.66562 6.89916 6.15286 6.89704 6.64015 6.8954C6.79246 6.89349 6.94478 6.89157 7.1017 6.8896C7.47432 6.88952 7.84683 6.90891 8.21875 6.93164C8.58984 7.30273 8.58984 7.30273 8.63197 7.70255C8.63003 7.86385 8.62809 8.02514 8.62608 8.19133C8.62489 8.36593 8.62369 8.54053 8.62246 8.72043C8.61935 8.90316 8.61624 9.0859 8.61304 9.27417C8.61136 9.45834 8.60969 9.64251 8.60796 9.83226C8.60358 10.288 8.59747 10.7436 8.58984 11.1992C8.52861 11.1992 8.46738 11.1992 8.4043 11.1992C8.34307 9.97461 8.28184 8.75 8.21875 7.48828C4.54492 7.39644 4.54492 7.39644 0.796875 7.30273C0.796875 5.03721 0.796875 2.77168 0.796875 0.4375Z" fill="#8AE1D8"/>
</svg>
