<svg width="20" height="29" viewBox="0 0 20 29" fill="none" xmlns="http://www.w3.org/2000/svg">
<path d="M16.8079 2.13239C18.0236 3.08274 18.0236 3.08274 18.1328 3.63851C18.0099 4.36968 17.6301 4.61408 17.0746 5.08954C16.8938 5.24692 16.713 5.4043 16.5267 5.56645C15.3568 6.53044 15.3568 6.53044 14.8481 6.6435C14.2011 6.52586 13.7877 6.23677 13.2542 5.86217C12.3125 5.3002 11.3817 5.17973 10.3022 5.18231C10.172 5.18261 10.0418 5.18291 9.9077 5.18322C8.57429 5.21449 7.47908 5.52709 6.44047 6.38837C5.98962 6.97644 5.95373 7.35937 5.94182 8.09308C5.93703 8.2684 5.93225 8.44372 5.92732 8.62435C6.00126 9.26077 6.14772 9.57326 6.54484 10.0761C7.97533 11.0264 9.61964 11.5581 11.2417 12.0817C14.3408 13.0843 17.4661 14.507 19.0345 17.5444C19.7984 19.1561 19.82 21.2401 19.365 22.9564C19.1446 23.4571 18.9027 23.9044 18.6054 24.3632C18.5205 24.4974 18.4356 24.6316 18.3481 24.7698C17.2146 26.4064 15.8157 27.376 13.9667 28.0742C13.7389 28.1635 13.7389 28.1635 13.5065 28.2546C10.5508 29.2399 7.41199 28.64 4.64299 27.4016C2.94391 26.4987 1.75189 25.187 0.894362 23.4775C0.792891 23.0644 0.792891 23.0644 0.923264 22.6902C1.22134 22.2345 1.43826 22.145 1.94531 21.9591C2.09982 21.902 2.25433 21.845 2.41353 21.7862C2.57521 21.7297 2.7369 21.6731 2.90349 21.6148C3.06374 21.5547 3.22399 21.4945 3.3891 21.4325C4.75717 20.9396 4.75717 20.9396 5.43156 21.2089C5.61962 21.5167 5.80474 21.8262 5.9882 22.1367C6.78161 22.9116 7.52794 23.3041 8.58586 23.621C8.69899 23.6574 8.81213 23.6937 8.92869 23.7312C10.2869 23.9876 11.8487 23.7547 13.039 23.0644C13.7666 22.5325 14.365 22.0614 14.7089 21.2089C14.7693 20.3782 14.7563 19.7147 14.3378 18.9824C14.0952 18.8496 13.8467 18.7273 13.5956 18.6113C13.4605 18.5362 13.3253 18.4611 13.1861 18.3837C11.9243 17.7064 10.65 17.2406 9.29326 16.7906C7.92405 16.3314 6.61622 15.832 5.33879 15.1555C5.21581 15.0909 5.09282 15.0264 4.96611 14.9599C3.71968 14.2718 2.69712 13.4416 1.94096 12.2215C1.83644 12.0572 1.73192 11.8929 1.62423 11.7236C0.67615 9.87994 0.67976 7.48425 1.27995 5.51862C2.12455 3.35693 3.7107 1.92775 5.80193 0.992289C9.34865 -0.239146 13.7095 -0.0540032 16.8079 2.13239Z" fill="#8AE1D8"/>
</svg>
