<svg width="10" height="2" viewBox="0 0 10 2" fill="none" xmlns="http://www.w3.org/2000/svg">
<path d="M9.18359 0.332031C9.18359 0.454492 9.18359 0.576953 9.18359 0.703125C8.80506 0.823874 8.42616 0.943482 8.04712 1.06262C7.83616 1.12935 7.6252 1.19609 7.40785 1.26484C6.16757 1.61658 5.00237 1.66475 3.72156 1.66565C3.55162 1.66792 3.38168 1.67019 3.20659 1.67253C2.21699 1.67467 1.3987 1.58543 0.462891 1.25977C1.10381 1.06111 1.68033 1.06073 2.3488 1.07567C2.57244 1.07878 2.79607 1.08189 3.02648 1.08509C3.49328 1.09323 3.96005 1.10287 4.42678 1.11408C6.11333 1.1338 7.6242 0.332031 9.18359 0.332031Z" fill="#8AE1D8"/>
</svg>
