<svg width="4" height="4" viewBox="0 0 4 4" fill="none" xmlns="http://www.w3.org/2000/svg">
<path d="M0 0.984375C0.870493 1.08095 1.44586 1.31089 2.18018 1.78455C2.4428 1.94994 2.4428 1.94994 2.71072 2.11868C3.15041 2.46568 3.32927 2.69442 3.52539 3.21094C3.28891 3.10028 3.05327 2.98782 2.81799 2.87463C2.68668 2.81221 2.55537 2.74978 2.42008 2.68546C2.03545 2.46557 1.79559 2.22332 1.48438 1.91211C1.10728 1.6902 1.10728 1.6902 0.707397 1.50623C0.574652 1.44236 0.441906 1.3785 0.305138 1.31271C0.204442 1.26559 0.103747 1.21847 0 1.16992C0 1.10869 0 1.04746 0 0.984375Z" fill="#8AE1D8"/>
</svg>
