<svg width="16" height="29" viewBox="0 0 16 29" fill="none" xmlns="http://www.w3.org/2000/svg">
<path d="M1.11513 0.613281C2.58466 0.613281 4.05419 0.613281 5.56826 0.613281C5.62949 8.14463 5.69072 15.676 5.7538 23.4355C10.2542 23.5274 10.2542 23.5274 14.8456 23.6211C15.1211 23.7129 15.1211 23.7129 15.4022 23.8066C15.413 24.5102 15.4196 25.2137 15.4254 25.9172C15.4285 26.1177 15.4317 26.3181 15.4349 26.5246C15.4361 26.716 15.4372 26.9073 15.4385 27.1044C15.4404 27.2813 15.4424 27.4581 15.4444 27.6403C15.4022 28.0742 15.4022 28.0742 15.0311 28.4453C14.5851 28.4811 14.1606 28.494 13.7145 28.4904C13.579 28.4907 13.4435 28.4911 13.304 28.4915C12.855 28.4921 12.4062 28.4902 11.9573 28.4881C11.6463 28.4879 11.3353 28.4878 11.0242 28.4878C10.3721 28.4875 9.71993 28.486 9.06778 28.4835C8.22999 28.4803 7.39221 28.4796 6.55441 28.4798C5.91216 28.4797 5.26991 28.4787 4.62766 28.4774C4.31864 28.4768 4.00962 28.4764 3.7006 28.4763C3.26964 28.4759 2.83871 28.4743 2.40775 28.4723C2.21444 28.4724 2.21444 28.4724 2.01722 28.4725C1.13637 28.4666 1.13637 28.4666 0.929585 28.2598C0.911257 27.9056 0.906146 27.5508 0.906023 27.1962C0.9055 26.9651 0.904977 26.7341 0.904438 26.496C0.904799 26.2376 0.905179 25.9792 0.905576 25.7208C0.905325 25.4505 0.904994 25.1803 0.904591 24.91C0.903742 24.174 0.904074 23.4379 0.904661 22.7019C0.905129 21.9333 0.904696 21.1647 0.904404 20.3962C0.904066 19.1052 0.904512 17.8143 0.905395 16.5234C0.906405 15.0287 0.906078 13.5341 0.905056 12.0395C0.904215 10.7585 0.904094 9.47758 0.904581 8.19664C0.904871 7.43057 0.904907 6.6645 0.904296 5.89843C0.903761 5.17838 0.904128 4.45835 0.905204 3.7383C0.90545 3.47329 0.905377 3.20827 0.904969 2.94325C0.904466 2.58297 0.905207 2.22269 0.906023 1.86242C0.906093 1.66032 0.906163 1.45823 0.906235 1.25001C0.929585 0.798828 0.929585 0.798828 1.11513 0.613281Z" fill="#8AE1D8"/>
</svg>
