<svg width="21" height="29" viewBox="0 0 21 29" fill="none" xmlns="http://www.w3.org/2000/svg">
<path d="M0.50209 0.613268C2.01835 0.600311 3.53458 0.590449 5.05088 0.584427C5.75513 0.581535 6.45934 0.577618 7.16357 0.571275C7.84451 0.565181 8.52542 0.561889 9.20639 0.560455C9.46483 0.559435 9.72328 0.557443 9.98171 0.554414C11.8862 0.533002 13.6351 0.614796 15.2067 1.79613C15.3598 1.91118 15.5128 2.02622 15.6705 2.14475C15.8083 2.25167 15.9461 2.35858 16.088 2.46874C16.287 2.61033 16.486 2.75193 16.6911 2.89781C18.3457 4.51483 18.9193 6.51592 18.9524 8.76573C18.9349 11.1079 18.156 13.0038 16.4903 14.6873C15.9038 15.206 15.2927 15.6378 14.6037 16.0137C14.686 17.1101 15.1694 17.8589 15.7285 18.7737C16.4646 20.0094 17.152 21.2517 17.7835 22.5438C18.3259 23.6529 18.9047 24.7405 19.4902 25.8274C19.5921 26.0177 19.694 26.2081 19.799 26.4043C19.8734 26.5404 19.9477 26.6765 20.0244 26.8167C20.2394 27.3034 20.205 27.7359 20.1701 28.2598C19.6797 28.7501 18.3798 28.543 17.7232 28.5613C17.5121 28.5744 17.301 28.5876 17.0835 28.6011C15.557 28.635 15.557 28.635 14.9742 28.1114C14.6814 27.6788 14.4529 27.2486 14.2326 26.7754C14.1066 26.5522 13.9796 26.3297 13.8513 26.1078C13.7399 25.8957 13.6284 25.6835 13.5136 25.465C13.4513 25.3469 13.3891 25.2288 13.325 25.1071C12.8194 24.1421 12.3324 23.168 11.8499 22.1913C11.2552 20.9924 10.6275 19.8113 9.99261 18.6332C9.91652 18.4906 9.84043 18.348 9.76204 18.2011C9.69375 18.0742 9.62547 17.9474 9.55511 17.8167C9.40834 17.498 9.40834 17.498 9.40834 17.1269C8.00004 17.1269 6.59174 17.1269 5.14076 17.1269C5.14271 17.4566 5.14465 17.7863 5.14665 18.126C5.15263 19.2139 5.1569 20.3018 5.15999 21.3898C5.16193 22.0495 5.16456 22.7093 5.16876 23.369C5.17355 24.1271 5.17536 24.8852 5.177 25.6433C5.17892 25.8808 5.18083 26.1183 5.18281 26.3631C5.18283 26.5822 5.18286 26.8014 5.18289 27.0272C5.18371 27.2208 5.18454 27.4145 5.18539 27.614C5.14076 28.0742 5.14076 28.0742 4.76967 28.4453C4.35282 28.4874 4.35282 28.4874 3.84048 28.4815C3.65751 28.4803 3.47454 28.4791 3.28602 28.4779C2.99864 28.4733 2.99864 28.4733 2.70546 28.4685C2.51244 28.4668 2.31942 28.4651 2.12055 28.4634C1.64287 28.459 1.16528 28.4529 0.687637 28.4453C0.358735 27.7358 0.270263 27.1808 0.270669 26.4012C0.269891 26.1772 0.269112 25.9532 0.268311 25.7224C0.269353 25.4782 0.270396 25.2341 0.27147 24.9825C0.271271 24.7215 0.270911 24.4606 0.270403 24.1996C0.269505 23.4924 0.270922 22.7851 0.272806 22.0779C0.274437 21.3379 0.274109 20.5979 0.274038 19.8579C0.274212 18.6158 0.275822 17.3738 0.278356 16.1318C0.281277 14.6946 0.282252 13.2575 0.282116 11.8204C0.282003 10.4385 0.282949 9.05657 0.284489 7.67464C0.285145 7.08612 0.285484 6.4976 0.285583 5.90908C0.285769 5.2169 0.286898 4.52472 0.288768 3.83253C0.289311 3.57807 0.289538 3.3236 0.289431 3.06913C0.28934 2.72277 0.290501 2.37641 0.291733 2.03005C0.292044 1.83593 0.292355 1.64181 0.292676 1.44181C0.316543 0.984361 0.316543 0.984361 0.50209 0.613268ZM5.14076 5.43749C5.12433 5.9322 5.11938 6.42209 5.12264 6.91679C5.1229 7.06479 5.12317 7.21279 5.12344 7.36527C5.12448 7.83983 5.12681 8.31437 5.12917 8.78893C5.1301 9.10989 5.13094 9.43085 5.1317 9.75181C5.13375 10.5403 5.13696 11.3287 5.14076 12.1172C6.03843 12.1403 6.93592 12.157 7.83382 12.1681C8.13869 12.1728 8.44353 12.1791 8.74833 12.1872C10.9364 12.3099 10.9364 12.3099 12.8707 11.4363C13.6804 10.6323 14.0979 9.91574 14.1398 8.75414C14.0647 7.52459 13.6506 6.84835 12.7482 6.02892C11.8784 5.28271 11.1777 5.22409 10.0621 5.2273C9.92742 5.22712 9.79274 5.22694 9.65398 5.22676C9.36982 5.22663 9.08566 5.22697 8.80151 5.22775C8.36499 5.22874 7.92851 5.22776 7.49199 5.22657C7.21608 5.22669 6.94018 5.22693 6.66428 5.2273C6.53305 5.22692 6.40181 5.22655 6.26661 5.22616C5.65115 5.17555 5.65115 5.17555 5.14076 5.43749Z" fill="#8AE1D8"/>
</svg>
