<svg width="10" height="10" viewBox="0 0 10 10" fill="none" xmlns="http://www.w3.org/2000/svg">
<path d="M9.68164 0.476546C9.68164 3.29315 9.68164 6.10975 9.68164 9.0117C9.22241 9.10355 9.22241 9.10355 8.75391 9.19725C8.75391 9.07479 8.75391 8.95233 8.75391 8.82616C8.9376 8.82616 9.12129 8.82616 9.31055 8.82616C9.31512 7.69329 9.31849 6.56043 9.32074 5.42756C9.32167 5.04185 9.32294 4.65614 9.32454 4.27043C9.32679 3.7173 9.32785 3.16419 9.32867 2.61106C9.32962 2.4375 9.33058 2.26394 9.33157 2.08511C9.33158 1.92539 9.3316 1.76567 9.33161 1.60111C9.33202 1.45978 9.33244 1.31846 9.33286 1.17285C9.34597 0.842425 9.34597 0.842425 9.125 0.662093C8.84609 0.639376 8.56615 0.62911 8.28637 0.623996C8.01893 0.618445 8.01893 0.618445 7.74608 0.612782C7.55222 0.609681 7.35837 0.60658 7.15864 0.603385C6.96122 0.599529 6.7638 0.595673 6.56039 0.591701C5.92703 0.579526 5.29366 0.568612 4.66028 0.557723C4.23205 0.549712 3.80381 0.54162 3.37558 0.533443C2.32332 0.513529 1.27104 0.49465 0.21875 0.476546C0.21875 0.415316 0.21875 0.354086 0.21875 0.291C1.44706 0.255059 2.67542 0.222146 3.90387 0.191341C4.32179 0.180503 4.73969 0.168971 5.15758 0.156732C5.75813 0.139263 6.35869 0.124289 6.95932 0.109801C7.14624 0.103828 7.33317 0.0978536 7.52576 0.0916986C7.7003 0.0879558 7.87483 0.084213 8.05466 0.0803568C8.20794 0.0762365 8.36121 0.0721162 8.51913 0.0678711C8.93945 0.105453 8.93945 0.105453 9.68164 0.476546Z" fill="#8AE1D8"/>
</svg>
