<svg width="3" height="14" viewBox="0 0 3 14" fill="none" xmlns="http://www.w3.org/2000/svg">
<path d="M2.05273 0.777344C2.23828 1.33398 2.23828 1.33398 2.05273 1.89062C2.0311 2.24623 2.01995 2.60252 2.01464 2.95874C2.01094 3.17787 2.00724 3.397 2.00342 3.62277C2.00032 3.85936 1.99722 4.09594 1.99403 4.3397C1.99017 4.5819 1.98631 4.8241 1.98234 5.07363C1.97211 5.71694 1.96294 6.36026 1.95398 7.00358C1.94465 7.66028 1.93433 8.31697 1.92408 8.97366C1.90414 10.2617 1.88531 11.5498 1.86719 12.8379C1.40796 12.9297 1.40796 12.9297 0.939453 13.0234C1.07492 12.8732 1.07492 12.8732 1.21313 12.7199C1.56529 12.174 1.56725 11.8473 1.57043 11.2009C1.57291 10.9836 1.57538 10.7663 1.57793 10.5424C1.57795 10.3085 1.57797 10.0746 1.578 9.83363C1.58174 9.46605 1.58548 9.09847 1.58934 8.73089C1.59411 8.2166 1.59643 7.7023 1.5987 7.188C1.60276 6.28717 1.60852 5.38636 1.61749 4.48557C1.62203 4.00609 1.62477 3.52659 1.62559 3.0471C1.62748 2.83036 1.62937 2.61363 1.63131 2.39032C1.63211 2.19932 1.6329 2.00832 1.63372 1.81153C1.68164 1.33398 1.68164 1.33398 2.05273 0.777344Z" fill="#8AE1D8"/>
</svg>
