<svg width="5" height="8" viewBox="0 0 5 8" fill="none" xmlns="http://www.w3.org/2000/svg">
<path d="M0.408203 0.126953C0.530664 0.126953 0.653125 0.126953 0.779297 0.126953C0.875687 0.321886 0.972077 0.516819 1.07139 0.717659C1.69014 1.96451 2.31019 3.20399 3.00151 4.41265C3.19409 4.7706 3.35154 5.13143 3.50452 5.50781C3.68519 6.08252 3.68519 6.08252 4.11914 6.25C4.23511 6.81824 4.23511 6.81824 4.30469 7.36328C3.62971 6.9133 3.42186 6.41425 3.08704 5.70496C2.9577 5.4378 2.82794 5.17084 2.69782 4.90406C2.62867 4.7622 2.55952 4.62033 2.48827 4.47417C2.01105 3.51646 1.50047 2.57563 0.992703 1.63384C0.916539 1.49104 0.840374 1.34823 0.761902 1.2011C0.693616 1.07424 0.625329 0.947384 0.554974 0.816684C0.408203 0.498047 0.408203 0.498047 0.408203 0.126953Z" fill="#8AE1D8"/>
</svg>
