<svg width="11" height="8" viewBox="0 0 11 8" fill="none" xmlns="http://www.w3.org/2000/svg">
<path d="M0.769531 0.0664074C1.87933 0.0587536 2.98914 0.0510998 4.13257 0.0432141C4.48085 0.0398357 4.82912 0.0364572 5.18796 0.0329764C5.46673 0.0318917 5.7455 0.0309463 6.02428 0.0301678C6.23808 0.0273201 6.23808 0.0273201 6.45621 0.0244148C7.29043 0.0241461 7.96959 0.098688 8.74805 0.437501C9.09595 0.831788 9.09595 0.831788 9.30469 1.17969C8.8248 1.0874 8.498 0.957182 8.06883 0.711246C7.35618 0.396397 6.76398 0.365969 6.00108 0.383142C5.82221 0.383983 5.82221 0.383983 5.63973 0.38484C5.19916 0.387728 4.75863 0.395499 4.31812 0.402711C3.33077 0.414192 2.34343 0.425673 1.32617 0.437501C1.26494 2.6418 1.20371 4.8461 1.14062 7.11719C2.18154 7.10571 3.22246 7.09423 4.29492 7.0824C4.62045 7.08116 4.94597 7.07992 5.28136 7.07864C6.77473 7.05759 7.94694 7.03226 9.11914 6.00391C9.46143 5.51172 9.46143 5.51172 9.67578 5.07617C9.79824 5.07617 9.9207 5.07617 10.0469 5.07617C9.93809 5.70938 9.72965 6.03478 9.28149 6.49097C9.17769 6.60051 9.07388 6.71006 8.96693 6.82292C7.99682 7.52878 6.86721 7.54088 5.71624 7.52452C5.58988 7.52415 5.46353 7.52377 5.33335 7.52339C4.86736 7.52147 4.40139 7.51629 3.93542 7.51148C2.89068 7.50382 1.84594 7.49617 0.769531 7.48828C0.769531 5.03906 0.769531 2.58984 0.769531 0.0664074Z" fill="#8AE1D8"/>
</svg>
