<svg width="5" height="4" viewBox="0 0 5 4" fill="none" xmlns="http://www.w3.org/2000/svg">
<path d="M0.28125 0.648438C1.07463 1.0892 1.83984 1.55637 2.60059 2.05164C3.35621 2.53732 4.08067 2.92904 4.91992 3.24609C4.91992 3.36855 4.91992 3.49102 4.91992 3.61719C4.42513 3.49349 3.93034 3.36979 3.43555 3.24609C3.43555 3.12363 3.43555 3.00117 3.43555 2.875C3.32815 2.85347 3.22076 2.83195 3.11012 2.80977C2.66343 2.68081 2.35101 2.50248 1.96277 2.24878C1.53012 1.96736 1.10701 1.70648 0.652344 1.46021C0.529883 1.37601 0.407422 1.29182 0.28125 1.20508C0.28125 1.02139 0.28125 0.837695 0.28125 0.648438Z" fill="#8AE1D8"/>
</svg>
