<svg width="4" height="3" viewBox="0 0 4 3" fill="none" xmlns="http://www.w3.org/2000/svg">
<path d="M2.98828 0.984375C3.11074 1.04561 3.2332 1.10684 3.35938 1.16992C3.2051 1.26392 3.2051 1.26392 3.04771 1.35982C2.91329 1.44257 2.77887 1.52533 2.64038 1.6106C2.50692 1.6924 2.37345 1.7742 2.23595 1.85847C1.85312 2.09494 1.85312 2.09494 1.50391 2.46875C1.19777 2.59995 0.888703 2.7247 0.576172 2.83984C0.576172 2.65615 0.576172 2.47246 0.576172 2.2832C0.962486 1.99184 0.962486 1.99184 1.46912 1.70337C1.63487 1.60722 1.80062 1.51107 1.9714 1.412C2.43164 1.16992 2.43164 1.16992 2.98828 0.984375Z" fill="#8AE1D8"/>
</svg>
