<svg width="9" height="3" viewBox="0 0 9 3" fill="none" xmlns="http://www.w3.org/2000/svg">
<path d="M1.0293 0.880784C1.70572 0.858972 2.38205 0.845957 3.05872 0.834398C3.34304 0.825069 3.34304 0.825069 3.63311 0.815553C4.97751 0.798372 6.25695 0.934124 7.26537 1.91271C7.35053 2.00079 7.43569 2.08886 7.52344 2.17961C7.91307 2.39777 7.91307 2.39777 8.26562 2.55071C7.39926 2.68608 6.93425 2.33964 6.25433 1.86215C5.10753 1.17781 4.01741 1.20587 2.72241 1.22868C2.54159 1.23036 2.36077 1.23203 2.17447 1.23376C1.73085 1.23811 1.28732 1.2442 0.84375 1.25188C0.90498 1.12942 0.966211 1.00696 1.0293 0.880784Z" fill="#8AE1D8"/>
</svg>
