<svg width="10" height="3" viewBox="0 0 10 3" fill="none" xmlns="http://www.w3.org/2000/svg">
<path d="M8.35547 0.539062C8.47793 0.539062 8.60039 0.539062 8.72656 0.539062C9.05398 1.11205 9.09766 1.3245 9.09766 2.02344C8.21067 2.25112 7.34369 2.23576 6.43477 2.23363C6.18544 2.23389 6.18544 2.23389 5.93107 2.23417C5.5808 2.23429 5.23053 2.23395 4.88027 2.23317C4.34361 2.23218 3.80698 2.23317 3.27032 2.23435C2.92967 2.23423 2.58902 2.23399 2.24837 2.23363C2.08775 2.234 1.92713 2.23438 1.76164 2.23477C1.61237 2.23418 1.4631 2.2336 1.30931 2.23299C1.1782 2.23285 1.04709 2.2327 0.912003 2.23255C0.5625 2.20898 0.5625 2.20898 0.00585938 2.02344C0.00585938 1.83975 0.00585938 1.65605 0.00585938 1.4668C0.189551 1.52803 0.373242 1.58926 0.5625 1.65234C0.832993 1.66836 1.10416 1.67418 1.37513 1.67341C1.53854 1.67339 1.70195 1.67338 1.87031 1.67337C2.13386 1.67193 2.13386 1.67193 2.40275 1.67046C2.58317 1.6702 2.76359 1.66994 2.94948 1.66967C3.5261 1.66863 4.10271 1.6663 4.67932 1.66394C5.07011 1.66301 5.46089 1.66216 5.85167 1.6614C6.80997 1.65936 7.76827 1.65615 8.72656 1.65234C8.6041 1.28496 8.48164 0.917578 8.35547 0.539062Z" fill="#8AE1D8"/>
</svg>
