<svg width="30" height="29" viewBox="0 0 30 29" fill="none" xmlns="http://www.w3.org/2000/svg">
<path d="M23.2723 2.68038C23.7853 3.09072 24.2794 3.51371 24.7676 3.95312C24.8898 4.06218 25.012 4.17125 25.138 4.28362C27.69 6.69353 29.2014 10.1196 29.4063 13.6016C29.4139 13.7278 29.4216 13.8541 29.4295 13.9842C29.5543 18.2292 27.9385 21.5085 25.1387 24.5488C25.0196 24.6832 24.9005 24.8177 24.7777 24.9562C22.5744 27.3298 19.2225 28.5234 16.0476 28.6903C13.9585 28.7562 12.0917 28.5473 10.1094 27.8887C9.91158 27.8236 9.71378 27.7586 9.50998 27.6915C6.0816 26.4142 3.5432 23.4582 1.99171 20.2233C0.547051 17.0483 0.305117 13.3939 1.43679 10.0699C2.132 8.22443 3.06087 6.55549 4.35743 5.0664C4.49197 4.88594 4.49197 4.88594 4.62923 4.70183C8.76136 -0.607903 18.0596 -1.11324 23.2723 2.68038ZM7.89007 8.2881C6.37963 10.2413 5.80039 12.018 5.78382 14.4713C5.78278 14.619 5.78173 14.7667 5.78065 14.9188C5.80866 17.2032 6.67009 19.3739 8.24522 21.0466C10.3339 22.9599 12.545 24.1178 15.4214 24.0255C18.3724 23.8019 20.3572 22.5993 22.3555 20.4668C24.1811 18.1979 24.628 15.6874 24.3965 12.8594C24.2785 12.2021 24.1014 11.6173 23.8399 11.0039C23.7882 10.8776 23.7365 10.7513 23.6833 10.6212C22.5873 8.20246 20.6808 6.53074 18.2945 5.46141C14.6072 4.12439 10.3795 5.3456 7.89007 8.2881Z" fill="#8AE1D8"/>
</svg>
