<svg width="29" height="29" viewBox="0 0 29 29" fill="none" xmlns="http://www.w3.org/2000/svg">
<path d="M14.8143 0.381392C15.0304 0.377565 15.2465 0.373738 15.4692 0.369795C17.5072 0.360712 19.3235 0.722853 21.1345 1.66862C21.2602 1.73308 21.3859 1.79754 21.5154 1.86396C22.6019 2.43879 23.5451 3.12059 24.4512 3.95317C24.582 4.07133 24.7128 4.18948 24.8476 4.31122C27.3029 6.6402 28.8426 9.86064 28.9355 13.261C28.9809 17.695 27.9847 21.3264 24.8288 24.5532C22.0015 27.3584 18.6639 28.6806 14.71 28.7237C10.4454 28.6772 7.21364 27.0586 4.1693 24.1379C1.62895 21.4787 0.554513 18.0438 0.469238 14.425C0.560652 10.5742 1.86041 7.15539 4.52808 4.36268C7.46491 1.63355 10.8552 0.398522 14.8143 0.381392ZM7.38158 8.48095C5.59281 10.7997 5.13092 13.1299 5.33984 16.0137C5.67783 18.4131 7.19069 20.525 9.09717 21.9628C9.25877 22.0848 9.25877 22.0848 9.42364 22.2092C11.6855 23.8884 13.8665 24.198 16.6582 23.8067C19.0929 23.3631 21.0495 21.7838 22.5957 19.9102C24.0973 17.5046 24.3372 15.0773 24.0801 12.3028C23.8859 11.4699 23.5973 10.8037 23.1523 10.0762C23.0517 9.91142 22.951 9.74662 22.8472 9.57683C21.4104 7.40052 19.4601 5.74717 16.8633 5.14763C13.1553 4.62524 9.8567 5.54534 7.38158 8.48095Z" fill="#8AE1D8"/>
</svg>
