<svg width="15" height="29" viewBox="0 0 15 29" fill="none" xmlns="http://www.w3.org/2000/svg">
<path d="M0.343694 0.613281C5.05844 0.613281 9.77319 0.613281 14.6308 0.613281C14.842 2.51375 14.842 2.51375 14.8395 3.14136C14.8403 3.32864 14.8403 3.32864 14.841 3.5197C14.808 4.10041 14.7131 4.67615 14.6308 5.25195C9.94667 5.3438 9.94667 5.3438 5.16791 5.4375C5.16791 7.58057 5.16791 9.72363 5.16791 11.9316C5.67259 11.9273 6.17726 11.923 6.69723 11.9186C7.1848 11.9157 7.67237 11.9134 8.15995 11.9113C8.4994 11.9094 8.83884 11.9069 9.17828 11.9036C9.66556 11.8992 10.1528 11.897 10.6401 11.8954C10.7924 11.8935 10.9447 11.8916 11.1016 11.8896C11.4743 11.8895 11.8468 11.9089 12.2187 11.9316C12.6955 12.4085 12.6375 12.5976 12.6391 13.2595C12.6398 13.544 12.6398 13.544 12.6405 13.8342C12.6391 14.033 12.6377 14.2317 12.6362 14.4365C12.6383 14.7347 12.6383 14.7347 12.6405 15.0388C12.64 15.2285 12.6396 15.4182 12.6391 15.6136C12.6387 15.7881 12.6382 15.9626 12.6378 16.1423C12.5898 16.5703 12.5898 16.5703 12.2187 16.9414C11.673 16.9739 11.145 16.9843 10.5995 16.9776C10.4394 16.9771 10.2793 16.9766 10.1144 16.9761C9.60201 16.974 9.08969 16.9693 8.57734 16.9646C8.2304 16.9627 7.88347 16.961 7.53653 16.9595C6.6851 16.9557 5.8338 16.9485 4.98237 16.9414C5.0436 19.1457 5.10483 21.35 5.16791 23.6211C8.29067 23.6211 11.4134 23.6211 14.6308 23.6211C14.9793 24.318 14.8506 25.162 14.8511 25.9288C14.8534 26.1083 14.8557 26.2878 14.858 26.4728C14.8584 26.6451 14.8587 26.8174 14.8591 26.995C14.8599 27.153 14.8606 27.3109 14.8614 27.4737C14.8164 27.8887 14.8164 27.8887 14.4453 28.4453C13.9908 28.4995 13.5833 28.5175 13.1286 28.5114C12.9931 28.5118 12.8577 28.5122 12.7181 28.5126C12.2691 28.5132 11.8203 28.5097 11.3714 28.5062C11.0604 28.5056 10.7494 28.5053 10.4383 28.5051C9.78617 28.5043 9.13404 28.5016 8.48189 28.4975C7.64409 28.4922 6.80633 28.4902 5.96852 28.4894C5.32627 28.4886 4.68402 28.4868 4.04176 28.4846C3.73275 28.4835 3.42373 28.4826 3.11471 28.4819C2.68375 28.4807 2.25281 28.4781 1.82186 28.4752C1.62855 28.4749 1.62855 28.4749 1.43133 28.4746C0.550521 28.4666 0.550521 28.4666 0.343694 28.2598C0.323101 27.9085 0.315613 27.5564 0.313088 27.2045C0.311004 26.9753 0.30892 26.746 0.306772 26.5099C0.30538 26.2535 0.304008 25.9972 0.302653 25.7408C0.300573 25.4726 0.298414 25.2045 0.296183 24.9364C0.290356 24.2061 0.285702 23.4758 0.281303 22.7455C0.276565 21.9827 0.270934 21.2199 0.265445 20.4571C0.256374 19.1757 0.248086 17.8943 0.24023 16.6128C0.231125 15.1298 0.220679 13.6468 0.209536 12.1637C0.20002 10.8924 0.191234 9.62106 0.183061 8.34972C0.178173 7.58956 0.173026 6.82939 0.16722 6.06923C0.161802 5.35452 0.157297 4.63981 0.153508 3.9251C0.151964 3.66225 0.150096 3.3994 0.147888 3.13656C0.144935 2.77879 0.143246 2.42101 0.14163 2.06323C0.140331 1.86268 0.139033 1.66212 0.137695 1.45549C0.158147 0.984375 0.158147 0.984375 0.343694 0.613281Z" fill="#8AE1D8"/>
</svg>
