<svg width="8" height="2" viewBox="0 0 8 2" fill="none" xmlns="http://www.w3.org/2000/svg">
<path d="M0.892578 0.427683C1.65407 0.411295 2.41551 0.401552 3.17712 0.392893C3.39012 0.388229 3.60311 0.383565 3.82255 0.378759C5.22444 0.366845 6.42841 0.53568 7.75781 0.984323C7.57412 1.10678 7.39043 1.22925 7.20117 1.35542C6.82669 1.24239 6.4559 1.11693 6.08789 0.984323C5.67427 0.932085 5.25875 0.893626 4.8427 0.866907C4.61189 0.85136 4.38108 0.835813 4.14327 0.819796C3.78558 0.79791 3.78558 0.79791 3.42065 0.775583C3.17789 0.759558 2.93512 0.743533 2.68499 0.727022C2.08759 0.687777 1.49014 0.649892 0.892578 0.61323C0.892578 0.551999 0.892578 0.490769 0.892578 0.427683Z" fill="#8AE1D8"/>
</svg>
