<svg width="6" height="28" viewBox="0 0 6 28" fill="none" xmlns="http://www.w3.org/2000/svg">
<path d="M5.00985 0.169922C5.07108 0.169922 5.13231 0.169922 5.19539 0.169922C5.20405 3.6714 5.2106 7.17287 5.21462 10.6743C5.21654 12.3001 5.21915 13.9258 5.22339 15.5515C5.22708 16.968 5.22948 18.3846 5.23031 19.8012C5.23079 20.5516 5.23194 21.302 5.23463 22.0524C5.23714 22.7581 5.23793 23.4639 5.23737 24.1696C5.23747 24.4291 5.23821 24.6887 5.23963 24.9483C5.24146 25.3016 5.24081 25.6549 5.24002 26.0082C5.24036 26.2063 5.2407 26.4043 5.24106 26.6084C5.19539 27.0742 5.19539 27.0742 4.8243 27.4453C4.41334 27.4933 4.41334 27.4933 3.90816 27.4946C3.72686 27.4951 3.54556 27.4956 3.35877 27.496C3.0739 27.4939 3.0739 27.4939 2.78328 27.4917C2.59337 27.4931 2.40346 27.4946 2.2078 27.496C2.0265 27.4956 1.8452 27.4951 1.65841 27.4946C1.4917 27.4942 1.32499 27.4938 1.15322 27.4933C0.742267 27.4453 0.742267 27.4453 0.371174 27.0742C0.326101 26.5529 0.326101 26.5529 0.328411 25.8935C0.32877 25.6561 0.329129 25.4188 0.329498 25.1742C0.330649 25.0501 0.3318 24.9261 0.332986 24.7982C0.336353 24.422 0.336792 24.0458 0.336746 23.6695C0.345827 21.6606 0.345827 21.6606 0.556721 20.7656C1.02303 21.4651 0.957454 21.8021 0.923466 22.6349C0.918822 22.7617 0.914179 22.8886 0.909394 23.0194C0.894166 23.424 0.876236 23.8285 0.858234 24.233C0.847426 24.5076 0.836793 24.7822 0.826343 25.0568C0.800361 25.7293 0.771955 26.4018 0.742267 27.0742C1.35316 27.0539 1.96383 27.0296 2.57454 27.0046C2.83537 26.996 2.83537 26.996 3.10147 26.9872C3.2677 26.9801 3.43393 26.9729 3.6052 26.9655C3.75872 26.9597 3.91225 26.9538 4.07042 26.9478C4.494 26.921 4.494 26.921 4.8243 26.5176C4.8828 26.0396 4.8828 26.0396 4.87597 25.4727C4.87804 25.2505 4.88011 25.0283 4.88225 24.7994C4.88268 24.5518 4.88309 24.3043 4.88346 24.0568C4.88518 23.7972 4.88707 23.5375 4.88911 23.2779C4.89419 22.5718 4.89699 21.8657 4.89939 21.1596C4.90229 20.4221 4.90726 19.6847 4.91202 18.9472C4.92071 17.5502 4.92752 16.1531 4.93366 14.7561C4.94075 13.1658 4.94992 11.5756 4.95927 9.98531C4.97845 6.71352 4.99501 3.44173 5.00985 0.169922Z" fill="#8AE1D8"/>
</svg>
