<svg width="20" height="29" viewBox="0 0 20 29" fill="none" xmlns="http://www.w3.org/2000/svg">
<path d="M10.1732 0.369658C10.3698 0.366668 10.5664 0.363678 10.769 0.360598C13.5644 0.358885 15.8891 1.26504 17.8966 3.21084C17.7578 4.36914 17.0527 4.86977 16.2267 5.62295C16.1234 5.72245 16.02 5.82195 15.9136 5.92447C15.5146 6.29018 15.1887 6.53137 14.6611 6.66665C14.0729 6.52318 13.7242 6.24883 13.2652 5.86213C11.9007 4.99951 10.1671 5.12834 8.61926 5.25186C7.66154 5.47361 6.98523 5.77261 6.28832 6.46951C5.81217 7.2769 5.71854 8.04195 5.83605 8.9628C6.42295 10.2966 7.75438 10.9212 9.05649 11.4352C9.73925 11.6714 10.4244 11.8971 11.1125 12.1171C14.5339 13.2145 17.2739 14.5742 19.0099 17.869C19.7253 19.5175 19.548 21.4516 18.9983 23.1223C18.1276 25.3028 16.5561 26.9433 14.406 27.9176C11.306 29.1133 8.19278 28.8778 5.14388 27.6914C3.19646 26.8219 1.49948 25.2185 0.640741 23.2499C0.637842 22.8484 0.637842 22.8484 0.826288 22.5077C1.26624 22.2519 1.26624 22.2519 1.8352 22.0323C2.03492 21.9548 2.23463 21.8773 2.4404 21.7974C3.25498 21.5082 4.07432 21.2503 4.90832 21.0233C5.19695 21.3002 5.45841 21.5712 5.69762 21.8924C6.54988 23.0347 7.56295 23.4521 8.94179 23.7196C10.4688 23.9096 11.8711 23.8217 13.1536 22.9136C13.8823 22.3068 14.2614 21.7631 14.5336 20.8494C14.5642 20.0993 14.4265 19.788 14.0001 19.1679C12.7332 17.8945 11.007 17.427 9.34477 16.8739C6.11467 15.7899 2.82287 14.3903 1.19738 11.1894C0.381068 8.99932 0.481467 6.88332 1.42352 4.73653C2.5374 2.72845 4.37719 1.35931 6.56782 0.68825C7.76541 0.383501 8.94283 0.365943 10.1732 0.369658Z" fill="#8AE1D8"/>
</svg>
