<svg width="20" height="29" viewBox="0 0 20 29" fill="none" xmlns="http://www.w3.org/2000/svg">
<path d="M16.5607 1.97505C17.1722 2.44331 17.611 2.96974 18.0762 3.58192C17.7801 4.34863 17.2221 4.82922 16.6266 5.36781C16.5299 5.4587 16.4331 5.54959 16.3335 5.64323C15.7725 6.15584 15.2779 6.50776 14.5508 6.73622C14.4054 6.59462 14.26 6.45303 14.1102 6.30714C12.6031 5.07635 10.6559 5.10336 8.79888 5.25184C7.67856 5.45454 6.91258 5.81563 6.20122 6.73622C5.84137 7.39595 5.64458 7.85006 5.64458 8.60328C6.02494 9.72058 6.64077 10.2455 7.65081 10.7951C8.79854 11.3404 9.99127 11.7164 11.1994 12.1055C14.2384 13.0892 17.136 14.4261 18.8184 17.3124C19.6254 18.9187 19.8457 20.5545 19.4316 22.3135C18.6881 24.5501 17.2492 26.4649 15.1539 27.5755C12.2009 28.9251 8.99377 29.1129 5.9403 27.9777C3.72814 27.0664 2.14793 25.9566 0.971121 23.8391C0.796739 23.3722 0.809737 23.0024 0.820365 22.5077C1.42201 22.253 2.0255 22.0031 2.62945 21.7539C2.80022 21.6816 2.971 21.6092 3.14695 21.5347C3.31198 21.4671 3.47702 21.3995 3.64705 21.3299C3.79864 21.2668 3.95022 21.2036 4.10639 21.1385C4.58615 21.0085 4.81826 21.0146 5.27349 21.2089C5.4405 21.4749 5.60725 21.741 5.77215 22.0083C6.51851 22.9702 7.70297 23.5711 8.88803 23.7725C10.4086 23.8833 12.0002 23.8347 13.252 22.8788C13.9491 22.194 14.5131 21.6014 14.6088 20.6058C14.5378 19.7535 14.3772 19.4346 13.8086 18.7968C12.4985 17.8617 10.9379 17.4148 9.43162 16.8985C6.31068 15.7993 2.93365 14.5048 1.37048 11.3995C0.473315 9.41632 0.623882 7.27132 1.32989 5.24677C2.23851 3.09268 3.75412 1.92873 5.85405 0.992236C9.27033 -0.248779 13.4838 0.0124593 16.5607 1.97505Z" fill="#8AE1D8"/>
</svg>
