<svg width="4" height="3" viewBox="0 0 4 3" fill="none" xmlns="http://www.w3.org/2000/svg">
<path d="M3.54883 0.640625C3.61006 0.763086 3.67129 0.885547 3.73438 1.01172C3.28239 1.25578 2.83008 1.49922 2.37756 1.74231C2.24948 1.81155 2.1214 1.8808 1.98944 1.95214C1.86566 2.01851 1.74188 2.08488 1.61436 2.15327C1.44383 2.24509 1.44383 2.24509 1.26985 2.33877C0.951172 2.49609 0.951172 2.49609 0.394531 2.68164C0.580078 2.125 0.580078 2.125 0.873664 1.92555C0.997067 1.86627 1.12047 1.807 1.24761 1.74593C1.38096 1.68076 1.5143 1.61558 1.65168 1.54843C1.79172 1.48229 1.93177 1.41616 2.07605 1.34802C2.21681 1.27974 2.35757 1.21145 2.50259 1.14109C2.85053 0.972595 3.19958 0.806391 3.54883 0.640625Z" fill="#8AE1D8"/>
</svg>
