<svg width="4" height="6" viewBox="0 0 4 6" fill="none" xmlns="http://www.w3.org/2000/svg">
<path d="M2.87695 0.519531C2.93818 0.703223 2.99941 0.886914 3.0625 1.07617C2.84361 1.46973 2.84361 1.46973 2.52905 1.89954C2.13604 2.4397 1.91241 2.84098 1.76367 3.48828C1.52036 3.7397 1.27254 3.98679 1.02148 4.23047C0.827866 4.53473 0.639985 4.84295 0.464844 5.1582C0.342383 5.09697 0.219922 5.03574 0.09375 4.97266C0.452569 4.36922 0.812319 3.76635 1.17224 3.16357C1.32454 2.90741 1.32454 2.90741 1.47992 2.64607C1.57858 2.48104 1.67724 2.316 1.77889 2.14597C1.86926 1.99438 1.95962 1.8428 2.05273 1.68663C2.30871 1.28014 2.58303 0.899225 2.87695 0.519531Z" fill="#8AE1D8"/>
</svg>
