<svg width="44" height="62" viewBox="0 0 44 62" fill="none" xmlns="http://www.w3.org/2000/svg">
<path d="M27.1679 1.84962C29.1089 3.3818 30.5773 5.12108 31.0644 7.60157C31.2723 9.79605 30.868 11.5307 30.0744 13.5664C29.6369 14.7863 29.5264 16.1122 30.0555 17.3196C30.5498 18.1768 31.2416 18.5597 32.1617 18.8442C33.3585 19.1351 34.5036 19.1475 35.7306 19.1287C35.9411 19.1273 36.1516 19.1259 36.3684 19.1244C37.0357 19.1199 37.703 19.113 38.3703 19.1055C39.2531 19.0956 40.1359 19.0882 41.0187 19.0823C41.3231 19.0777 41.3231 19.0777 41.6336 19.0729C41.8214 19.0717 42.0091 19.0705 42.2025 19.0692C42.4502 19.0663 42.4502 19.0663 42.7029 19.0633C43.1249 19.1055 43.1249 19.1055 43.6816 19.4766C43.7485 19.8452 43.7485 19.8452 43.7448 20.3022C43.7447 20.473 43.7447 20.6439 43.7446 20.8199C43.7418 21.0047 43.7389 21.1895 43.7359 21.3799C43.7351 21.5688 43.7344 21.7577 43.7335 21.9524C43.7304 22.5574 43.7234 23.1623 43.7164 23.7673C43.7136 24.1768 43.711 24.5864 43.7088 24.9959C43.7026 26.0012 43.6933 27.0064 43.6816 28.0117C42.8478 28.2092 42.3863 28.1302 41.571 27.8494C38.3807 26.7606 34.8771 27.1013 31.8211 28.4618C28.1048 30.3624 25.9472 32.9965 24.6108 36.9789C23.6649 40.6236 24.3802 44.4013 26.1017 47.6898C27.842 50.6253 30.7566 52.6637 34.0215 53.594C37.245 54.4011 40.4092 54.0122 43.496 52.875C43.7905 53.1694 43.7052 53.4711 43.7056 53.8792C43.7062 54.0532 43.7068 54.2272 43.7074 54.4064C43.7068 54.6902 43.7068 54.6902 43.7062 54.9798C43.7064 55.1727 43.7066 55.3655 43.7068 55.5642C43.7069 55.9729 43.7065 56.3816 43.7058 56.7902C43.7048 57.4182 43.7058 58.0461 43.7069 58.6741C43.7068 59.07 43.7066 59.466 43.7062 59.862C43.7066 60.0512 43.707 60.2404 43.7074 60.4354C43.7065 60.6964 43.7065 60.6964 43.7056 60.9626C43.7054 61.1166 43.7053 61.2705 43.7051 61.4291C43.6816 61.7812 43.6816 61.7812 43.496 61.9668C42.9499 61.9854 42.4081 61.9917 41.8619 61.9904C41.6016 61.9908 41.6016 61.9908 41.336 61.9912C40.7498 61.992 40.1636 61.9914 39.5774 61.9908C39.1591 61.9911 38.7407 61.9914 38.3224 61.9918C37.1827 61.9926 36.043 61.9923 34.9033 61.9917C33.7135 61.9913 32.5237 61.9917 31.3339 61.992C29.2072 61.9923 27.0805 61.9918 24.9538 61.9908C23.0237 61.99 21.0935 61.9901 19.1634 61.991C16.9246 61.992 14.6858 61.9924 12.447 61.9918C11.2609 61.9915 10.0748 61.9915 8.88876 61.9921C7.77398 61.9926 6.6592 61.9923 5.54441 61.9912C5.13398 61.9909 4.72355 61.991 4.31312 61.9914C3.75539 61.9919 3.19768 61.9913 2.63995 61.9904C2.47529 61.9908 2.31063 61.9912 2.14098 61.9916C1.02698 61.988 1.02698 61.988 0.820249 61.7812C0.801247 61.2379 0.794486 60.6989 0.795439 60.1554C0.795019 59.9827 0.794598 59.8101 0.794165 59.6322C0.792983 59.049 0.793143 58.4658 0.793296 57.8826C0.792741 57.4664 0.79211 57.0502 0.791408 56.634C0.789763 55.5 0.789334 54.3661 0.789216 53.2321C0.789041 52.2873 0.788357 51.3424 0.787699 50.3975C0.786272 48.2968 0.785719 46.1961 0.785844 44.0954C0.785852 43.9693 0.785859 43.8431 0.785867 43.7131C0.785875 43.5868 0.785882 43.4605 0.78589 43.3304C0.785965 41.2825 0.784191 39.2346 0.781575 37.1867C0.778913 35.0863 0.77766 32.9858 0.777787 30.8853C0.777834 29.7051 0.7773 28.525 0.775343 27.3448C0.773555 26.2353 0.773526 25.1259 0.774882 24.0164C0.775077 23.6082 0.774633 23.1999 0.773517 22.7916C0.772097 22.2364 0.772937 21.6812 0.774375 21.126C0.773421 20.9626 0.772468 20.7992 0.771484 20.6308C0.777896 19.5189 0.777894 19.5189 1.19134 19.1055C1.61795 19.0633 1.61795 19.0633 2.15785 19.0692C2.46087 19.0711 2.46087 19.0711 2.77001 19.0729C2.98956 19.076 3.2091 19.0791 3.4353 19.0823C3.66101 19.0837 3.88671 19.0851 4.11926 19.0865C5.08721 19.0926 6.0551 19.103 7.02302 19.1131C7.72897 19.1198 8.4349 19.1243 9.14087 19.1287C9.35741 19.1317 9.57395 19.1348 9.79705 19.138C11.4795 19.148 13.2255 19.1558 14.5507 17.9922C15.227 16.9661 15.3837 15.9795 15.1987 14.7872C14.9573 13.6157 14.6514 12.4729 14.2963 11.3314C13.6539 9.18478 14.0314 6.95254 14.9682 4.94593C16.0401 2.98606 17.6643 1.60875 19.8156 0.945075C20.1002 0.869873 20.3864 0.800093 20.6738 0.736334C20.8249 0.702371 20.9761 0.668407 21.1318 0.633414C23.1887 0.271559 25.419 0.688159 27.1679 1.84962Z" fill="#8AE1D8"/>
</svg>
