<svg width="4" height="6" viewBox="0 0 4 6" fill="none" xmlns="http://www.w3.org/2000/svg">
<path d="M0.978444 0.591797C1.40303 1.01638 1.42794 1.19876 1.53508 1.77466C1.62313 2.24475 1.70796 2.60845 1.92937 3.03435C1.98295 3.14676 2.03653 3.25918 2.09173 3.375C2.0305 3.49746 1.96926 3.61992 1.90618 3.74609C2.02864 3.74609 2.1511 3.74609 2.27727 3.74609C2.27727 3.86855 2.27727 3.99102 2.27727 4.11719C2.39973 4.11719 2.52219 4.11719 2.64837 4.11719C2.97921 4.60683 3.20326 5.03969 3.39055 5.60156C2.31838 5.193 1.87757 4.14842 1.34954 3.18945C0.974994 2.33733 0.940658 1.51756 0.978444 0.591797Z" fill="#8AE1D8"/>
</svg>
