<svg width="163" height="153" viewBox="0 0 163 153" fill="none" xmlns="http://www.w3.org/2000/svg">
<path d="M96.9405 27.7256C97.2675 27.837 97.5001 28.0901 97.7463 28.3225C97.7919 28.3651 97.8374 28.4076 97.8843 28.4515C98.3889 28.9255 98.8944 29.401 99.3431 29.9292C99.939 30.6244 100.607 31.2786 101.306 31.8699C101.905 32.406 102.472 32.9873 102.992 33.6C103.486 34.1509 104.017 34.6883 104.581 35.1672C105.243 35.7292 105.858 36.3662 106.42 37.0276C106.883 37.5466 107.383 38.0502 107.914 38.5001C108.406 38.917 108.85 39.3886 109.302 39.8479C109.421 39.9672 109.543 40.083 109.666 40.1982C109.837 40.3835 109.891 40.4539 109.914 40.6987C109.83 40.8381 109.83 40.8381 109.694 40.982C109.643 41.0373 109.591 41.0927 109.538 41.1498C109.478 41.2111 109.418 41.2723 109.357 41.3354C109.29 41.4036 109.224 41.4717 109.156 41.5419C108.972 41.7295 108.787 41.9157 108.601 42.101C108.486 42.2157 108.371 42.3309 108.257 42.4461C107.881 42.8217 107.5 43.1838 107.097 43.5295C106.707 43.8774 106.37 44.3335 106.312 44.8598C106.286 45.4127 106.396 45.733 106.751 46.1491C107.066 46.4573 107.437 46.6259 107.829 46.8122C108.857 47.3027 109.603 48.0348 110.012 49.1039C110.308 50.0347 110.216 51.0323 109.834 51.9209C109.347 52.8418 108.619 53.463 107.63 53.7763C106.685 54.0246 105.715 54.0007 104.83 53.5572C103.928 53.0168 103.422 52.3889 102.989 51.4434C102.888 51.2543 102.783 51.0677 102.677 50.8813C102.617 50.7739 102.562 50.6643 102.509 50.5533C102.407 50.3614 102.313 50.3326 102.114 50.2495C102.042 50.2068 101.969 50.1642 101.895 50.1202C101.53 49.9656 101.218 49.9421 100.843 50.0602C100.264 50.319 99.8117 50.7711 99.4037 51.2459C99.0482 51.6563 98.6694 52.0431 98.2872 52.4283C98.2045 52.5118 98.1223 52.5957 98.0404 52.68C97.9205 52.8032 97.7997 52.9253 97.6786 53.0473C97.6075 53.1195 97.5364 53.1917 97.4632 53.2661C97.2482 53.4418 97.1376 53.5099 96.8609 53.5127C96.7132 53.4287 96.7132 53.4287 96.5718 53.2926C96.5172 53.2409 96.4626 53.1893 96.4063 53.136C96.3162 53.0467 96.3162 53.0467 96.2242 52.9556C96.1565 52.8899 96.0888 52.8241 96.0191 52.7564C95.7972 52.5393 95.5777 52.32 95.3586 52.1C95.2824 52.024 95.2061 51.948 95.1298 51.8721C95.0578 51.8 94.9858 51.7278 94.9116 51.6535C94.8464 51.5883 94.7813 51.5231 94.7142 51.4559C94.4682 51.1942 94.3936 51.0953 94.3936 50.7271C94.4678 50.6912 94.542 50.6554 94.6184 50.6185C96.066 49.8973 97.277 48.8335 97.8337 47.2702C98.3098 45.6576 98.214 44.0022 97.4479 42.4895C96.6368 41.0837 95.4096 40.1184 93.8464 39.679C92.296 39.3367 90.7337 39.5284 89.3521 40.3204C88.3107 41.008 87.3609 42.0738 86.9122 43.2456C86.7483 43.2774 86.7483 43.2774 86.5142 43.2456C86.3052 43.099 86.1318 42.9189 85.9531 42.7373C85.9006 42.6852 85.8482 42.6332 85.7942 42.5795C85.6836 42.4693 85.5736 42.3585 85.4641 42.2473C85.2961 42.0772 85.1261 41.9094 84.9559 41.7416C84.8487 41.6342 84.7417 41.5267 84.6348 41.4191C84.5839 41.3689 84.5329 41.3187 84.4804 41.267C84.4106 41.1954 84.4106 41.1954 84.3394 41.1223C84.2982 41.0807 84.257 41.0392 84.2145 40.9964C84.0925 40.8043 84.0955 40.6835 84.1265 40.46C84.222 40.3161 84.222 40.3161 84.3575 40.1825C84.4333 40.1064 84.4333 40.1064 84.5106 40.0287C84.5661 39.9751 84.6216 39.9214 84.6787 39.8661C84.7355 39.8097 84.7923 39.7533 84.8508 39.6952C85.0329 39.5147 85.2164 39.3357 85.4 39.1567C85.5212 39.0368 85.6423 38.9168 85.7634 38.7967C86.247 38.3188 86.7296 37.8456 87.2467 37.4037C87.4906 37.1866 87.7073 36.9455 87.9269 36.7043C88.4122 36.1795 88.9093 35.668 89.4143 35.1623C89.4802 35.096 89.5461 35.0298 89.614 34.9615C89.9044 34.6717 90.1963 34.3887 90.5077 34.1214C90.8109 33.8604 91.0802 33.5775 91.3493 33.282C91.8345 32.7572 92.3316 32.2456 92.8366 31.7399C92.9025 31.6737 92.9684 31.6074 93.0363 31.5392C93.3265 31.2497 93.6181 30.9669 93.9291 30.6999C94.2379 30.4342 94.5123 30.1454 94.7866 29.8447C95.2385 29.3562 95.6993 28.878 96.1695 28.4071C96.228 28.3482 96.2865 28.2893 96.3468 28.2287C96.4285 28.1472 96.4285 28.1472 96.5118 28.0642C96.56 28.016 96.6083 27.9678 96.658 27.9182C96.7813 27.8052 96.7813 27.8052 96.9405 27.7256Z" fill="black"/>
<path d="M58.9059 39.0167C59.0118 39.017 59.0118 39.017 59.1199 39.0173C59.1944 39.0171 59.2688 39.017 59.3455 39.0169C59.5969 39.0166 59.8484 39.0168 60.0998 39.0171C60.2793 39.017 60.4587 39.0168 60.6382 39.0166C61.127 39.0163 61.6159 39.0164 62.1048 39.0167C62.6152 39.0169 63.1255 39.0167 63.6359 39.0166C64.5481 39.0164 65.4604 39.0167 66.3726 39.0171C67.2005 39.0174 68.0285 39.0174 68.8564 39.017C69.8167 39.0166 70.777 39.0164 71.7374 39.0166C72.2461 39.0168 72.7549 39.0168 73.2637 39.0165C73.7418 39.0163 74.22 39.0165 74.6982 39.0169C74.8743 39.017 75.0503 39.017 75.2264 39.0168C75.4656 39.0166 75.7048 39.0169 75.9441 39.0173C76.0147 39.0171 76.0853 39.0169 76.1581 39.0167C76.636 39.0183 76.636 39.0183 76.7246 39.107C76.7328 39.257 76.7354 39.4073 76.7359 39.5576C76.7368 39.7023 76.7368 39.7023 76.7376 39.85C76.7378 39.9279 76.7378 39.9279 76.7381 40.0073C76.7386 40.17 76.7399 40.3327 76.7413 40.4954C76.7455 40.9581 76.7493 41.4208 76.7506 41.8836C76.7514 42.1665 76.7537 42.4494 76.757 42.7323C76.7585 42.8915 76.7583 43.0508 76.7581 43.2101C76.7655 43.7712 76.7883 44.2859 77.1226 44.7578C77.304 44.903 77.4642 44.9804 77.6797 45.0762C77.7322 45.1025 77.7848 45.1287 77.8389 45.1558C78.4642 45.2469 79.0048 45.1103 79.5948 44.922C80.6866 44.5749 81.6285 44.4661 82.7038 44.9618C83.6343 45.4653 84.3522 46.2263 84.6786 47.245C84.8988 48.211 84.8322 49.23 84.3482 50.1062C84.2315 50.273 84.1056 50.4184 83.9673 50.5679C83.871 50.6764 83.871 50.6764 83.7727 50.7871C83.0666 51.5559 82.3082 51.9217 81.2612 52.0005C80.6486 52.0231 80.1235 51.8702 79.5501 51.6772C78.8495 51.4428 78.1932 51.2695 77.4807 51.5677C77.0894 51.7956 76.9446 52.1364 76.8042 52.5576C76.7957 52.7094 76.7918 52.8613 76.7904 53.0133C76.7888 53.1535 76.7888 53.1535 76.7872 53.2966C76.7863 53.3975 76.7855 53.4985 76.7846 53.6026C76.7827 53.7607 76.7807 53.9188 76.7787 54.0769C76.7739 54.4674 76.7698 54.8578 76.7663 55.2483C76.7642 55.4674 76.7618 55.6865 76.7589 55.9056C76.7562 56.1123 76.7541 56.3189 76.7528 56.5256C76.7508 56.6654 76.7508 56.6654 76.7487 56.8081C76.7479 56.8904 76.7471 56.9728 76.7463 57.0576C76.7246 57.2534 76.7246 57.2534 76.5655 57.4126C76.415 57.4328 76.415 57.4328 76.2297 57.4332C76.1604 57.4337 76.091 57.4342 76.0196 57.4347C75.9446 57.4344 75.8696 57.4341 75.7922 57.4338C75.7153 57.4339 75.6384 57.4341 75.5591 57.4342C75.3962 57.4343 75.2333 57.434 75.0704 57.4334C74.8207 57.4325 74.5712 57.4334 74.3215 57.4344C74.1635 57.4343 74.0054 57.4341 73.8473 57.4338C73.7724 57.4341 73.6975 57.4344 73.6204 57.4347C73.516 57.434 73.516 57.434 73.4095 57.4332C73.3177 57.433 73.3177 57.433 73.2241 57.4328C73.0635 57.4126 73.0635 57.4126 72.8247 57.2534C72.8592 57.1599 72.8937 57.0663 72.9292 56.9699C73.4811 55.2932 73.425 53.6731 72.6655 52.0801C71.9416 50.7251 70.8421 49.7629 69.3675 49.3044C67.7505 48.8167 66.1552 48.9742 64.6606 49.7689C63.2915 50.5847 62.3864 51.7704 61.9657 53.3237C61.7023 54.4173 61.7699 55.5137 62.0823 56.5863C62.1538 56.8352 62.2021 57.077 62.2393 57.333C61.8588 57.4307 61.4869 57.4241 61.097 57.4232C60.9901 57.4233 60.9901 57.4233 60.881 57.4234C60.7307 57.4235 60.5805 57.4233 60.4302 57.423C60.2 57.4226 59.9699 57.423 59.7397 57.4235C59.5935 57.4235 59.4474 57.4233 59.3013 57.4232C59.2324 57.4234 59.1635 57.4235 59.0925 57.4237C59.0285 57.4234 58.9645 57.4232 58.8985 57.4229C58.8141 57.4228 58.8141 57.4228 58.7281 57.4227C58.5781 57.4126 58.5781 57.4126 58.3394 57.333C58.3376 55.0125 58.3362 52.692 58.3353 50.3714C58.3352 50.0977 58.3351 49.8241 58.335 49.5504C58.335 49.4959 58.335 49.4414 58.3349 49.3853C58.3346 48.5019 58.334 47.6185 58.3332 46.7351C58.3325 45.8294 58.3321 44.9236 58.3319 44.0179C58.3318 43.5088 58.3315 42.9998 58.331 42.4908C58.3304 42.0123 58.3303 41.5338 58.3304 41.0552C58.3304 40.8791 58.3302 40.7029 58.3299 40.5267C58.3295 40.2873 58.3296 40.0479 58.3298 39.8085C58.3296 39.7378 58.3293 39.6671 58.3291 39.5943C58.3305 39.0301 58.3417 39.0186 58.9059 39.0167Z" fill="black"/>
<path d="M69.5614 51.6821C70.394 52.3393 71.0239 53.0854 71.2328 54.1494C71.322 55.0907 71.1486 55.8348 70.8082 56.708C70.6205 57.2313 70.5731 57.8 70.8001 58.3179C71.0121 58.6856 71.3088 58.8499 71.7035 58.9719C72.2169 59.0967 72.7081 59.102 73.2344 59.0939C73.3247 59.0933 73.415 59.0927 73.508 59.0921C73.7942 59.0902 74.0804 59.0872 74.3667 59.084C74.7454 59.0798 75.124 59.0766 75.5027 59.074C75.6333 59.072 75.6333 59.072 75.7665 59.07C75.847 59.0695 75.9275 59.069 76.0105 59.0684C76.1168 59.0672 76.1168 59.0672 76.2252 59.0659C76.4062 59.084 76.4062 59.084 76.6449 59.2432C76.6737 59.4013 76.6737 59.4013 76.672 59.5973C76.672 59.6706 76.672 59.7439 76.672 59.8194C76.6708 59.8987 76.6695 59.9779 76.6683 60.0596C76.6679 60.1406 76.6676 60.2217 76.6672 60.3051C76.6659 60.5647 76.6629 60.8242 76.6599 61.0837C76.6587 61.2593 76.6576 61.435 76.6566 61.6106C76.654 62.0419 76.65 62.4731 76.6449 62.9043C76.2873 62.989 76.0893 62.9551 75.7396 62.8346C74.3711 62.3676 72.8683 62.5138 71.5574 63.0974C69.9633 63.9126 69.0378 65.0425 68.4646 66.7507C68.0588 68.3141 68.3657 69.9346 69.1041 71.3452C69.8506 72.6043 71.1008 73.4787 72.5013 73.8777C73.884 74.224 75.2413 74.0571 76.5653 73.5693C76.6916 73.6956 76.6551 73.825 76.6552 74.0001C76.6555 74.0747 76.6557 74.1493 76.656 74.2262C76.6558 74.348 76.6558 74.348 76.6555 74.4722C76.6556 74.5549 76.6557 74.6376 76.6557 74.7229C76.6558 74.8982 76.6556 75.0735 76.6553 75.2488C76.6549 75.5181 76.6553 75.7875 76.6558 76.0568C76.6558 76.2267 76.6557 76.3965 76.6555 76.5664C76.6557 76.6475 76.6558 76.7287 76.656 76.8123C76.6556 76.9243 76.6556 76.9243 76.6552 77.0385C76.6552 77.1045 76.6551 77.1706 76.655 77.2386C76.6449 77.3896 76.6449 77.3896 76.5653 77.4692C76.3311 77.4772 76.0987 77.4799 75.8644 77.4793C75.7527 77.4795 75.7527 77.4795 75.6388 77.4797C75.3874 77.48 75.1359 77.4798 74.8845 77.4795C74.705 77.4796 74.5256 77.4798 74.3461 77.48C73.8573 77.4803 73.3684 77.4802 72.8795 77.4799C72.3692 77.4797 71.8588 77.4799 71.3484 77.48C70.4362 77.4802 69.524 77.4799 68.6117 77.4795C67.7838 77.4792 66.9559 77.4792 66.1279 77.4796C65.1676 77.48 64.2073 77.4802 63.2469 77.48C62.7382 77.4798 62.2294 77.4798 61.7207 77.4801C61.2425 77.4803 60.7643 77.4802 60.2861 77.4797C60.1101 77.4796 59.934 77.4796 59.7579 77.4798C59.5187 77.48 59.2795 77.4797 59.0402 77.4793C58.9696 77.4795 58.899 77.4797 58.8262 77.4799C58.3484 77.4783 58.3484 77.4783 58.2597 77.3896C58.2515 77.1566 58.2486 76.9254 58.249 76.6922C58.2489 76.6182 58.2487 76.5441 58.2485 76.4678C58.248 76.2177 58.2481 75.9675 58.2481 75.7173C58.2479 75.5388 58.2476 75.3603 58.2473 75.1817C58.2466 74.6953 58.2464 74.2089 58.2464 73.7225C58.2463 73.3172 58.246 72.9119 58.2457 72.5066C58.2451 71.6055 58.2449 70.7044 58.2449 69.8034C58.2449 69.7492 58.2449 69.6951 58.2449 69.6394C58.2449 69.5852 58.2449 69.531 58.2449 69.4752C58.245 68.5967 58.2442 67.7183 58.2431 66.8399C58.242 65.9389 58.2414 65.0379 58.2415 64.1369C58.2415 63.6307 58.2413 63.1244 58.2404 62.6182C58.2397 62.1423 58.2396 61.6664 58.2402 61.1905C58.2403 61.0154 58.2401 60.8403 58.2396 60.6652C58.239 60.427 58.2394 60.1888 58.24 59.9507C58.2396 59.8806 58.2392 59.8105 58.2388 59.7383C58.2415 59.2613 58.2415 59.2613 58.4189 59.084C58.6019 59.0659 58.6019 59.0659 58.8334 59.0684C58.9634 59.0692 58.9634 59.0692 59.096 59.07C59.1902 59.0713 59.2844 59.0727 59.3814 59.074C59.4782 59.0746 59.575 59.0752 59.6748 59.0759C60.09 59.0785 60.5052 59.0829 60.9204 59.0872C61.2232 59.0901 61.526 59.0921 61.8288 59.0939C61.9217 59.0952 62.0146 59.0966 62.1103 59.0979C62.8319 59.1022 63.5809 59.1056 64.1493 58.6064C64.4394 58.1663 64.5066 57.7431 64.4273 57.2316C64.3237 56.7291 64.1925 56.2389 64.0402 55.7493C63.7647 54.8285 63.9266 53.871 64.3284 53.0103C64.7882 52.1696 65.4849 51.5788 66.4077 51.2941C66.5298 51.2619 66.6525 51.2319 66.7758 51.2046C66.8406 51.19 66.9055 51.1754 66.9723 51.1604C67.8546 51.0052 68.8113 51.1839 69.5614 51.6821Z" fill="black"/>
<path d="M93.5555 59.0027C93.6272 59.0043 93.6989 59.0059 93.7728 59.0075C93.8499 59.0097 93.927 59.0118 94.0064 59.014C94.1252 59.0168 94.1252 59.0168 94.2463 59.0197C94.4993 59.0258 94.7523 59.0325 95.0054 59.0392C95.1768 59.0434 95.3483 59.0476 95.5197 59.0518C95.9402 59.0621 96.3607 59.0728 96.7812 59.084C96.7932 61.3815 96.8047 63.6791 96.8157 65.9766C96.817 66.2477 96.8183 66.5188 96.8196 66.7899C96.8198 66.8438 96.8201 66.8978 96.8204 66.9534C96.8246 67.8279 96.8291 68.7024 96.8337 69.577C96.8384 70.4739 96.8427 71.3709 96.8469 72.2678C96.8492 72.7718 96.8517 73.2757 96.8545 73.7797C96.8571 74.2536 96.8594 74.7276 96.8613 75.2015C96.8621 75.3758 96.863 75.5502 96.8641 75.7245C96.8656 75.9617 96.8665 76.199 96.8673 76.4363C96.8679 76.5059 96.8684 76.5755 96.869 76.6472C96.8695 76.9151 96.8665 77.1336 96.7812 77.3896C90.7403 77.3896 84.6995 77.3896 78.4755 77.3896C78.4493 75.8138 78.423 74.2379 78.3959 72.6142C78.2176 71.8761 78.2176 71.8761 77.7592 71.4204C77.0604 71.0868 76.3161 71.2823 75.6103 71.5C75.4691 71.5573 75.3281 71.6154 75.1875 71.6741C74.3222 71.997 73.4123 71.8742 72.5859 71.5C71.5665 70.9984 71.0309 70.3135 70.6111 69.2699C70.3305 68.3756 70.4613 67.2652 70.8579 66.4286C71.3668 65.5252 72.0827 64.991 73.0684 64.6702C74.0356 64.4166 74.8735 64.5191 75.7993 64.909C76.3789 65.1308 77.1269 65.1993 77.7173 64.9801C78.026 64.7776 78.1912 64.5184 78.3164 64.1777C78.3794 63.8593 78.407 63.555 78.411 63.2308C78.4124 63.1403 78.4137 63.0497 78.4151 62.9564C78.4161 62.8599 78.4172 62.7634 78.4183 62.664C78.4198 62.5641 78.4213 62.4643 78.4228 62.3614C78.4282 61.989 78.4331 61.6166 78.4378 61.2442C78.4425 60.8784 78.4478 60.5127 78.4532 60.1469C78.4542 60.0496 78.4553 59.9523 78.4564 59.852C78.4578 59.7627 78.4591 59.6735 78.4605 59.5815C78.462 59.463 78.462 59.463 78.4635 59.3421C78.4755 59.1636 78.4755 59.1636 78.5551 59.084C78.6724 59.0766 78.79 59.0746 78.9076 59.0749C78.9824 59.0749 79.0573 59.0749 79.1345 59.075C79.2159 59.0754 79.2973 59.0758 79.3812 59.0762C79.4641 59.0763 79.547 59.0764 79.6324 59.0765C79.8985 59.077 80.1645 59.078 80.4305 59.079C80.6103 59.0794 80.7902 59.0798 80.97 59.0801C81.412 59.081 81.8539 59.0823 82.2959 59.084C82.3987 59.3925 82.3277 59.5243 82.2262 59.8301C81.7538 61.267 81.8332 62.9191 82.5001 64.2825C83.3218 65.8207 84.5472 66.7531 86.1958 67.2817C87.7876 67.6563 89.3279 67.3782 90.7423 66.5853C92.0286 65.7752 92.9059 64.4997 93.2688 63.0286C93.491 61.9793 93.5273 60.6074 93.033 59.6277C92.9402 59.4401 92.9494 59.2904 92.9609 59.084C93.1896 59.0077 93.3194 58.9967 93.5555 59.0027Z" fill="black"/>
<path d="M66.955 89.2784C67.0903 89.2715 67.0903 89.2715 67.2283 89.2644C67.8738 89.2546 67.8738 89.2546 68.1241 89.4465C68.2526 89.6125 68.35 89.7789 68.4473 89.9649C68.483 90.0245 68.5188 90.0842 68.5556 90.1457C68.671 90.3387 68.7808 90.5343 68.89 90.7309C68.9734 90.8789 69.057 91.0267 69.1406 91.1746C69.1835 91.2504 69.2263 91.3263 69.2705 91.4044C69.7616 92.2676 70.2609 93.1283 70.8051 93.9593C71.1244 94.4475 71.4172 94.9486 71.7051 95.4558C71.9832 95.9438 72.2813 96.4174 72.586 96.8892C72.5999 96.2674 72.613 95.6456 72.6258 95.0238C72.6277 94.931 72.6296 94.8382 72.6316 94.7426C72.6521 93.7466 72.6692 92.751 72.6652 91.7547C72.665 91.6786 72.6647 91.6025 72.6644 91.5242C72.6628 91.1667 72.6599 90.8093 72.6556 90.4519C72.6547 90.325 72.6537 90.1981 72.6528 90.0712C72.6517 90.0138 72.6507 89.9563 72.6496 89.8972C72.6489 89.7605 72.6565 89.6237 72.6656 89.4873C72.8247 89.3281 72.8247 89.3281 73.0169 89.3088C73.0956 89.3091 73.1743 89.3095 73.2553 89.3098C73.3406 89.31 73.426 89.3101 73.5138 89.3103C73.6033 89.3112 73.6927 89.3122 73.7848 89.3132C73.9194 89.3133 73.9194 89.3133 74.0567 89.3134C74.7237 89.317 74.7237 89.317 74.8145 89.4077C74.8225 89.5584 74.8249 89.7095 74.8251 89.8604C74.8256 90.0079 74.8256 90.0079 74.8262 90.1583C74.8261 90.2683 74.8261 90.3783 74.826 90.4882C74.8263 90.6033 74.8266 90.7183 74.8269 90.8333C74.8276 91.1466 74.8277 91.4598 74.8278 91.7731C74.8279 92.0342 74.8282 92.2953 74.8284 92.5564C74.8291 93.1721 74.8293 93.7879 74.8292 94.4036C74.8292 95.0398 74.83 95.6759 74.8313 96.3121C74.8323 96.8574 74.8328 97.4028 74.8327 97.9481C74.8327 98.2742 74.8329 98.6002 74.8337 98.9263C74.8345 99.2329 74.8345 99.5394 74.8339 99.846C74.8339 99.9588 74.8341 100.072 74.8345 100.184C74.8351 100.338 74.8347 100.491 74.8342 100.645C74.8342 100.731 74.8343 100.817 74.8343 100.905C74.8145 101.107 74.8145 101.107 74.6553 101.267C74.3455 101.314 74.033 101.311 73.7201 101.316C73.5905 101.323 73.5905 101.323 73.4583 101.33C72.8411 101.34 72.8411 101.34 72.5949 101.151C72.465 100.985 72.3666 100.817 72.2676 100.63C72.2289 100.564 72.1903 100.499 72.1504 100.432C72.0231 100.214 71.9013 99.9949 71.7801 99.7743C71.0974 98.5499 70.3715 97.3545 69.6314 96.1641C69.2089 95.4836 68.7967 94.7971 68.3865 94.1091C68.2744 93.9214 68.1618 93.7339 68.0493 93.5464C68.0231 96.0678 67.9968 98.5892 67.9698 101.187C67.7722 101.286 67.6383 101.277 67.4176 101.277C67.3398 101.277 67.2621 101.277 67.1819 101.277C67.1005 101.277 67.019 101.277 66.9351 101.277C66.8129 101.277 66.8129 101.277 66.6882 101.277C66.6105 101.277 66.5327 101.277 66.4526 101.277C66.3811 101.277 66.3096 101.277 66.2359 101.277C66.0596 101.267 66.0596 101.267 65.9004 101.187C65.8863 99.6643 65.8731 98.1416 65.861 96.6189C65.8554 95.9119 65.8495 95.205 65.8428 94.498C65.837 93.882 65.8318 93.2659 65.8273 92.6499C65.8248 92.3236 65.8221 91.9972 65.8187 91.6709C65.8156 91.364 65.8131 91.0571 65.8113 90.7502C65.8105 90.6373 65.8094 90.5244 65.808 90.4116C65.8062 90.2579 65.8054 90.1043 65.8047 89.9506C65.804 89.8645 65.8032 89.7784 65.8025 89.6896C65.8529 89.134 66.5331 89.2855 66.955 89.2784Z" fill="black"/>
<path d="M62.3142 90.2148C62.5342 90.3908 62.7462 90.5723 62.9555 90.7608C63.008 90.8075 63.0604 90.8543 63.1144 90.9025C64.2091 91.9362 64.8574 93.4058 64.9453 94.8994C64.9486 94.9536 64.9519 95.0078 64.9552 95.0636C65.0088 96.8844 64.3157 98.2911 63.1147 99.5952C63.0636 99.6529 63.0125 99.7105 62.9599 99.7699C62.0148 100.788 60.577 101.3 59.2151 101.372C58.319 101.4 57.5183 101.31 56.6679 101.028C56.5831 101 56.4982 100.972 56.4108 100.943C54.9402 100.395 53.8514 99.1274 53.1859 97.7398C52.5662 96.3779 52.4624 94.8104 52.9479 93.3845C53.2461 92.5929 53.6445 91.877 54.2007 91.2383C54.2584 91.1609 54.2584 91.1609 54.3172 91.0819C56.0897 88.8043 60.0782 88.5875 62.3142 90.2148ZM55.716 92.6202C55.0681 93.458 54.8196 94.2202 54.8125 95.2725C54.8121 95.3358 54.8116 95.3992 54.8111 95.4645C54.8232 96.4443 55.1927 97.3755 55.8683 98.093C56.7642 98.9137 57.7127 99.4103 58.9465 99.3708C60.2123 99.2748 61.0637 98.759 61.9209 97.8442C62.704 96.871 62.8957 95.7941 62.7964 94.5811C62.7457 94.2991 62.6698 94.0483 62.5576 93.7852C62.5354 93.731 62.5133 93.6768 62.4904 93.621C62.0203 92.5835 61.2025 91.8664 60.1789 91.4077C58.5973 90.8342 56.7838 91.3581 55.716 92.6202Z" fill="black"/>
<path d="M127.747 89.2286C127.839 89.227 127.932 89.2253 128.027 89.2236C128.902 89.2197 129.681 89.3751 130.458 89.7808C130.511 89.8084 130.565 89.8361 130.621 89.8646C131.087 90.1111 131.492 90.4036 131.88 90.7607C131.936 90.8114 131.992 90.8621 132.05 90.9143C133.103 91.9133 133.764 93.2947 133.804 94.7533C133.823 96.6552 133.396 98.2129 132.042 99.5971C130.829 100.8 129.398 101.367 127.702 101.386C125.873 101.366 124.486 100.672 123.18 99.4189C122.091 98.2783 121.63 96.8049 121.593 95.2526C121.632 93.6008 122.19 92.1343 123.334 90.9364C124.594 89.7657 126.048 89.236 127.747 89.2286ZM124.558 92.7029C123.791 93.6975 123.593 94.6971 123.682 95.9341C123.827 96.9633 124.476 97.8692 125.294 98.4859C125.364 98.5382 125.364 98.5382 125.434 98.5916C126.404 99.3119 127.34 99.4447 128.537 99.2768C129.582 99.0865 130.421 98.4091 131.084 97.6054C131.728 96.5736 131.831 95.5324 131.721 94.3423C131.638 93.985 131.514 93.6992 131.323 93.3872C131.28 93.3165 131.237 93.2458 131.192 93.173C130.576 92.2395 129.739 91.5303 128.625 91.2731C127.035 91.049 125.62 91.4437 124.558 92.7029Z" fill="black"/>
<path d="M110.152 89.6465C110.242 89.6822 110.242 89.6822 110.334 89.7186C110.495 89.79 110.639 89.8715 110.789 89.9648C110.868 90.0138 110.947 90.0627 111.029 90.1131C112.424 91.0098 113.341 92.3719 113.7 93.9916C113.918 95.7363 113.724 97.4396 112.661 98.8788C111.713 100.094 110.491 100.955 108.958 101.267C108.852 101.288 108.852 101.288 108.744 101.31C107.137 101.529 105.451 101.275 104.126 100.289C103.833 100.05 103.57 99.7878 103.308 99.5156C103.241 99.4489 103.175 99.3822 103.106 99.3135C101.985 98.1378 101.572 96.6519 101.557 95.0586C101.618 93.4515 102.254 92.0547 103.387 90.9199C103.442 90.8643 103.497 90.8087 103.553 90.7514C105.241 89.1417 108.029 88.7135 110.152 89.6465ZM104.589 92.6308C103.903 93.4474 103.564 94.4032 103.604 95.4721C103.724 96.6989 104.266 97.6922 105.218 98.4809C106.203 99.2203 107.25 99.4624 108.466 99.3067C109.505 99.1185 110.451 98.4029 111.065 97.5585C111.699 96.5608 111.864 95.5083 111.66 94.3572C111.416 93.2934 110.788 92.4468 109.892 91.8464C108.067 90.7471 106.04 91.1135 104.589 92.6308Z" fill="black"/>
<path d="M134.905 89.3281C135.555 89.3226 136.206 89.3184 136.856 89.3158C137.158 89.3145 137.46 89.3129 137.762 89.3101C138.054 89.3075 138.346 89.3061 138.638 89.3055C138.749 89.3051 138.86 89.3042 138.971 89.3029C139.788 89.2937 140.538 89.3288 141.212 89.8355C141.278 89.8849 141.344 89.9342 141.411 89.9851C141.47 90.0309 141.529 90.0768 141.59 90.124C141.676 90.1848 141.761 90.2455 141.849 90.3081C142.559 91.0017 142.805 91.8601 142.819 92.8251C142.811 93.8298 142.477 94.643 141.763 95.3652C141.511 95.5877 141.249 95.7729 140.954 95.9341C140.989 96.4044 141.196 96.7256 141.436 97.118C141.752 97.6481 142.047 98.181 142.318 98.7352C142.55 99.2109 142.798 99.6774 143.05 100.144C143.093 100.225 143.137 100.307 143.182 100.391C143.214 100.45 143.246 100.508 143.279 100.568C143.371 100.777 143.356 100.962 143.341 101.187C143.131 101.397 142.573 101.309 142.292 101.316C142.201 101.322 142.111 101.328 142.017 101.333C141.362 101.348 141.362 101.348 141.112 101.123C140.987 100.938 140.889 100.753 140.794 100.55C140.74 100.455 140.686 100.359 140.631 100.264C140.583 100.173 140.535 100.082 140.486 99.9882C140.459 99.9376 140.433 99.8869 140.405 99.8347C140.188 99.4208 139.979 99.0029 139.772 98.584C139.517 98.0697 139.248 97.5631 138.976 97.0578C138.943 96.9966 138.91 96.9354 138.877 96.8724C138.847 96.818 138.818 96.7636 138.788 96.7075C138.725 96.5708 138.725 96.5708 138.725 96.4116C138.121 96.4116 137.517 96.4116 136.894 96.4116C136.895 96.5531 136.896 96.6945 136.897 96.8402C136.9 97.3068 136.901 97.7735 136.903 98.2402C136.904 98.5232 136.905 98.8062 136.906 99.0892C136.909 99.4143 136.909 99.7395 136.91 100.065C136.911 100.167 136.912 100.268 136.913 100.373C136.913 100.467 136.913 100.561 136.913 100.658C136.913 100.741 136.913 100.824 136.914 100.91C136.894 101.107 136.894 101.107 136.735 101.267C136.556 101.285 136.556 101.285 136.337 101.282C136.258 101.282 136.18 101.281 136.099 101.281C135.976 101.279 135.976 101.279 135.85 101.277C135.767 101.276 135.684 101.275 135.599 101.274C135.394 101.273 135.189 101.27 134.984 101.267C134.843 100.962 134.805 100.724 134.805 100.39C134.805 100.294 134.805 100.198 134.804 100.099C134.805 99.9939 134.805 99.8892 134.806 99.7812C134.806 99.6693 134.806 99.5574 134.805 99.4455C134.805 99.1421 134.806 98.8387 134.806 98.5353C134.807 98.2179 134.807 97.9005 134.807 97.5831C134.807 97.0503 134.808 96.5175 134.809 95.9848C134.81 95.3683 134.81 94.7519 134.81 94.1354C134.81 93.5427 134.811 92.9499 134.811 92.3571C134.812 92.1047 134.812 91.8522 134.812 91.5998C134.812 91.3029 134.812 91.0059 134.813 90.709C134.813 90.5999 134.814 90.4907 134.814 90.3816C134.813 90.233 134.814 90.0844 134.814 89.9359C134.815 89.8526 134.815 89.7693 134.815 89.6835C134.825 89.4873 134.825 89.4873 134.905 89.3281ZM136.894 91.3975C136.887 91.6097 136.885 91.8198 136.887 92.032C136.887 92.0955 136.887 92.159 136.887 92.2244C136.887 92.428 136.888 92.6315 136.889 92.8351C136.89 92.9727 136.89 93.1104 136.891 93.2481C136.891 93.5863 136.893 93.9245 136.894 94.2627C137.28 94.2726 137.664 94.2798 138.05 94.2846C138.18 94.2866 138.311 94.2893 138.442 94.2927C139.381 94.3454 139.381 94.3454 140.21 93.9706C140.558 93.6258 140.737 93.3184 140.755 92.8201C140.722 92.2927 140.545 92.0027 140.158 91.6512C139.785 91.3311 139.484 91.3059 139.005 91.3073C138.948 91.3072 138.89 91.3072 138.83 91.3071C138.709 91.307 138.587 91.3072 138.465 91.3075C138.277 91.3079 138.09 91.3075 137.903 91.307C137.785 91.3071 137.666 91.3072 137.548 91.3073C137.492 91.3072 137.435 91.307 137.377 91.3068C137.113 91.2851 137.113 91.2851 136.894 91.3975Z" fill="black"/>
<path d="M41.1007 89.3176C41.2042 89.3175 41.3077 89.3174 41.4144 89.3173C41.4957 89.3175 41.4957 89.3175 41.5786 89.3178C41.7442 89.3182 41.9098 89.3178 42.0754 89.3173C42.2306 89.3174 42.2306 89.3174 42.3891 89.3176C42.4848 89.3177 42.5806 89.3178 42.6793 89.3178C42.8989 89.3281 42.8989 89.3281 42.9785 89.4077C42.9865 89.5584 42.9889 89.7095 42.9892 89.8604C42.9897 90.0079 42.9897 90.0079 42.9902 90.1583C42.9902 90.2683 42.9901 90.3783 42.9901 90.4882C42.9903 90.6033 42.9906 90.7183 42.9909 90.8333C42.9916 91.1466 42.9918 91.4598 42.9918 91.7731C42.9919 92.0342 42.9922 92.2953 42.9925 92.5564C42.9931 93.1721 42.9933 93.7879 42.9933 94.4036C42.9932 95.0398 42.9941 95.6759 42.9953 96.3121C42.9964 96.8574 42.9968 97.4028 42.9967 97.9481C42.9967 98.2742 42.9969 98.6002 42.9978 98.9263C42.9985 99.2329 42.9986 99.5394 42.998 99.846C42.9979 99.9588 42.9981 100.072 42.9986 100.184C42.9992 100.338 42.9987 100.491 42.9982 100.645C42.9982 100.731 42.9983 100.817 42.9983 100.905C42.9785 101.107 42.9785 101.107 42.8193 101.267C42.6431 101.287 42.6431 101.287 42.4264 101.288C42.3486 101.288 42.2708 101.288 42.1907 101.288C42.1092 101.288 42.0278 101.287 41.9438 101.287C41.8624 101.287 41.7809 101.288 41.697 101.288C41.6192 101.288 41.5415 101.288 41.4613 101.288C41.3898 101.288 41.3183 101.287 41.2446 101.287C41.0684 101.267 41.0684 101.267 40.9092 101.107C40.8897 100.914 40.8795 100.729 40.8762 100.535C40.8747 100.478 40.8731 100.422 40.8716 100.364C40.8668 100.184 40.8631 100.004 40.8594 99.8241C40.8564 99.7021 40.8533 99.5801 40.8501 99.4581C40.8425 99.159 40.8358 98.8598 40.8296 98.5606C40.3371 98.5249 39.8453 98.499 39.3519 98.4819C39.1845 98.4747 39.0173 98.465 38.8503 98.4525C37.9158 98.3584 37.9158 98.3584 37.0808 98.6955C36.7859 99.0319 36.5797 99.4079 36.3857 99.8088C36.2408 100.097 36.0629 100.361 35.8851 100.63C35.8291 100.719 35.773 100.807 35.7153 100.899C35.5767 101.107 35.5767 101.107 35.4175 101.267C35.2021 101.285 35.2021 101.285 34.9319 101.282C34.7872 101.281 34.7872 101.281 34.6396 101.281C34.5385 101.279 34.4373 101.278 34.3331 101.277C34.2313 101.276 34.1295 101.275 34.0247 101.274C33.7726 101.273 33.5206 101.27 33.2686 101.267C33.2148 101.132 33.2148 101.132 33.189 100.948C33.2756 100.76 33.2756 100.76 33.4116 100.55C33.486 100.433 33.486 100.433 33.5619 100.314C33.6161 100.231 33.6704 100.148 33.7262 100.063C33.8375 99.8892 33.9487 99.7155 34.0598 99.5418C34.1426 99.4132 34.1426 99.4132 34.2271 99.282C34.4356 98.9554 34.6359 98.6241 34.8355 98.2919C35.1656 97.7467 35.5124 97.2142 35.8694 96.6862C36.3689 95.9473 36.8376 95.1907 37.2978 94.4269C37.7844 93.6232 38.29 92.8337 38.8058 92.0486C38.9679 91.801 39.1279 91.5521 39.2875 91.303C39.5624 90.8749 39.8375 90.447 40.1133 90.0196C40.1708 89.9302 40.1708 89.9302 40.2294 89.839C40.5659 89.3181 40.5659 89.3181 41.1007 89.3176ZM40.8296 92.7505C40.7354 92.8824 40.6453 93.0171 40.5566 93.1528C40.5002 93.2389 40.4439 93.3251 40.3858 93.4138C40.3248 93.5077 40.2638 93.6017 40.2028 93.6956C40.1572 93.7658 40.1572 93.7658 40.1106 93.8373C39.7198 94.4383 39.3316 95.041 38.9543 95.6506C38.9178 95.7088 38.8813 95.767 38.8438 95.827C38.65 96.1361 38.65 96.1361 38.6011 96.4912C39.3627 96.4912 40.1244 96.4912 40.9092 96.4912C40.9092 95.2568 40.9092 94.0224 40.9092 92.7505C40.8829 92.7505 40.8566 92.7505 40.8296 92.7505Z" fill="black"/>
<path d="M79.8585 89.2237C79.9428 89.2224 80.0271 89.2211 80.114 89.2198C81.3131 89.2191 82.3103 89.6077 83.1714 90.4424C83.1119 90.9392 82.8094 91.154 82.4551 91.4771C82.4108 91.5197 82.3664 91.5624 82.3208 91.6064C82.1497 91.7633 82.0099 91.8667 81.7836 91.9248C81.5312 91.8632 81.3817 91.7455 81.1848 91.5797C80.5995 91.2096 79.8558 91.2649 79.1919 91.3179C78.7811 91.413 78.491 91.5413 78.1921 91.8402C77.9878 92.1865 77.9477 92.5147 77.9981 92.9097C78.2498 93.4818 78.8209 93.7498 79.3795 93.9702C79.6723 94.0715 79.9662 94.1683 80.2614 94.2627C81.729 94.7334 82.9043 95.3167 83.6489 96.73C83.9558 97.4371 83.8798 98.2667 83.644 98.9834C83.2705 99.9187 82.5964 100.622 81.6741 101.04C80.3444 101.553 79.009 101.452 77.7012 100.943C76.8658 100.57 76.1379 99.8825 75.7695 99.0381C75.7683 98.8659 75.7683 98.8659 75.8491 98.7197C76.0379 98.61 76.0379 98.61 76.2819 98.5158C76.3676 98.4825 76.4532 98.4493 76.5415 98.4151C76.8909 98.291 77.2424 98.1804 77.6001 98.083C77.7239 98.2018 77.8361 98.318 77.9387 98.4558C78.3043 98.9458 78.7388 99.1248 79.3303 99.2396C79.9853 99.3211 80.5868 99.2833 81.1369 98.8938C81.4495 98.6335 81.6121 98.4003 81.7288 98.0084C81.742 97.6867 81.6829 97.5531 81.5 97.2871C80.9566 96.7409 80.2161 96.5404 79.5031 96.3031C78.1176 95.8382 76.7056 95.2378 76.0083 93.8648C75.6582 92.9253 75.7012 92.0177 76.1053 91.0968C76.5831 90.2355 77.3723 89.6482 78.312 89.3603C78.8257 89.2296 79.3307 89.2221 79.8585 89.2237Z" fill="black"/>
<path d="M24.2614 89.9123C24.5237 90.1132 24.712 90.339 24.9115 90.6016C24.7845 90.9304 24.5452 91.1366 24.2897 91.3676C24.2482 91.4066 24.2067 91.4456 24.164 91.4858C23.9234 91.7056 23.7112 91.8566 23.3993 91.9546C23.3369 91.8939 23.2746 91.8331 23.2103 91.7705C22.5639 91.2426 21.7286 91.2542 20.932 91.3179C20.4515 91.4048 20.1229 91.5597 19.8178 91.9546C19.6634 92.2376 19.579 92.4324 19.579 92.7555C19.7422 93.2347 20.0063 93.4599 20.4396 93.6956C20.9319 93.9296 21.4435 94.0908 21.9617 94.2577C23.2653 94.6797 24.5082 95.2531 25.2299 96.4912C25.576 97.1802 25.6706 97.8819 25.4929 98.6364C25.174 99.5958 24.5568 100.417 23.658 100.894C22.3913 101.472 21.0156 101.553 19.7059 101.066C18.757 100.675 18.0791 100.199 17.5743 99.2908C17.4995 99.0905 17.5051 98.9319 17.5097 98.7197C17.7678 98.6105 18.0266 98.5033 18.2857 98.3964C18.3589 98.3654 18.4322 98.3343 18.5077 98.3023C18.5784 98.2734 18.6492 98.2444 18.7222 98.2145C18.7872 98.1874 18.8522 98.1603 18.9192 98.1324C19.125 98.0766 19.2246 98.0793 19.4198 98.1626C19.4915 98.2767 19.563 98.3909 19.6337 98.5055C19.9539 98.9181 20.462 99.1759 20.9703 99.2622C21.6225 99.3098 22.3052 99.2889 22.8422 98.8789C23.1412 98.5851 23.3831 98.331 23.4242 97.9039C23.3937 97.5383 23.3248 97.4015 23.081 97.1279C22.519 96.7268 21.8496 96.5352 21.2035 96.3137C19.8647 95.8422 18.4162 95.2869 17.7456 93.9549C17.3608 93.1042 17.4254 92.1841 17.7282 91.3157C18.118 90.3917 18.7681 89.8924 19.6689 89.4907C21.1343 88.9584 22.9416 89.0704 24.2614 89.9123Z" fill="black"/>
<path d="M50.9623 89.9797C51.4837 90.3874 51.4837 90.3874 51.5306 90.6258C51.4779 90.9394 51.315 91.0443 51.0767 91.2482C50.9991 91.3157 50.9216 91.3832 50.8417 91.4528C50.3399 91.8663 50.3399 91.8663 50.1216 91.9148C49.8441 91.8643 49.6668 91.7403 49.438 91.5796C49.034 91.3386 48.6347 91.2869 48.1717 91.288C48.1158 91.2881 48.06 91.2883 48.0025 91.2884C47.4305 91.3018 46.9607 91.4359 46.5152 91.8053C46.3218 92.0576 46.3064 92.2218 46.3013 92.5366C46.2993 92.6118 46.2972 92.687 46.2951 92.7645C46.3268 93.0374 46.3896 93.1715 46.56 93.3872C47.1736 93.7948 47.8789 94.0229 48.5747 94.2475C49.904 94.6775 51.2446 95.2878 51.9174 96.5907C52.2451 97.282 52.2543 98.1759 52.0591 98.9122C51.9646 99.1269 51.8608 99.3188 51.7333 99.5156C51.6969 99.5732 51.6605 99.6307 51.623 99.69C51.1367 100.392 50.5367 100.808 49.7436 101.107C49.6459 101.146 49.6459 101.146 49.5462 101.185C48.2783 101.607 46.9319 101.35 45.7442 100.819C45.0154 100.432 44.5041 99.869 44.1362 99.1357C44.0927 98.9585 44.0927 98.9585 44.1486 98.798C44.2765 98.6025 44.3695 98.5641 44.587 98.4844C44.6533 98.4599 44.7196 98.4354 44.7879 98.4102C44.8572 98.3859 44.9266 98.3617 44.998 98.3367C45.0668 98.3109 45.1355 98.2851 45.2063 98.2585C45.7932 98.047 45.7932 98.047 46.0824 98.1626C46.1631 98.2946 46.2425 98.4273 46.3212 98.5605C46.6615 98.8929 46.9817 99.0613 47.4355 99.1972C47.484 99.2128 47.5325 99.2284 47.5825 99.2445C48.1651 99.3545 48.8351 99.2546 49.3456 98.9585C49.6578 98.7303 49.9144 98.5282 50.0619 98.1626C50.0878 97.8062 50.0823 97.5216 49.9028 97.2075C49.7987 97.1505 49.6921 97.0981 49.5844 97.0483C49.5264 97.0161 49.4685 96.9839 49.4087 96.9507C48.8675 96.6602 48.3209 96.4604 47.7389 96.2673C47.1516 96.0704 46.5906 95.8562 46.0426 95.566C45.9899 95.5383 45.9371 95.5106 45.8828 95.4821C45.3481 95.1869 44.9095 94.8308 44.5852 94.3074C44.5403 94.237 44.4955 94.1665 44.4493 94.0939C44.0426 93.303 44.0442 92.2754 44.3016 91.4323C44.6639 90.505 45.3443 89.892 46.2413 89.4907C47.7627 88.9625 49.6332 89.0419 50.9623 89.9797Z" fill="black"/>
<path d="M26.7422 89.3281C28.7645 89.3281 30.7869 89.3281 32.8706 89.3281C32.9612 90.1433 32.9612 90.1433 32.9601 90.4125C32.9604 90.4929 32.9604 90.4929 32.9607 90.5748C32.9466 90.8239 32.9059 91.0709 32.8706 91.3179C30.8613 91.3573 30.8613 91.3573 28.8115 91.3975C28.8115 92.3167 28.8115 93.236 28.8115 94.1831C29.028 94.1813 29.2445 94.1794 29.4675 94.1775C29.6766 94.1763 29.8858 94.1753 30.0949 94.1744C30.2405 94.1736 30.3861 94.1725 30.5317 94.1711C30.7408 94.1692 30.9498 94.1683 31.1588 94.1676C31.2241 94.1667 31.2895 94.1659 31.3568 94.1651C31.5166 94.165 31.6764 94.1734 31.8359 94.1831C32.0405 94.3876 32.0156 94.4688 32.0162 94.7527C32.0165 94.8747 32.0165 94.8747 32.0169 94.9992C32.0162 95.0845 32.0156 95.1697 32.015 95.2576C32.0159 95.3855 32.0159 95.3855 32.0169 95.5159C32.0167 95.5973 32.0165 95.6786 32.0162 95.7625C32.0161 95.8373 32.0159 95.9122 32.0157 95.9893C31.9951 96.1729 31.9951 96.1729 31.8359 96.332C31.6019 96.346 31.3754 96.3504 31.1414 96.3476C31.0727 96.3474 31.004 96.3471 30.9333 96.3469C30.7135 96.346 30.4937 96.344 30.274 96.342C30.1252 96.3412 29.9763 96.3405 29.8275 96.3398C29.4623 96.3382 29.0971 96.3351 28.7319 96.332C28.7582 97.2776 28.7844 98.2231 28.8115 99.1973C30.151 99.1973 31.4905 99.1973 32.8706 99.1973C33.0201 99.4962 32.9649 99.8582 32.9651 100.187C32.9661 100.264 32.9671 100.341 32.9681 100.42C32.9682 100.494 32.9684 100.568 32.9685 100.644C32.9688 100.712 32.9692 100.78 32.9695 100.85C32.9502 101.028 32.9502 101.028 32.791 101.267C32.5961 101.29 32.4213 101.298 32.2262 101.295C32.1681 101.295 32.11 101.295 32.0501 101.295C31.8576 101.296 31.665 101.294 31.4725 101.293C31.3391 101.292 31.2057 101.292 31.0722 101.292C30.7925 101.292 30.5128 101.291 30.233 101.289C29.8737 101.287 29.5143 101.286 29.1549 101.286C28.8794 101.285 28.6039 101.284 28.3284 101.283C28.1959 101.283 28.0633 101.283 27.9308 101.282C27.7459 101.282 27.5611 101.281 27.3762 101.279C27.2933 101.279 27.2933 101.279 27.2087 101.279C26.8309 101.276 26.8309 101.276 26.7422 101.187C26.7333 101.036 26.7301 100.885 26.729 100.734C26.7281 100.636 26.7273 100.538 26.7263 100.436C26.7257 100.326 26.7251 100.216 26.7246 100.107C26.7237 99.9915 26.7227 99.8765 26.7218 99.7614C26.7193 99.4482 26.7173 99.1349 26.7154 98.8217C26.7134 98.4945 26.711 98.1673 26.7086 97.8401C26.7047 97.2904 26.7012 96.7408 26.6978 96.1911C26.6939 95.5549 26.6894 94.9188 26.6846 94.2827C26.6805 93.7373 26.6768 93.192 26.6733 92.6467C26.6712 92.3206 26.669 91.9945 26.6665 91.6684C26.6641 91.3619 26.6622 91.0553 26.6606 90.7487C26.6599 90.636 26.6591 90.5232 26.6582 90.4105C26.6569 90.257 26.6562 90.1035 26.6555 89.9501C26.6549 89.864 26.6544 89.778 26.6538 89.6894C26.6626 89.4873 26.6626 89.4873 26.7422 89.3281Z" fill="black"/>
<path d="M98.9998 89.2138C99.0906 89.2129 99.1814 89.2121 99.2749 89.2113C99.8572 89.2173 100.489 89.2378 100.981 89.5874C101.122 89.7866 101.099 89.926 101.085 90.1673C101.081 90.2527 101.076 90.3381 101.072 90.4261C101.063 90.5598 101.063 90.5598 101.054 90.6961C101.049 90.7861 101.044 90.8762 101.039 90.9689C101.027 91.1915 101.014 91.4139 100.999 91.6363C100.708 91.7333 100.646 91.6872 100.373 91.5666C99.4456 91.1612 98.2755 91.191 97.3299 91.5312C96.2987 92.0016 95.5974 92.8169 95.1894 93.8648C94.8507 94.9363 94.8571 96.0812 95.3741 97.0953C95.4906 97.2982 95.6143 97.492 95.7465 97.6851C95.7798 97.7341 95.813 97.7832 95.8472 97.8337C96.3738 98.522 97.2111 99.0323 98.0546 99.1973C98.1367 99.2154 98.2188 99.2334 98.3033 99.252C99.1005 99.3387 99.8894 99.261 100.601 98.8789C100.83 98.864 100.83 98.864 100.999 98.8789C101.143 99.3396 101.089 99.8351 101.079 100.312C101.08 100.38 101.08 100.448 101.081 100.518C101.074 100.685 101.074 100.685 100.999 100.948C100.793 101.077 100.671 101.131 100.442 101.187C100.39 101.201 100.337 101.215 100.283 101.23C99.8269 101.34 99.3935 101.377 98.9251 101.376C98.8526 101.376 98.78 101.376 98.7052 101.376C98.0276 101.364 97.423 101.238 96.7812 101.028C96.708 101.005 96.6349 100.982 96.5595 100.958C95.056 100.424 93.976 99.1284 93.2394 97.7597C92.6732 96.5224 92.578 94.8666 92.9475 93.5551C93.2735 92.6873 93.6964 91.9335 94.3139 91.2383C94.3587 91.1822 94.4036 91.1261 94.4498 91.0683C95.576 89.6836 97.2903 89.2246 98.9998 89.2138Z" fill="black"/>
<path d="M115.007 89.3281C115.638 89.3281 116.268 89.3281 116.917 89.3281C116.944 92.5587 116.97 95.7892 116.997 99.1177C118.927 99.1571 118.927 99.1571 120.897 99.1973C121.015 99.2367 121.015 99.2367 121.136 99.2769C121.14 99.5786 121.143 99.8804 121.146 100.182C121.147 100.268 121.148 100.354 121.15 100.443C121.15 100.525 121.151 100.607 121.151 100.691C121.152 100.767 121.153 100.843 121.154 100.921C121.136 101.107 121.136 101.107 120.977 101.267C120.785 101.282 120.603 101.287 120.412 101.286C120.354 101.286 120.296 101.286 120.236 101.286C120.043 101.287 119.851 101.286 119.658 101.285C119.525 101.285 119.391 101.285 119.258 101.285C118.978 101.285 118.698 101.284 118.419 101.283C118.059 101.282 117.7 101.281 117.34 101.281C117.065 101.281 116.789 101.281 116.514 101.28C116.381 101.28 116.249 101.28 116.116 101.28C115.931 101.28 115.747 101.279 115.562 101.278C115.479 101.278 115.479 101.278 115.394 101.278C115.016 101.276 115.016 101.276 114.928 101.187C114.92 101.035 114.918 100.883 114.918 100.731C114.917 100.632 114.917 100.533 114.917 100.43C114.917 100.32 114.917 100.209 114.917 100.098C114.917 99.982 114.917 99.8661 114.917 99.7501C114.917 99.4344 114.917 99.1187 114.917 98.803C114.917 98.4733 114.917 98.1436 114.917 97.8139C114.917 97.2602 114.917 96.7065 114.917 96.1527C114.918 95.5116 114.918 94.8705 114.917 94.2294C114.917 93.6799 114.917 93.1304 114.917 92.581C114.917 92.2524 114.917 91.9238 114.917 91.5952C114.917 91.2863 114.917 90.9775 114.917 90.6686C114.917 90.5549 114.917 90.4412 114.917 90.3276C114.917 90.173 114.917 90.0185 114.918 89.8639C114.918 89.7773 114.918 89.6906 114.918 89.6012C114.928 89.4077 114.928 89.4077 115.007 89.3281Z" fill="black"/>
<path d="M96.7017 59.2432C96.7279 59.2432 96.7542 59.2432 96.7812 59.2432C96.7932 61.5204 96.8048 63.7977 96.8157 66.075C96.817 66.3437 96.8183 66.6124 96.8196 66.881C96.82 66.9613 96.82 66.9613 96.8204 67.0431C96.8246 67.9099 96.8291 68.7767 96.8337 69.6435C96.8384 70.5326 96.8428 71.4216 96.8469 72.3106C96.8492 72.8102 96.8517 73.3097 96.8545 73.8092C96.8571 74.279 96.8594 74.7487 96.8614 75.2185C96.8622 75.3912 96.8631 75.564 96.8642 75.7368C96.8656 75.972 96.8666 76.2071 96.8674 76.4423C96.8679 76.5113 96.8685 76.5803 96.869 76.6514C96.8695 76.918 96.8662 77.1348 96.7812 77.3896C90.7404 77.3896 84.6995 77.3896 78.4756 77.3896C78.4493 75.8138 78.4231 74.2379 78.396 72.6143C78.3697 72.4041 78.3435 72.194 78.3164 71.9775C78.4866 72.1107 78.5499 72.1952 78.6024 72.407C78.6478 72.8093 78.6429 73.2072 78.6397 73.6116C78.6394 73.6999 78.6391 73.7882 78.6388 73.8792C78.6375 74.2557 78.6353 74.6323 78.6331 75.0089C78.6317 75.2843 78.6307 75.5597 78.6298 75.8352C78.6291 75.92 78.6285 76.0048 78.6278 76.0922C78.6274 76.2117 78.6274 76.2117 78.627 76.3337C78.6264 76.4381 78.6264 76.4381 78.6257 76.5446C78.6325 76.7993 78.6325 76.7993 78.7144 77.2305C84.6502 77.2567 90.586 77.283 96.7017 77.3101C96.7017 71.348 96.7017 65.3859 96.7017 59.2432Z" fill="black"/>
<path d="M114.928 89.4077C114.954 89.4077 114.98 89.4077 115.007 89.4077C115.033 93.2686 115.06 97.1295 115.087 101.107C117.03 101.107 118.974 101.107 120.976 101.107C120.976 101.16 120.976 101.212 120.976 101.267C120.2 101.268 119.423 101.27 118.646 101.271C118.285 101.271 117.924 101.272 117.564 101.273C117.216 101.273 116.868 101.274 116.52 101.274C116.387 101.274 116.254 101.275 116.121 101.275C115.935 101.276 115.75 101.276 115.564 101.276C115.509 101.276 115.453 101.276 115.396 101.277C115.016 101.276 115.016 101.276 114.928 101.187C114.92 101.035 114.918 100.883 114.918 100.73C114.918 100.631 114.918 100.532 114.918 100.43C114.918 100.319 114.918 100.208 114.919 100.097C114.919 99.9806 114.919 99.8645 114.919 99.7485C114.919 99.4324 114.919 99.1164 114.92 98.8004C114.92 98.4704 114.92 98.1405 114.92 97.8106C114.92 97.1854 114.921 96.5602 114.922 95.935C114.923 95.2234 114.923 94.5118 114.924 93.8002C114.924 92.3361 114.926 90.8719 114.928 89.4077Z" fill="black"/>
<path d="M42.899 89.5669C42.9253 89.5669 42.9516 89.5669 42.9786 89.5669C42.9824 91.0688 42.9852 92.5708 42.9869 94.0727C42.9877 94.7701 42.9888 95.4674 42.9906 96.1648C42.9922 96.7724 42.9933 97.38 42.9936 97.9877C42.9938 98.3096 42.9943 98.6314 42.9955 98.9533C42.9965 99.2561 42.9969 99.5588 42.9966 99.8615C42.9967 99.9728 42.997 100.084 42.9976 100.195C42.9984 100.347 42.9981 100.499 42.9978 100.65C42.9979 100.735 42.9981 100.82 42.9982 100.908C42.9786 101.107 42.9786 101.107 42.8195 101.267C42.6432 101.287 42.6432 101.287 42.4265 101.288C42.3487 101.288 42.2709 101.288 42.1908 101.288C42.0686 101.287 42.0686 101.287 41.944 101.286C41.8625 101.287 41.781 101.288 41.6971 101.288C41.6193 101.288 41.5416 101.288 41.4615 101.288C41.3899 101.288 41.3184 101.287 41.2448 101.287C41.0685 101.267 41.0685 101.267 40.9093 101.107C40.89 100.884 40.89 100.884 40.891 100.601C40.8911 100.499 40.8913 100.397 40.8914 100.292C40.8919 100.239 40.8924 100.186 40.8929 100.131C40.8944 99.9697 40.8946 99.8084 40.8945 99.647C40.8984 98.7853 40.8984 98.7853 40.9889 98.4014C41.1889 98.7014 41.1608 98.846 41.1462 99.2032C41.1442 99.2576 41.1422 99.312 41.1402 99.3681C41.1336 99.5417 41.1259 99.7152 41.1182 99.8887C41.1136 100.006 41.109 100.124 41.1045 100.242C41.0934 100.531 41.0812 100.819 41.0685 101.107C41.3305 101.099 41.5925 101.088 41.8544 101.078C41.9663 101.074 41.9663 101.074 42.0805 101.07C42.1518 101.067 42.2231 101.064 42.2965 101.061C42.3624 101.058 42.4282 101.056 42.4961 101.053C42.6778 101.042 42.6778 101.042 42.8195 100.869C42.8446 100.664 42.8446 100.664 42.8416 100.42C42.8425 100.325 42.8434 100.23 42.8443 100.132C42.8445 100.025 42.8447 99.9193 42.8448 99.8131C42.8456 99.7017 42.8464 99.5904 42.8473 99.479C42.8494 99.1761 42.8506 98.8732 42.8517 98.5704C42.8529 98.254 42.855 97.9377 42.8571 97.6214C42.8608 97.0221 42.8637 96.4228 42.8664 95.8236C42.8694 95.1414 42.8733 94.4593 42.8774 93.7772C42.8856 92.3738 42.8927 90.9703 42.899 89.5669Z" fill="black"/>
<path d="M136.735 91.2383C137.211 91.235 137.687 91.2317 138.178 91.2283C138.327 91.2269 138.477 91.2254 138.631 91.2239C138.75 91.2235 138.87 91.2231 138.989 91.2227C139.081 91.2215 139.081 91.2215 139.175 91.2203C139.532 91.2202 139.824 91.2521 140.158 91.3975C140.307 91.5666 140.307 91.5666 140.396 91.7158C140.191 91.6762 140.05 91.6204 139.866 91.5149C139.561 91.3798 139.307 91.3668 138.979 91.3742C138.903 91.3745 138.903 91.3745 138.824 91.3749C138.635 91.3761 138.446 91.3795 138.258 91.3825C137.834 91.3875 137.41 91.3924 136.974 91.3975C136.948 92.343 136.922 93.2885 136.895 94.2627C137.341 94.2578 137.788 94.2529 138.248 94.2478C138.387 94.2472 138.527 94.2467 138.671 94.2462C139.311 94.2371 139.814 94.2263 140.317 93.7852C140.464 93.574 140.464 93.574 140.556 93.3872C140.608 93.3872 140.661 93.3872 140.715 93.3872C140.668 93.6588 140.579 93.7984 140.387 93.9941C140.342 94.0411 140.297 94.0881 140.252 94.1365C139.835 94.4393 139.351 94.4444 138.857 94.4374C138.803 94.4373 138.749 94.4371 138.693 94.4369C138.493 94.4361 138.293 94.4339 138.093 94.4318C137.645 94.4285 137.197 94.4253 136.735 94.4219C136.735 93.3713 136.735 92.3207 136.735 91.2383Z" fill="black"/>
<path d="M78.7007 59.0744C78.7642 59.0746 78.8276 59.0748 78.893 59.0749C78.9647 59.0749 79.0364 59.0749 79.1103 59.075C79.1882 59.0754 79.2661 59.0758 79.3464 59.0762C79.4258 59.0763 79.5052 59.0764 79.587 59.0765C79.8416 59.077 80.0963 59.078 80.3509 59.079C80.5231 59.0794 80.6953 59.0798 80.8675 59.0801C81.2906 59.081 81.7136 59.0823 82.1367 59.084C82.1367 59.1102 82.1367 59.1365 82.1367 59.1636C80.9811 59.1898 79.8254 59.2161 78.6348 59.2432C78.6366 59.5175 78.6385 59.7918 78.6404 60.0745C78.6416 60.3437 78.6426 60.6129 78.6435 60.8822C78.6443 61.0676 78.6454 61.253 78.6468 61.4384C78.6681 64.3654 78.6681 64.3654 78.1084 64.9481C77.7967 65.1674 77.5971 65.2606 77.2021 65.2124C77.2432 65.1943 77.2842 65.1763 77.3265 65.1577C77.7906 64.9078 78.1274 64.6922 78.3164 64.1777C78.3794 63.8593 78.407 63.555 78.4111 63.2308C78.4124 63.1403 78.4137 63.0497 78.4151 62.9564C78.4162 62.8599 78.4173 62.7634 78.4184 62.664C78.4198 62.5641 78.4213 62.4643 78.4228 62.3614C78.4283 61.989 78.4331 61.6166 78.4379 61.2442C78.4426 60.8784 78.4478 60.5127 78.4532 60.1469C78.4543 60.0496 78.4554 59.9523 78.4565 59.852C78.4578 59.7627 78.4591 59.6735 78.4605 59.5815C78.4615 59.5025 78.4625 59.4235 78.4635 59.3421C78.4783 59.1239 78.4821 59.0888 78.7007 59.0744Z" fill="black"/>
<path d="M136.735 96.4912C136.788 96.5175 136.84 96.5437 136.895 96.5708C136.898 97.1596 136.901 97.7483 136.903 98.3371C136.904 98.6104 136.905 98.8838 136.907 99.1572C136.909 99.4713 136.909 99.7854 136.91 100.099C136.911 100.198 136.912 100.296 136.913 100.398C136.913 100.489 136.913 100.579 136.913 100.673C136.913 100.753 136.913 100.833 136.914 100.916C136.895 101.107 136.895 101.107 136.735 101.267C136.558 101.286 136.558 101.286 136.34 101.285C136.222 101.285 136.222 101.285 136.103 101.284C136.021 101.284 135.939 101.283 135.855 101.282C135.773 101.281 135.691 101.281 135.606 101.281C134.996 101.278 134.996 101.278 134.905 101.187C134.902 101.028 134.901 100.869 134.905 100.709C134.931 100.709 134.957 100.709 134.984 100.709C134.984 100.841 134.984 100.972 134.984 101.107C135.812 101.068 135.812 101.068 136.656 101.028C136.682 99.5307 136.708 98.0337 136.735 96.4912Z" fill="black"/>
<path d="M28.6523 91.3975C28.6786 91.3975 28.7049 91.3975 28.7319 91.3975C28.7582 92.3167 28.7845 93.236 28.8115 94.1831C29.028 94.1813 29.2445 94.1794 29.4675 94.1775C29.6767 94.1763 29.8858 94.1753 30.0949 94.1744C30.2406 94.1736 30.3862 94.1725 30.5318 94.1711C30.7408 94.1692 30.9498 94.1683 31.1588 94.1676C31.2241 94.1667 31.2895 94.1659 31.3568 94.1651C31.5166 94.165 31.6764 94.1734 31.8359 94.1831C31.9951 94.3423 31.9951 94.3423 32.0132 94.5138C32.0124 94.583 32.0115 94.6522 32.0107 94.7234C32.0101 94.7983 32.0096 94.8732 32.0091 94.9504C32.0078 95.0288 32.0064 95.1072 32.0051 95.1879C32.0043 95.2669 32.0036 95.3459 32.0029 95.4273C32.001 95.6228 31.9984 95.8182 31.9951 96.0137C31.9689 96.0137 31.9426 96.0137 31.9155 96.0137C31.8893 95.4884 31.863 94.9631 31.8359 94.4219C30.2601 94.3825 30.2601 94.3825 28.6523 94.3423C28.6523 93.3705 28.6523 92.3987 28.6523 91.3975Z" fill="black"/>
<path d="M40.9888 92.1138C41.015 92.1138 41.0413 92.1138 41.0684 92.1138C41.0684 93.5846 41.0684 95.0554 41.0684 96.5708C41.0158 96.5445 40.9633 96.5183 40.9092 96.4912C40.8829 95.283 40.8567 94.0749 40.8296 92.8301C40.7245 92.9877 40.6195 93.1453 40.5112 93.3076C40.4466 93.1783 40.4466 93.1783 40.4316 92.9893C40.5271 92.868 40.6234 92.7471 40.7276 92.6333C40.8606 92.4748 40.9255 92.3094 40.9888 92.1138Z" fill="black"/>
<path d="M76.645 59.2432C76.645 60.4513 76.645 61.6595 76.645 62.9043C76.448 62.9437 76.448 62.9437 76.2471 62.9839C76.2471 62.9314 76.2471 62.8788 76.2471 62.8247C76.3259 62.8247 76.4047 62.8247 76.4858 62.8247C76.4878 62.3388 76.4892 61.8528 76.4902 61.3669C76.4906 61.2014 76.4912 61.036 76.4918 60.8705C76.4928 60.6333 76.4933 60.396 76.4936 60.1588C76.494 60.0843 76.4944 60.0099 76.4949 59.9332C76.4949 59.8646 76.4949 59.7961 76.4949 59.7255C76.4951 59.6649 76.4952 59.6043 76.4954 59.5418C76.501 59.4001 76.501 59.4001 76.4062 59.3228C76.2866 59.313 76.1665 59.3086 76.0465 59.3064C75.9318 59.304 75.9318 59.304 75.8148 59.3016C75.7316 59.3003 75.6485 59.2989 75.5628 59.2976C75.4781 59.2959 75.3934 59.2943 75.3062 59.2926C75.0345 59.2873 74.7628 59.2827 74.4911 59.278C74.3074 59.2746 74.1237 59.2711 73.9401 59.2676C73.4887 59.259 73.0373 59.2509 72.5859 59.2432C72.5859 59.2169 72.5859 59.1906 72.5859 59.1636C73.1128 59.1482 73.6397 59.134 74.1667 59.1208C74.3459 59.1162 74.5252 59.1112 74.7044 59.106C74.962 59.0985 75.2196 59.0921 75.4773 59.0859C75.5575 59.0833 75.6376 59.0807 75.7203 59.0781C75.7951 59.0765 75.87 59.0749 75.9471 59.0732C76.0129 59.0715 76.0786 59.0697 76.1464 59.0679C76.3267 59.084 76.3267 59.084 76.645 59.2432Z" fill="black"/>
<path d="M19.4996 89.6465C19.4996 89.699 19.4996 89.7515 19.4996 89.8057C19.3569 89.9145 19.3569 89.9145 19.1663 90.0345C19.1006 90.0775 19.035 90.1205 18.9673 90.1648C18.8352 90.2498 18.7024 90.3339 18.5694 90.4175C17.9338 91.053 17.6587 92.0115 17.6541 92.8947C17.6615 93.0203 17.6615 93.0203 17.669 93.1484C17.6165 93.1222 17.5639 93.0959 17.5098 93.0688C17.4498 92.1436 17.6122 91.2851 18.1643 90.5223C18.4748 90.1721 18.9995 89.6465 19.4996 89.6465Z" fill="black"/>
<path d="M133.631 94.0239C133.658 94.0239 133.684 94.0239 133.711 94.0239C134.02 95.2696 133.818 96.9624 133.183 98.0706C133.129 98.1555 133.129 98.1555 133.074 98.2422C133.048 98.1897 133.022 98.1371 132.995 98.083C133.054 97.9157 133.054 97.9157 133.144 97.7149C133.256 97.4505 133.335 97.2199 133.363 96.9339C133.393 96.6504 133.393 96.6504 133.552 96.4116C133.581 96.1569 133.581 96.1569 133.585 95.866C133.586 95.8133 133.588 95.7607 133.589 95.7064C133.594 95.5386 133.598 95.3707 133.602 95.2029C133.605 95.0889 133.608 94.975 133.611 94.861C133.618 94.582 133.625 94.303 133.631 94.0239Z" fill="black"/>
<path d="M92.9609 31.6255C93.0003 31.7043 93.0003 31.7043 93.0405 31.7847C92.6649 32.2344 92.2617 32.6491 91.8398 33.0551C91.7331 33.1593 91.6303 33.2676 91.5283 33.3765C91.5283 33.429 91.5283 33.4815 91.5283 33.5356C91.3922 33.6637 91.2502 33.7855 91.1055 33.9037C91.027 33.9688 90.9485 34.0338 90.8677 34.1009C90.6528 34.252 90.6528 34.252 90.4141 34.252C90.4651 34.2019 90.516 34.1518 90.5686 34.1002C91.0304 33.6447 91.0304 33.6447 91.4637 33.1626C91.9275 32.6188 92.4527 32.1273 92.9609 31.6255Z" fill="black"/>
<path d="M78.3164 71.9775C78.4866 72.1107 78.5499 72.1952 78.6024 72.407C78.6478 72.8093 78.6429 73.2072 78.6397 73.6116C78.6394 73.6999 78.6391 73.7882 78.6388 73.8792C78.6375 74.2557 78.6353 74.6323 78.6331 75.0089C78.6317 75.2843 78.6307 75.5597 78.6298 75.8352C78.6291 75.92 78.6285 76.0048 78.6278 76.0922C78.6219 76.6661 78.6219 76.6661 78.7144 77.2305C78.7669 77.283 78.8194 77.3355 78.8735 77.3896C78.7422 77.3896 78.6109 77.3896 78.4756 77.3896C78.4744 77.302 78.4744 77.302 78.4731 77.2126C78.4653 76.66 78.4571 76.1074 78.4486 75.5547C78.4442 75.2707 78.44 74.9866 78.436 74.7026C78.4322 74.428 78.428 74.1535 78.4236 73.8789C78.4212 73.7241 78.4192 73.5693 78.4171 73.4145C78.4091 72.9292 78.39 72.4575 78.3164 71.9775Z" fill="black"/>
<path d="M50.8579 95.5361C51.2873 95.603 51.4865 95.9194 51.7334 96.2524C52.0577 96.8001 52.1458 97.2444 52.1463 97.8741C52.1472 97.9418 52.1482 98.0095 52.1492 98.0793C52.1501 98.4345 52.1402 98.7154 51.9722 99.0381C51.9196 98.9856 51.8671 98.933 51.813 98.8789C51.8351 98.7228 51.8351 98.7228 51.8876 98.5307C52.0708 97.7008 51.9233 96.9683 51.476 96.2549C51.2934 95.9889 51.0953 95.756 50.8579 95.5361Z" fill="black"/>
<path d="M113.654 94.3423C113.681 94.3423 113.707 94.3423 113.734 94.3423C113.787 95.9824 113.683 97.3092 112.779 98.7197C112.7 98.7591 112.7 98.7591 112.62 98.7993C112.645 98.5259 112.725 98.353 112.878 98.1328C113.454 97.2564 113.579 96.2092 113.619 95.1879C113.623 95.1066 113.626 95.0252 113.63 94.9414C113.638 94.7417 113.646 94.542 113.654 94.3423Z" fill="black"/>
<path d="M130.05 100.789C130.05 100.842 130.05 100.894 130.05 100.948C129.887 101 129.725 101.051 129.562 101.102C129.472 101.131 129.381 101.16 129.288 101.189C128.756 101.34 128.256 101.361 127.707 101.361C127.634 101.362 127.561 101.363 127.486 101.364C127.061 101.365 126.71 101.327 126.309 101.187C126.584 101.102 126.831 101.102 127.118 101.108C127.214 101.109 127.31 101.111 127.409 101.112C127.609 101.116 127.809 101.12 128.009 101.125C128.733 101.133 129.381 100.789 130.05 100.789Z" fill="black"/>
<path d="M76.8042 52.0801C76.8838 52.3188 76.8838 52.3188 76.8042 52.5576C76.7949 52.7102 76.7901 52.863 76.7879 53.0158C76.7863 53.1098 76.7847 53.2038 76.783 53.3006C76.7817 53.4021 76.7804 53.5036 76.779 53.6081C76.7774 53.712 76.7757 53.8159 76.774 53.923C76.7696 54.1989 76.7657 54.4749 76.7618 54.7508C76.7578 55.0325 76.7534 55.3142 76.749 55.5959C76.7405 56.1484 76.7324 56.7009 76.7246 57.2534C76.5276 57.2928 76.5276 57.2928 76.3267 57.333C76.3848 57.2686 76.3848 57.2686 76.4441 57.2028C76.5951 56.9686 76.596 56.8285 76.5973 56.5512C76.5984 56.458 76.5994 56.3648 76.6005 56.2688C76.6005 56.1684 76.6006 56.0681 76.6006 55.9647C76.6022 55.8071 76.6038 55.6494 76.6054 55.4917C76.6075 55.2711 76.6085 55.0505 76.6094 54.8299C76.6112 54.4435 76.6137 54.0571 76.6175 53.6707C76.6194 53.465 76.6206 53.2594 76.621 53.0537C76.6218 52.9607 76.6226 52.8677 76.6234 52.772C76.6238 52.69 76.6241 52.6081 76.6245 52.5237C76.645 52.3188 76.645 52.3188 76.8042 52.0801Z" fill="black"/>
<path d="M84.1265 40.46C84.1527 40.5388 84.179 40.6175 84.206 40.6987C84.2586 40.6987 84.3111 40.6987 84.3652 40.6987C84.444 40.8169 84.444 40.8169 84.5244 40.9375C84.6553 41.0724 84.788 41.2041 84.9224 41.3354C85.0341 41.447 85.1457 41.5586 85.2572 41.6703C85.317 41.73 85.3767 41.7898 85.4383 41.8514C85.7173 42.1304 85.9964 42.4094 86.2754 42.6885C86.1966 42.7147 86.1178 42.741 86.0366 42.7681C85.7633 42.5046 85.4913 42.2398 85.2205 41.9738C85.1282 41.8835 85.0356 41.7936 84.9426 41.704C84.8089 41.5752 84.6765 41.445 84.5443 41.3146C84.4816 41.255 84.4816 41.255 84.4177 41.1942C84.2293 41.006 84.1312 40.8996 84.1003 40.6304C84.109 40.5741 84.1176 40.5179 84.1265 40.46Z" fill="black"/>
<path d="M100.92 100.869C100.92 100.921 100.92 100.974 100.92 101.028C99.8992 101.379 98.7198 101.538 97.6567 101.267C97.6567 101.214 97.6567 101.162 97.6567 101.107C97.7197 101.109 97.7826 101.11 97.8474 101.111C98.137 101.116 98.4266 101.119 98.7163 101.122C98.8152 101.124 98.9142 101.126 99.0161 101.128C99.5758 101.133 100.06 101.091 100.595 100.92C100.761 100.869 100.761 100.869 100.92 100.869Z" fill="black"/>
<path d="M138.725 96.4116C138.778 96.4116 138.83 96.4116 138.884 96.4116C138.926 96.4952 138.967 96.5789 139.01 96.665C139.275 97.1998 139.541 97.7315 139.837 98.25C139.92 98.4035 139.988 98.5583 140.053 98.7197C140.131 98.9662 140.131 98.9662 140.317 99.0381C140.367 99.2818 140.367 99.2818 140.396 99.5156C140.107 99.3226 140.018 99.1085 139.874 98.8043C139.819 98.6897 139.763 98.5752 139.707 98.4607C139.678 98.3999 139.648 98.339 139.617 98.2763C139.413 97.8655 139.194 97.462 138.976 97.058C138.943 96.9967 138.91 96.9355 138.877 96.8724C138.848 96.818 138.818 96.7635 138.788 96.7075C138.725 96.5708 138.725 96.5708 138.725 96.4116Z" fill="black"/>
<path d="M61.9209 56.6963C61.9734 56.6963 62.026 56.6963 62.0801 56.6963C62.2205 56.9421 62.2393 57.0332 62.2393 57.333C61.8588 57.4307 61.4869 57.4241 61.097 57.4232C60.9901 57.4233 60.9901 57.4233 60.881 57.4234C60.7307 57.4235 60.5805 57.4233 60.4302 57.423C60.2 57.4225 59.9698 57.423 59.7396 57.4235C59.5935 57.4234 59.4474 57.4233 59.3013 57.4232C59.2324 57.4233 59.1635 57.4235 59.0925 57.4237C59.0285 57.4234 58.9644 57.4232 58.8985 57.4229C58.8422 57.4228 58.786 57.4228 58.728 57.4227C58.5781 57.4126 58.5781 57.4126 58.3394 57.333C58.3394 57.2542 58.3394 57.1754 58.3394 57.0942C58.4181 57.1205 58.4969 57.1468 58.5781 57.1738C58.6942 57.1807 58.8105 57.1832 58.9267 57.1829C58.9968 57.1829 59.0669 57.1829 59.1391 57.1828C59.2522 57.1822 59.2522 57.1822 59.3675 57.1816C59.4449 57.1815 59.5223 57.1814 59.602 57.1813C59.8494 57.1808 60.0967 57.1798 60.344 57.1788C60.5117 57.1784 60.6793 57.178 60.8469 57.1777C61.258 57.1768 61.669 57.1755 62.0801 57.1738C62.0275 57.0162 61.975 56.8587 61.9209 56.6963Z" fill="black"/>
<path d="M77.9185 100.869C77.9652 100.886 78.012 100.903 78.0602 100.921C78.8142 101.155 80.2193 101.39 80.9429 101.028C80.9429 101.107 80.9429 101.185 80.9429 101.267C79.9399 101.515 78.8747 101.377 77.9185 101.028C77.9185 100.975 77.9185 100.923 77.9185 100.869Z" fill="black"/>
<path d="M94.9507 51.4434C94.9769 51.4959 95.0032 51.5484 95.0303 51.6025C95.0961 51.6321 95.0961 51.6321 95.1633 51.6622C95.4358 51.8085 95.6302 52.0203 95.8461 52.2393C95.8902 52.2828 95.9343 52.3263 95.9798 52.3711C96.3037 52.6966 96.3037 52.6966 96.3037 52.876C96.3513 52.8973 96.3989 52.9187 96.448 52.9406C96.6219 53.0351 96.7346 53.1224 96.8608 53.2739C96.8608 53.3265 96.8608 53.379 96.8608 53.4331C96.3968 53.2366 96.0764 52.8339 95.7267 52.483C95.6522 52.4098 95.5777 52.3366 95.501 52.2612C95.4306 52.1908 95.3602 52.1205 95.2877 52.0481C95.223 51.9836 95.1584 51.9192 95.0918 51.8528C94.9507 51.6821 94.9507 51.6821 94.9507 51.4434Z" fill="black"/>
<path d="M70.9941 98.3218C71.29 98.4204 71.3157 98.5042 71.4667 98.7695C71.5078 98.8411 71.549 98.9127 71.5914 98.9865C71.6307 99.056 71.67 99.1256 71.7104 99.1973C71.744 99.2537 71.7775 99.3101 71.8121 99.3683C72.0288 99.7338 72.0288 99.7338 72.0288 99.9136C72.0813 99.9136 72.1339 99.9136 72.188 99.9136C72.211 99.9858 72.234 100.058 72.2576 100.132C72.3285 100.337 72.4041 100.52 72.5063 100.709C72.2029 100.608 72.1788 100.514 72.0263 100.238C71.9591 100.118 71.9591 100.118 71.8905 99.9955C71.8211 99.8688 71.8211 99.8688 71.7502 99.7395C71.704 99.6565 71.6577 99.5736 71.61 99.4881C71.3961 99.1032 71.1893 98.7166 70.9941 98.3218Z" fill="black"/>
<path d="M121.932 93.3076C121.958 93.3076 121.984 93.3076 122.011 93.3076C122.031 93.9084 122.031 93.9084 121.933 94.085C121.832 94.3075 121.827 94.4852 121.819 94.729C121.816 94.8178 121.813 94.9065 121.81 94.998C121.807 95.0902 121.805 95.1824 121.802 95.2775C121.799 95.3709 121.796 95.4644 121.793 95.5607C121.785 95.7913 121.779 96.0218 121.772 96.2524C121.746 96.2524 121.72 96.2524 121.693 96.2524C121.524 95.3033 121.535 94.1973 121.932 93.3076Z" fill="black"/>
<path d="M65.9799 51.4434C66.0324 51.4696 66.0849 51.4959 66.1391 51.5229C66.0833 51.5606 66.0274 51.5983 65.9699 51.637C65.26 52.1319 64.7043 52.658 64.3085 53.4331C64.2289 53.1943 64.2289 53.1943 64.3206 52.9991C64.7598 52.311 65.2382 51.7994 65.9799 51.4434Z" fill="black"/>
<path d="M125.274 89.8056C125.23 89.8383 125.186 89.8709 125.141 89.9045C125.083 89.9474 125.025 89.9903 124.966 90.0345C124.909 90.0769 124.852 90.1194 124.793 90.1632C124.631 90.2831 124.631 90.2831 124.479 90.4424C124.4 90.4424 124.321 90.4424 124.24 90.4424C124.081 90.5711 123.934 90.6996 123.787 90.8403C123.726 90.8972 123.726 90.8972 123.664 90.9553C123.563 91.0491 123.464 91.1436 123.364 91.2383C123.338 91.1595 123.312 91.0807 123.285 90.9995C124.829 89.6571 124.829 89.6571 125.274 89.8056Z" fill="black"/>
<path d="M47.1968 91.1587C47.4869 91.1493 47.777 91.1437 48.0673 91.1388C48.1893 91.1348 48.1893 91.1348 48.3137 91.1307C48.8904 91.1233 49.4392 91.1816 49.8717 91.6013C49.9083 91.6391 49.9448 91.6769 49.9824 91.7158C50.1496 91.8094 50.1496 91.8094 50.3008 91.875C49.9292 91.9331 49.7297 91.7845 49.438 91.5796C48.9461 91.2861 48.4785 91.2981 47.923 91.3079C47.8455 91.3086 47.7679 91.3094 47.688 91.3101C47.4977 91.312 47.3075 91.3146 47.1172 91.3179C47.1435 91.2653 47.1697 91.2128 47.1968 91.1587Z" fill="black"/>
<path d="M72.5063 100.789C72.5851 100.789 72.6639 100.789 72.7451 100.789C72.7714 100.868 72.7976 100.947 72.8247 101.028C73.4025 101.054 73.9804 101.08 74.5757 101.107C74.5494 101.16 74.5232 101.212 74.4961 101.267C74.2093 101.274 73.9224 101.278 73.6355 101.282C73.5133 101.285 73.5133 101.285 73.3885 101.288C73.2712 101.289 73.2712 101.289 73.1515 101.29C73.0794 101.291 73.0072 101.292 72.933 101.294C72.7451 101.267 72.7451 101.267 72.6003 101.161C72.5063 101.028 72.5063 101.028 72.5063 100.789Z" fill="black"/>
<path d="M44.1723 92.7505C44.3545 92.9326 44.3651 93.0108 44.4111 93.2579C44.4489 93.4595 44.4853 93.6155 44.5802 93.7982C44.6032 93.8464 44.6262 93.8947 44.6499 93.9443C44.6236 93.9969 44.5973 94.0494 44.5703 94.1035C44.6228 94.1035 44.6753 94.1035 44.7295 94.1035C44.7295 94.156 44.7295 94.2086 44.7295 94.2627C44.782 94.2627 44.8345 94.2627 44.8886 94.2627C45.0306 94.4727 45.1267 94.6584 45.207 94.8994C44.7471 94.7242 44.558 94.2761 44.3315 93.8647C44.1709 93.4992 44.1561 93.1476 44.1723 92.7505Z" fill="black"/>
<path d="M38.1235 93.1484C38.1498 93.2272 38.1761 93.306 38.2031 93.3872C38.1092 93.556 38.1092 93.556 37.9743 93.7404C37.8057 93.9721 37.7098 94.1442 37.646 94.4219C37.5416 94.5297 37.4353 94.6357 37.3276 94.7402C37.2446 94.8707 37.164 95.003 37.0889 95.1382C37.0363 95.1119 36.9838 95.0857 36.9297 95.0586C37.0836 94.7998 37.2379 94.5412 37.3923 94.2826C37.4576 94.1727 37.4576 94.1727 37.5243 94.0606C37.5666 93.9898 37.6089 93.919 37.6525 93.8461C37.6913 93.7811 37.73 93.7161 37.77 93.6491C37.8798 93.4747 37.9975 93.3113 38.1235 93.1484Z" fill="black"/>
<path d="M70.0391 72.6143C70.3794 72.8033 70.7076 73.0037 71.0339 73.2162C71.3581 73.4245 71.6688 73.5925 72.0288 73.7285C72.0288 73.781 72.0288 73.8336 72.0288 73.8877C71.8166 73.8346 71.6043 73.7816 71.3921 73.7285C71.3921 73.676 71.3921 73.6235 71.3921 73.5693C71.346 73.5601 71.3 73.5509 71.2525 73.5414C71.0609 73.486 70.9269 73.4095 70.7603 73.3007C70.5748 73.18 70.3933 73.0681 70.1982 72.9625C70.1457 72.9263 70.0932 72.8902 70.0391 72.853C70.0391 72.7742 70.0391 72.6954 70.0391 72.6143Z" fill="black"/>
<path d="M57.8618 89.2485C58.1885 89.2415 58.5151 89.2373 58.8418 89.2336C58.9331 89.2316 59.0245 89.2296 59.1186 89.2275C59.72 89.2224 60.2364 89.2949 60.8066 89.4873C60.7278 89.5398 60.6491 89.5924 60.5679 89.6465C60.4072 89.598 60.2482 89.5442 60.0903 89.4873C59.9129 89.4649 59.7347 89.4484 59.5562 89.4369C59.4572 89.4303 59.3582 89.4236 59.2562 89.4167C59.1028 89.4073 59.1028 89.4073 58.9462 89.3978C58.8421 89.3909 58.738 89.384 58.6307 89.3769C58.3744 89.3601 58.1181 89.3438 57.8618 89.3281C57.8618 89.3019 57.8618 89.2756 57.8618 89.2485Z" fill="black"/>
<path d="M17.5894 93.228C17.7485 93.3076 17.7485 93.3076 17.8281 93.5265C17.8544 93.6118 17.8807 93.6972 17.9077 93.7852C17.9598 93.9182 18.0125 94.051 18.0669 94.1831C18.1194 94.1831 18.172 94.1831 18.2261 94.1831C18.3087 94.3139 18.3881 94.4467 18.4648 94.5811C18.5174 94.6336 18.5699 94.6861 18.624 94.7402C18.5978 94.819 18.5715 94.8978 18.5444 94.979C18.0472 94.4685 17.5894 93.9719 17.5894 93.228Z" fill="black"/>
<path d="M77.043 44.7578C77.0856 44.7865 77.1283 44.8153 77.1723 44.8449C77.8139 45.2248 78.3918 45.196 79.1123 45.1558C79.086 45.2083 79.0598 45.2608 79.0327 45.3149C78.3798 45.4567 77.7002 45.4433 77.1226 45.0762C77.0591 44.9055 77.0591 44.9055 77.043 44.7578Z" fill="black"/>
<path d="M67.8105 93.0688C68.0689 93.1766 68.1812 93.271 68.3139 93.5165C68.3603 93.6009 68.3603 93.6009 68.4076 93.6869C68.4388 93.7456 68.4699 93.8043 68.502 93.8647C68.534 93.9234 68.5661 93.9821 68.5991 94.0426C68.7106 94.2472 68.8206 94.4522 68.9248 94.6606C68.846 94.6606 68.7672 94.6606 68.686 94.6606C68.3709 94.1091 68.3709 94.1091 68.0493 93.5464C67.9968 93.5464 67.9443 93.5464 67.8901 93.5464C67.8639 93.3888 67.8376 93.2312 67.8105 93.0688Z" fill="black"/>
<path d="M107.745 89.2336C107.886 89.2352 107.886 89.2352 108.031 89.2369C108.26 89.2396 108.49 89.2436 108.72 89.2485C108.72 89.2748 108.72 89.3011 108.72 89.3281C108.671 89.3297 108.623 89.3313 108.573 89.3329C107.195 89.3592 107.195 89.3592 105.854 89.6465C105.802 89.5939 105.749 89.5414 105.695 89.4873C106.39 89.2765 107.021 89.2176 107.745 89.2336Z" fill="black"/>
<path d="M91.6079 65.9287C91.6079 66.1675 91.6079 66.1675 91.4966 66.2987C91.0261 66.7097 90.5306 67.0041 89.9365 67.2021C90.0453 66.8759 90.2603 66.8071 90.5484 66.655C90.9411 66.446 91.2734 66.2236 91.6079 65.9287Z" fill="black"/>
<path d="M44.252 99.1973C44.3045 99.1973 44.357 99.1973 44.4111 99.1973C44.4968 99.3152 44.5771 99.4371 44.6549 99.5604C44.9078 99.9366 45.1769 100.183 45.5475 100.441C45.5927 100.477 45.638 100.513 45.6846 100.55C45.6846 100.603 45.6846 100.655 45.6846 100.709C45.1358 100.531 44.678 100.07 44.3863 99.5781C44.3216 99.4261 44.3216 99.4261 44.252 99.1973Z" fill="black"/>
<path d="M45.1274 90.2036C45.1537 90.2561 45.18 90.3087 45.207 90.3628C45.1013 90.5503 45.1013 90.5503 44.9484 90.7757C44.7286 91.1091 44.552 91.4225 44.4111 91.7954C44.3849 91.7954 44.3586 91.7954 44.3315 91.7954C44.3558 91.1276 44.646 90.6605 45.1274 90.2036Z" fill="black"/>
<path d="M81.8184 44.7578C82.455 44.7993 82.9922 45.083 83.4897 45.4741C83.4635 45.5267 83.4372 45.5792 83.4102 45.6333C83.3248 45.5758 83.2394 45.5184 83.1515 45.4592C82.7316 45.1949 82.279 45.0178 81.8184 44.8374C81.8184 44.8111 81.8184 44.7849 81.8184 44.7578Z" fill="black"/>
<path d="M99.4077 30.1133C99.9179 30.5328 100.378 30.996 100.84 31.4663C100.516 31.4663 100.444 31.366 100.204 31.1479C100.058 30.9888 99.9171 30.827 99.7777 30.6626C99.6502 30.5106 99.6502 30.5106 99.5103 30.3822C99.4077 30.2725 99.4077 30.2725 99.4077 30.1133Z" fill="black"/>
<path d="M101.875 97.0483C102.1 97.3164 102.216 97.6035 102.353 97.9238C102.405 97.9764 102.458 98.0289 102.512 98.083C102.568 98.2141 102.621 98.3471 102.671 98.481C102.7 98.5548 102.73 98.6287 102.76 98.7048C102.783 98.7623 102.806 98.8197 102.83 98.8789C102.284 98.4291 101.962 97.7435 101.875 97.0483Z" fill="black"/>
<path d="M111.426 96.8096C111.452 96.8621 111.478 96.9146 111.505 96.9688C111.426 97.1758 111.426 97.1758 111.311 97.4164C111.274 97.4963 111.236 97.5761 111.197 97.6583C111.168 97.7197 111.138 97.781 111.107 97.8442C111.055 97.8442 111.002 97.8442 110.948 97.8442C110.948 97.8968 110.948 97.9493 110.948 98.0034C110.792 98.114 110.633 98.2204 110.471 98.3218C110.59 98.0639 110.738 97.8413 110.903 97.6104C111.09 97.3495 111.264 97.0865 111.426 96.8096Z" fill="black"/>
<path d="M89.6978 34.8887C89.7765 34.9149 89.8553 34.9412 89.9365 34.9683C89.8894 35.0096 89.8423 35.051 89.7938 35.0936C89.3808 35.4562 89.3808 35.4562 88.9864 35.8388C88.8223 36.0029 88.8223 36.0029 88.6631 36.0825C88.7912 35.7583 89.0243 35.5441 89.27 35.3065C89.311 35.2662 89.352 35.2259 89.3943 35.1843C89.4951 35.0854 89.5964 34.987 89.6978 34.8887Z" fill="black"/>
<path d="M81.5 89.4873C81.8734 89.5287 82.1202 89.6274 82.4352 89.8305C82.5478 89.9015 82.5478 89.9015 82.6628 89.9739C82.8514 90.1227 82.9281 90.2208 83.0122 90.4424C82.9108 90.3949 82.8097 90.3467 82.7088 90.2981C82.6524 90.2713 82.5961 90.2446 82.5381 90.217C82.3731 90.1227 82.2702 90.0187 82.1367 89.8853C81.975 89.7901 81.975 89.7901 81.8034 89.7112C81.7465 89.6838 81.6896 89.6564 81.6309 89.6281C81.5877 89.6079 81.5445 89.5877 81.5 89.5669C81.5 89.5406 81.5 89.5144 81.5 89.4873Z" fill="black"/>
<path d="M142.625 92.1138C142.678 92.1138 142.73 92.1138 142.784 92.1138C142.786 92.3476 142.788 92.5813 142.789 92.8152C142.79 92.8815 142.79 92.9478 142.791 93.0162C142.791 93.08 142.792 93.1439 142.792 93.2097C142.792 93.2685 142.793 93.3272 142.793 93.3878C142.784 93.5464 142.784 93.5464 142.705 93.7852C142.652 93.7852 142.6 93.7852 142.545 93.7852C142.551 93.7045 142.557 93.6239 142.563 93.5408C142.57 93.4332 142.578 93.3256 142.585 93.2181C142.589 93.1651 142.593 93.1122 142.597 93.0577C142.618 92.7423 142.629 92.4298 142.625 92.1138Z" fill="black"/>
<path d="M74.2374 62.2925C74.3747 62.3018 74.3747 62.3018 74.5147 62.3114C74.5874 62.3232 74.66 62.335 74.7349 62.3472C74.7611 62.3997 74.7874 62.4522 74.8145 62.5064C74.2892 62.5064 73.7639 62.5064 73.2227 62.5064C73.2489 62.4538 73.2752 62.4013 73.3022 62.3472C73.6186 62.2519 73.9105 62.2677 74.2374 62.2925Z" fill="black"/>
<path d="M107.844 38.5498C108.155 38.6761 108.348 38.8788 108.58 39.1169C108.651 39.1893 108.722 39.2617 108.796 39.3364C108.849 39.392 108.903 39.4476 108.958 39.5049C108.932 39.5837 108.906 39.6625 108.879 39.7437C108.826 39.6763 108.774 39.609 108.72 39.5397C108.497 39.2692 108.24 39.0515 107.97 38.8296C107.928 38.7898 107.887 38.75 107.844 38.709C107.844 38.6565 107.844 38.6039 107.844 38.5498Z" fill="black"/>
<path d="M142.386 93.9443C142.439 93.9443 142.491 93.9443 142.545 93.9443C142.511 94.3985 142.319 94.6933 142.068 95.0586C142.015 95.0323 141.963 95.0061 141.909 94.979C142.066 94.6376 142.224 94.2961 142.386 93.9443Z" fill="black"/>
<path d="M102.591 33.2969C103.071 33.6936 103.508 34.1261 103.944 34.5703C103.706 34.5703 103.706 34.5703 103.519 34.4074C103.451 34.3364 103.383 34.2654 103.313 34.1923C103.245 34.1221 103.177 34.0519 103.106 33.9796C103.042 33.9119 102.977 33.8442 102.91 33.7744C102.849 33.7165 102.788 33.6587 102.725 33.5991C102.591 33.4561 102.591 33.4561 102.591 33.2969Z" fill="black"/>
<path d="M131.642 96.1729C131.694 96.1991 131.747 96.2254 131.801 96.2524C131.494 97.3835 131.494 97.3835 131.229 97.5657C131.157 97.5854 131.157 97.5854 131.084 97.6055C131.106 97.551 131.128 97.4965 131.151 97.4404C131.254 97.1828 131.353 96.9242 131.453 96.6653C131.488 96.5729 131.524 96.4804 131.56 96.3852C131.587 96.3151 131.614 96.245 131.642 96.1729Z" fill="black"/>
<path d="M106.412 37.1172C106.862 37.4911 107.275 37.893 107.685 38.311C107.659 38.3636 107.633 38.4161 107.605 38.4702C107.34 38.2049 107.075 37.9396 106.81 37.6743C106.735 37.6032 106.661 37.5321 106.584 37.4589C106.412 37.2764 106.412 37.2764 106.412 37.1172Z" fill="black"/>
<path d="M71.8696 62.7451C71.8959 62.7976 71.9222 62.8502 71.9492 62.9043C71.7553 63.009 71.5613 63.1134 71.3672 63.2177C71.3123 63.2474 71.2573 63.2771 71.2007 63.3077C71.1476 63.3362 71.0945 63.3646 71.0398 63.394C70.9667 63.4333 70.9667 63.4333 70.8921 63.4735C70.7554 63.541 70.7554 63.541 70.5166 63.6206C70.5962 63.3818 70.5962 63.3818 70.7221 63.2963C70.7751 63.2709 70.828 63.2454 70.8825 63.2192C70.9397 63.1913 70.9969 63.1633 71.0559 63.1345C71.1159 63.1061 71.176 63.0778 71.2379 63.0486C71.2983 63.0193 71.3586 62.99 71.4208 62.9598C71.5701 62.8875 71.7198 62.8162 71.8696 62.7451Z" fill="black"/>
<path d="M68.7656 90.7607C68.8182 90.7607 68.8707 90.7607 68.9248 90.7607C69.0466 90.9692 69.1675 91.1782 69.2879 91.3875C69.3402 91.4766 69.3402 91.4766 69.3935 91.5675C69.4261 91.6245 69.4586 91.6814 69.4922 91.7401C69.5226 91.7926 69.553 91.8451 69.5844 91.8992C69.6031 91.9438 69.6218 91.9883 69.6411 92.0342C69.6148 92.0867 69.5886 92.1392 69.5615 92.1934C68.8296 91.1061 68.8296 91.1061 68.7656 90.7607Z" fill="black"/>
<path d="M46.3213 89.4873C46.3738 89.5136 46.4263 89.5398 46.4805 89.5669C46.4143 89.6072 46.4143 89.6072 46.3468 89.6483C46.2891 89.6838 46.2315 89.7193 46.1721 89.7559C46.1148 89.791 46.0576 89.8261 45.9986 89.8622C45.8344 89.9637 45.8344 89.9637 45.6846 90.124C45.5533 90.1803 45.4207 90.2338 45.2866 90.2832C45.2866 90.2044 45.2866 90.1256 45.2866 90.0444C45.4523 89.9195 45.4523 89.9195 45.6696 89.7957C45.7407 89.7545 45.8118 89.7132 45.8851 89.6707C46.0825 89.5669 46.0825 89.5669 46.3213 89.4873Z" fill="black"/>
<path d="M122.568 91.9546C122.621 91.9809 122.673 92.0071 122.728 92.0342C122.639 92.2053 122.549 92.376 122.459 92.5465C122.421 92.6196 122.421 92.6196 122.382 92.6941C122.188 93.0598 122.188 93.0598 122.011 93.1484C122.057 92.8251 122.162 92.6034 122.335 92.3277C122.378 92.2574 122.422 92.1871 122.467 92.1147C122.517 92.0354 122.517 92.0354 122.568 91.9546Z" fill="black"/>
<path d="M64.229 58.5269C64.229 58.7656 64.229 58.7656 64.035 58.9795C63.724 59.2286 63.4164 59.2017 63.0352 59.1636C63.0352 59.1373 63.0352 59.111 63.0352 59.084C63.1144 59.0637 63.1144 59.0637 63.1953 59.0429C63.6058 58.9303 63.9153 58.8301 64.229 58.5269Z" fill="black"/>
<path d="M64.9453 49.6128C64.7766 49.7213 64.6075 49.829 64.4379 49.9361C64.3899 49.9671 64.3419 49.9982 64.2924 50.0302C64.1681 50.1082 64.0396 50.1794 63.9106 50.2495C63.8581 50.2232 63.8056 50.197 63.7515 50.1699C64.1295 49.8515 64.1295 49.8515 64.3086 49.8515C64.3086 49.799 64.3086 49.7465 64.3086 49.6924C64.5588 49.5404 64.6684 49.5296 64.9453 49.6128Z" fill="black"/>
<path d="M86.1958 38.3906C86.1958 38.6851 86.1275 38.7409 85.9371 38.9577C85.8891 39.0137 85.8411 39.0697 85.7916 39.1275C85.6303 39.2737 85.5328 39.3147 85.3203 39.3457C85.5996 39.0127 85.8839 38.6934 86.1958 38.3906Z" fill="black"/>
<path d="M80.9429 96.5708C81.6298 97.0456 81.6298 97.0456 81.8184 97.4463C81.5865 97.3391 81.3971 97.2175 81.2015 97.0533C81.1527 97.0132 81.1039 96.9731 81.0536 96.9318C80.9429 96.8096 80.9429 96.8096 80.9429 96.5708Z" fill="black"/>
<path d="M71.5513 65.5308C71.5775 65.6096 71.6038 65.6883 71.6309 65.7695C71.5224 65.9495 71.5224 65.9495 71.3672 66.1426C71.3166 66.2069 71.2661 66.2713 71.2139 66.3375C71.1677 66.3865 71.1214 66.4354 71.0737 66.4858C71.0212 66.4858 70.9687 66.4858 70.9146 66.4858C71.0347 66.0895 71.2772 65.8298 71.5513 65.5308Z" fill="black"/>
<path d="M25.3096 98.7197C25.3892 98.9585 25.3892 98.9585 25.3009 99.1705C25.2578 99.2483 25.2147 99.3261 25.1703 99.4062C25.128 99.4844 25.0857 99.5625 25.0422 99.6431C24.9116 99.834 24.9116 99.834 24.6729 99.9136C24.8017 99.6509 24.9402 99.3942 25.0807 99.1376C25.1236 99.0592 25.1665 98.9808 25.2107 98.9C25.2433 98.8405 25.276 98.781 25.3096 98.7197Z" fill="black"/>
<path d="M77.7593 92.8301C78.0801 92.937 78.1414 93.105 78.3164 93.3872C78.3952 93.5054 78.3952 93.5054 78.4756 93.626C78.1728 93.5827 78.0292 93.4643 77.8389 93.228C77.7792 93.0092 77.7792 93.0092 77.7593 92.8301Z" fill="black"/>
<path d="M111.505 90.6016C111.843 90.6391 111.999 90.8377 112.222 91.0791C112.195 91.1579 112.169 91.2367 112.142 91.3179C112.036 91.2289 111.929 91.1392 111.824 91.0493C111.735 90.9745 111.735 90.9745 111.645 90.8982C111.599 90.8528 111.553 90.8075 111.505 90.7607C111.505 90.7082 111.505 90.6557 111.505 90.6016Z" fill="black"/>
<path d="M68.4473 66.1675C68.4735 66.1675 68.4998 66.1675 68.5268 66.1675C68.4859 66.6333 68.4112 67.0692 68.2881 67.5205C68.2618 67.5205 68.2356 67.5205 68.2085 67.5205C68.1764 67.0064 68.241 66.6402 68.4473 66.1675Z" fill="black"/>
<path d="M106.332 45.7925C106.491 45.7925 106.491 45.7925 106.629 45.9262C106.678 45.9838 106.728 46.0415 106.78 46.1009C106.83 46.1581 106.88 46.2154 106.932 46.2744C107.048 46.4292 107.048 46.4292 107.048 46.5884C106.996 46.5884 106.943 46.5884 106.889 46.5884C106.863 46.5358 106.837 46.4833 106.81 46.4292C106.733 46.3923 106.733 46.3923 106.655 46.3546C106.491 46.27 106.491 46.27 106.332 46.0312C106.332 45.9525 106.332 45.8737 106.332 45.7925Z" fill="black"/>
<path d="M132.835 98.3218C132.862 98.4006 132.888 98.4794 132.915 98.5605C132.818 98.7057 132.818 98.7057 132.681 98.854C132.636 98.9036 132.591 98.9531 132.545 99.0042C132.509 99.0416 132.474 99.0791 132.438 99.1177C132.385 99.0914 132.332 99.0651 132.278 99.0381C132.567 98.5009 132.567 98.5009 132.835 98.3218Z" fill="black"/>
<path d="M53.3252 97.8442C53.3777 97.8442 53.4303 97.8442 53.4844 97.8442C53.5106 97.9756 53.5369 98.1069 53.564 98.2422C53.6428 98.2422 53.7216 98.2422 53.8027 98.2422C53.8126 98.3046 53.8224 98.3669 53.8326 98.4312C53.8657 98.6513 53.8657 98.6513 54.0415 98.7993C53.9627 98.7993 53.8839 98.7993 53.8027 98.7993C53.675 98.6308 53.675 98.6308 53.549 98.4113C53.4858 98.3033 53.4858 98.3033 53.4213 98.1931C53.3252 98.0034 53.3252 98.0034 53.3252 97.8442Z" fill="black"/>
<path d="M62.4781 93.3872C62.6372 93.626 62.6372 93.626 62.677 93.7951C62.6902 93.8444 62.7033 93.8936 62.7168 93.9443C62.7694 93.9706 62.8219 93.9969 62.876 94.0239C62.876 94.1815 62.876 94.3391 62.876 94.5015C62.5878 94.1478 62.4517 93.8477 62.4781 93.3872Z" fill="black"/>
<path d="M131.005 100.312C131.005 100.364 131.005 100.417 131.005 100.471C130.496 100.794 130.496 100.794 130.254 100.769C130.213 100.749 130.172 100.73 130.129 100.709C130.315 100.586 130.488 100.487 130.687 100.391C130.846 100.312 130.846 100.312 131.005 100.312Z" fill="black"/>
<path d="M50.062 97.4463C50.1145 97.4726 50.1671 97.4988 50.2212 97.5259C50.2298 97.6667 50.236 97.8077 50.2411 97.9487C50.2448 98.0272 50.2485 98.1057 50.2523 98.1865C50.2212 98.4014 50.2212 98.4014 50.0608 98.549C50.0086 98.5791 49.9565 98.6092 49.9028 98.6401C49.9291 98.5761 49.9554 98.5121 49.9824 98.4461C50.0785 98.1039 50.0761 97.7989 50.062 97.4463Z" fill="black"/>
<path d="M38.7603 92.1934C38.7603 92.4484 38.7011 92.5988 38.6011 92.8301C38.5485 92.8301 38.496 92.8301 38.4419 92.8301C38.3894 92.9351 38.3368 93.0402 38.2827 93.1484C38.3191 92.7483 38.5209 92.4999 38.7603 92.1934Z" fill="black"/>
<path d="M34.542 98.7993C34.5945 98.7993 34.6471 98.7993 34.7012 98.7993C34.661 99.1478 34.4482 99.3418 34.2236 99.5952C34.1974 99.5427 34.1711 99.4902 34.144 99.436C34.2177 99.2812 34.2177 99.2812 34.3281 99.1077C34.3639 99.0501 34.3997 98.9924 34.4366 98.933C34.4714 98.8889 34.5062 98.8448 34.542 98.7993Z" fill="black"/>
<path d="M60.5679 91.5566C60.8795 91.619 61.154 91.747 61.4434 91.875C61.4434 91.9538 61.4434 92.0326 61.4434 92.1138C61.1164 91.9984 60.8489 91.8389 60.5679 91.6362C60.5679 91.61 60.5679 91.5837 60.5679 91.5566Z" fill="black"/>
<path d="M109.277 47.9414C109.481 48.1205 109.481 48.1205 109.675 48.3394C109.66 48.5234 109.66 48.5234 109.595 48.6577C109.394 48.5006 109.357 48.4215 109.302 48.1653C109.294 48.0914 109.285 48.0175 109.277 47.9414Z" fill="black"/>
<path d="M92.3242 65.1328C92.3505 65.2116 92.3767 65.2904 92.4038 65.3716C92.22 65.5554 92.0361 65.7393 91.8467 65.9287C91.7942 65.9024 91.7416 65.8762 91.6875 65.8491C91.8976 65.6127 92.1077 65.3764 92.3242 65.1328Z" fill="black"/>
<path d="M108.64 53.2739C108.209 53.5972 108.209 53.5972 107.974 53.5724C107.931 53.5527 107.888 53.533 107.844 53.5127C107.924 53.3535 107.924 53.3535 108.197 53.259C108.481 53.1943 108.481 53.1943 108.64 53.2739Z" fill="black"/>
<path d="M142.386 91.3975C142.504 91.4763 142.504 91.4763 142.625 91.5566C142.64 91.8054 142.64 91.8054 142.625 92.0342C142.599 91.9554 142.572 91.8766 142.545 91.7954C142.467 91.8217 142.388 91.8479 142.307 91.875C142.333 91.7174 142.359 91.5598 142.386 91.3975Z" fill="black"/>
<path d="M109.277 91.4771C109.543 91.5214 109.757 91.5846 109.993 91.7158C109.993 91.7683 109.993 91.8209 109.993 91.875C109.693 91.7882 109.478 91.7231 109.277 91.4771Z" fill="black"/>
<path d="M109.038 39.7437C109.373 39.8632 109.495 40.0847 109.675 40.3804C109.407 40.2657 109.23 40.1219 109.038 39.9028C109.038 39.8503 109.038 39.7978 109.038 39.7437Z" fill="black"/>
<path d="M69.8799 49.374C70.0988 49.3491 70.0988 49.3491 70.3574 49.374C70.5464 49.573 70.5464 49.573 70.6758 49.7719C70.3644 49.68 70.1286 49.5845 69.8799 49.374Z" fill="black"/>
<path d="M33.9849 99.6748C34.0111 99.7536 34.0374 99.8324 34.0645 99.9136C33.9102 100.167 33.9102 100.167 33.7461 100.391C33.6936 100.365 33.641 100.339 33.5869 100.312C33.7182 100.101 33.8496 99.8913 33.9849 99.6748Z" fill="black"/>
<path d="M69.8003 92.5117C70.0455 92.7324 70.1734 92.9147 70.2778 93.228C70.2253 93.228 70.1728 93.228 70.1187 93.228C69.8003 92.8067 69.8003 92.8067 69.8003 92.5117Z" fill="black"/>
<path d="M62.0005 92.7505C62.2393 92.8301 62.2393 92.8301 62.3387 92.9793C62.3984 93.1484 62.3984 93.1484 62.3188 93.3872C62.0005 92.9296 62.0005 92.9296 62.0005 92.7505Z" fill="black"/>
<path d="M109.675 40.46C109.754 40.46 109.832 40.46 109.914 40.46C109.887 40.5913 109.861 40.7226 109.834 40.8579C109.755 40.8842 109.676 40.9104 109.595 40.9375C109.621 40.7799 109.648 40.6223 109.675 40.46Z" fill="black"/>
<path d="M92.9609 31.6255C92.9872 31.678 93.0135 31.7305 93.0405 31.7847C92.6625 32.1727 92.6625 32.1727 92.4834 32.2622C92.5982 31.9943 92.7486 31.8236 92.9609 31.6255Z" fill="black"/>
</svg>
