<svg width="163" height="153" viewBox="0 0 163 153" fill="none" xmlns="http://www.w3.org/2000/svg">
<path d="M96.9405 27.7256C97.2675 27.837 97.5001 28.0901 97.7463 28.3225C97.7919 28.3651 97.8374 28.4076 97.8843 28.4515C98.3889 28.9255 98.8944 29.401 99.3431 29.9292C99.939 30.6244 100.607 31.2786 101.306 31.8699C101.905 32.406 102.472 32.9873 102.992 33.6C103.486 34.1509 104.017 34.6883 104.581 35.1672C105.243 35.7292 105.858 36.3662 106.42 37.0276C106.883 37.5466 107.383 38.0502 107.914 38.5001C108.406 38.917 108.85 39.3886 109.302 39.8479C109.421 39.9672 109.543 40.083 109.666 40.1982C109.837 40.3835 109.891 40.4539 109.914 40.6987C109.83 40.8381 109.83 40.8381 109.694 40.982C109.643 41.0373 109.591 41.0927 109.538 41.1498C109.478 41.2111 109.418 41.2723 109.357 41.3354C109.29 41.4036 109.224 41.4717 109.156 41.5419C108.972 41.7295 108.787 41.9157 108.601 42.101C108.486 42.2157 108.371 42.3309 108.257 42.4461C107.881 42.8217 107.5 43.1838 107.097 43.5295C106.707 43.8774 106.37 44.3335 106.312 44.8598C106.286 45.4127 106.396 45.733 106.751 46.1491C107.066 46.4573 107.437 46.6259 107.829 46.8122C108.857 47.3027 109.603 48.0348 110.012 49.1039C110.308 50.0347 110.216 51.0323 109.834 51.9209C109.347 52.8418 108.619 53.463 107.63 53.7763C106.685 54.0246 105.715 54.0007 104.83 53.5572C103.928 53.0168 103.422 52.3889 102.989 51.4434C102.888 51.2543 102.783 51.0677 102.677 50.8813C102.617 50.7739 102.562 50.6643 102.509 50.5533C102.407 50.3614 102.313 50.3326 102.114 50.2495C102.042 50.2068 101.969 50.1642 101.895 50.1202C101.53 49.9656 101.218 49.9421 100.843 50.0602C100.264 50.319 99.8117 50.7711 99.4037 51.2459C99.0482 51.6563 98.6694 52.0431 98.2872 52.4283C98.2045 52.5118 98.1223 52.5957 98.0404 52.68C97.9205 52.8032 97.7997 52.9253 97.6786 53.0473C97.6075 53.1195 97.5364 53.1917 97.4632 53.2661C97.2482 53.4418 97.1376 53.5099 96.8609 53.5127C96.7132 53.4287 96.7132 53.4287 96.5718 53.2926C96.5172 53.2409 96.4626 53.1893 96.4063 53.136C96.3162 53.0467 96.3162 53.0467 96.2242 52.9556C96.1565 52.8899 96.0888 52.8241 96.0191 52.7564C95.7972 52.5393 95.5777 52.32 95.3586 52.1C95.2824 52.024 95.2061 51.948 95.1298 51.8721C95.0578 51.8 94.9858 51.7278 94.9116 51.6535C94.8464 51.5883 94.7813 51.5231 94.7142 51.4559C94.4682 51.1942 94.3936 51.0953 94.3936 50.7271C94.4678 50.6912 94.542 50.6554 94.6184 50.6185C96.066 49.8973 97.277 48.8335 97.8337 47.2702C98.3098 45.6576 98.214 44.0022 97.4479 42.4895C96.6368 41.0837 95.4096 40.1184 93.8464 39.679C92.296 39.3367 90.7337 39.5284 89.3521 40.3204C88.3107 41.008 87.3609 42.0738 86.9122 43.2456C86.7483 43.2774 86.7483 43.2774 86.5142 43.2456C86.3052 43.099 86.1318 42.9189 85.9531 42.7373C85.9006 42.6852 85.8482 42.6332 85.7942 42.5795C85.6836 42.4693 85.5736 42.3585 85.4641 42.2473C85.2961 42.0772 85.1261 41.9094 84.9559 41.7416C84.8487 41.6342 84.7417 41.5267 84.6348 41.4191C84.5839 41.3689 84.5329 41.3187 84.4804 41.267C84.4106 41.1954 84.4106 41.1954 84.3394 41.1223C84.2982 41.0807 84.257 41.0392 84.2145 40.9964C84.0925 40.8043 84.0955 40.6835 84.1265 40.46C84.222 40.3161 84.222 40.3161 84.3575 40.1825C84.4333 40.1064 84.4333 40.1064 84.5106 40.0287C84.5661 39.9751 84.6216 39.9214 84.6787 39.8661C84.7355 39.8097 84.7923 39.7533 84.8508 39.6952C85.0329 39.5147 85.2164 39.3357 85.4 39.1567C85.5212 39.0368 85.6423 38.9168 85.7634 38.7967C86.247 38.3188 86.7296 37.8456 87.2467 37.4037C87.4906 37.1866 87.7073 36.9455 87.9269 36.7043C88.4122 36.1795 88.9093 35.668 89.4143 35.1623C89.4802 35.096 89.5461 35.0298 89.614 34.9615C89.9044 34.6717 90.1963 34.3887 90.5077 34.1214C90.8109 33.8604 91.0802 33.5775 91.3493 33.282C91.8345 32.7572 92.3316 32.2456 92.8366 31.7399C92.9025 31.6737 92.9684 31.6074 93.0363 31.5392C93.3265 31.2497 93.6181 30.9669 93.9291 30.6999C94.2379 30.4342 94.5123 30.1454 94.7866 29.8447C95.2385 29.3562 95.6993 28.878 96.1695 28.4071C96.228 28.3482 96.2865 28.2893 96.3468 28.2287C96.4285 28.1472 96.4285 28.1472 96.5118 28.0642C96.56 28.016 96.6083 27.9678 96.658 27.9182C96.7813 27.8052 96.7813 27.8052 96.9405 27.7256Z" fill="black"/>
<path d="M58.9059 39.0167C59.0118 39.017 59.0118 39.017 59.1199 39.0173C59.1944 39.0171 59.2688 39.017 59.3455 39.0169C59.5969 39.0166 59.8484 39.0168 60.0998 39.0171C60.2793 39.017 60.4587 39.0168 60.6382 39.0166C61.127 39.0163 61.6159 39.0164 62.1048 39.0167C62.6152 39.0169 63.1255 39.0167 63.6359 39.0166C64.5481 39.0164 65.4604 39.0167 66.3726 39.0171C67.2005 39.0174 68.0285 39.0174 68.8564 39.017C69.8167 39.0166 70.777 39.0164 71.7374 39.0166C72.2461 39.0168 72.7549 39.0168 73.2637 39.0165C73.7418 39.0163 74.22 39.0165 74.6982 39.0169C74.8743 39.017 75.0503 39.017 75.2264 39.0168C75.4656 39.0166 75.7048 39.0169 75.9441 39.0173C76.0147 39.0171 76.0853 39.0169 76.1581 39.0167C76.636 39.0183 76.636 39.0183 76.7246 39.107C76.7328 39.257 76.7354 39.4073 76.7359 39.5576C76.7368 39.7023 76.7368 39.7023 76.7376 39.85C76.7378 39.9279 76.7378 39.9279 76.7381 40.0073C76.7386 40.17 76.7399 40.3327 76.7413 40.4954C76.7455 40.9581 76.7493 41.4208 76.7506 41.8836C76.7514 42.1665 76.7537 42.4494 76.757 42.7323C76.7585 42.8915 76.7583 43.0508 76.7581 43.2101C76.7655 43.7712 76.7883 44.2859 77.1226 44.7578C77.304 44.903 77.4642 44.9804 77.6797 45.0762C77.7322 45.1025 77.7848 45.1287 77.8389 45.1558C78.4642 45.2469 79.0048 45.1103 79.5948 44.922C80.6866 44.5749 81.6285 44.4661 82.7038 44.9618C83.6343 45.4653 84.3522 46.2263 84.6786 47.245C84.8988 48.211 84.8322 49.23 84.3482 50.1062C84.2315 50.273 84.1056 50.4184 83.9673 50.5679C83.871 50.6764 83.871 50.6764 83.7727 50.7871C83.0666 51.5559 82.3082 51.9217 81.2612 52.0005C80.6486 52.0231 80.1235 51.8702 79.5501 51.6772C78.8495 51.4428 78.1932 51.2695 77.4807 51.5677C77.0894 51.7956 76.9446 52.1364 76.8042 52.5576C76.7957 52.7094 76.7918 52.8613 76.7904 53.0133C76.7888 53.1535 76.7888 53.1535 76.7872 53.2966C76.7863 53.3975 76.7855 53.4985 76.7846 53.6026C76.7827 53.7607 76.7807 53.9188 76.7787 54.0769C76.7739 54.4674 76.7698 54.8578 76.7663 55.2483C76.7642 55.4674 76.7618 55.6865 76.7589 55.9056C76.7562 56.1123 76.7541 56.3189 76.7528 56.5256C76.7508 56.6654 76.7508 56.6654 76.7487 56.8081C76.7479 56.8904 76.7471 56.9728 76.7463 57.0576C76.7246 57.2534 76.7246 57.2534 76.5655 57.4126C76.415 57.4328 76.415 57.4328 76.2297 57.4332C76.1604 57.4337 76.091 57.4342 76.0196 57.4347C75.9446 57.4344 75.8696 57.4341 75.7922 57.4338C75.7153 57.4339 75.6384 57.4341 75.5591 57.4342C75.3962 57.4343 75.2333 57.434 75.0704 57.4334C74.8207 57.4325 74.5712 57.4334 74.3215 57.4344C74.1635 57.4343 74.0054 57.4341 73.8473 57.4338C73.7724 57.4341 73.6975 57.4344 73.6204 57.4347C73.516 57.434 73.516 57.434 73.4095 57.4332C73.3177 57.433 73.3177 57.433 73.2241 57.4328C73.0635 57.4126 73.0635 57.4126 72.8247 57.2534C72.8592 57.1599 72.8937 57.0663 72.9292 56.9699C73.4811 55.2932 73.425 53.6731 72.6655 52.0801C71.9416 50.7251 70.8421 49.7629 69.3675 49.3044C67.7505 48.8167 66.1552 48.9742 64.6606 49.7689C63.2915 50.5847 62.3864 51.7704 61.9657 53.3237C61.7023 54.4173 61.7699 55.5137 62.0823 56.5863C62.1538 56.8352 62.2021 57.077 62.2393 57.333C61.8588 57.4307 61.4869 57.4241 61.097 57.4232C60.9901 57.4233 60.9901 57.4233 60.881 57.4234C60.7307 57.4235 60.5805 57.4233 60.4302 57.423C60.2 57.4226 59.9699 57.423 59.7397 57.4235C59.5935 57.4235 59.4474 57.4233 59.3013 57.4232C59.2324 57.4234 59.1635 57.4235 59.0925 57.4237C59.0285 57.4234 58.9645 57.4232 58.8985 57.4229C58.8141 57.4228 58.8141 57.4228 58.7281 57.4227C58.5781 57.4126 58.5781 57.4126 58.3394 57.333C58.3376 55.0125 58.3362 52.692 58.3353 50.3714C58.3352 50.0977 58.3351 49.8241 58.335 49.5504C58.335 49.4959 58.335 49.4414 58.3349 49.3853C58.3346 48.5019 58.334 47.6185 58.3332 46.7351C58.3325 45.8294 58.3321 44.9236 58.3319 44.0179C58.3318 43.5088 58.3315 42.9998 58.331 42.4908C58.3304 42.0123 58.3303 41.5338 58.3304 41.0552C58.3304 40.8791 58.3302 40.7029 58.3299 40.5267C58.3295 40.2873 58.3296 40.0479 58.3298 39.8085C58.3296 39.7378 58.3293 39.6671 58.3291 39.5943C58.3305 39.0301 58.3417 39.0186 58.9059 39.0167Z" fill="black"/>
<path d="M69.5619 51.6822C70.3945 52.3394 71.0244 53.0855 71.2333 54.1495C71.3225 55.0908 71.1491 55.8349 70.8087 56.7081C70.621 57.2314 70.5736 57.8001 70.8005 58.318C71.0126 58.6857 71.3093 58.8499 71.704 58.972C72.2174 59.0967 72.7086 59.1021 73.2349 59.094C73.3252 59.0934 73.4154 59.0928 73.5085 59.0922C73.7947 59.0902 74.0809 59.0873 74.3672 59.084C74.7458 59.0798 75.1245 59.0766 75.5032 59.0741C75.6338 59.0721 75.6338 59.0721 75.767 59.0701C75.8475 59.0696 75.928 59.069 76.011 59.0685C76.1173 59.0672 76.1173 59.0672 76.2256 59.066C76.4067 59.084 76.4067 59.084 76.6454 59.2432C76.6741 59.4014 76.6741 59.4014 76.6725 59.5974C76.6725 59.6707 76.6725 59.7439 76.6725 59.8195C76.6712 59.8987 76.67 59.978 76.6687 60.0596C76.6684 60.1407 76.6681 60.2217 76.6677 60.3052C76.6664 60.5647 76.6634 60.8242 76.6604 61.0837C76.6592 61.2594 76.6581 61.435 76.6571 61.6107C76.6544 62.0419 76.6505 62.4731 76.6454 62.9044C76.2878 62.989 76.0898 62.9552 75.7401 62.8347C74.3716 62.3677 72.8688 62.5138 71.5579 63.0974C69.9638 63.9127 69.0383 65.0425 68.4651 66.7508C68.0593 68.3142 68.3662 69.9346 69.1046 71.3452C69.8511 72.6044 71.1013 73.4788 72.5018 73.8778C73.8845 74.224 75.2418 74.0572 76.5658 73.5694C76.6921 73.6957 76.6556 73.8251 76.6557 74.0001C76.656 74.0748 76.6562 74.1494 76.6565 74.2263C76.6562 74.348 76.6562 74.348 76.656 74.4722C76.6561 74.555 76.6562 74.6377 76.6562 74.7229C76.6563 74.8982 76.6561 75.0735 76.6558 75.2488C76.6554 75.5182 76.6558 75.7875 76.6563 76.0569C76.6563 76.2267 76.6562 76.3966 76.656 76.5664C76.6562 76.6476 76.6563 76.7288 76.6565 76.8124C76.6561 76.9243 76.6561 76.9243 76.6557 77.0385C76.6557 77.1046 76.6556 77.1706 76.6555 77.2387C76.6454 77.3897 76.6454 77.3897 76.5658 77.4693C76.3316 77.4773 76.0992 77.48 75.8649 77.4794C75.7532 77.4796 75.7532 77.4796 75.6393 77.4798C75.3879 77.4801 75.1364 77.4798 74.885 77.4796C74.7055 77.4797 74.5261 77.4798 74.3466 77.48C73.8578 77.4804 73.3689 77.4802 72.88 77.48C72.3697 77.4798 71.8593 77.48 71.3489 77.4801C70.4367 77.4802 69.5245 77.48 68.6122 77.4796C67.7843 77.4792 66.9563 77.4793 66.1284 77.4797C65.1681 77.4801 64.2078 77.4803 63.2474 77.48C62.7387 77.4799 62.2299 77.4799 61.7211 77.4801C61.243 77.4804 60.7648 77.4802 60.2866 77.4798C60.1105 77.4796 59.9345 77.4797 59.7584 77.4799C59.5192 77.4801 59.28 77.4798 59.0407 77.4794C58.9701 77.4796 58.8995 77.4798 58.8267 77.4799C58.3489 77.4784 58.3489 77.4784 58.2602 77.3897C58.252 77.1566 58.2491 76.9254 58.2495 76.6923C58.2494 76.6182 58.2492 76.5442 58.249 76.4679C58.2485 76.2177 58.2485 75.9676 58.2486 75.7174C58.2484 75.5389 58.2481 75.3603 58.2478 75.1818C58.2471 74.6954 58.2469 74.209 58.2469 73.7226C58.2468 73.3173 58.2465 72.912 58.2462 72.5067C58.2456 71.6056 58.2454 70.7045 58.2454 69.8034C58.2454 69.7493 58.2454 69.6952 58.2454 69.6394C58.2454 69.5852 58.2454 69.5311 58.2454 69.4752C58.2455 68.5968 58.2447 67.7184 58.2436 66.84C58.2424 65.939 58.2419 65.038 58.242 64.137C58.242 63.6307 58.2418 63.1245 58.2409 62.6183C58.2401 62.1424 58.2401 61.6665 58.2407 61.1906C58.2408 61.0155 58.2406 60.8403 58.2401 60.6652C58.2395 60.427 58.2399 60.1889 58.2405 59.9507C58.2401 59.8806 58.2397 59.8106 58.2393 59.7383C58.242 59.2614 58.242 59.2614 58.4194 59.084C58.6023 59.066 58.6023 59.066 58.8339 59.0685C58.9639 59.0693 58.9639 59.0693 59.0965 59.0701C59.1907 59.0714 59.2849 59.0727 59.3819 59.0741C59.4787 59.0747 59.5755 59.0753 59.6753 59.0759C60.0905 59.0785 60.5057 59.083 60.9208 59.0873C61.2237 59.0902 61.5265 59.0921 61.8293 59.094C61.9222 59.0953 62.0151 59.0966 62.1108 59.098C62.8324 59.1023 63.5814 59.1056 64.1498 58.6065C64.4399 58.1663 64.5071 57.7432 64.4278 57.2317C64.3242 56.7292 64.193 56.239 64.0407 55.7493C63.7652 54.8286 63.9271 53.8711 64.3289 53.0103C64.7887 52.1697 65.4854 51.5789 66.4082 51.2942C66.5303 51.2619 66.653 51.232 66.7763 51.2046C66.8411 51.1901 66.906 51.1755 66.9728 51.1605C67.8551 51.0053 68.8117 51.184 69.5619 51.6822Z" fill="black"/>
<path d="M93.5553 59.0027C93.627 59.0043 93.6987 59.0059 93.7725 59.0076C93.8496 59.0097 93.9268 59.0119 94.0062 59.0141C94.1249 59.0169 94.1249 59.0169 94.2461 59.0198C94.4991 59.0259 94.7521 59.0326 95.0051 59.0393C95.1766 59.0435 95.348 59.0477 95.5195 59.0519C95.94 59.0621 96.3605 59.0729 96.781 59.084C96.7929 61.3816 96.8045 63.6791 96.8154 65.9767C96.8167 66.2478 96.818 66.5188 96.8193 66.7899C96.8196 66.8439 96.8199 66.8979 96.8201 66.9535C96.8243 67.828 96.8288 68.7025 96.8334 69.577C96.8381 70.474 96.8425 71.3709 96.8466 72.2679C96.8489 72.7718 96.8514 73.2758 96.8542 73.7798C96.8569 74.2537 96.8591 74.7276 96.8611 75.2016C96.8619 75.3759 96.8628 75.5502 96.8639 75.7245C96.8653 75.9618 96.8663 76.1991 96.8671 76.4363C96.8676 76.5059 96.8682 76.5755 96.8687 76.6472C96.8692 76.9151 96.8663 77.1337 96.781 77.3897C90.7401 77.3897 84.6992 77.3897 78.4753 77.3897C78.449 75.8138 78.4228 74.2379 78.3957 72.6143C78.2173 71.8762 78.2173 71.8762 77.759 71.4205C77.0601 71.0869 76.3158 71.2824 75.6101 71.5C75.4688 71.5574 75.3279 71.6154 75.1872 71.6742C74.3219 71.9971 73.412 71.8743 72.5856 71.5C71.5663 70.9985 71.0307 70.3136 70.6108 69.27C70.3303 68.3757 70.461 67.2652 70.8577 66.4287C71.3665 65.5252 72.0825 64.9911 73.0682 64.6702C74.0353 64.4167 74.8732 64.5192 75.7991 64.909C76.3787 65.1309 77.1266 65.1994 77.717 64.9802C78.0258 64.7776 78.191 64.5184 78.3161 64.1778C78.3791 63.8594 78.4067 63.5551 78.4108 63.2308C78.4121 63.1403 78.4134 63.0498 78.4148 62.9565C78.4159 62.86 78.417 62.7635 78.4181 62.664C78.4196 62.5642 78.421 62.4644 78.4225 62.3615C78.428 61.9891 78.4328 61.6167 78.4376 61.2443C78.4423 60.8785 78.4475 60.5127 78.4529 60.147C78.454 60.0497 78.4551 59.9523 78.4562 59.8521C78.4575 59.7628 78.4588 59.6735 78.4602 59.5815C78.4617 59.4631 78.4617 59.4631 78.4632 59.3422C78.4753 59.1636 78.4753 59.1636 78.5549 59.084C78.6722 59.0766 78.7898 59.0747 78.9073 59.075C78.9822 59.075 79.0571 59.075 79.1342 59.075C79.2156 59.0754 79.2971 59.0758 79.3809 59.0763C79.4639 59.0764 79.5468 59.0765 79.6322 59.0766C79.8982 59.077 80.1642 59.078 80.4302 59.0791C80.6101 59.0795 80.7899 59.0798 80.9698 59.0801C81.4117 59.081 81.8537 59.0824 82.2956 59.084C82.3984 59.3925 82.3274 59.5244 82.226 59.8302C81.7536 61.2671 81.833 62.9191 82.4999 64.2826C83.3216 65.8208 84.547 66.7531 86.1955 67.2818C87.7874 67.6563 89.3276 67.3783 90.7421 66.5854C92.0283 65.7753 92.9056 64.4998 93.2685 63.0287C93.4908 61.9794 93.527 60.6075 93.0328 59.6278C92.9399 59.4401 92.9492 59.2905 92.9606 59.084C93.1893 59.0078 93.3192 58.9968 93.5553 59.0027Z" fill="black"/>
<path d="M66.9552 89.2783C67.0905 89.2713 67.0905 89.2713 67.2285 89.2643C67.874 89.2544 67.874 89.2544 68.1243 89.4464C68.2529 89.6124 68.3502 89.7788 68.4475 89.9647C68.4833 90.0244 68.519 90.0841 68.5559 90.1456C68.6713 90.3386 68.781 90.5342 68.8903 90.7308C68.9737 90.8787 69.0572 91.0266 69.1408 91.1744C69.1837 91.2503 69.2266 91.3262 69.2707 91.4043C69.7619 92.2675 70.2612 93.1282 70.8054 93.9592C71.1246 94.4474 71.4175 94.9484 71.7053 95.4557C71.9835 95.9437 72.2816 96.4172 72.5862 96.8891C72.6001 96.2673 72.6132 95.6455 72.626 95.0237C72.6279 94.9309 72.6299 94.8381 72.6319 94.7425C72.6523 93.7465 72.6695 92.7508 72.6655 91.7546C72.6652 91.6785 72.6649 91.6024 72.6646 91.524C72.663 91.1666 72.6602 90.8092 72.6559 90.4518C72.6549 90.3249 72.654 90.198 72.6531 90.0711C72.652 90.0136 72.6509 89.9562 72.6498 89.8971C72.6491 89.7603 72.6567 89.6236 72.6658 89.4872C72.825 89.328 72.825 89.328 73.0171 89.3087C73.0958 89.309 73.1745 89.3093 73.2556 89.3097C73.3409 89.3098 73.4262 89.31 73.5141 89.3101C73.6035 89.3111 73.6929 89.3121 73.785 89.3131C73.9196 89.3132 73.9196 89.3132 74.0569 89.3132C74.724 89.3169 74.724 89.3169 74.8147 89.4076C74.8228 89.5583 74.8251 89.7093 74.8254 89.8603C74.8259 90.0078 74.8259 90.0078 74.8264 90.1582C74.8264 90.2682 74.8263 90.3781 74.8263 90.4881C74.8265 90.6031 74.8268 90.7182 74.8271 90.8332C74.8278 91.1464 74.828 91.4597 74.828 91.7729C74.8281 92.034 74.8284 92.2951 74.8287 92.5562C74.8293 93.172 74.8295 93.7878 74.8295 94.4035C74.8294 95.0397 74.8303 95.6758 74.8315 96.312C74.8326 96.8573 74.833 97.4026 74.8329 97.948C74.8329 98.274 74.8332 98.6001 74.834 98.9262C74.8348 99.2328 74.8348 99.5393 74.8342 99.8459C74.8341 99.9586 74.8343 100.071 74.8348 100.184C74.8354 100.338 74.8349 100.491 74.8344 100.645C74.8345 100.731 74.8345 100.817 74.8345 100.905C74.8147 101.107 74.8147 101.107 74.6556 101.266C74.3458 101.313 74.0333 101.311 73.7204 101.316C73.5908 101.323 73.5908 101.323 73.4586 101.33C72.8413 101.34 72.8413 101.34 72.5951 101.151C72.4652 100.984 72.3668 100.817 72.2679 100.63C72.2292 100.564 72.1905 100.499 72.1506 100.431C72.0233 100.214 71.9016 99.9948 71.7804 99.7742C71.0976 98.5498 70.3717 97.3544 69.6316 96.164C69.2092 95.4835 68.7969 94.797 68.3867 94.109C68.2746 93.9213 68.1621 93.7338 68.0496 93.5463C68.0233 96.0677 67.9971 98.5891 67.97 101.187C67.7725 101.286 67.6386 101.277 67.4178 101.277C67.3401 101.277 67.2623 101.277 67.1822 101.277C67.1007 101.277 67.0193 101.277 66.9353 101.276C66.8131 101.277 66.8131 101.277 66.6885 101.277C66.6107 101.277 66.5329 101.277 66.4528 101.277C66.3813 101.277 66.3098 101.277 66.2361 101.277C66.0598 101.266 66.0598 101.266 65.9007 101.187C65.8866 99.6642 65.8734 98.1415 65.8613 96.6188C65.8557 95.9118 65.8497 95.2048 65.8431 94.4979C65.8373 93.8818 65.8321 93.2658 65.8275 92.6498C65.8251 92.3234 65.8224 91.9971 65.819 91.6708C65.8158 91.3639 65.8134 91.057 65.8115 90.7501C65.8107 90.6372 65.8096 90.5243 65.8083 90.4114C65.8064 90.2578 65.8057 90.1042 65.805 89.9505C65.8042 89.8644 65.8035 89.7782 65.8027 89.6895C65.8531 89.1339 66.5334 89.2854 66.9552 89.2783Z" fill="black"/>
<path d="M62.3142 90.2148C62.5342 90.3908 62.7462 90.5723 62.9555 90.7608C63.008 90.8075 63.0604 90.8543 63.1144 90.9025C64.2091 91.9362 64.8574 93.4058 64.9453 94.8994C64.9486 94.9536 64.9519 95.0078 64.9552 95.0636C65.0088 96.8844 64.3157 98.2911 63.1147 99.5952C63.0636 99.6529 63.0125 99.7105 62.9599 99.7699C62.0148 100.788 60.577 101.3 59.2151 101.372C58.319 101.4 57.5183 101.31 56.6679 101.028C56.5831 101 56.4982 100.972 56.4108 100.943C54.9402 100.395 53.8514 99.1274 53.1859 97.7398C52.5662 96.3779 52.4624 94.8104 52.9479 93.3845C53.2461 92.5929 53.6445 91.877 54.2007 91.2383C54.2584 91.1609 54.2584 91.1609 54.3172 91.0819C56.0897 88.8043 60.0782 88.5875 62.3142 90.2148ZM55.716 92.6202C55.0681 93.458 54.8196 94.2202 54.8125 95.2725C54.8121 95.3358 54.8116 95.3992 54.8111 95.4645C54.8232 96.4443 55.1927 97.3755 55.8683 98.093C56.7642 98.9137 57.7127 99.4103 58.9465 99.3708C60.2123 99.2748 61.0637 98.759 61.9209 97.8442C62.704 96.871 62.8957 95.7941 62.7964 94.5811C62.7457 94.2991 62.6698 94.0483 62.5576 93.7852C62.5354 93.731 62.5133 93.6768 62.4904 93.621C62.0203 92.5835 61.2025 91.8664 60.1789 91.4077C58.5973 90.8342 56.7838 91.3581 55.716 92.6202Z" fill="black"/>
<path d="M127.747 89.2287C127.84 89.227 127.932 89.2254 128.028 89.2237C128.902 89.2198 129.681 89.3751 130.458 89.7808C130.512 89.8085 130.566 89.8361 130.621 89.8646C131.087 90.1112 131.492 90.4037 131.881 90.7608C131.937 90.8115 131.993 90.8621 132.051 90.9144C133.104 91.9134 133.764 93.2948 133.804 94.7533C133.824 96.6553 133.396 98.213 132.043 99.5971C130.83 100.8 129.398 101.368 127.702 101.386C125.873 101.366 124.487 100.672 123.181 99.419C122.091 98.2783 121.63 96.8049 121.594 95.2526C121.633 93.6008 122.19 92.1344 123.335 90.9364C124.595 89.7658 126.049 89.236 127.747 89.2287ZM124.559 92.703C123.791 93.6976 123.593 94.6971 123.683 95.9341C123.828 96.9633 124.477 97.8692 125.295 98.486C125.364 98.5383 125.364 98.5383 125.435 98.5917C126.405 99.3119 127.34 99.4447 128.538 99.2769C129.582 99.0866 130.422 98.4092 131.085 97.6055C131.729 96.5736 131.832 95.5325 131.722 94.3423C131.638 93.9851 131.514 93.6993 131.324 93.3872C131.28 93.3166 131.237 93.2459 131.193 93.173C130.576 92.2395 129.74 91.5303 128.626 91.2731C127.035 91.0491 125.62 91.4437 124.559 92.703Z" fill="black"/>
<path d="M110.152 89.6465C110.242 89.6822 110.242 89.6822 110.334 89.7186C110.495 89.79 110.639 89.8715 110.789 89.9648C110.868 90.0138 110.947 90.0627 111.029 90.1131C112.424 91.0098 113.341 92.3719 113.7 93.9916C113.918 95.7363 113.724 97.4396 112.661 98.8788C111.713 100.094 110.491 100.955 108.958 101.267C108.852 101.288 108.852 101.288 108.744 101.31C107.137 101.529 105.451 101.275 104.126 100.289C103.833 100.05 103.57 99.7878 103.308 99.5156C103.241 99.4489 103.175 99.3822 103.106 99.3135C101.985 98.1378 101.572 96.6519 101.557 95.0586C101.618 93.4515 102.254 92.0547 103.387 90.9199C103.442 90.8643 103.497 90.8087 103.553 90.7514C105.241 89.1417 108.029 88.7135 110.152 89.6465ZM104.589 92.6308C103.903 93.4474 103.564 94.4032 103.604 95.4721C103.724 96.6989 104.266 97.6922 105.218 98.4809C106.203 99.2203 107.25 99.4624 108.466 99.3067C109.505 99.1185 110.451 98.4029 111.065 97.5585C111.699 96.5608 111.864 95.5083 111.66 94.3572C111.416 93.2934 110.788 92.4468 109.892 91.8464C108.067 90.7471 106.04 91.1135 104.589 92.6308Z" fill="black"/>
<path d="M134.905 89.3281C135.555 89.3226 136.206 89.3184 136.856 89.3158C137.158 89.3145 137.46 89.3129 137.762 89.3101C138.054 89.3075 138.347 89.3061 138.639 89.3055C138.75 89.3051 138.86 89.3042 138.971 89.3029C139.788 89.2937 140.538 89.3288 141.212 89.8355C141.278 89.8849 141.344 89.9342 141.411 89.9851C141.471 90.0309 141.53 90.0768 141.591 90.124C141.676 90.1848 141.761 90.2455 141.849 90.3081C142.559 91.0017 142.805 91.8601 142.819 92.8251C142.812 93.8298 142.478 94.643 141.763 95.3652C141.512 95.5877 141.249 95.7729 140.954 95.9341C140.989 96.4044 141.196 96.7256 141.436 97.118C141.752 97.6481 142.047 98.181 142.318 98.7352C142.55 99.2109 142.799 99.6774 143.05 100.144C143.094 100.225 143.137 100.307 143.182 100.391C143.214 100.45 143.246 100.508 143.279 100.568C143.371 100.777 143.356 100.962 143.341 101.187C143.131 101.397 142.574 101.309 142.292 101.316C142.201 101.322 142.111 101.328 142.018 101.333C141.363 101.348 141.363 101.348 141.113 101.123C140.987 100.938 140.889 100.753 140.795 100.55C140.741 100.455 140.686 100.359 140.631 100.264C140.583 100.173 140.535 100.082 140.486 99.9882C140.46 99.9376 140.433 99.8869 140.405 99.8347C140.188 99.4208 139.98 99.0029 139.773 98.584C139.517 98.0697 139.248 97.5631 138.976 97.0578C138.943 96.9966 138.911 96.9354 138.877 96.8724C138.848 96.818 138.818 96.7636 138.788 96.7075C138.725 96.5708 138.725 96.5708 138.725 96.4116C138.121 96.4116 137.517 96.4116 136.895 96.4116C136.896 96.5531 136.896 96.6945 136.897 96.8402C136.9 97.3068 136.902 97.7735 136.903 98.2402C136.904 98.5232 136.905 98.8062 136.907 99.0892C136.909 99.4143 136.91 99.7395 136.91 100.065C136.911 100.167 136.912 100.268 136.913 100.373C136.913 100.467 136.913 100.561 136.913 100.658C136.913 100.741 136.913 100.824 136.914 100.91C136.895 101.107 136.895 101.107 136.736 101.267C136.557 101.285 136.557 101.285 136.337 101.282C136.258 101.282 136.18 101.281 136.099 101.281C135.976 101.279 135.976 101.279 135.85 101.277C135.767 101.276 135.685 101.275 135.599 101.274C135.394 101.273 135.189 101.27 134.985 101.267C134.843 100.962 134.806 100.724 134.806 100.39C134.805 100.294 134.805 100.198 134.805 100.099C134.805 99.9939 134.806 99.8892 134.806 99.7812C134.806 99.6693 134.806 99.5574 134.806 99.4455C134.805 99.1421 134.806 98.8387 134.807 98.5353C134.807 98.2179 134.807 97.9005 134.807 97.5831C134.807 97.0503 134.808 96.5175 134.809 95.9848C134.81 95.3683 134.811 94.7519 134.811 94.1354C134.811 93.5427 134.811 92.9499 134.812 92.3571C134.812 92.1047 134.812 91.8522 134.812 91.5998C134.812 91.3029 134.813 91.0059 134.813 90.709C134.814 90.5999 134.814 90.4907 134.814 90.3816C134.814 90.233 134.814 90.0844 134.815 89.9359C134.815 89.8526 134.815 89.7693 134.815 89.6835C134.825 89.4873 134.825 89.4873 134.905 89.3281ZM136.895 91.3975C136.888 91.6097 136.886 91.8198 136.887 92.032C136.887 92.0955 136.887 92.159 136.887 92.2244C136.888 92.428 136.889 92.6315 136.89 92.8351C136.89 92.9727 136.891 93.1104 136.891 93.2481C136.892 93.5863 136.893 93.9245 136.895 94.2627C137.28 94.2726 137.665 94.2798 138.05 94.2846C138.181 94.2866 138.311 94.2893 138.442 94.2927C139.381 94.3454 139.381 94.3454 140.21 93.9706C140.558 93.6258 140.737 93.3184 140.755 92.8201C140.723 92.2927 140.545 92.0027 140.158 91.6512C139.785 91.3311 139.484 91.3059 139.006 91.3073C138.948 91.3072 138.89 91.3072 138.831 91.3071C138.709 91.307 138.587 91.3072 138.465 91.3075C138.278 91.3079 138.091 91.3075 137.903 91.307C137.785 91.3071 137.667 91.3072 137.548 91.3073C137.492 91.3072 137.436 91.307 137.378 91.3068C137.114 91.2851 137.114 91.2851 136.895 91.3975Z" fill="black"/>
<path d="M41.1012 89.3174C41.2047 89.3173 41.3082 89.3172 41.4149 89.3171C41.4962 89.3174 41.4962 89.3174 41.5791 89.3176C41.7447 89.3181 41.9102 89.3176 42.0758 89.3171C42.2311 89.3173 42.2311 89.3173 42.3895 89.3174C42.4853 89.3175 42.5811 89.3176 42.6798 89.3177C42.8994 89.328 42.8994 89.328 42.979 89.4076C42.987 89.5583 42.9894 89.7093 42.9896 89.8603C42.9902 90.0078 42.9902 90.0078 42.9907 90.1582C42.9906 90.2682 42.9906 90.3782 42.9906 90.4881C42.9908 90.6031 42.9911 90.7182 42.9914 90.8332C42.9921 91.1464 42.9923 91.4597 42.9923 91.7729C42.9924 92.034 42.9927 92.2951 42.993 92.5562C42.9936 93.172 42.9938 93.7878 42.9938 94.4035C42.9937 95.0397 42.9945 95.6758 42.9958 96.312C42.9968 96.8573 42.9973 97.4026 42.9972 97.948C42.9972 98.274 42.9974 98.6001 42.9983 98.9262C42.999 99.2328 42.999 99.5393 42.9985 99.8459C42.9984 99.9586 42.9986 100.071 42.999 100.184C42.9997 100.338 42.9992 100.491 42.9987 100.645C42.9987 100.731 42.9988 100.817 42.9988 100.905C42.979 101.107 42.979 101.107 42.8198 101.266C42.6435 101.287 42.6435 101.287 42.4268 101.288C42.3491 101.288 42.2713 101.288 42.1912 101.288C42.1097 101.288 42.0283 101.287 41.9443 101.286C41.8629 101.287 41.7814 101.288 41.6975 101.288C41.6197 101.288 41.5419 101.288 41.4618 101.288C41.3903 101.287 41.3188 101.287 41.2451 101.287C41.0688 101.266 41.0688 101.266 40.9097 101.107C40.8902 100.914 40.88 100.729 40.8767 100.535C40.8752 100.478 40.8736 100.422 40.872 100.364C40.8673 100.184 40.8636 100.004 40.8599 99.8239C40.8569 99.702 40.8538 99.58 40.8506 99.458C40.8429 99.1588 40.8363 98.8596 40.8301 98.5604C40.3376 98.5247 39.8458 98.4989 39.3523 98.4817C39.185 98.4746 39.0178 98.4648 38.8508 98.4524C37.9163 98.3583 37.9163 98.3583 37.0813 98.6954C36.7864 99.0317 36.5802 99.4077 36.3862 99.8087C36.2413 100.097 36.0634 100.361 35.8856 100.63C35.8295 100.718 35.7735 100.807 35.7158 100.898C35.5771 101.107 35.5771 101.107 35.418 101.266C35.2026 101.285 35.2026 101.285 34.9323 101.282C34.7877 101.281 34.7877 101.281 34.6401 101.28C34.5389 101.279 34.4378 101.278 34.3336 101.276C34.2318 101.276 34.13 101.275 34.0251 101.274C33.7731 101.272 33.5211 101.27 33.269 101.266C33.2153 101.132 33.2153 101.132 33.1895 100.948C33.2761 100.759 33.2761 100.759 33.4121 100.55C33.4865 100.433 33.4865 100.433 33.5624 100.314C33.6166 100.231 33.6708 100.148 33.7267 100.063C33.838 99.8891 33.9491 99.7154 34.0603 99.5416C34.1431 99.4131 34.1431 99.4131 34.2276 99.2819C34.4361 98.9552 34.6363 98.624 34.836 98.2918C35.1661 97.7466 35.5129 97.2141 35.8699 96.6861C36.3694 95.9471 36.8381 95.1906 37.2983 94.4267C37.7849 93.6231 38.2905 92.8336 38.8062 92.0485C38.9684 91.8009 39.1284 91.552 39.288 91.3028C39.5628 90.8748 39.838 90.4469 40.1138 90.0195C40.1713 89.9301 40.1713 89.9301 40.2299 89.8389C40.5664 89.318 40.5664 89.318 41.1012 89.3174ZM40.8301 92.7504C40.7359 92.8823 40.6458 93.017 40.5571 93.1527C40.5007 93.2388 40.4443 93.3249 40.3863 93.4137C40.3252 93.5076 40.2643 93.6015 40.2033 93.6955C40.1577 93.7657 40.1577 93.7657 40.1111 93.8372C39.7202 94.4382 39.3321 95.0409 38.9547 95.6504C38.9183 95.7086 38.8818 95.7669 38.8443 95.8268C38.6505 96.1359 38.6505 96.1359 38.6016 96.4911C39.3632 96.4911 40.1249 96.4911 40.9097 96.4911C40.9097 95.2567 40.9097 94.0222 40.9097 92.7504C40.8834 92.7504 40.8571 92.7504 40.8301 92.7504Z" fill="black"/>
<path d="M79.8587 89.2236C79.9431 89.2223 80.0274 89.221 80.1143 89.2197C81.3134 89.219 82.3105 89.6077 83.1716 90.4423C83.1121 90.9392 82.8097 91.1539 82.4553 91.477C82.411 91.5197 82.3667 91.5624 82.321 91.6063C82.1499 91.7632 82.0101 91.8667 81.7838 91.9247C81.5315 91.8631 81.3819 91.7455 81.185 91.5796C80.5997 91.2096 79.8561 91.2648 79.1922 91.3178C78.7813 91.4129 78.4912 91.5412 78.1923 91.8401C77.9881 92.1865 77.9479 92.5146 77.9983 92.9096C78.2501 93.4818 78.8212 93.7497 79.3797 93.9701C79.6726 94.0715 79.9665 94.1683 80.2616 94.2626C81.7292 94.7334 82.9045 95.3166 83.6492 96.7299C83.956 97.437 83.88 98.2667 83.6442 98.9833C83.2707 99.9186 82.5966 100.622 81.6744 101.04C80.3446 101.553 79.0092 101.452 77.7014 100.943C76.8661 100.57 76.1381 99.8825 75.7698 99.038C75.7685 98.8658 75.7685 98.8658 75.8494 98.7197C76.0381 98.6099 76.0381 98.6099 76.2822 98.5157C76.3678 98.4825 76.4535 98.4492 76.5417 98.415C76.8912 98.2909 77.2426 98.1803 77.6004 98.083C77.7242 98.2017 77.8363 98.318 77.9389 98.4557C78.3045 98.9457 78.7391 99.1248 79.3305 99.2395C79.9855 99.321 80.587 99.2833 81.1371 98.8938C81.4497 98.6335 81.6123 98.4003 81.7291 98.0083C81.7422 97.6866 81.6831 97.5531 81.5003 97.2871C80.9568 96.7408 80.2164 96.5403 79.5034 96.3031C78.1178 95.8381 76.7058 95.2377 76.0086 93.8647C75.6584 92.9253 75.7015 92.0176 76.1056 91.0968C76.5834 90.2354 77.3725 89.6481 78.3122 89.3603C78.8259 89.2296 79.331 89.222 79.8587 89.2236Z" fill="black"/>
<path d="M24.2612 89.9124C24.5235 90.1132 24.7117 90.339 24.9113 90.6016C24.7843 90.9305 24.5449 91.1366 24.2895 91.3677C24.248 91.4067 24.2065 91.4456 24.1637 91.4858C23.9231 91.7057 23.7109 91.8567 23.3991 91.9546C23.3367 91.8939 23.2743 91.8332 23.2101 91.7706C22.5636 91.2427 21.7284 91.2542 20.9318 91.3179C20.4512 91.4049 20.1227 91.5598 19.8175 91.9546C19.6632 92.2376 19.5788 92.4324 19.5788 92.7555C19.7419 93.2348 20.0061 93.4599 20.4393 93.6957C20.9316 93.9296 21.4433 94.0909 21.9615 94.2578C23.265 94.6797 24.508 95.2532 25.2296 96.4913C25.5758 97.1803 25.6703 97.882 25.4927 98.6365C25.1738 99.5959 24.5565 100.417 23.6577 100.894C22.3911 101.472 21.0154 101.553 19.7056 101.066C18.7567 100.675 18.0789 100.199 17.5741 99.2909C17.4993 99.0906 17.5049 98.932 17.5094 98.7198C17.7675 98.6105 18.0264 98.5033 18.2854 98.3965C18.3587 98.3654 18.4319 98.3344 18.5074 98.3024C18.5782 98.2734 18.649 98.2444 18.7219 98.2146C18.787 98.1875 18.852 98.1604 18.919 98.1325C19.1248 98.0767 19.2243 98.0793 19.4196 98.1627C19.4912 98.2767 19.5628 98.3909 19.6335 98.5056C19.9536 98.9182 20.4617 99.1759 20.97 99.2623C21.6223 99.3098 22.305 99.289 22.8419 98.879C23.1409 98.5852 23.3829 98.331 23.424 97.904C23.3935 97.5384 23.3246 97.4016 23.0807 97.128C22.5187 96.7269 21.8493 96.5352 21.2032 96.3137C19.8645 95.8422 18.4159 95.287 17.7454 93.955C17.3606 93.1043 17.4252 92.1842 17.728 91.3158C18.1177 90.3918 18.7679 89.8925 19.6686 89.4908C21.134 88.9585 22.9414 89.0705 24.2612 89.9124Z" fill="black"/>
<path d="M50.9628 89.9797C51.4842 90.3874 51.4842 90.3874 51.5311 90.6258C51.4784 90.9394 51.3154 91.0443 51.0772 91.2482C50.9996 91.3157 50.9221 91.3832 50.8422 91.4528C50.3403 91.8663 50.3403 91.8663 50.1221 91.9148C49.8446 91.8643 49.6673 91.7403 49.4384 91.5796C49.0345 91.3386 48.6352 91.2869 48.1722 91.288C48.1163 91.2881 48.0605 91.2883 48.003 91.2884C47.431 91.3018 46.9612 91.4359 46.5157 91.8053C46.3223 92.0576 46.3069 92.2218 46.3018 92.5366C46.2997 92.6118 46.2977 92.687 46.2956 92.7645C46.3273 93.0374 46.3901 93.1715 46.5605 93.3872C47.1741 93.7948 47.8794 94.0229 48.5752 94.2475C49.9045 94.6775 51.2451 95.2878 51.9179 96.5907C52.2456 97.282 52.2548 98.1759 52.0596 98.9122C51.9651 99.1269 51.8613 99.3188 51.7338 99.5156C51.6974 99.5732 51.661 99.6307 51.6234 99.69C51.1372 100.392 50.5372 100.808 49.7441 101.107C49.6463 101.146 49.6463 101.146 49.5466 101.185C48.2788 101.607 46.9324 101.35 45.7447 100.819C45.0159 100.432 44.5045 99.869 44.1367 99.1357C44.0932 98.9585 44.0932 98.9585 44.1491 98.798C44.277 98.6025 44.37 98.5641 44.5875 98.4844C44.6538 98.4599 44.7201 98.4354 44.7884 98.4102C44.8577 98.3859 44.9271 98.3617 44.9985 98.3367C45.0673 98.3109 45.136 98.2851 45.2068 98.2585C45.7937 98.047 45.7937 98.047 46.0829 98.1626C46.1636 98.2946 46.243 98.4273 46.3217 98.5605C46.662 98.8929 46.9822 99.0613 47.436 99.1972C47.4845 99.2128 47.533 99.2284 47.583 99.2445C48.1656 99.3545 48.8356 99.2546 49.3461 98.9585C49.6582 98.7303 49.9149 98.5282 50.0624 98.1626C50.0883 97.8062 50.0827 97.5216 49.9032 97.2075C49.7992 97.1505 49.6926 97.0981 49.5849 97.0483C49.5269 97.0161 49.4689 96.9839 49.4092 96.9507C48.868 96.6602 48.3214 96.4604 47.7394 96.2673C47.1521 96.0704 46.5911 95.8562 46.0431 95.566C45.9904 95.5383 45.9376 95.5106 45.8833 95.4821C45.3486 95.1869 44.91 94.8308 44.5856 94.3074C44.5408 94.237 44.496 94.1665 44.4498 94.0939C44.0431 93.303 44.0447 92.2754 44.3021 91.4323C44.6644 90.505 45.3448 89.892 46.2418 89.4907C47.7632 88.9625 49.6337 89.0419 50.9628 89.9797Z" fill="black"/>
<path d="M26.7427 89.3281C28.765 89.3281 30.7874 89.3281 32.8711 89.3281C32.9617 90.1433 32.9617 90.1433 32.9606 90.4125C32.9609 90.4929 32.9609 90.4929 32.9612 90.5748C32.9471 90.8239 32.9064 91.0709 32.8711 91.3179C30.8618 91.3573 30.8618 91.3573 28.812 91.3975C28.812 92.3167 28.812 93.236 28.812 94.1831C29.0285 94.1813 29.245 94.1794 29.468 94.1775C29.6771 94.1763 29.8863 94.1753 30.0954 94.1744C30.241 94.1736 30.3866 94.1725 30.5322 94.1711C30.7412 94.1692 30.9502 94.1683 31.1593 94.1676C31.2246 94.1667 31.2899 94.1659 31.3573 94.1651C31.5171 94.165 31.6769 94.1734 31.8364 94.1831C32.0409 94.3876 32.016 94.4688 32.0167 94.7527C32.017 94.8747 32.017 94.8747 32.0174 94.9992C32.0167 95.0845 32.0161 95.1697 32.0155 95.2576C32.0164 95.3855 32.0164 95.3855 32.0174 95.5159C32.0171 95.5973 32.0169 95.6786 32.0167 95.7625C32.0166 95.8373 32.0164 95.9122 32.0162 95.9893C31.9956 96.1729 31.9956 96.1729 31.8364 96.332C31.6023 96.346 31.3759 96.3504 31.1419 96.3476C31.0732 96.3474 31.0045 96.3471 30.9338 96.3469C30.714 96.346 30.4942 96.344 30.2745 96.342C30.1256 96.3412 29.9768 96.3405 29.828 96.3398C29.4628 96.3382 29.0976 96.3351 28.7324 96.332C28.7587 97.2776 28.7849 98.2231 28.812 99.1973C30.1515 99.1973 31.491 99.1973 32.8711 99.1973C33.0205 99.4962 32.9654 99.8582 32.9656 100.187C32.9666 100.264 32.9675 100.341 32.9685 100.42C32.9687 100.494 32.9689 100.568 32.969 100.644C32.9693 100.712 32.9697 100.78 32.97 100.85C32.9507 101.028 32.9507 101.028 32.7915 101.267C32.5966 101.29 32.4218 101.298 32.2267 101.295C32.1686 101.295 32.1105 101.295 32.0506 101.295C31.858 101.296 31.6655 101.294 31.473 101.293C31.3396 101.292 31.2061 101.292 31.0727 101.292C30.793 101.292 30.5133 101.291 30.2335 101.289C29.8741 101.287 29.5148 101.286 29.1554 101.286C28.8799 101.285 28.6044 101.284 28.3289 101.283C28.1964 101.283 28.0638 101.283 27.9313 101.282C27.7464 101.282 27.5616 101.281 27.3767 101.279C27.2938 101.279 27.2938 101.279 27.2092 101.279C26.8314 101.276 26.8314 101.276 26.7427 101.187C26.7338 101.036 26.7306 100.885 26.7295 100.734C26.7286 100.636 26.7277 100.538 26.7268 100.436C26.7262 100.326 26.7256 100.216 26.7251 100.107C26.7242 99.9915 26.7232 99.8765 26.7223 99.7614C26.7198 99.4482 26.7178 99.1349 26.7159 98.8217C26.7139 98.4945 26.7114 98.1673 26.7091 97.8401C26.7052 97.2904 26.7016 96.7408 26.6983 96.1911C26.6944 95.5549 26.6899 94.9188 26.6851 94.2827C26.681 93.7373 26.6773 93.192 26.6738 92.6467C26.6717 92.3206 26.6695 91.9945 26.667 91.6684C26.6646 91.3619 26.6627 91.0553 26.6611 90.7487C26.6604 90.636 26.6596 90.5232 26.6587 90.4105C26.6574 90.257 26.6567 90.1035 26.656 89.9501C26.6554 89.864 26.6549 89.778 26.6543 89.6894C26.6631 89.4873 26.6631 89.4873 26.7427 89.3281Z" fill="black"/>
<path d="M98.9998 89.2138C99.0906 89.2129 99.1814 89.2121 99.2749 89.2113C99.8572 89.2173 100.489 89.2378 100.981 89.5874C101.122 89.7866 101.099 89.926 101.085 90.1673C101.081 90.2527 101.076 90.3381 101.072 90.4261C101.063 90.5598 101.063 90.5598 101.054 90.6961C101.049 90.7861 101.044 90.8762 101.039 90.9689C101.027 91.1915 101.014 91.4139 100.999 91.6363C100.708 91.7333 100.646 91.6872 100.373 91.5666C99.4456 91.1612 98.2755 91.191 97.3299 91.5312C96.2987 92.0016 95.5974 92.8169 95.1894 93.8648C94.8507 94.9363 94.8571 96.0812 95.3741 97.0953C95.4906 97.2982 95.6143 97.492 95.7465 97.6851C95.7798 97.7341 95.813 97.7832 95.8472 97.8337C96.3738 98.522 97.2111 99.0323 98.0546 99.1973C98.1367 99.2154 98.2188 99.2334 98.3033 99.252C99.1005 99.3387 99.8894 99.261 100.601 98.8789C100.83 98.864 100.83 98.864 100.999 98.8789C101.143 99.3396 101.089 99.8351 101.079 100.312C101.08 100.38 101.08 100.448 101.081 100.518C101.074 100.685 101.074 100.685 100.999 100.948C100.793 101.077 100.671 101.131 100.442 101.187C100.39 101.201 100.337 101.215 100.283 101.23C99.8269 101.34 99.3935 101.377 98.9251 101.376C98.8526 101.376 98.78 101.376 98.7052 101.376C98.0276 101.364 97.423 101.238 96.7812 101.028C96.708 101.005 96.6349 100.982 96.5595 100.958C95.056 100.424 93.976 99.1284 93.2394 97.7597C92.6732 96.5224 92.578 94.8666 92.9475 93.5551C93.2735 92.6873 93.6964 91.9335 94.3139 91.2383C94.3587 91.1822 94.4036 91.1261 94.4498 91.0683C95.576 89.6836 97.2903 89.2246 98.9998 89.2138Z" fill="black"/>
<path d="M115.008 89.3281C115.638 89.3281 116.268 89.3281 116.918 89.3281C116.944 92.5587 116.97 95.7892 116.997 99.1177C118.928 99.1571 118.928 99.1571 120.897 99.1973C121.015 99.2367 121.015 99.2367 121.136 99.2769C121.141 99.5786 121.143 99.8804 121.146 100.182C121.147 100.268 121.149 100.354 121.15 100.443C121.15 100.525 121.151 100.607 121.151 100.691C121.152 100.767 121.153 100.843 121.154 100.921C121.136 101.107 121.136 101.107 120.977 101.267C120.785 101.282 120.603 101.287 120.412 101.286C120.354 101.286 120.296 101.286 120.236 101.286C120.043 101.287 119.851 101.286 119.658 101.285C119.525 101.285 119.391 101.285 119.258 101.285C118.978 101.285 118.699 101.284 118.419 101.283C118.059 101.282 117.7 101.281 117.341 101.281C117.065 101.281 116.79 101.281 116.514 101.28C116.382 101.28 116.249 101.28 116.117 101.28C115.932 101.28 115.747 101.279 115.562 101.278C115.479 101.278 115.479 101.278 115.394 101.278C115.017 101.276 115.017 101.276 114.928 101.187C114.92 101.035 114.918 100.883 114.918 100.731C114.918 100.632 114.917 100.533 114.917 100.43C114.917 100.32 114.917 100.209 114.918 100.098C114.918 99.982 114.917 99.8661 114.917 99.7501C114.917 99.4344 114.917 99.1187 114.917 98.803C114.917 98.4733 114.917 98.1436 114.917 97.8139C114.917 97.2602 114.917 96.7065 114.918 96.1527C114.918 95.5116 114.918 94.8705 114.917 94.2294C114.917 93.6799 114.917 93.1304 114.917 92.581C114.917 92.2524 114.917 91.9238 114.917 91.5952C114.917 91.2863 114.917 90.9775 114.917 90.6686C114.918 90.5549 114.918 90.4412 114.917 90.3276C114.917 90.173 114.917 90.0185 114.918 89.8639C114.918 89.7773 114.918 89.6906 114.918 89.6012C114.928 89.4077 114.928 89.4077 115.008 89.3281Z" fill="black"/>
<path d="M96.7017 59.2432C96.7279 59.2432 96.7542 59.2432 96.7812 59.2432C96.7932 61.5204 96.8048 63.7977 96.8157 66.075C96.817 66.3437 96.8183 66.6124 96.8196 66.881C96.82 66.9613 96.82 66.9613 96.8204 67.0431C96.8246 67.9099 96.8291 68.7767 96.8337 69.6435C96.8384 70.5326 96.8428 71.4216 96.8469 72.3106C96.8492 72.8102 96.8517 73.3097 96.8545 73.8092C96.8571 74.279 96.8594 74.7487 96.8614 75.2185C96.8622 75.3912 96.8631 75.564 96.8642 75.7368C96.8656 75.972 96.8666 76.2071 96.8674 76.4423C96.8679 76.5113 96.8685 76.5803 96.869 76.6514C96.8695 76.918 96.8662 77.1348 96.7812 77.3896C90.7404 77.3896 84.6995 77.3896 78.4756 77.3896C78.4493 75.8138 78.4231 74.2379 78.396 72.6143C78.3697 72.4041 78.3435 72.194 78.3164 71.9775C78.4866 72.1107 78.5499 72.1952 78.6024 72.407C78.6478 72.8093 78.6429 73.2072 78.6397 73.6116C78.6394 73.6999 78.6391 73.7882 78.6388 73.8792C78.6375 74.2557 78.6353 74.6323 78.6331 75.0089C78.6317 75.2843 78.6307 75.5597 78.6298 75.8352C78.6291 75.92 78.6285 76.0048 78.6278 76.0922C78.6274 76.2117 78.6274 76.2117 78.627 76.3337C78.6264 76.4381 78.6264 76.4381 78.6257 76.5446C78.6325 76.7993 78.6325 76.7993 78.7144 77.2305C84.6502 77.2567 90.586 77.283 96.7017 77.3101C96.7017 71.348 96.7017 65.3859 96.7017 59.2432Z" fill="black"/>
<path d="M114.928 89.4077C114.954 89.4077 114.98 89.4077 115.007 89.4077C115.034 93.2686 115.06 97.1295 115.087 101.107C117.031 101.107 118.974 101.107 120.977 101.107C120.977 101.16 120.977 101.212 120.977 101.267C120.2 101.268 119.423 101.27 118.646 101.271C118.285 101.271 117.925 101.272 117.564 101.273C117.216 101.273 116.868 101.274 116.52 101.274C116.387 101.274 116.254 101.275 116.121 101.275C115.936 101.276 115.75 101.276 115.564 101.276C115.509 101.276 115.453 101.276 115.396 101.277C115.017 101.276 115.017 101.276 114.928 101.187C114.92 101.035 114.918 100.883 114.918 100.73C114.918 100.631 114.918 100.532 114.918 100.43C114.918 100.319 114.919 100.208 114.919 100.097C114.919 99.9806 114.919 99.8645 114.919 99.7485C114.919 99.4324 114.919 99.1164 114.92 98.8004C114.92 98.4704 114.92 98.1405 114.92 97.8106C114.921 97.1854 114.921 96.5602 114.922 95.935C114.923 95.2234 114.923 94.5118 114.924 93.8002C114.925 92.3361 114.926 90.8719 114.928 89.4077Z" fill="black"/>
<path d="M42.899 89.5669C42.9253 89.5669 42.9516 89.5669 42.9786 89.5669C42.9824 91.0688 42.9852 92.5708 42.9869 94.0727C42.9877 94.7701 42.9888 95.4674 42.9906 96.1648C42.9922 96.7724 42.9933 97.38 42.9936 97.9877C42.9938 98.3096 42.9943 98.6314 42.9955 98.9533C42.9965 99.2561 42.9969 99.5588 42.9966 99.8615C42.9967 99.9728 42.997 100.084 42.9976 100.195C42.9984 100.347 42.9981 100.499 42.9978 100.65C42.9979 100.735 42.9981 100.82 42.9982 100.908C42.9786 101.107 42.9786 101.107 42.8195 101.267C42.6432 101.287 42.6432 101.287 42.4265 101.288C42.3487 101.288 42.2709 101.288 42.1908 101.288C42.0686 101.287 42.0686 101.287 41.944 101.286C41.8625 101.287 41.781 101.288 41.6971 101.288C41.6193 101.288 41.5416 101.288 41.4615 101.288C41.3899 101.288 41.3184 101.287 41.2448 101.287C41.0685 101.267 41.0685 101.267 40.9093 101.107C40.89 100.884 40.89 100.884 40.891 100.601C40.8911 100.499 40.8913 100.397 40.8914 100.292C40.8919 100.239 40.8924 100.186 40.8929 100.131C40.8944 99.9697 40.8946 99.8084 40.8945 99.647C40.8984 98.7853 40.8984 98.7853 40.9889 98.4014C41.1889 98.7014 41.1608 98.846 41.1462 99.2032C41.1442 99.2576 41.1422 99.312 41.1402 99.3681C41.1336 99.5417 41.1259 99.7152 41.1182 99.8887C41.1136 100.006 41.109 100.124 41.1045 100.242C41.0934 100.531 41.0812 100.819 41.0685 101.107C41.3305 101.099 41.5925 101.088 41.8544 101.078C41.9663 101.074 41.9663 101.074 42.0805 101.07C42.1518 101.067 42.2231 101.064 42.2965 101.061C42.3624 101.058 42.4282 101.056 42.4961 101.053C42.6778 101.042 42.6778 101.042 42.8195 100.869C42.8446 100.664 42.8446 100.664 42.8416 100.42C42.8425 100.325 42.8434 100.23 42.8443 100.132C42.8445 100.025 42.8447 99.9193 42.8448 99.8131C42.8456 99.7017 42.8464 99.5904 42.8473 99.479C42.8494 99.1761 42.8506 98.8732 42.8517 98.5704C42.8529 98.254 42.855 97.9377 42.8571 97.6214C42.8608 97.0221 42.8637 96.4228 42.8664 95.8236C42.8694 95.1414 42.8733 94.4593 42.8774 93.7772C42.8856 92.3738 42.8927 90.9703 42.899 89.5669Z" fill="black"/>
<path d="M136.735 91.2383C137.211 91.235 137.687 91.2317 138.178 91.2283C138.327 91.2269 138.477 91.2254 138.631 91.2239C138.75 91.2235 138.87 91.2231 138.989 91.2227C139.081 91.2215 139.081 91.2215 139.175 91.2203C139.532 91.2202 139.824 91.2521 140.158 91.3975C140.307 91.5666 140.307 91.5666 140.396 91.7158C140.191 91.6762 140.05 91.6204 139.866 91.5149C139.561 91.3798 139.307 91.3668 138.979 91.3742C138.903 91.3745 138.903 91.3745 138.824 91.3749C138.635 91.3761 138.446 91.3795 138.258 91.3825C137.834 91.3875 137.41 91.3924 136.974 91.3975C136.948 92.343 136.922 93.2885 136.895 94.2627C137.341 94.2578 137.788 94.2529 138.248 94.2478C138.387 94.2472 138.527 94.2467 138.671 94.2462C139.311 94.2371 139.814 94.2263 140.317 93.7852C140.464 93.574 140.464 93.574 140.556 93.3872C140.608 93.3872 140.661 93.3872 140.715 93.3872C140.668 93.6588 140.579 93.7984 140.387 93.9941C140.342 94.0411 140.297 94.0881 140.252 94.1365C139.835 94.4393 139.351 94.4444 138.857 94.4374C138.803 94.4373 138.749 94.4371 138.693 94.4369C138.493 94.4361 138.293 94.4339 138.093 94.4318C137.645 94.4285 137.197 94.4253 136.735 94.4219C136.735 93.3713 136.735 92.3207 136.735 91.2383Z" fill="black"/>
<path d="M78.7007 59.0744C78.7642 59.0746 78.8276 59.0748 78.893 59.0749C78.9647 59.0749 79.0364 59.0749 79.1103 59.075C79.1882 59.0754 79.2661 59.0758 79.3464 59.0762C79.4258 59.0763 79.5052 59.0764 79.587 59.0765C79.8416 59.077 80.0963 59.078 80.3509 59.079C80.5231 59.0794 80.6953 59.0798 80.8675 59.0801C81.2906 59.081 81.7136 59.0823 82.1367 59.084C82.1367 59.1102 82.1367 59.1365 82.1367 59.1636C80.9811 59.1898 79.8254 59.2161 78.6348 59.2432C78.6366 59.5175 78.6385 59.7918 78.6404 60.0745C78.6416 60.3437 78.6426 60.6129 78.6435 60.8822C78.6443 61.0676 78.6454 61.253 78.6468 61.4384C78.6681 64.3654 78.6681 64.3654 78.1084 64.9481C77.7967 65.1674 77.5971 65.2606 77.2021 65.2124C77.2432 65.1943 77.2842 65.1763 77.3265 65.1577C77.7906 64.9078 78.1274 64.6922 78.3164 64.1777C78.3794 63.8593 78.407 63.555 78.4111 63.2308C78.4124 63.1403 78.4137 63.0497 78.4151 62.9564C78.4162 62.8599 78.4173 62.7634 78.4184 62.664C78.4198 62.5641 78.4213 62.4643 78.4228 62.3614C78.4283 61.989 78.4331 61.6166 78.4379 61.2442C78.4426 60.8784 78.4478 60.5127 78.4532 60.1469C78.4543 60.0496 78.4554 59.9523 78.4565 59.852C78.4578 59.7627 78.4591 59.6735 78.4605 59.5815C78.4615 59.5025 78.4625 59.4235 78.4635 59.3421C78.4783 59.1239 78.4821 59.0888 78.7007 59.0744Z" fill="black"/>
<path d="M136.735 96.4912C136.788 96.5175 136.84 96.5437 136.895 96.5708C136.898 97.1596 136.901 97.7483 136.903 98.3371C136.904 98.6104 136.905 98.8838 136.907 99.1572C136.909 99.4713 136.909 99.7854 136.91 100.099C136.911 100.198 136.912 100.296 136.913 100.398C136.913 100.489 136.913 100.579 136.913 100.673C136.913 100.753 136.913 100.833 136.914 100.916C136.895 101.107 136.895 101.107 136.735 101.267C136.558 101.286 136.558 101.286 136.34 101.285C136.222 101.285 136.222 101.285 136.103 101.284C136.021 101.284 135.939 101.283 135.855 101.282C135.773 101.281 135.691 101.281 135.606 101.281C134.996 101.278 134.996 101.278 134.905 101.187C134.902 101.028 134.901 100.869 134.905 100.709C134.931 100.709 134.957 100.709 134.984 100.709C134.984 100.841 134.984 100.972 134.984 101.107C135.812 101.068 135.812 101.068 136.656 101.028C136.682 99.5307 136.708 98.0337 136.735 96.4912Z" fill="black"/>
<path d="M28.6523 91.3975C28.6786 91.3975 28.7049 91.3975 28.7319 91.3975C28.7582 92.3167 28.7845 93.236 28.8115 94.1831C29.028 94.1813 29.2445 94.1794 29.4675 94.1775C29.6767 94.1763 29.8858 94.1753 30.0949 94.1744C30.2406 94.1736 30.3862 94.1725 30.5318 94.1711C30.7408 94.1692 30.9498 94.1683 31.1588 94.1676C31.2241 94.1667 31.2895 94.1659 31.3568 94.1651C31.5166 94.165 31.6764 94.1734 31.8359 94.1831C31.9951 94.3423 31.9951 94.3423 32.0132 94.5138C32.0124 94.583 32.0115 94.6522 32.0107 94.7234C32.0101 94.7983 32.0096 94.8732 32.0091 94.9504C32.0078 95.0288 32.0064 95.1072 32.0051 95.1879C32.0043 95.2669 32.0036 95.3459 32.0029 95.4273C32.001 95.6228 31.9984 95.8182 31.9951 96.0137C31.9689 96.0137 31.9426 96.0137 31.9155 96.0137C31.8893 95.4884 31.863 94.9631 31.8359 94.4219C30.2601 94.3825 30.2601 94.3825 28.6523 94.3423C28.6523 93.3705 28.6523 92.3987 28.6523 91.3975Z" fill="black"/>
<path d="M40.9888 92.1138C41.015 92.1138 41.0413 92.1138 41.0684 92.1138C41.0684 93.5846 41.0684 95.0554 41.0684 96.5708C41.0158 96.5445 40.9633 96.5183 40.9092 96.4912C40.8829 95.283 40.8567 94.0749 40.8296 92.8301C40.7245 92.9877 40.6195 93.1453 40.5112 93.3076C40.4466 93.1783 40.4466 93.1783 40.4316 92.9893C40.5271 92.868 40.6234 92.7471 40.7276 92.6333C40.8606 92.4748 40.9255 92.3094 40.9888 92.1138Z" fill="black"/>
<path d="M76.645 59.2432C76.645 60.4513 76.645 61.6595 76.645 62.9043C76.448 62.9437 76.448 62.9437 76.2471 62.9839C76.2471 62.9314 76.2471 62.8788 76.2471 62.8247C76.3259 62.8247 76.4047 62.8247 76.4858 62.8247C76.4878 62.3388 76.4892 61.8528 76.4902 61.3669C76.4906 61.2014 76.4912 61.036 76.4918 60.8705C76.4928 60.6333 76.4933 60.396 76.4936 60.1588C76.494 60.0843 76.4944 60.0099 76.4949 59.9332C76.4949 59.8646 76.4949 59.7961 76.4949 59.7255C76.4951 59.6649 76.4952 59.6043 76.4954 59.5418C76.501 59.4001 76.501 59.4001 76.4062 59.3228C76.2866 59.313 76.1665 59.3086 76.0465 59.3064C75.9318 59.304 75.9318 59.304 75.8148 59.3016C75.7316 59.3003 75.6485 59.2989 75.5628 59.2976C75.4781 59.2959 75.3934 59.2943 75.3062 59.2926C75.0345 59.2873 74.7628 59.2827 74.4911 59.278C74.3074 59.2746 74.1237 59.2711 73.9401 59.2676C73.4887 59.259 73.0373 59.2509 72.5859 59.2432C72.5859 59.2169 72.5859 59.1906 72.5859 59.1636C73.1128 59.1482 73.6397 59.134 74.1667 59.1208C74.3459 59.1162 74.5252 59.1112 74.7044 59.106C74.962 59.0985 75.2196 59.0921 75.4773 59.0859C75.5575 59.0833 75.6376 59.0807 75.7203 59.0781C75.7951 59.0765 75.87 59.0749 75.9471 59.0732C76.0129 59.0715 76.0786 59.0697 76.1464 59.0679C76.3267 59.084 76.3267 59.084 76.645 59.2432Z" fill="black"/>
<path d="M19.4996 89.6465C19.4996 89.699 19.4996 89.7515 19.4996 89.8057C19.3569 89.9145 19.3569 89.9145 19.1663 90.0345C19.1006 90.0775 19.035 90.1205 18.9673 90.1648C18.8352 90.2498 18.7024 90.3339 18.5694 90.4175C17.9338 91.053 17.6587 92.0115 17.6541 92.8947C17.6615 93.0203 17.6615 93.0203 17.669 93.1484C17.6165 93.1222 17.5639 93.0959 17.5098 93.0688C17.4498 92.1436 17.6122 91.2851 18.1643 90.5223C18.4748 90.1721 18.9995 89.6465 19.4996 89.6465Z" fill="black"/>
<path d="M133.631 94.0239C133.657 94.0239 133.683 94.0239 133.71 94.0239C134.019 95.2696 133.818 96.9624 133.183 98.0706C133.129 98.1555 133.129 98.1555 133.074 98.2422C133.047 98.1897 133.021 98.1371 132.994 98.083C133.053 97.9157 133.053 97.9157 133.143 97.7149C133.255 97.4505 133.335 97.2199 133.362 96.9339C133.392 96.6504 133.392 96.6504 133.551 96.4116C133.581 96.1569 133.581 96.1569 133.584 95.866C133.586 95.8133 133.587 95.7607 133.589 95.7064C133.594 95.5386 133.597 95.3707 133.601 95.2029C133.604 95.0889 133.607 94.975 133.61 94.861C133.618 94.582 133.625 94.303 133.631 94.0239Z" fill="black"/>
<path d="M92.9609 31.6255C93.0003 31.7043 93.0003 31.7043 93.0405 31.7847C92.6649 32.2344 92.2617 32.6491 91.8398 33.0551C91.7331 33.1593 91.6303 33.2676 91.5283 33.3765C91.5283 33.429 91.5283 33.4815 91.5283 33.5356C91.3922 33.6637 91.2502 33.7855 91.1055 33.9037C91.027 33.9688 90.9485 34.0338 90.8677 34.1009C90.6528 34.252 90.6528 34.252 90.4141 34.252C90.4651 34.2019 90.516 34.1518 90.5686 34.1002C91.0304 33.6447 91.0304 33.6447 91.4637 33.1626C91.9275 32.6188 92.4527 32.1273 92.9609 31.6255Z" fill="black"/>
<path d="M78.3164 71.9775C78.4866 72.1107 78.5499 72.1952 78.6024 72.407C78.6478 72.8093 78.6429 73.2072 78.6397 73.6116C78.6394 73.6999 78.6391 73.7882 78.6388 73.8792C78.6375 74.2557 78.6353 74.6323 78.6331 75.0089C78.6317 75.2843 78.6307 75.5597 78.6298 75.8352C78.6291 75.92 78.6285 76.0048 78.6278 76.0922C78.6219 76.6661 78.6219 76.6661 78.7144 77.2305C78.7669 77.283 78.8194 77.3355 78.8735 77.3896C78.7422 77.3896 78.6109 77.3896 78.4756 77.3896C78.4744 77.302 78.4744 77.302 78.4731 77.2126C78.4653 76.66 78.4571 76.1074 78.4486 75.5547C78.4442 75.2707 78.44 74.9866 78.436 74.7026C78.4322 74.428 78.428 74.1535 78.4236 73.8789C78.4212 73.7241 78.4192 73.5693 78.4171 73.4145C78.4091 72.9292 78.39 72.4575 78.3164 71.9775Z" fill="black"/>
<path d="M50.8574 95.5361C51.2868 95.603 51.486 95.9194 51.7329 96.2524C52.0572 96.8001 52.1453 97.2444 52.1458 97.8741C52.1468 97.9418 52.1477 98.0095 52.1487 98.0793C52.1496 98.4345 52.1397 98.7154 51.9717 99.0381C51.9192 98.9856 51.8666 98.933 51.8125 98.8789C51.8346 98.7228 51.8346 98.7228 51.8871 98.5307C52.0703 97.7008 51.9228 96.9683 51.4755 96.2549C51.2929 95.9889 51.0949 95.756 50.8574 95.5361Z" fill="black"/>
<path d="M113.654 94.3423C113.68 94.3423 113.706 94.3423 113.733 94.3423C113.787 95.9824 113.682 97.3092 112.778 98.7197C112.7 98.7591 112.7 98.7591 112.619 98.7993C112.645 98.5259 112.724 98.353 112.878 98.1328C113.453 97.2564 113.579 96.2092 113.619 95.1879C113.622 95.1066 113.626 95.0252 113.629 94.9414C113.638 94.7417 113.646 94.542 113.654 94.3423Z" fill="black"/>
<path d="M130.049 100.789C130.049 100.842 130.049 100.894 130.049 100.948C129.887 101 129.724 101.051 129.562 101.102C129.471 101.131 129.381 101.16 129.288 101.189C128.756 101.34 128.256 101.361 127.706 101.361C127.633 101.362 127.561 101.363 127.485 101.364C127.061 101.365 126.71 101.327 126.309 101.187C126.584 101.102 126.831 101.102 127.118 101.108C127.213 101.109 127.309 101.111 127.408 101.112C127.608 101.116 127.809 101.12 128.009 101.125C128.732 101.133 129.38 100.789 130.049 100.789Z" fill="black"/>
<path d="M76.8037 52.0801C76.8833 52.3188 76.8833 52.3188 76.8037 52.5576C76.7944 52.7102 76.7896 52.863 76.7874 53.0158C76.7858 53.1098 76.7842 53.2038 76.7826 53.3006C76.7812 53.4021 76.7799 53.5036 76.7785 53.6081C76.7769 53.712 76.7752 53.8159 76.7735 53.923C76.7691 54.1989 76.7652 54.4749 76.7614 54.7508C76.7573 55.0325 76.7529 55.3142 76.7485 55.5959C76.74 56.1484 76.7319 56.7009 76.7241 57.2534C76.5271 57.2928 76.5271 57.2928 76.3262 57.333C76.3843 57.2686 76.3843 57.2686 76.4436 57.2028C76.5946 56.9686 76.5955 56.8285 76.5968 56.5512C76.5979 56.458 76.599 56.3648 76.6 56.2688C76.6001 56.1684 76.6001 56.0681 76.6001 55.9647C76.6017 55.8071 76.6033 55.6494 76.6049 55.4917C76.607 55.2711 76.608 55.0505 76.609 54.8299C76.6107 54.4435 76.6132 54.0571 76.617 53.6707C76.619 53.465 76.6201 53.2594 76.6205 53.0537C76.6213 52.9607 76.6221 52.8677 76.6229 52.772C76.6233 52.69 76.6236 52.6081 76.624 52.5237C76.6445 52.3188 76.6445 52.3188 76.8037 52.0801Z" fill="black"/>
<path d="M84.1267 40.46C84.153 40.5388 84.1792 40.6175 84.2063 40.6987C84.2588 40.6987 84.3113 40.6987 84.3655 40.6987C84.4443 40.8169 84.4443 40.8169 84.5247 40.9375C84.6556 41.0724 84.7883 41.2041 84.9226 41.3354C85.0343 41.447 85.1459 41.5586 85.2574 41.6703C85.3172 41.73 85.377 41.7898 85.4385 41.8514C85.7176 42.1304 85.9966 42.4094 86.2756 42.6885C86.1968 42.7147 86.118 42.741 86.0369 42.7681C85.7635 42.5046 85.4916 42.2398 85.2208 41.9738C85.1285 41.8835 85.0358 41.7936 84.9428 41.704C84.8091 41.5752 84.6767 41.445 84.5445 41.3146C84.4819 41.255 84.4819 41.255 84.4179 41.1942C84.2295 41.006 84.1315 40.8996 84.1006 40.6304C84.1092 40.5741 84.1178 40.5179 84.1267 40.46Z" fill="black"/>
<path d="M100.919 100.869C100.919 100.921 100.919 100.974 100.919 101.028C99.8987 101.379 98.7193 101.538 97.6562 101.267C97.6562 101.214 97.6562 101.162 97.6562 101.107C97.7192 101.109 97.7821 101.11 97.8469 101.111C98.1365 101.116 98.4261 101.119 98.7158 101.122C98.8147 101.124 98.9137 101.126 99.0157 101.128C99.5753 101.133 100.06 101.091 100.594 100.92C100.76 100.869 100.76 100.869 100.919 100.869Z" fill="black"/>
<path d="M138.725 96.4116C138.777 96.4116 138.83 96.4116 138.884 96.4116C138.925 96.4952 138.966 96.5789 139.009 96.665C139.274 97.1998 139.54 97.7315 139.837 98.25C139.92 98.4035 139.987 98.5583 140.053 98.7197C140.13 98.9662 140.13 98.9662 140.316 99.0381C140.366 99.2818 140.366 99.2818 140.396 99.5156C140.106 99.3226 140.017 99.1085 139.874 98.8043C139.818 98.6897 139.763 98.5752 139.707 98.4607C139.677 98.3999 139.647 98.339 139.617 98.2763C139.412 97.8655 139.193 97.462 138.975 97.058C138.943 96.9967 138.91 96.9355 138.876 96.8724C138.847 96.818 138.818 96.7635 138.788 96.7075C138.725 96.5708 138.725 96.5708 138.725 96.4116Z" fill="black"/>
<path d="M61.9214 56.6963C61.9739 56.6963 62.0264 56.6963 62.0806 56.6963C62.221 56.9421 62.2397 57.0332 62.2397 57.333C61.8593 57.4307 61.4874 57.4241 61.0975 57.4232C60.9906 57.4233 60.9906 57.4233 60.8814 57.4234C60.7312 57.4235 60.581 57.4233 60.4307 57.423C60.2005 57.4225 59.9703 57.423 59.7401 57.4235C59.594 57.4234 59.4479 57.4233 59.3018 57.4232C59.2329 57.4233 59.164 57.4235 59.093 57.4237C59.029 57.4234 58.9649 57.4232 58.899 57.4229C58.8427 57.4228 58.7865 57.4228 58.7285 57.4227C58.5786 57.4126 58.5786 57.4126 58.3398 57.333C58.3398 57.2542 58.3398 57.1754 58.3398 57.0942C58.4186 57.1205 58.4974 57.1468 58.5786 57.1738C58.6946 57.1807 58.811 57.1832 58.9272 57.1829C58.9973 57.1829 59.0674 57.1829 59.1396 57.1828C59.2526 57.1822 59.2526 57.1822 59.368 57.1816C59.4454 57.1815 59.5228 57.1814 59.6025 57.1813C59.8498 57.1808 60.0972 57.1798 60.3445 57.1788C60.5121 57.1784 60.6798 57.178 60.8474 57.1777C61.2585 57.1768 61.6695 57.1755 62.0806 57.1738C62.028 57.0162 61.9755 56.8587 61.9214 56.6963Z" fill="black"/>
<path d="M77.918 100.869C77.9648 100.886 78.0115 100.903 78.0597 100.921C78.8137 101.155 80.2188 101.39 80.9424 101.028C80.9424 101.107 80.9424 101.185 80.9424 101.267C79.9394 101.515 78.8742 101.377 77.918 101.028C77.918 100.975 77.918 100.923 77.918 100.869Z" fill="black"/>
<path d="M94.9512 51.4434C94.9774 51.4959 95.0037 51.5484 95.0308 51.6025C95.0966 51.6321 95.0966 51.6321 95.1638 51.6622C95.4363 51.8085 95.6307 52.0203 95.8466 52.2393C95.8907 52.2828 95.9348 52.3263 95.9802 52.3711C96.3042 52.6966 96.3042 52.6966 96.3042 52.876C96.3518 52.8973 96.3994 52.9187 96.4485 52.9406C96.6224 53.0351 96.735 53.1224 96.8613 53.2739C96.8613 53.3265 96.8613 53.379 96.8613 53.4331C96.3973 53.2366 96.0769 52.8339 95.7272 52.483C95.6527 52.4098 95.5782 52.3366 95.5015 52.2612C95.4311 52.1908 95.3607 52.1205 95.2882 52.0481C95.2235 51.9836 95.1589 51.9192 95.0922 51.8528C94.9512 51.6821 94.9512 51.6821 94.9512 51.4434Z" fill="black"/>
<path d="M70.9941 98.3218C71.29 98.4204 71.3157 98.5042 71.4667 98.7695C71.5078 98.8411 71.549 98.9127 71.5914 98.9865C71.6307 99.056 71.67 99.1256 71.7104 99.1973C71.744 99.2537 71.7775 99.3101 71.8121 99.3683C72.0288 99.7338 72.0288 99.7338 72.0288 99.9136C72.0813 99.9136 72.1339 99.9136 72.188 99.9136C72.211 99.9858 72.234 100.058 72.2576 100.132C72.3285 100.337 72.4041 100.52 72.5063 100.709C72.2029 100.608 72.1788 100.514 72.0263 100.238C71.9591 100.118 71.9591 100.118 71.8905 99.9955C71.8211 99.8688 71.8211 99.8688 71.7502 99.7395C71.704 99.6565 71.6577 99.5736 71.61 99.4881C71.3961 99.1032 71.1893 98.7166 70.9941 98.3218Z" fill="black"/>
<path d="M121.932 93.3076C121.958 93.3076 121.984 93.3076 122.011 93.3076C122.031 93.9084 122.031 93.9084 121.933 94.085C121.832 94.3075 121.827 94.4852 121.819 94.729C121.816 94.8178 121.813 94.9065 121.81 94.998C121.808 95.0902 121.805 95.1824 121.803 95.2775C121.799 95.3709 121.796 95.4644 121.793 95.5607C121.786 95.7913 121.779 96.0218 121.773 96.2524C121.746 96.2524 121.72 96.2524 121.693 96.2524C121.524 95.3033 121.535 94.1973 121.932 93.3076Z" fill="black"/>
<path d="M65.9796 51.4434C66.0322 51.4696 66.0847 51.4959 66.1388 51.5229C66.083 51.5606 66.0272 51.5983 65.9697 51.637C65.2598 52.1319 64.7041 52.658 64.3083 53.4331C64.2287 53.1943 64.2287 53.1943 64.3204 52.9991C64.7596 52.311 65.238 51.7994 65.9796 51.4434Z" fill="black"/>
<path d="M125.275 89.8056C125.231 89.8383 125.187 89.8709 125.141 89.9045C125.084 89.9474 125.026 89.9903 124.966 90.0345C124.909 90.0769 124.852 90.1194 124.793 90.1632C124.632 90.2831 124.632 90.2831 124.479 90.4424C124.4 90.4424 124.321 90.4424 124.24 90.4424C124.081 90.5711 123.935 90.6996 123.788 90.8403C123.727 90.8972 123.727 90.8972 123.664 90.9553C123.564 91.0491 123.464 91.1436 123.365 91.2383C123.338 91.1595 123.312 91.0807 123.285 90.9995C124.829 89.6571 124.829 89.6571 125.275 89.8056Z" fill="black"/>
<path d="M47.1968 91.1587C47.4869 91.1493 47.777 91.1437 48.0673 91.1388C48.1893 91.1348 48.1893 91.1348 48.3137 91.1307C48.8904 91.1233 49.4392 91.1816 49.8717 91.6013C49.9083 91.6391 49.9448 91.6769 49.9824 91.7158C50.1496 91.8094 50.1496 91.8094 50.3008 91.875C49.9292 91.9331 49.7297 91.7845 49.438 91.5796C48.9461 91.2861 48.4785 91.2981 47.923 91.3079C47.8455 91.3086 47.7679 91.3094 47.688 91.3101C47.4977 91.312 47.3075 91.3146 47.1172 91.3179C47.1435 91.2653 47.1697 91.2128 47.1968 91.1587Z" fill="black"/>
<path d="M72.5059 100.789C72.5847 100.789 72.6634 100.789 72.7446 100.789C72.7709 100.868 72.7972 100.947 72.8242 101.028C73.402 101.054 73.9799 101.08 74.5752 101.107C74.5489 101.16 74.5227 101.212 74.4956 101.267C74.2088 101.274 73.9219 101.278 73.635 101.282C73.5128 101.285 73.5128 101.285 73.388 101.288C73.2707 101.289 73.2707 101.289 73.151 101.29C73.0789 101.291 73.0068 101.292 72.9325 101.294C72.7446 101.267 72.7446 101.267 72.5998 101.161C72.5059 101.028 72.5059 101.028 72.5059 100.789Z" fill="black"/>
<path d="M44.1721 92.7505C44.3542 92.9326 44.3649 93.0108 44.4109 93.2579C44.4486 93.4595 44.485 93.6155 44.58 93.7982C44.603 93.8464 44.626 93.8947 44.6496 93.9443C44.6234 93.9969 44.5971 94.0494 44.57 94.1035C44.6226 94.1035 44.6751 94.1035 44.7292 94.1035C44.7292 94.156 44.7292 94.2086 44.7292 94.2627C44.7818 94.2627 44.8343 94.2627 44.8884 94.2627C45.0303 94.4727 45.1264 94.6584 45.2068 94.8994C44.7469 94.7242 44.5578 94.2761 44.3313 93.8647C44.1706 93.4992 44.1559 93.1476 44.1721 92.7505Z" fill="black"/>
<path d="M38.1235 93.1484C38.1498 93.2272 38.1761 93.306 38.2031 93.3872C38.1092 93.556 38.1092 93.556 37.9743 93.7404C37.8057 93.9721 37.7098 94.1442 37.646 94.4219C37.5416 94.5297 37.4353 94.6357 37.3276 94.7402C37.2446 94.8707 37.164 95.003 37.0889 95.1382C37.0363 95.1119 36.9838 95.0857 36.9297 95.0586C37.0836 94.7998 37.2379 94.5412 37.3923 94.2826C37.4576 94.1727 37.4576 94.1727 37.5243 94.0606C37.5666 93.9898 37.6089 93.919 37.6525 93.8461C37.6913 93.7811 37.73 93.7161 37.77 93.6491C37.8798 93.4747 37.9975 93.3113 38.1235 93.1484Z" fill="black"/>
<path d="M70.0391 72.6143C70.3794 72.8033 70.7076 73.0037 71.0339 73.2162C71.3581 73.4245 71.6688 73.5925 72.0288 73.7285C72.0288 73.781 72.0288 73.8336 72.0288 73.8877C71.8166 73.8346 71.6043 73.7816 71.3921 73.7285C71.3921 73.676 71.3921 73.6235 71.3921 73.5693C71.346 73.5601 71.3 73.5509 71.2525 73.5414C71.0609 73.486 70.9269 73.4095 70.7603 73.3007C70.5748 73.18 70.3933 73.0681 70.1982 72.9625C70.1457 72.9263 70.0932 72.8902 70.0391 72.853C70.0391 72.7742 70.0391 72.6954 70.0391 72.6143Z" fill="black"/>
<path d="M57.8613 89.2485C58.188 89.2415 58.5146 89.2373 58.8413 89.2336C58.9326 89.2316 59.024 89.2296 59.1181 89.2275C59.7195 89.2224 60.2359 89.2949 60.8062 89.4873C60.7274 89.5398 60.6486 89.5924 60.5674 89.6465C60.4067 89.598 60.2477 89.5442 60.0898 89.4873C59.9124 89.4649 59.7342 89.4484 59.5557 89.4369C59.4567 89.4303 59.3577 89.4236 59.2557 89.4167C59.1023 89.4073 59.1023 89.4073 58.9457 89.3978C58.8416 89.3909 58.7375 89.384 58.6302 89.3769C58.3739 89.3601 58.1177 89.3438 57.8613 89.3281C57.8613 89.3019 57.8613 89.2756 57.8613 89.2485Z" fill="black"/>
<path d="M17.5898 93.228C17.749 93.3076 17.749 93.3076 17.8286 93.5265C17.8549 93.6118 17.8811 93.6972 17.9082 93.7852C17.9603 93.9182 18.013 94.051 18.0674 94.1831C18.1199 94.1831 18.1724 94.1831 18.2266 94.1831C18.3092 94.3139 18.3886 94.4467 18.4653 94.5811C18.5179 94.6336 18.5704 94.6861 18.6245 94.7402C18.5982 94.819 18.572 94.8978 18.5449 94.979C18.0477 94.4685 17.5898 93.9719 17.5898 93.228Z" fill="black"/>
<path d="M77.043 44.7578C77.0856 44.7865 77.1283 44.8153 77.1723 44.8449C77.8139 45.2248 78.3918 45.196 79.1123 45.1558C79.086 45.2083 79.0598 45.2608 79.0327 45.3149C78.3798 45.4567 77.7002 45.4433 77.1226 45.0762C77.0591 44.9055 77.0591 44.9055 77.043 44.7578Z" fill="black"/>
<path d="M67.8105 93.0688C68.0689 93.1766 68.1812 93.271 68.3139 93.5165C68.3603 93.6009 68.3603 93.6009 68.4076 93.6869C68.4388 93.7456 68.4699 93.8043 68.502 93.8647C68.534 93.9234 68.5661 93.9821 68.5991 94.0426C68.7106 94.2472 68.8206 94.4522 68.9248 94.6606C68.846 94.6606 68.7672 94.6606 68.686 94.6606C68.3709 94.1091 68.3709 94.1091 68.0493 93.5464C67.9968 93.5464 67.9443 93.5464 67.8901 93.5464C67.8639 93.3888 67.8376 93.2312 67.8105 93.0688Z" fill="black"/>
<path d="M107.745 89.2336C107.886 89.2352 107.886 89.2352 108.031 89.2369C108.26 89.2396 108.49 89.2436 108.72 89.2485C108.72 89.2748 108.72 89.3011 108.72 89.3281C108.671 89.3297 108.623 89.3313 108.573 89.3329C107.195 89.3592 107.195 89.3592 105.854 89.6465C105.802 89.5939 105.749 89.5414 105.695 89.4873C106.39 89.2765 107.021 89.2176 107.745 89.2336Z" fill="black"/>
<path d="M91.6079 65.9287C91.6079 66.1675 91.6079 66.1675 91.4966 66.2987C91.0261 66.7097 90.5306 67.0041 89.9365 67.2021C90.0453 66.8759 90.2603 66.8071 90.5484 66.655C90.9411 66.446 91.2734 66.2236 91.6079 65.9287Z" fill="black"/>
<path d="M44.252 99.1973C44.3045 99.1973 44.357 99.1973 44.4111 99.1973C44.4968 99.3152 44.5771 99.4371 44.6549 99.5604C44.9078 99.9366 45.1769 100.183 45.5475 100.441C45.5927 100.477 45.638 100.513 45.6846 100.55C45.6846 100.603 45.6846 100.655 45.6846 100.709C45.1358 100.531 44.678 100.07 44.3863 99.5781C44.3216 99.4261 44.3216 99.4261 44.252 99.1973Z" fill="black"/>
<path d="M45.1279 90.2036C45.1542 90.2561 45.1805 90.3087 45.2075 90.3628C45.1018 90.5503 45.1018 90.5503 44.9489 90.7757C44.729 91.1091 44.5525 91.4225 44.4116 91.7954C44.3854 91.7954 44.3591 91.7954 44.332 91.7954C44.3563 91.1276 44.6465 90.6605 45.1279 90.2036Z" fill="black"/>
<path d="M81.8184 44.7578C82.455 44.7993 82.9922 45.083 83.4897 45.4741C83.4635 45.5267 83.4372 45.5792 83.4102 45.6333C83.3248 45.5758 83.2394 45.5184 83.1515 45.4592C82.7316 45.1949 82.279 45.0178 81.8184 44.8374C81.8184 44.8111 81.8184 44.7849 81.8184 44.7578Z" fill="black"/>
<path d="M99.4082 30.1133C99.9184 30.5328 100.378 30.996 100.841 31.4663C100.516 31.4663 100.444 31.366 100.204 31.1479C100.059 30.9888 99.9176 30.827 99.7782 30.6626C99.6507 30.5106 99.6507 30.5106 99.5108 30.3822C99.4082 30.2725 99.4082 30.2725 99.4082 30.1133Z" fill="black"/>
<path d="M101.875 97.0483C102.1 97.3164 102.216 97.6035 102.353 97.9238C102.405 97.9764 102.458 98.0289 102.512 98.083C102.568 98.2141 102.621 98.3471 102.671 98.481C102.7 98.5548 102.73 98.6287 102.76 98.7048C102.783 98.7623 102.806 98.8197 102.83 98.8789C102.284 98.4291 101.962 97.7435 101.875 97.0483Z" fill="black"/>
<path d="M111.426 96.8096C111.452 96.8621 111.478 96.9146 111.505 96.9688C111.426 97.1758 111.426 97.1758 111.311 97.4164C111.274 97.4963 111.236 97.5761 111.197 97.6583C111.168 97.7197 111.138 97.781 111.107 97.8442C111.055 97.8442 111.002 97.8442 110.948 97.8442C110.948 97.8968 110.948 97.9493 110.948 98.0034C110.792 98.114 110.633 98.2204 110.471 98.3218C110.59 98.0639 110.738 97.8413 110.903 97.6104C111.09 97.3495 111.264 97.0865 111.426 96.8096Z" fill="black"/>
<path d="M89.6978 34.8887C89.7765 34.9149 89.8553 34.9412 89.9365 34.9683C89.8894 35.0096 89.8423 35.051 89.7938 35.0936C89.3808 35.4562 89.3808 35.4562 88.9864 35.8388C88.8223 36.0029 88.8223 36.0029 88.6631 36.0825C88.7912 35.7583 89.0243 35.5441 89.27 35.3065C89.311 35.2662 89.352 35.2259 89.3943 35.1843C89.4951 35.0854 89.5964 34.987 89.6978 34.8887Z" fill="black"/>
<path d="M81.5 89.4873C81.8734 89.5287 82.1202 89.6274 82.4352 89.8305C82.5478 89.9015 82.5478 89.9015 82.6628 89.9739C82.8514 90.1227 82.9281 90.2208 83.0122 90.4424C82.9108 90.3949 82.8097 90.3467 82.7088 90.2981C82.6524 90.2713 82.5961 90.2446 82.5381 90.217C82.3731 90.1227 82.2702 90.0187 82.1367 89.8853C81.975 89.7901 81.975 89.7901 81.8034 89.7112C81.7465 89.6838 81.6896 89.6564 81.6309 89.6281C81.5877 89.6079 81.5445 89.5877 81.5 89.5669C81.5 89.5406 81.5 89.5144 81.5 89.4873Z" fill="black"/>
<path d="M142.625 92.1138C142.677 92.1138 142.73 92.1138 142.784 92.1138C142.786 92.3476 142.787 92.5813 142.789 92.8152C142.789 92.8815 142.79 92.9478 142.791 93.0162C142.791 93.08 142.791 93.1439 142.791 93.2097C142.792 93.2685 142.792 93.3272 142.793 93.3878C142.784 93.5464 142.784 93.5464 142.704 93.7852C142.652 93.7852 142.599 93.7852 142.545 93.7852C142.551 93.7045 142.556 93.6239 142.562 93.5408C142.57 93.4332 142.577 93.3256 142.585 93.2181C142.589 93.1651 142.592 93.1122 142.596 93.0577C142.618 92.7423 142.628 92.4298 142.625 92.1138Z" fill="black"/>
<path d="M74.2374 62.2925C74.3747 62.3018 74.3747 62.3018 74.5147 62.3114C74.5874 62.3232 74.66 62.335 74.7349 62.3472C74.7611 62.3997 74.7874 62.4522 74.8145 62.5064C74.2892 62.5064 73.7639 62.5064 73.2227 62.5064C73.2489 62.4538 73.2752 62.4013 73.3022 62.3472C73.6186 62.2519 73.9105 62.2677 74.2374 62.2925Z" fill="black"/>
<path d="M107.844 38.5498C108.154 38.6761 108.348 38.8788 108.58 39.1169C108.651 39.1893 108.722 39.2617 108.795 39.3364C108.849 39.392 108.903 39.4476 108.958 39.5049C108.932 39.5837 108.905 39.6625 108.878 39.7437C108.826 39.6763 108.773 39.609 108.719 39.5397C108.496 39.2692 108.239 39.0515 107.969 38.8296C107.928 38.7898 107.886 38.75 107.844 38.709C107.844 38.6565 107.844 38.6039 107.844 38.5498Z" fill="black"/>
<path d="M142.386 93.9443C142.438 93.9443 142.491 93.9443 142.545 93.9443C142.511 94.3985 142.319 94.6933 142.067 95.0586C142.015 95.0323 141.962 95.0061 141.908 94.979C142.066 94.6376 142.223 94.2961 142.386 93.9443Z" fill="black"/>
<path d="M102.592 33.2969C103.072 33.6936 103.509 34.1261 103.945 34.5703C103.706 34.5703 103.706 34.5703 103.52 34.4074C103.452 34.3364 103.383 34.2654 103.313 34.1923C103.245 34.1221 103.177 34.0519 103.107 33.9796C103.042 33.9119 102.977 33.8442 102.91 33.7744C102.849 33.7165 102.788 33.6587 102.726 33.5991C102.592 33.4561 102.592 33.4561 102.592 33.2969Z" fill="black"/>
<path d="M131.641 96.1729C131.694 96.1991 131.746 96.2254 131.8 96.2524C131.494 97.3835 131.494 97.3835 131.228 97.5657C131.157 97.5854 131.157 97.5854 131.084 97.6055C131.106 97.551 131.128 97.4965 131.151 97.4404C131.253 97.1828 131.353 96.9242 131.452 96.6653C131.488 96.5729 131.523 96.4804 131.56 96.3852C131.587 96.3151 131.613 96.245 131.641 96.1729Z" fill="black"/>
<path d="M106.412 37.1172C106.863 37.4911 107.276 37.893 107.686 38.311C107.659 38.3636 107.633 38.4161 107.606 38.4702C107.341 38.2049 107.075 37.9396 106.81 37.6743C106.736 37.6032 106.661 37.5321 106.585 37.4589C106.412 37.2764 106.412 37.2764 106.412 37.1172Z" fill="black"/>
<path d="M71.8696 62.7451C71.8959 62.7976 71.9222 62.8502 71.9492 62.9043C71.7553 63.009 71.5613 63.1134 71.3672 63.2177C71.3123 63.2474 71.2573 63.2771 71.2007 63.3077C71.1476 63.3362 71.0945 63.3646 71.0398 63.394C70.9667 63.4333 70.9667 63.4333 70.8921 63.4735C70.7554 63.541 70.7554 63.541 70.5166 63.6206C70.5962 63.3818 70.5962 63.3818 70.7221 63.2963C70.7751 63.2709 70.828 63.2454 70.8825 63.2192C70.9397 63.1913 70.9969 63.1633 71.0559 63.1345C71.1159 63.1061 71.176 63.0778 71.2379 63.0486C71.2983 63.0193 71.3586 62.99 71.4208 62.9598C71.5701 62.8875 71.7198 62.8162 71.8696 62.7451Z" fill="black"/>
<path d="M68.7656 90.7607C68.8182 90.7607 68.8707 90.7607 68.9248 90.7607C69.0466 90.9692 69.1675 91.1782 69.2879 91.3875C69.3402 91.4766 69.3402 91.4766 69.3935 91.5675C69.4261 91.6245 69.4586 91.6814 69.4922 91.7401C69.5226 91.7926 69.553 91.8451 69.5844 91.8992C69.6031 91.9438 69.6218 91.9883 69.6411 92.0342C69.6148 92.0867 69.5886 92.1392 69.5615 92.1934C68.8296 91.1061 68.8296 91.1061 68.7656 90.7607Z" fill="black"/>
<path d="M46.3218 89.4873C46.3743 89.5136 46.4268 89.5398 46.481 89.5669C46.4148 89.6072 46.4148 89.6072 46.3473 89.6483C46.2896 89.6838 46.232 89.7193 46.1725 89.7559C46.1153 89.791 46.058 89.8261 45.9991 89.8622C45.8349 89.9637 45.8349 89.9637 45.6851 90.124C45.5537 90.1803 45.4212 90.2338 45.2871 90.2832C45.2871 90.2044 45.2871 90.1256 45.2871 90.0444C45.4528 89.9195 45.4528 89.9195 45.6701 89.7957C45.7412 89.7545 45.8123 89.7132 45.8856 89.6707C46.083 89.5669 46.083 89.5669 46.3218 89.4873Z" fill="black"/>
<path d="M122.569 91.9546C122.621 91.9809 122.674 92.0071 122.728 92.0342C122.639 92.2053 122.549 92.376 122.459 92.5465C122.422 92.6196 122.422 92.6196 122.383 92.6941C122.189 93.0598 122.189 93.0598 122.012 93.1484C122.058 92.8251 122.162 92.6034 122.335 92.3277C122.379 92.2574 122.422 92.1871 122.467 92.1147C122.518 92.0354 122.518 92.0354 122.569 91.9546Z" fill="black"/>
<path d="M64.229 58.5269C64.229 58.7656 64.229 58.7656 64.035 58.9795C63.724 59.2286 63.4164 59.2017 63.0352 59.1636C63.0352 59.1373 63.0352 59.111 63.0352 59.084C63.1144 59.0637 63.1144 59.0637 63.1953 59.0429C63.6058 58.9303 63.9153 58.8301 64.229 58.5269Z" fill="black"/>
<path d="M64.9458 49.6128C64.7771 49.7214 64.608 49.829 64.4384 49.9362C64.3904 49.9672 64.3424 49.9982 64.2929 50.0302C64.1686 50.1083 64.0401 50.1795 63.9111 50.2496C63.8586 50.2233 63.8061 50.197 63.752 50.17C64.13 49.8516 64.13 49.8516 64.3091 49.8516C64.3091 49.7991 64.3091 49.7466 64.3091 49.6924C64.5593 49.5405 64.6689 49.5296 64.9458 49.6128Z" fill="black"/>
<path d="M86.1958 38.3906C86.1958 38.6851 86.1275 38.7409 85.9371 38.9577C85.8891 39.0137 85.8411 39.0697 85.7916 39.1275C85.6303 39.2737 85.5328 39.3147 85.3203 39.3457C85.5996 39.0127 85.8839 38.6934 86.1958 38.3906Z" fill="black"/>
<path d="M80.9434 96.5708C81.6303 97.0456 81.6303 97.0456 81.8188 97.4463C81.587 97.3391 81.3976 97.2175 81.202 97.0533C81.1532 97.0132 81.1044 96.9731 81.054 96.9318C80.9434 96.8096 80.9434 96.8096 80.9434 96.5708Z" fill="black"/>
<path d="M71.5508 65.5308C71.577 65.6096 71.6033 65.6883 71.6304 65.7695C71.5219 65.9495 71.5219 65.9495 71.3667 66.1426C71.3161 66.2069 71.2656 66.2713 71.2135 66.3375C71.1672 66.3865 71.1209 66.4354 71.0732 66.4858C71.0207 66.4858 70.9682 66.4858 70.9141 66.4858C71.0342 66.0895 71.2767 65.8298 71.5508 65.5308Z" fill="black"/>
<path d="M25.3096 98.7197C25.3892 98.9585 25.3892 98.9585 25.3009 99.1705C25.2578 99.2483 25.2147 99.3261 25.1703 99.4062C25.128 99.4844 25.0857 99.5625 25.0422 99.6431C24.9116 99.834 24.9116 99.834 24.6729 99.9136C24.8017 99.6509 24.9402 99.3942 25.0807 99.1376C25.1236 99.0592 25.1665 98.9808 25.2107 98.9C25.2433 98.8405 25.276 98.781 25.3096 98.7197Z" fill="black"/>
<path d="M77.7598 92.8301C78.0806 92.937 78.1419 93.105 78.3169 93.3872C78.3957 93.5054 78.3957 93.5054 78.4761 93.626C78.1733 93.5827 78.0297 93.4643 77.8394 93.228C77.7797 93.0092 77.7797 93.0092 77.7598 92.8301Z" fill="black"/>
<path d="M111.506 90.6016C111.844 90.6391 111.999 90.8377 112.222 91.0791C112.196 91.1579 112.17 91.2367 112.143 91.3179C112.036 91.2289 111.93 91.1392 111.824 91.0493C111.736 90.9745 111.736 90.9745 111.645 90.8982C111.599 90.8528 111.553 90.8075 111.506 90.7607C111.506 90.7082 111.506 90.6557 111.506 90.6016Z" fill="black"/>
<path d="M68.4477 66.1675C68.474 66.1675 68.5003 66.1675 68.5273 66.1675C68.4864 66.6333 68.4116 67.0692 68.2886 67.5205C68.2623 67.5205 68.236 67.5205 68.209 67.5205C68.1768 67.0064 68.2415 66.6402 68.4477 66.1675Z" fill="black"/>
<path d="M106.332 45.7925C106.491 45.7925 106.491 45.7925 106.629 45.9262C106.678 45.9838 106.728 46.0415 106.78 46.1009C106.83 46.1581 106.88 46.2154 106.932 46.2744C107.048 46.4292 107.048 46.4292 107.048 46.5884C106.996 46.5884 106.943 46.5884 106.889 46.5884C106.863 46.5358 106.837 46.4833 106.81 46.4292C106.733 46.3923 106.733 46.3923 106.655 46.3546C106.491 46.27 106.491 46.27 106.332 46.0312C106.332 45.9525 106.332 45.8737 106.332 45.7925Z" fill="black"/>
<path d="M132.835 98.3218C132.862 98.4006 132.888 98.4794 132.915 98.5605C132.818 98.7057 132.818 98.7057 132.681 98.854C132.636 98.9036 132.591 98.9531 132.545 99.0042C132.509 99.0416 132.474 99.0791 132.438 99.1177C132.385 99.0914 132.332 99.0651 132.278 99.0381C132.567 98.5009 132.567 98.5009 132.835 98.3218Z" fill="black"/>
<path d="M53.3252 97.8442C53.3777 97.8442 53.4303 97.8442 53.4844 97.8442C53.5106 97.9756 53.5369 98.1069 53.564 98.2422C53.6428 98.2422 53.7216 98.2422 53.8027 98.2422C53.8126 98.3046 53.8224 98.3669 53.8326 98.4312C53.8657 98.6513 53.8657 98.6513 54.0415 98.7993C53.9627 98.7993 53.8839 98.7993 53.8027 98.7993C53.675 98.6308 53.675 98.6308 53.549 98.4113C53.4858 98.3033 53.4858 98.3033 53.4213 98.1931C53.3252 98.0034 53.3252 98.0034 53.3252 97.8442Z" fill="black"/>
<path d="M62.4778 93.3872C62.637 93.626 62.637 93.626 62.6768 93.7951C62.6899 93.8444 62.7031 93.8936 62.7166 93.9443C62.7691 93.9706 62.8216 93.9969 62.8758 94.0239C62.8758 94.1815 62.8758 94.3391 62.8758 94.5015C62.5876 94.1478 62.4515 93.8477 62.4778 93.3872Z" fill="black"/>
<path d="M131.004 100.312C131.004 100.364 131.004 100.417 131.004 100.471C130.495 100.794 130.495 100.794 130.253 100.769C130.212 100.749 130.171 100.73 130.129 100.709C130.314 100.586 130.487 100.487 130.686 100.391C130.845 100.312 130.845 100.312 131.004 100.312Z" fill="black"/>
<path d="M50.0615 97.4463C50.1141 97.4726 50.1666 97.4988 50.2207 97.5259C50.2293 97.6667 50.2355 97.8077 50.2406 97.9487C50.2443 98.0272 50.248 98.1057 50.2518 98.1865C50.2207 98.4014 50.2207 98.4014 50.0603 98.549C50.0082 98.5791 49.956 98.6092 49.9023 98.6401C49.9286 98.5761 49.9549 98.5121 49.9819 98.4461C50.078 98.1039 50.0756 97.7989 50.0615 97.4463Z" fill="black"/>
<path d="M38.7607 92.1934C38.7607 92.4484 38.7016 92.5988 38.6016 92.8301C38.549 92.8301 38.4965 92.8301 38.4424 92.8301C38.3899 92.9351 38.3373 93.0402 38.2832 93.1484C38.3196 92.7483 38.5214 92.4999 38.7607 92.1934Z" fill="black"/>
<path d="M34.5425 98.7993C34.595 98.7993 34.6475 98.7993 34.7017 98.7993C34.6614 99.1478 34.4487 99.3418 34.2241 99.5952C34.1979 99.5427 34.1716 99.4902 34.1445 99.436C34.2182 99.2812 34.2182 99.2812 34.3286 99.1077C34.3644 99.0501 34.4002 98.9924 34.4371 98.933C34.4719 98.8889 34.5066 98.8448 34.5425 98.7993Z" fill="black"/>
<path d="M60.5684 91.5566C60.88 91.619 61.1545 91.747 61.4438 91.875C61.4438 91.9538 61.4438 92.0326 61.4438 92.1138C61.1169 91.9984 60.8494 91.8389 60.5684 91.6362C60.5684 91.61 60.5684 91.5837 60.5684 91.5566Z" fill="black"/>
<path d="M109.277 47.9414C109.481 48.1205 109.481 48.1205 109.675 48.3394C109.66 48.5234 109.66 48.5234 109.596 48.6577C109.395 48.5006 109.357 48.4215 109.302 48.1653C109.294 48.0914 109.286 48.0175 109.277 47.9414Z" fill="black"/>
<path d="M92.3242 65.1328C92.3505 65.2116 92.3767 65.2904 92.4038 65.3716C92.22 65.5554 92.0361 65.7393 91.8467 65.9287C91.7942 65.9024 91.7416 65.8762 91.6875 65.8491C91.8976 65.6127 92.1077 65.3764 92.3242 65.1328Z" fill="black"/>
<path d="M108.64 53.274C108.209 53.5972 108.209 53.5972 107.973 53.5724C107.93 53.5527 107.888 53.533 107.844 53.5128C107.923 53.3536 107.923 53.3536 108.197 53.2591C108.48 53.1944 108.48 53.1944 108.64 53.274Z" fill="black"/>
<path d="M142.386 91.3975C142.504 91.4763 142.504 91.4763 142.625 91.5566C142.64 91.8054 142.64 91.8054 142.625 92.0342C142.599 91.9554 142.572 91.8766 142.545 91.7954C142.467 91.8217 142.388 91.8479 142.307 91.875C142.333 91.7174 142.359 91.5598 142.386 91.3975Z" fill="black"/>
<path d="M109.277 91.4771C109.543 91.5214 109.758 91.5846 109.994 91.7158C109.994 91.7683 109.994 91.8209 109.994 91.875C109.693 91.7882 109.479 91.7231 109.277 91.4771Z" fill="black"/>
<path d="M109.038 39.7437C109.373 39.8632 109.495 40.0847 109.675 40.3804C109.407 40.2657 109.23 40.1219 109.038 39.9028C109.038 39.8503 109.038 39.7978 109.038 39.7437Z" fill="black"/>
<path d="M69.8799 49.374C70.0988 49.3491 70.0988 49.3491 70.3574 49.374C70.5464 49.573 70.5464 49.573 70.6758 49.7719C70.3644 49.68 70.1286 49.5845 69.8799 49.374Z" fill="black"/>
<path d="M33.9849 99.6748C34.0111 99.7536 34.0374 99.8324 34.0645 99.9136C33.9102 100.167 33.9102 100.167 33.7461 100.391C33.6936 100.365 33.641 100.339 33.5869 100.312C33.7182 100.101 33.8496 99.8913 33.9849 99.6748Z" fill="black"/>
<path d="M69.8008 92.5117C70.046 92.7324 70.1739 92.9147 70.2783 93.228C70.2258 93.228 70.1733 93.228 70.1191 93.228C69.8008 92.8067 69.8008 92.8067 69.8008 92.5117Z" fill="black"/>
<path d="M62 92.7505C62.2388 92.8301 62.2388 92.8301 62.3383 92.9793C62.3979 93.1484 62.3979 93.1484 62.3184 93.3872C62 92.9296 62 92.9296 62 92.7505Z" fill="black"/>
<path d="M109.675 40.46C109.754 40.46 109.833 40.46 109.914 40.46C109.888 40.5913 109.862 40.7226 109.834 40.8579C109.756 40.8842 109.677 40.9104 109.596 40.9375C109.622 40.7799 109.648 40.6223 109.675 40.46Z" fill="black"/>
<path d="M92.9609 31.6255C92.9872 31.678 93.0135 31.7305 93.0405 31.7847C92.6625 32.1727 92.6625 32.1727 92.4834 32.2622C92.5982 31.9943 92.7486 31.8236 92.9609 31.6255Z" fill="black"/>
</svg>
