<svg width="754" height="754" viewBox="0 0 754 754" fill="none" xmlns="http://www.w3.org/2000/svg">
<path d="M448.425 174.51C449.937 175.025 451.013 176.196 452.152 177.271C452.363 177.468 452.573 177.665 452.79 177.867C455.125 180.06 457.463 182.26 459.539 184.703C462.295 187.919 465.385 190.945 468.616 193.68C471.387 196.16 474.012 198.849 476.418 201.683C478.703 204.232 481.158 206.718 483.768 208.933C486.831 211.533 489.675 214.479 492.274 217.539C494.418 219.94 496.728 222.269 499.185 224.35C501.46 226.278 503.517 228.46 505.606 230.585C506.156 231.137 506.723 231.672 507.292 232.205C508.081 233.062 508.329 233.388 508.435 234.521C508.049 235.165 508.049 235.165 507.422 235.831C507.182 236.087 506.943 236.343 506.697 236.607C506.42 236.89 506.143 237.174 505.858 237.466C505.553 237.781 505.247 238.096 504.932 238.421C504.082 239.288 503.226 240.15 502.365 241.007C501.832 241.538 501.302 242.071 500.771 242.604C499.035 244.341 497.269 246.016 495.405 247.615C493.601 249.225 492.043 251.334 491.776 253.769C491.653 256.326 492.165 257.808 493.805 259.733C495.261 261.158 496.977 261.938 498.794 262.8C503.548 265.069 506.998 268.455 508.891 273.401C510.261 277.707 509.833 282.321 508.067 286.432C505.814 290.692 502.445 293.565 497.874 295.014C493.499 296.163 489.015 296.052 484.918 294.001C480.748 291.501 478.406 288.597 476.405 284.223C475.937 283.348 475.451 282.485 474.961 281.622C474.685 281.126 474.427 280.619 474.185 280.105C473.711 279.218 473.277 279.084 472.355 278.7C472.021 278.503 471.687 278.305 471.343 278.102C469.653 277.387 468.21 277.278 466.475 277.824C463.799 279.022 461.706 281.113 459.819 283.309C458.174 285.207 456.422 286.997 454.654 288.779C454.272 289.165 453.891 289.553 453.512 289.943C452.958 290.513 452.399 291.078 451.839 291.642C451.51 291.976 451.181 292.31 450.843 292.654C449.848 293.467 449.336 293.782 448.057 293.795C447.373 293.406 447.373 293.406 446.719 292.777C446.466 292.538 446.214 292.299 445.954 292.053C445.537 291.639 445.537 291.639 445.111 291.218C444.798 290.914 444.485 290.61 444.162 290.297C443.136 289.292 442.121 288.278 441.107 287.26C440.755 286.909 440.402 286.557 440.049 286.206C439.716 285.872 439.383 285.539 439.039 285.195C438.738 284.893 438.437 284.591 438.126 284.281C436.989 283.07 436.643 282.613 436.643 280.909C436.987 280.744 437.33 280.578 437.683 280.407C444.38 277.071 449.981 272.15 452.556 264.918C454.759 257.459 454.316 249.802 450.772 242.804C447.02 236.301 441.343 231.836 434.112 229.803C426.94 228.22 419.713 229.107 413.323 232.77C408.505 235.951 404.112 240.881 402.036 246.302C401.278 246.449 401.278 246.449 400.195 246.302C399.228 245.624 398.426 244.79 397.599 243.95C397.357 243.71 397.114 243.469 396.864 243.221C396.353 242.711 395.844 242.198 395.337 241.684C394.561 240.897 393.774 240.121 392.987 239.345C392.491 238.848 391.996 238.351 391.502 237.853C391.266 237.621 391.03 237.388 390.787 237.149C390.464 236.818 390.464 236.818 390.135 236.48C389.944 236.288 389.754 236.095 389.557 235.898C388.993 235.009 389.007 234.45 389.15 233.416C389.592 232.751 389.592 232.751 390.219 232.133C390.569 231.78 390.569 231.78 390.927 231.421C391.184 231.173 391.44 230.925 391.704 230.669C391.967 230.408 392.23 230.147 392.5 229.878C393.343 229.044 394.192 228.216 395.041 227.387C395.602 226.833 396.162 226.277 396.722 225.722C398.959 223.512 401.192 221.323 403.583 219.278C404.712 218.274 405.714 217.159 406.73 216.043C408.975 213.616 411.274 211.249 413.61 208.91C413.915 208.604 414.22 208.297 414.534 207.982C415.877 206.641 417.228 205.332 418.668 204.095C420.071 202.888 421.316 201.579 422.561 200.212C424.806 197.785 427.105 195.418 429.441 193.079C429.746 192.773 430.051 192.466 430.365 192.15C431.707 190.811 433.056 189.503 434.495 188.268C435.923 187.039 437.192 185.703 438.461 184.312C440.552 182.052 442.683 179.841 444.858 177.662C445.129 177.39 445.4 177.117 445.678 176.837C446.056 176.46 446.056 176.46 446.442 176.076C446.665 175.853 446.888 175.63 447.118 175.401C447.688 174.878 447.688 174.878 448.425 174.51Z" fill="white"/>
<path d="M272.485 226.74C272.975 226.741 272.975 226.741 273.475 226.742C273.819 226.742 274.163 226.741 274.518 226.741C275.681 226.739 276.844 226.74 278.007 226.741C278.837 226.741 279.668 226.74 280.498 226.739C282.759 226.738 285.02 226.738 287.282 226.74C289.643 226.741 292.003 226.74 294.364 226.739C298.584 226.738 302.804 226.74 307.024 226.741C310.854 226.743 314.683 226.743 318.513 226.741C322.955 226.739 327.398 226.738 331.84 226.739C334.193 226.74 336.547 226.74 338.9 226.739C341.112 226.738 343.324 226.739 345.536 226.741C346.35 226.741 347.165 226.741 347.979 226.74C349.086 226.739 350.193 226.74 351.299 226.742C351.626 226.741 351.953 226.741 352.289 226.74C354.5 226.747 354.5 226.747 354.91 227.157C354.948 227.851 354.96 228.547 354.962 229.242C354.966 229.911 354.966 229.911 354.97 230.594C354.971 230.955 354.971 230.955 354.972 231.322C354.975 232.075 354.98 232.827 354.987 233.58C355.006 235.72 355.024 237.861 355.03 240.001C355.034 241.31 355.044 242.618 355.06 243.927C355.066 244.664 355.066 245.4 355.064 246.137C355.099 248.733 355.204 251.114 356.751 253.297C357.59 253.968 358.331 254.327 359.328 254.77C359.571 254.891 359.814 255.013 360.064 255.138C362.957 255.559 365.457 254.927 368.187 254.056C373.237 252.45 377.594 251.947 382.568 254.24C386.872 256.57 390.193 260.09 391.703 264.802C392.722 269.27 392.413 273.984 390.174 278.037C389.635 278.809 389.052 279.481 388.413 280.173C387.967 280.675 387.967 280.675 387.512 281.187C384.246 284.743 380.738 286.435 375.895 286.8C373.061 286.904 370.632 286.197 367.98 285.304C364.739 284.22 361.703 283.418 358.407 284.798C356.597 285.852 355.927 287.429 355.278 289.377C355.239 290.079 355.221 290.782 355.214 291.485C355.207 292.133 355.207 292.133 355.199 292.795C355.195 293.262 355.191 293.729 355.187 294.211C355.178 294.942 355.169 295.673 355.16 296.405C355.138 298.211 355.119 300.017 355.102 301.823C355.093 302.837 355.082 303.85 355.068 304.864C355.056 305.82 355.046 306.776 355.04 307.732C355.031 308.379 355.031 308.379 355.021 309.039C355.018 309.42 355.014 309.8 355.01 310.193C354.91 311.099 354.91 311.099 354.174 311.835C353.477 311.928 353.477 311.928 352.62 311.93C352.3 311.933 351.979 311.935 351.649 311.937C351.302 311.936 350.954 311.934 350.597 311.933C350.241 311.933 349.885 311.934 349.518 311.935C348.765 311.935 348.011 311.934 347.258 311.931C346.103 311.927 344.948 311.931 343.794 311.936C343.062 311.935 342.331 311.934 341.6 311.933C341.254 311.934 340.907 311.936 340.55 311.937C340.068 311.934 340.068 311.934 339.575 311.93C339.15 311.929 339.15 311.929 338.717 311.928C337.974 311.835 337.974 311.835 336.87 311.099C337.029 310.666 337.189 310.233 337.353 309.787C339.906 302.031 339.647 294.537 336.133 287.168C332.785 280.9 327.698 276.449 320.878 274.328C313.398 272.072 306.018 272.801 299.104 276.477C292.771 280.251 288.585 285.736 286.638 292.921C285.42 297.979 285.733 303.051 287.178 308.012C287.509 309.164 287.732 310.282 287.904 311.467C286.144 311.919 284.424 311.888 282.62 311.884C282.126 311.884 282.126 311.884 281.621 311.885C280.926 311.885 280.231 311.884 279.536 311.883C278.471 311.881 277.406 311.883 276.341 311.885C275.665 311.885 274.989 311.885 274.314 311.884C273.995 311.885 273.676 311.885 273.348 311.886C273.052 311.885 272.755 311.884 272.45 311.883C272.06 311.882 272.06 311.882 271.662 311.882C270.968 311.835 270.968 311.835 269.864 311.467C269.856 300.733 269.849 289.998 269.845 279.264C269.845 277.998 269.844 276.732 269.844 275.466C269.844 275.214 269.844 274.962 269.843 274.702C269.842 270.616 269.839 266.53 269.836 262.443C269.832 258.254 269.83 254.064 269.829 249.874C269.829 247.519 269.828 245.165 269.825 242.81C269.823 240.596 269.822 238.383 269.822 236.17C269.822 235.355 269.821 234.54 269.82 233.725C269.818 232.617 269.819 231.51 269.82 230.402C269.819 230.075 269.818 229.748 269.816 229.411C269.823 226.802 269.875 226.748 272.485 226.74Z" fill="white"/>
<path d="M321.774 285.327C325.626 288.367 328.539 291.818 329.506 296.74C329.918 301.095 329.116 304.536 327.542 308.576C326.674 310.996 326.454 313.627 327.504 316.023C328.485 317.724 329.858 318.484 331.683 319.048C334.058 319.625 336.33 319.65 338.765 319.612C339.182 319.61 339.6 319.607 340.03 319.604C341.354 319.595 342.678 319.581 344.002 319.566C345.754 319.547 347.506 319.532 349.257 319.52C349.861 319.511 349.861 319.511 350.478 319.502C350.85 319.499 351.223 319.497 351.606 319.495C352.098 319.489 352.098 319.489 352.599 319.483C353.437 319.566 353.437 319.566 354.541 320.303C354.674 321.034 354.674 321.034 354.666 321.941C354.666 322.28 354.666 322.619 354.666 322.968C354.661 323.335 354.655 323.702 354.649 324.079C354.647 324.454 354.646 324.829 354.644 325.215C354.638 326.416 354.624 327.616 354.61 328.817C354.605 329.629 354.6 330.442 354.595 331.254C354.583 333.249 354.564 335.244 354.541 337.238C352.887 337.63 351.971 337.473 350.353 336.916C344.023 334.756 337.071 335.432 331.007 338.131C323.633 341.903 319.352 347.129 316.701 355.031C314.824 362.263 316.243 369.759 319.659 376.284C323.112 382.108 328.895 386.153 335.374 387.999C341.77 389.6 348.048 388.829 354.173 386.572C354.757 387.157 354.588 387.755 354.589 388.565C354.59 388.91 354.591 389.255 354.592 389.611C354.591 390.174 354.591 390.174 354.59 390.749C354.59 391.131 354.591 391.514 354.591 391.908C354.591 392.719 354.591 393.53 354.589 394.341C354.587 395.587 354.589 396.833 354.591 398.079C354.591 398.865 354.591 399.65 354.59 400.436C354.591 400.811 354.591 401.187 354.592 401.574C354.59 402.092 354.59 402.092 354.589 402.62C354.588 402.925 354.588 403.231 354.588 403.545C354.541 404.244 354.541 404.244 354.173 404.612C353.089 404.649 352.014 404.662 350.93 404.659C350.414 404.66 350.414 404.66 349.887 404.661C348.724 404.662 347.561 404.661 346.398 404.66C345.568 404.66 344.737 404.661 343.907 404.662C341.646 404.664 339.385 404.663 337.123 404.662C334.762 404.661 332.402 404.662 330.041 404.662C325.821 404.663 321.601 404.662 317.381 404.66C313.551 404.658 309.722 404.659 305.892 404.66C301.45 404.662 297.007 404.663 292.565 404.662C290.212 404.661 287.858 404.661 285.505 404.663C283.293 404.664 281.081 404.663 278.869 404.661C278.055 404.66 277.24 404.66 276.426 404.661C275.319 404.662 274.213 404.661 273.106 404.659C272.779 404.66 272.452 404.661 272.116 404.662C269.905 404.654 269.905 404.654 269.495 404.244C269.457 403.166 269.444 402.097 269.446 401.018C269.445 400.676 269.444 400.333 269.443 399.98C269.441 398.823 269.441 397.666 269.442 396.509C269.441 395.683 269.439 394.857 269.438 394.031C269.435 391.781 269.434 389.531 269.434 387.281C269.433 385.406 269.432 383.531 269.431 381.656C269.428 377.488 269.427 373.32 269.427 369.152C269.427 368.901 269.427 368.651 269.427 368.393C269.427 368.143 269.427 367.892 269.427 367.634C269.427 363.57 269.424 359.507 269.418 355.444C269.413 351.276 269.411 347.108 269.411 342.94C269.411 340.598 269.41 338.257 269.406 335.915C269.403 333.714 269.402 331.512 269.405 329.311C269.406 328.501 269.405 327.691 269.402 326.881C269.4 325.779 269.401 324.677 269.404 323.576C269.402 323.251 269.4 322.927 269.398 322.593C269.411 320.387 269.411 320.387 270.232 319.566C271.078 319.483 271.078 319.483 272.149 319.495C272.751 319.498 272.751 319.498 273.364 319.502C273.8 319.508 274.235 319.514 274.684 319.52C275.132 319.523 275.58 319.526 276.041 319.529C277.962 319.541 279.882 319.562 281.803 319.582C283.204 319.595 284.604 319.604 286.005 319.612C286.435 319.619 286.864 319.625 287.307 319.631C290.645 319.651 294.11 319.666 296.739 317.357C298.081 315.321 298.392 313.364 298.025 310.998C297.546 308.674 296.939 306.406 296.235 304.141C294.96 299.882 295.709 295.452 297.568 291.471C299.695 287.582 302.917 284.849 307.186 283.532C307.751 283.383 308.318 283.245 308.889 283.118C309.189 283.051 309.489 282.983 309.798 282.914C313.879 282.196 318.304 283.023 321.774 285.327Z" fill="white"/>
<path d="M432.767 319.19C433.098 319.198 433.43 319.205 433.771 319.213C434.128 319.223 434.485 319.233 434.852 319.243C435.402 319.256 435.402 319.256 435.962 319.269C437.132 319.297 438.303 319.328 439.473 319.359C440.266 319.379 441.059 319.398 441.853 319.417C443.798 319.465 445.743 319.515 447.688 319.566C447.743 330.194 447.797 340.822 447.847 351.45C447.853 352.704 447.859 353.958 447.865 355.212C447.867 355.462 447.868 355.711 447.869 355.969C447.888 360.014 447.909 364.059 447.93 368.104C447.952 372.254 447.972 376.403 447.992 380.552C448.002 382.883 448.014 385.214 448.027 387.545C448.039 389.738 448.049 391.93 448.058 394.122C448.062 394.929 448.066 395.735 448.071 396.541C448.078 397.639 448.082 398.736 448.086 399.834C448.089 400.156 448.091 400.478 448.094 400.81C448.096 402.049 448.083 403.06 447.688 404.244C419.744 404.244 391.8 404.244 363.01 404.244C362.889 396.954 362.767 389.665 362.642 382.154C361.817 378.74 361.817 378.74 359.697 376.632C356.464 375.089 353.021 375.993 349.756 377C349.103 377.265 348.451 377.534 347.8 377.805C343.798 379.299 339.589 378.731 335.766 377C331.05 374.68 328.573 371.512 326.631 366.684C325.333 362.547 325.938 357.411 327.773 353.541C330.127 349.362 333.438 346.891 337.998 345.407C342.472 344.234 346.348 344.708 350.631 346.511C353.312 347.538 356.771 347.855 359.502 346.841C360.931 345.904 361.695 344.705 362.274 343.129C362.565 341.656 362.693 340.248 362.712 338.749C362.718 338.33 362.724 337.911 362.73 337.479C362.735 337.033 362.74 336.587 362.745 336.127C362.752 335.665 362.759 335.203 362.766 334.727C362.791 333.004 362.814 331.282 362.836 329.559C362.857 327.867 362.882 326.175 362.907 324.483C362.912 324.033 362.917 323.583 362.922 323.119C362.928 322.706 362.934 322.293 362.94 321.868C362.947 321.32 362.947 321.32 362.954 320.761C363.01 319.935 363.01 319.935 363.378 319.566C363.921 319.532 364.465 319.523 365.008 319.525C365.355 319.525 365.701 319.525 366.058 319.525C366.435 319.527 366.811 319.528 367.199 319.53C367.583 319.531 367.966 319.531 368.362 319.532C369.592 319.534 370.823 319.539 372.053 319.543C372.885 319.545 373.717 319.547 374.549 319.548C376.593 319.552 378.638 319.559 380.682 319.566C381.158 320.993 380.829 321.603 380.36 323.018C378.175 329.665 378.542 337.307 381.627 343.613C385.428 350.729 391.096 355.042 398.722 357.487C406.086 359.22 413.21 357.934 419.753 354.266C425.703 350.519 429.761 344.618 431.44 337.813C432.468 332.959 432.636 326.614 430.35 322.082C429.92 321.214 429.963 320.521 430.016 319.566C431.074 319.214 431.674 319.163 432.767 319.19Z" fill="white"/>
<path d="M309.718 459.239C310.344 459.207 310.344 459.207 310.982 459.174C313.968 459.128 313.968 459.128 315.126 460.016C315.72 460.784 316.171 461.554 316.621 462.414C316.786 462.69 316.952 462.966 317.122 463.251C317.656 464.144 318.164 465.048 318.669 465.958C319.055 466.642 319.441 467.326 319.828 468.01C320.026 468.361 320.225 468.712 320.429 469.073C322.701 473.066 325.01 477.047 327.528 480.891C329.004 483.15 330.359 485.467 331.691 487.814C332.977 490.071 334.356 492.262 335.766 494.444C335.83 491.568 335.89 488.692 335.95 485.816C335.959 485.386 335.968 484.957 335.977 484.515C336.071 479.907 336.151 475.302 336.132 470.693C336.131 470.342 336.13 469.99 336.128 469.627C336.121 467.974 336.108 466.32 336.088 464.667C336.083 464.08 336.079 463.493 336.075 462.906C336.07 462.64 336.065 462.375 336.06 462.101C336.056 461.469 336.092 460.836 336.134 460.205C336.87 459.469 336.87 459.469 337.759 459.379C338.123 459.381 338.487 459.382 338.862 459.384C339.256 459.385 339.651 459.385 340.058 459.386C340.471 459.391 340.885 459.395 341.311 459.4C341.934 459.4 341.934 459.4 342.569 459.4C345.654 459.417 345.654 459.417 346.074 459.837C346.111 460.534 346.122 461.233 346.123 461.931C346.126 462.613 346.126 462.613 346.128 463.309C346.128 463.818 346.128 464.326 346.128 464.835C346.129 465.367 346.13 465.899 346.131 466.431C346.135 467.88 346.135 469.329 346.136 470.778C346.136 471.986 346.137 473.194 346.139 474.402C346.142 477.25 346.143 480.098 346.142 482.947C346.142 485.89 346.146 488.832 346.152 491.775C346.157 494.297 346.159 496.82 346.158 499.343C346.158 500.851 346.159 502.359 346.163 503.868C346.167 505.286 346.167 506.704 346.164 508.122C346.164 508.644 346.165 509.165 346.167 509.687C346.17 510.397 346.168 511.106 346.165 511.816C346.165 512.214 346.166 512.612 346.166 513.022C346.074 513.957 346.074 513.957 345.338 514.693C343.905 514.911 342.459 514.898 341.012 514.923C340.412 514.956 340.412 514.956 339.801 514.988C336.946 515.034 336.946 515.034 335.807 514.161C335.206 513.389 334.751 512.612 334.293 511.748C334.114 511.445 333.935 511.143 333.751 510.831C333.162 509.826 332.599 508.811 332.038 507.79C328.88 502.127 325.522 496.597 322.098 491.09C320.144 487.943 318.237 484.767 316.34 481.584C315.821 480.716 315.301 479.849 314.78 478.981C314.659 490.645 314.537 502.308 314.412 514.325C313.498 514.782 312.879 514.741 311.858 514.742C311.498 514.743 311.138 514.743 310.768 514.744C310.391 514.742 310.014 514.741 309.626 514.739C309.061 514.742 309.061 514.742 308.484 514.744C308.124 514.743 307.765 514.743 307.394 514.742C307.063 514.742 306.732 514.741 306.391 514.741C305.576 514.693 305.576 514.693 304.84 514.325C304.775 507.282 304.714 500.238 304.658 493.194C304.632 489.924 304.604 486.654 304.573 483.383C304.547 480.534 304.522 477.684 304.501 474.834C304.49 473.325 304.478 471.815 304.462 470.306C304.447 468.886 304.436 467.467 304.427 466.047C304.424 465.525 304.419 465.003 304.412 464.48C304.404 463.77 304.4 463.059 304.397 462.348C304.394 461.95 304.39 461.551 304.387 461.141C304.62 458.571 307.767 459.272 309.718 459.239Z" fill="white"/>
<path d="M288.25 463.57C289.268 464.385 290.248 465.224 291.217 466.096C291.46 466.312 291.702 466.529 291.952 466.751C297.016 471.533 300.015 478.331 300.421 485.24C300.436 485.491 300.452 485.741 300.467 486C300.715 494.422 297.509 500.929 291.953 506.962C291.717 507.229 291.481 507.495 291.237 507.77C286.865 512.48 280.214 514.848 273.915 515.179C269.769 515.31 266.066 514.896 262.132 513.589C261.74 513.46 261.347 513.331 260.943 513.198C254.14 510.663 249.103 504.798 246.025 498.379C243.158 492.079 242.678 484.828 244.924 478.233C246.303 474.571 248.146 471.259 250.719 468.305C250.986 467.947 250.986 467.947 251.258 467.581C259.457 457.046 277.907 456.043 288.25 463.57ZM257.729 474.697C254.732 478.573 253.582 482.098 253.549 486.966C253.547 487.259 253.545 487.552 253.543 487.854C253.599 492.387 255.308 496.694 258.433 500.013C262.578 503.809 266.965 506.107 272.672 505.924C278.528 505.48 282.466 503.094 286.431 498.862C290.053 494.36 290.94 489.379 290.481 483.768C290.247 482.463 289.895 481.303 289.376 480.086C289.274 479.835 289.171 479.585 289.066 479.327C286.891 474.527 283.108 471.21 278.373 469.088C271.057 466.436 262.668 468.859 257.729 474.697Z" fill="white"/>
<path d="M590.927 459.009C591.355 459.001 591.784 458.993 592.226 458.986C596.27 458.968 599.874 459.686 603.467 461.563C603.717 461.691 603.966 461.819 604.223 461.95C606.379 463.091 608.25 464.444 610.048 466.096C610.308 466.33 610.567 466.565 610.835 466.806C615.707 471.427 618.762 477.817 618.946 484.564C619.036 493.362 617.059 500.568 610.797 506.971C605.187 512.537 598.565 515.16 590.719 515.246C582.258 515.153 575.845 511.942 569.805 506.147C564.764 500.87 562.632 494.055 562.463 486.874C562.644 479.233 565.223 472.45 570.516 466.908C576.344 461.493 583.071 459.043 590.927 459.009ZM576.178 475.08C572.629 479.681 571.713 484.304 572.127 490.026C572.798 494.787 575.8 498.978 579.583 501.831C579.903 502.073 579.903 502.073 580.23 502.32C584.718 505.651 589.046 506.266 594.585 505.489C599.416 504.609 603.299 501.475 606.366 497.758C609.346 492.985 609.822 488.168 609.312 482.663C608.927 481.01 608.354 479.689 607.471 478.245C607.271 477.918 607.071 477.591 606.865 477.254C604.015 472.936 600.145 469.655 594.992 468.466C587.635 467.429 581.09 469.255 576.178 475.08Z" fill="white"/>
<path d="M509.539 460.941C509.954 461.107 509.954 461.107 510.378 461.275C511.125 461.605 511.79 461.983 512.484 462.414C512.85 462.64 513.216 462.867 513.593 463.1C520.048 467.248 524.291 473.549 525.95 481.041C526.959 489.112 526.06 496.991 521.145 503.648C516.759 509.268 511.105 513.253 504.017 514.693C503.525 514.794 503.525 514.794 503.024 514.896C495.592 515.906 487.792 514.733 481.662 510.172C480.306 509.067 479.089 507.853 477.877 506.594C477.57 506.285 477.263 505.977 476.946 505.659C471.758 500.221 469.849 493.347 469.777 485.977C470.062 478.543 473.005 472.081 478.245 466.832C478.498 466.575 478.751 466.318 479.012 466.053C486.82 458.607 499.716 456.626 509.539 460.941ZM483.806 474.746C480.63 478.524 479.063 482.945 479.249 487.889C479.802 493.564 482.309 498.159 486.713 501.808C491.269 505.228 496.116 506.347 501.739 505.627C506.544 504.757 510.921 501.447 513.761 497.541C516.694 492.926 517.457 488.057 516.511 482.732C515.385 477.811 512.48 473.895 508.332 471.118C499.893 466.033 490.516 467.728 483.806 474.746Z" fill="white"/>
<path d="M624.038 459.469C627.047 459.443 630.055 459.423 633.064 459.412C634.461 459.406 635.859 459.398 637.256 459.385C638.607 459.373 639.958 459.367 641.309 459.364C641.822 459.362 642.335 459.358 642.848 459.352C646.627 459.309 650.097 459.472 653.215 461.816C653.519 462.044 653.823 462.272 654.135 462.508C654.409 462.72 654.682 462.932 654.964 463.15C655.359 463.431 655.754 463.712 656.16 464.002C659.444 467.21 660.582 471.181 660.647 475.645C660.613 480.292 659.067 484.054 655.762 487.395C654.598 488.424 653.386 489.281 652.019 490.026C652.182 492.202 653.141 493.688 654.251 495.503C655.711 497.955 657.075 500.42 658.328 502.983C659.404 505.184 660.553 507.342 661.715 509.499C661.917 509.877 662.119 510.254 662.327 510.644C662.475 510.914 662.622 511.184 662.774 511.462C663.201 512.428 663.133 513.286 663.063 514.325C662.091 515.298 659.511 514.887 658.208 514.923C657.789 514.95 657.371 514.976 656.939 515.003C653.91 515.07 653.91 515.07 652.754 514.031C652.173 513.172 651.719 512.319 651.282 511.38C651.032 510.937 650.78 510.495 650.526 510.055C650.305 509.634 650.083 509.213 649.856 508.78C649.732 508.545 649.609 508.311 649.481 508.07C648.478 506.155 647.512 504.222 646.555 502.284C645.374 499.905 644.129 497.562 642.869 495.224C642.718 494.941 642.567 494.658 642.412 494.367C642.276 494.115 642.141 493.863 642.001 493.604C641.71 492.972 641.71 492.972 641.71 492.235C638.916 492.235 636.121 492.235 633.242 492.235C633.246 492.889 633.25 493.544 633.254 494.218C633.266 496.376 633.274 498.535 633.28 500.694C633.284 502.003 633.289 503.312 633.298 504.621C633.307 506.125 633.311 507.629 633.314 509.133C633.318 509.605 633.322 510.076 633.326 510.562C633.326 510.997 633.326 511.431 633.326 511.879C633.327 512.264 633.329 512.648 633.331 513.044C633.242 513.957 633.242 513.957 632.506 514.693C631.679 514.777 631.679 514.777 630.662 514.765C630.299 514.763 629.936 514.76 629.562 514.758C628.992 514.749 628.992 514.749 628.41 514.739C628.027 514.736 627.644 514.733 627.249 514.729C626.302 514.721 625.354 514.708 624.406 514.693C623.754 513.285 623.578 512.184 623.579 510.637C623.577 510.193 623.576 509.749 623.574 509.291C623.576 508.806 623.578 508.322 623.58 507.822C623.58 507.305 623.579 506.787 623.578 506.269C623.577 504.866 623.579 503.462 623.583 502.059C623.586 500.591 623.586 499.122 623.586 497.654C623.586 495.19 623.589 492.725 623.594 490.261C623.6 487.409 623.602 484.558 623.602 481.706C623.601 478.964 623.603 476.222 623.606 473.48C623.608 472.312 623.608 471.144 623.608 469.977C623.609 468.603 623.611 467.23 623.615 465.856C623.616 465.352 623.616 464.847 623.616 464.342C623.616 463.654 623.618 462.967 623.621 462.28C623.621 461.895 623.622 461.51 623.623 461.113C623.67 460.205 623.67 460.205 624.038 459.469ZM633.242 469.041C633.21 470.023 633.2 470.995 633.206 471.976C633.207 472.27 633.207 472.564 633.208 472.866C633.21 473.808 633.215 474.749 633.219 475.691C633.221 476.328 633.223 476.965 633.224 477.602C633.228 479.166 633.235 480.73 633.242 482.295C635.023 482.341 636.804 482.374 638.586 482.396C639.191 482.405 639.796 482.418 640.4 482.434C644.742 482.677 644.742 482.677 648.58 480.944C650.187 479.349 651.015 477.927 651.098 475.622C650.949 473.182 650.127 471.84 648.337 470.215C646.611 468.734 645.221 468.618 643.007 468.624C642.74 468.624 642.473 468.623 642.197 468.623C641.634 468.623 641.07 468.623 640.506 468.625C639.64 468.627 638.774 468.625 637.908 468.622C637.36 468.623 636.813 468.623 636.265 468.624C636.005 468.623 635.744 468.622 635.476 468.622C634.255 468.521 634.255 468.521 633.242 469.041Z" fill="white"/>
<path d="M190.121 459.42C190.6 459.419 191.079 459.419 191.572 459.418C191.948 459.42 191.948 459.42 192.332 459.421C193.098 459.423 193.864 459.421 194.63 459.418C195.348 459.419 195.348 459.419 196.081 459.42C196.524 459.42 196.967 459.421 197.423 459.421C198.439 459.469 198.439 459.469 198.808 459.837C198.845 460.534 198.856 461.233 198.857 461.931C198.859 462.613 198.859 462.613 198.862 463.309C198.861 463.818 198.861 464.326 198.861 464.835C198.862 465.367 198.863 465.899 198.865 466.431C198.868 467.88 198.869 469.329 198.869 470.778C198.87 471.986 198.871 473.194 198.872 474.402C198.875 477.25 198.876 480.099 198.876 482.947C198.876 485.89 198.88 488.832 198.885 491.775C198.89 494.298 198.892 496.82 198.892 499.343C198.892 500.851 198.893 502.359 198.897 503.868C198.9 505.286 198.9 506.704 198.898 508.122C198.897 508.644 198.898 509.165 198.9 509.687C198.903 510.397 198.901 511.106 198.899 511.816C198.899 512.214 198.899 512.612 198.899 513.022C198.808 513.957 198.808 513.957 198.071 514.693C197.256 514.789 197.256 514.789 196.253 514.791C195.894 514.792 195.534 514.793 195.163 514.794C194.787 514.791 194.41 514.788 194.021 514.785C193.645 514.788 193.268 514.791 192.88 514.794C192.52 514.793 192.16 514.792 191.789 514.791C191.459 514.79 191.128 514.79 190.787 514.789C189.972 514.693 189.972 514.693 189.235 513.957C189.145 513.062 189.098 512.205 189.083 511.308C189.076 511.048 189.069 510.787 189.061 510.519C189.039 509.686 189.022 508.853 189.005 508.02C188.991 507.456 188.977 506.892 188.962 506.328C188.927 504.944 188.896 503.56 188.867 502.176C186.589 502.011 184.314 501.891 182.032 501.812C181.258 501.779 180.484 501.734 179.711 501.676C175.389 501.241 175.389 501.241 171.526 502.8C170.162 504.356 169.208 506.095 168.311 507.95C167.641 509.282 166.818 510.506 165.995 511.748C165.736 512.158 165.477 512.568 165.21 512.991C164.568 513.957 164.568 513.957 163.832 514.693C162.836 514.777 162.836 514.777 161.586 514.765C160.916 514.762 160.916 514.762 160.234 514.758C159.766 514.752 159.298 514.746 158.816 514.739C158.345 514.736 157.874 514.733 157.389 514.729C156.223 514.721 155.057 514.709 153.892 514.693C153.643 514.072 153.643 514.072 153.523 513.221C153.924 512.348 153.924 512.348 154.553 511.377C154.897 510.837 154.897 510.837 155.249 510.286C155.499 509.903 155.75 509.52 156.009 509.125C156.523 508.322 157.038 507.518 157.552 506.715C157.935 506.12 157.935 506.12 158.326 505.513C159.29 504.002 160.216 502.47 161.14 500.933C162.667 498.411 164.271 495.948 165.923 493.505C168.233 490.087 170.401 486.588 172.53 483.054C174.781 479.337 177.119 475.685 179.505 472.053C180.255 470.908 180.996 469.756 181.734 468.604C183.005 466.624 184.278 464.644 185.554 462.667C185.82 462.254 185.82 462.254 186.091 461.832C187.647 459.422 187.647 459.422 190.121 459.42ZM188.867 475.3C188.432 475.91 188.015 476.533 187.604 477.161C187.344 477.559 187.083 477.958 186.814 478.368C186.532 478.803 186.25 479.237 185.968 479.672C185.757 479.996 185.757 479.996 185.541 480.327C183.733 483.107 181.938 485.895 180.192 488.715C180.024 488.984 179.855 489.253 179.681 489.531C178.785 490.961 178.785 490.961 178.559 492.604C182.082 492.604 185.605 492.604 189.235 492.604C189.235 486.893 189.235 481.183 189.235 475.3C189.114 475.3 188.992 475.3 188.867 475.3Z" fill="white"/>
<path d="M369.406 458.986C369.796 458.98 370.186 458.974 370.588 458.968C376.135 458.964 380.747 460.762 384.731 464.623C384.455 466.921 383.056 467.915 381.417 469.409C381.212 469.607 381.007 469.804 380.796 470.007C380.004 470.733 379.358 471.212 378.311 471.48C377.144 471.195 376.452 470.651 375.541 469.884C372.833 468.172 369.394 468.428 366.322 468.673C364.422 469.113 363.08 469.706 361.697 471.089C360.753 472.691 360.567 474.209 360.8 476.036C361.965 478.683 364.606 479.922 367.19 480.942C368.545 481.411 369.904 481.858 371.27 482.295C378.058 484.472 383.495 487.17 386.94 493.708C388.359 496.979 388.007 500.817 386.917 504.132C385.189 508.458 382.071 511.713 377.805 513.646C371.654 516.019 365.476 515.552 359.427 513.198C355.563 511.472 352.195 508.291 350.491 504.385C350.486 503.588 350.486 503.588 350.86 502.912C351.733 502.404 351.733 502.404 352.861 501.969C353.258 501.815 353.654 501.661 354.062 501.503C355.679 500.929 357.304 500.417 358.959 499.967C359.532 500.516 360.051 501.054 360.525 501.691C362.216 503.958 364.227 504.786 366.962 505.317C369.992 505.694 372.775 505.519 375.319 503.717C376.766 502.513 377.518 501.435 378.058 499.622C378.118 498.133 377.845 497.516 376.999 496.285C374.485 493.758 371.06 492.831 367.762 491.733C361.353 489.583 354.821 486.805 351.596 480.454C349.976 476.109 350.175 471.91 352.045 467.65C354.255 463.666 357.905 460.949 362.252 459.618C364.628 459.013 366.965 458.978 369.406 458.986Z" fill="white"/>
<path d="M112.229 462.171C113.442 463.1 114.313 464.145 115.236 465.359C114.648 466.881 113.541 467.834 112.359 468.903C112.168 469.083 111.976 469.264 111.778 469.449C110.665 470.467 109.683 471.165 108.241 471.618C107.952 471.337 107.664 471.056 107.366 470.767C104.376 468.325 100.512 468.378 96.8276 468.673C94.6046 469.075 93.0848 469.791 91.6733 471.618C90.9593 472.927 90.5688 473.828 90.5688 475.323C91.3235 477.54 92.5454 478.581 94.5496 479.672C96.8269 480.754 99.1935 481.5 101.591 482.272C107.621 484.224 113.37 486.876 116.708 492.603C118.31 495.791 118.747 499.037 117.925 502.527C116.45 506.965 113.595 510.764 109.437 512.968C103.578 515.645 97.2143 516.018 91.1556 513.766C86.7662 511.957 83.6307 509.755 81.2957 505.554C80.9496 504.627 80.9754 503.894 80.9965 502.912C82.1903 502.407 83.3878 501.911 84.5861 501.416C84.925 501.273 85.2638 501.129 85.613 500.981C85.9404 500.847 86.2679 500.713 86.6053 500.575C86.906 500.45 87.2068 500.324 87.5167 500.195C88.4686 499.937 88.9292 499.95 89.8325 500.335C90.1639 500.863 90.4947 501.391 90.8219 501.921C92.3029 503.83 94.6531 505.022 97.0045 505.422C100.022 505.641 103.18 505.545 105.664 503.648C107.047 502.29 108.166 501.114 108.356 499.138C108.215 497.447 107.896 496.814 106.768 495.549C104.168 493.693 101.072 492.807 98.0831 491.782C91.8905 489.601 85.1897 487.033 82.0881 480.871C80.3079 476.936 80.6067 472.68 82.0075 468.663C83.8104 464.389 86.8177 462.079 90.9844 460.221C97.763 457.758 106.123 458.277 112.229 462.171Z" fill="white"/>
<path d="M235.74 462.483C238.152 464.369 238.152 464.369 238.369 465.472C238.125 466.922 237.371 467.407 236.269 468.351C235.91 468.663 235.552 468.975 235.182 469.297C232.861 471.21 232.861 471.21 231.851 471.434C230.567 471.201 229.747 470.627 228.689 469.884C226.82 468.769 224.973 468.53 222.831 468.535C222.573 468.535 222.315 468.536 222.048 468.537C219.403 468.599 217.23 469.219 215.169 470.928C214.274 472.095 214.203 472.854 214.179 474.31C214.17 474.658 214.16 475.006 214.15 475.364C214.297 476.627 214.588 477.247 215.376 478.245C218.214 480.131 221.477 481.186 224.695 482.225C230.845 484.214 237.046 487.037 240.158 493.064C241.674 496.262 241.717 500.397 240.814 503.802C240.376 504.796 239.896 505.683 239.306 506.594C239.138 506.86 238.969 507.126 238.796 507.401C236.547 510.648 233.771 512.572 230.102 513.957C229.65 514.134 229.65 514.134 229.189 514.315C223.324 516.27 217.096 515.08 211.602 512.622C208.231 510.831 205.866 508.228 204.164 504.836C203.963 504.017 203.963 504.017 204.221 503.274C204.813 502.37 205.243 502.192 206.249 501.823C206.556 501.71 206.863 501.597 207.178 501.48C207.499 501.368 207.82 501.256 208.151 501.14C208.469 501.021 208.787 500.902 209.114 500.779C211.829 499.8 211.829 499.8 213.167 500.335C213.54 500.946 213.907 501.56 214.271 502.176C215.846 503.713 217.326 504.492 219.426 505.121C219.65 505.193 219.875 505.265 220.106 505.34C222.801 505.848 225.9 505.386 228.262 504.017C229.705 502.961 230.893 502.026 231.575 500.335C231.695 498.687 231.669 497.37 230.839 495.917C230.357 495.653 229.864 495.411 229.366 495.181C229.098 495.032 228.83 494.883 228.553 494.729C226.05 493.385 223.521 492.461 220.829 491.568C218.112 490.657 215.517 489.666 212.983 488.324C212.739 488.196 212.495 488.067 212.243 487.936C209.77 486.57 207.741 484.923 206.241 482.502C206.033 482.176 205.826 481.85 205.612 481.514C203.731 477.856 203.738 473.102 204.929 469.202C206.605 464.913 209.752 462.077 213.902 460.221C220.939 457.777 229.592 458.145 235.74 462.483Z" fill="white"/>
<path d="M123.704 459.469C133.059 459.469 142.414 459.469 152.052 459.469C152.471 463.24 152.471 463.24 152.466 464.485C152.468 464.857 152.468 464.857 152.469 465.236C152.404 466.388 152.216 467.53 152.052 468.673C142.758 468.855 142.758 468.855 133.276 469.041C133.276 473.293 133.276 477.546 133.276 481.927C134.277 481.918 135.279 481.91 136.31 481.901C137.278 481.895 138.245 481.891 139.213 481.886C139.886 481.883 140.56 481.878 141.233 481.871C142.2 481.862 143.167 481.858 144.134 481.855C144.436 481.851 144.738 481.847 145.05 481.843C145.789 481.843 146.528 481.882 147.266 481.927C148.212 482.873 148.097 483.248 148.1 484.561C148.102 485.126 148.102 485.126 148.103 485.702C148.1 486.096 148.097 486.491 148.095 486.897C148.099 487.489 148.099 487.489 148.103 488.092C148.102 488.468 148.101 488.845 148.1 489.233C148.099 489.579 148.099 489.925 148.098 490.282C148.002 491.131 148.002 491.131 147.266 491.867C146.183 491.932 145.136 491.952 144.053 491.939C143.736 491.938 143.418 491.937 143.091 491.936C142.074 491.932 141.058 491.923 140.041 491.913C139.353 491.91 138.664 491.906 137.976 491.903C136.286 491.896 134.597 491.881 132.908 491.867C133.029 496.241 133.151 500.615 133.276 505.121C139.472 505.121 145.668 505.121 152.052 505.121C152.744 506.504 152.488 508.179 152.489 509.7C152.494 510.056 152.499 510.412 152.503 510.779C152.504 511.121 152.505 511.463 152.505 511.816C152.507 512.129 152.508 512.443 152.51 512.765C152.42 513.589 152.42 513.589 151.684 514.693C150.782 514.801 149.974 514.837 149.072 514.825C148.803 514.825 148.534 514.826 148.257 514.827C147.366 514.828 146.476 514.821 145.585 514.814C144.968 514.813 144.351 514.812 143.734 514.812C142.44 514.81 141.146 514.805 139.852 514.797C138.189 514.786 136.527 514.782 134.865 514.781C133.59 514.779 132.316 514.776 131.041 514.771C130.428 514.769 129.815 514.767 129.202 514.766C128.347 514.764 127.492 514.759 126.637 514.753C126.253 514.752 126.253 514.752 125.862 514.751C124.114 514.736 124.114 514.736 123.704 514.325C123.663 513.628 123.648 512.93 123.643 512.231C123.639 511.776 123.635 511.322 123.63 510.853C123.628 510.344 123.625 509.836 123.622 509.327C123.618 508.795 123.614 508.263 123.609 507.731C123.598 506.282 123.589 504.833 123.58 503.384C123.57 501.87 123.559 500.357 123.548 498.843C123.53 496.3 123.514 493.758 123.498 491.215C123.48 488.273 123.46 485.33 123.437 482.387C123.419 479.865 123.401 477.342 123.385 474.819C123.375 473.311 123.365 471.803 123.354 470.295C123.343 468.876 123.334 467.458 123.326 466.04C123.323 465.519 123.32 464.997 123.315 464.475C123.309 463.766 123.306 463.056 123.303 462.346C123.3 461.948 123.298 461.55 123.295 461.14C123.336 460.205 123.336 460.205 123.704 459.469Z" fill="white"/>
<path d="M457.949 458.94C458.369 458.936 458.789 458.932 459.222 458.928C461.916 458.956 464.84 459.051 467.114 460.668C467.766 461.59 467.66 462.234 467.595 463.35C467.575 463.745 467.555 464.141 467.534 464.548C467.494 465.166 467.494 465.166 467.453 465.797C467.43 466.213 467.407 466.63 467.384 467.059C467.328 468.088 467.266 469.117 467.199 470.146C465.852 470.595 465.565 470.381 464.3 469.823C460.012 467.948 454.599 468.086 450.225 469.659C445.455 471.835 442.211 475.607 440.323 480.454C438.757 485.411 438.786 490.707 441.178 495.398C441.717 496.337 442.289 497.233 442.901 498.126C443.054 498.353 443.208 498.58 443.367 498.813C445.802 501.998 449.676 504.358 453.577 505.121C453.957 505.205 454.337 505.288 454.728 505.374C458.415 505.775 462.065 505.416 465.359 503.648C466.417 503.579 466.417 503.579 467.199 503.648C467.864 505.779 467.614 508.071 467.568 510.275C467.57 510.59 467.572 510.905 467.575 511.229C467.545 512.001 467.545 512.001 467.199 513.221C466.245 513.817 465.678 514.065 464.622 514.325C464.379 514.39 464.135 514.455 463.884 514.522C461.776 515.033 459.771 515.204 457.604 515.2C457.269 515.199 456.933 515.198 456.587 515.198C453.452 515.142 450.656 514.559 447.687 513.589C447.348 513.483 447.01 513.376 446.661 513.267C439.707 510.798 434.711 504.802 431.303 498.471C428.684 492.748 428.244 485.088 429.953 479.022C431.461 475.007 433.417 471.521 436.274 468.305C436.481 468.045 436.688 467.786 436.902 467.518C442.112 461.113 450.042 458.99 457.949 458.94Z" fill="white"/>
<path d="M531.997 459.469C534.913 459.469 537.829 459.469 540.833 459.469C540.954 474.413 541.076 489.356 541.201 504.753C550.131 504.935 550.131 504.935 559.241 505.121C559.788 505.303 559.788 505.303 560.346 505.489C560.367 506.885 560.38 508.281 560.392 509.677C560.398 510.075 560.404 510.473 560.41 510.882C560.413 511.262 560.415 511.642 560.417 512.033C560.421 512.384 560.425 512.735 560.429 513.096C560.346 513.957 560.346 513.957 559.609 514.693C558.724 514.764 557.882 514.79 556.997 514.783C556.728 514.783 556.459 514.784 556.182 514.785C555.291 514.786 554.401 514.782 553.51 514.778C552.893 514.778 552.276 514.778 551.659 514.778C550.365 514.777 549.071 514.774 547.777 514.769C546.114 514.763 544.452 514.761 542.79 514.762C541.515 514.762 540.241 514.76 538.967 514.757C538.353 514.756 537.74 514.755 537.127 514.755C536.272 514.754 535.417 514.751 534.562 514.747C534.178 514.747 534.178 514.747 533.787 514.747C532.039 514.736 532.039 514.736 531.629 514.325C531.592 513.622 531.582 512.918 531.582 512.215C531.581 511.756 531.58 511.298 531.579 510.826C531.58 510.313 531.58 509.8 531.581 509.287C531.581 508.751 531.58 508.215 531.579 507.679C531.578 506.218 531.578 504.758 531.579 503.297C531.58 501.772 531.579 500.247 531.579 498.722C531.578 496.161 531.579 493.599 531.581 491.038C531.583 488.072 531.582 485.106 531.58 482.141C531.578 479.599 531.578 477.057 531.579 474.516C531.58 472.996 531.58 471.476 531.579 469.956C531.578 468.527 531.578 467.098 531.58 465.669C531.581 465.144 531.581 464.618 531.58 464.092C531.579 463.377 531.58 462.662 531.582 461.947C531.582 461.546 531.582 461.145 531.582 460.732C531.629 459.837 531.629 459.837 531.997 459.469Z" fill="white"/>
<path d="M447.319 320.303C447.441 320.303 447.562 320.303 447.687 320.303C447.743 330.837 447.796 341.371 447.847 351.905C447.853 353.148 447.859 354.391 447.865 355.634C447.867 356.005 447.867 356.005 447.869 356.384C447.888 360.393 447.909 364.403 447.93 368.412C447.952 372.525 447.972 376.637 447.991 380.75C448.002 383.061 448.013 385.371 448.026 387.682C448.039 389.855 448.049 392.028 448.058 394.201C448.062 395 448.066 395.799 448.071 396.598C448.078 397.686 448.082 398.774 448.086 399.862C448.088 400.181 448.091 400.5 448.094 400.829C448.096 402.062 448.08 403.065 447.687 404.244C419.744 404.244 391.8 404.244 363.01 404.244C362.888 396.954 362.767 389.665 362.642 382.154C362.52 381.182 362.399 380.21 362.273 379.209C363.061 379.825 363.354 380.216 363.597 381.196C363.806 383.057 363.784 384.897 363.769 386.768C363.768 387.176 363.766 387.585 363.765 388.005C363.759 389.747 363.749 391.489 363.739 393.231C363.732 394.505 363.727 395.779 363.723 397.053C363.72 397.446 363.717 397.838 363.714 398.242C363.712 398.795 363.712 398.795 363.71 399.359C363.707 399.842 363.707 399.842 363.704 400.335C363.736 401.513 363.736 401.513 364.114 403.508C391.572 403.629 419.03 403.751 447.319 403.876C447.319 376.297 447.319 348.718 447.319 320.303Z" fill="white"/>
<path d="M531.63 459.837C531.751 459.837 531.873 459.837 531.998 459.837C532.119 477.697 532.241 495.556 532.366 513.957C541.357 513.957 550.347 513.957 559.61 513.957C559.61 514.2 559.61 514.443 559.61 514.693C556.016 514.702 552.423 514.708 548.829 514.712C547.16 514.714 545.492 514.717 543.823 514.721C542.214 514.725 540.605 514.727 538.996 514.728C538.381 514.729 537.766 514.73 537.151 514.732C536.292 514.735 535.433 514.735 534.574 514.735C534.318 514.736 534.061 514.738 533.796 514.739C532.04 514.735 532.04 514.735 531.63 514.325C531.594 513.622 531.585 512.917 531.586 512.212C531.585 511.753 531.585 511.294 531.584 510.821C531.585 510.308 531.587 509.795 531.588 509.282C531.588 508.745 531.588 508.208 531.588 507.671C531.588 506.209 531.59 504.747 531.592 503.285C531.595 501.759 531.595 500.233 531.595 498.707C531.597 495.815 531.6 492.923 531.603 490.031C531.607 486.739 531.609 483.447 531.611 480.156C531.615 473.383 531.622 466.61 531.63 459.837Z" fill="white"/>
<path d="M198.441 460.573C198.562 460.573 198.684 460.573 198.809 460.573C198.826 467.521 198.839 474.469 198.847 481.416C198.851 484.642 198.856 487.868 198.865 491.093C198.872 493.904 198.877 496.715 198.878 499.526C198.879 501.015 198.882 502.504 198.887 503.993C198.892 505.393 198.893 506.793 198.892 508.194C198.893 508.709 198.894 509.224 198.897 509.739C198.9 510.44 198.899 511.141 198.898 511.842C198.898 512.235 198.899 512.628 198.9 513.033C198.809 513.957 198.809 513.957 198.073 514.693C197.257 514.789 197.257 514.789 196.255 514.791C195.895 514.792 195.535 514.793 195.165 514.794C194.6 514.79 194.6 514.79 194.023 514.785C193.646 514.788 193.269 514.791 192.881 514.794C192.521 514.793 192.162 514.792 191.791 514.791C191.46 514.79 191.129 514.789 190.789 514.789C189.973 514.693 189.973 514.693 189.237 513.957C189.147 512.923 189.147 512.923 189.152 511.614C189.153 511.143 189.153 510.672 189.154 510.187C189.156 509.941 189.159 509.695 189.161 509.441C189.168 508.694 189.169 507.948 189.168 507.201C189.186 503.215 189.186 503.215 189.605 501.439C190.53 502.827 190.4 503.496 190.333 505.148C190.323 505.4 190.314 505.652 190.305 505.911C190.275 506.714 190.239 507.517 190.203 508.32C190.182 508.864 190.161 509.409 190.14 509.954C190.088 511.289 190.032 512.623 189.973 513.957C191.185 513.917 192.397 513.869 193.609 513.819C194.126 513.802 194.126 513.802 194.654 513.784C194.984 513.77 195.314 513.756 195.654 513.741C195.958 513.73 196.263 513.718 196.577 513.706C197.417 513.653 197.417 513.653 198.073 512.853C198.189 511.904 198.189 511.904 198.175 510.779C198.179 510.338 198.183 509.897 198.188 509.443C198.189 508.952 198.189 508.461 198.19 507.97C198.194 507.455 198.197 506.94 198.201 506.424C198.211 505.023 198.217 503.622 198.222 502.221C198.227 500.758 198.237 499.295 198.247 497.831C198.264 495.059 198.278 492.287 198.29 489.515C198.304 486.36 198.322 483.204 198.341 480.049C198.379 473.557 198.411 467.065 198.441 460.573Z" fill="white"/>
<path d="M632.506 468.305C634.708 468.289 636.91 468.274 639.179 468.259C639.87 468.252 640.561 468.245 641.273 468.238C641.826 468.236 642.379 468.234 642.932 468.233C643.357 468.227 643.357 468.227 643.789 468.221C645.445 468.221 646.792 468.369 648.337 469.041C649.027 469.823 649.027 469.823 649.441 470.514C648.489 470.331 647.841 470.072 646.989 469.584C645.575 468.959 644.4 468.899 642.886 468.933C642.531 468.935 642.531 468.935 642.169 468.936C641.295 468.942 640.421 468.958 639.547 468.972C637.588 468.995 635.629 469.017 633.61 469.041C633.489 473.415 633.367 477.789 633.242 482.295C635.308 482.272 637.373 482.249 639.501 482.226C640.147 482.223 640.793 482.221 641.458 482.218C644.421 482.177 646.747 482.126 649.073 480.086C649.752 479.109 649.752 479.109 650.178 478.245C650.421 478.245 650.664 478.245 650.914 478.245C650.698 479.501 650.285 480.147 649.395 481.052C649.189 481.27 648.983 481.487 648.771 481.711C646.846 483.112 644.605 483.136 642.321 483.103C642.07 483.102 641.82 483.102 641.561 483.101C640.637 483.097 639.712 483.087 638.788 483.077C636.715 483.062 634.642 483.047 632.506 483.031C632.506 478.171 632.506 473.312 632.506 468.305Z" fill="white"/>
<path d="M364.051 319.522C364.345 319.523 364.638 319.524 364.941 319.525C365.272 319.525 365.604 319.525 365.946 319.525C366.306 319.527 366.667 319.528 367.038 319.53C367.405 319.531 367.772 319.531 368.151 319.532C369.329 319.534 370.507 319.539 371.685 319.543C372.481 319.545 373.278 319.547 374.074 319.548C376.031 319.552 377.988 319.559 379.945 319.566C379.945 319.688 379.945 319.809 379.945 319.935C374.6 320.056 369.254 320.178 363.746 320.303C363.755 321.572 363.763 322.841 363.772 324.148C363.778 325.394 363.782 326.639 363.787 327.884C363.79 328.742 363.795 329.6 363.802 330.457C363.9 343.997 363.9 343.997 361.311 346.693C359.869 347.707 358.946 348.138 357.119 347.915C357.309 347.831 357.499 347.748 357.694 347.662C359.841 346.506 361.399 345.509 362.273 343.129C362.565 341.656 362.692 340.248 362.711 338.749C362.718 338.33 362.724 337.911 362.73 337.48C362.735 337.033 362.74 336.587 362.745 336.127C362.752 335.665 362.759 335.203 362.766 334.727C362.791 333.005 362.813 331.282 362.835 329.559C362.857 327.867 362.881 326.175 362.906 324.483C362.911 324.033 362.916 323.583 362.921 323.119C362.928 322.706 362.934 322.293 362.94 321.868C362.945 321.502 362.949 321.137 362.954 320.761C363.022 319.751 363.04 319.589 364.051 319.522Z" fill="white"/>
<path d="M632.507 492.604C632.75 492.725 632.993 492.847 633.243 492.972C633.26 495.695 633.273 498.419 633.281 501.142C633.285 502.407 633.29 503.671 633.299 504.936C633.308 506.389 633.312 507.842 633.315 509.295C633.319 509.75 633.322 510.205 633.326 510.674C633.326 511.094 633.326 511.514 633.327 511.947C633.328 512.318 633.33 512.689 633.332 513.072C633.243 513.957 633.243 513.957 632.507 514.693C631.685 514.783 631.685 514.783 630.676 514.778C630.134 514.777 630.134 514.777 629.581 514.776C629.202 514.772 628.824 514.767 628.434 514.762C628.054 514.762 627.674 514.762 627.283 514.762C624.459 514.745 624.459 514.745 624.039 514.325C624.024 513.589 624.023 512.852 624.039 512.116C624.16 512.116 624.282 512.116 624.407 512.116C624.407 512.724 624.407 513.331 624.407 513.957C628.234 513.775 628.234 513.775 632.138 513.589C632.26 506.664 632.381 499.739 632.507 492.604Z" fill="white"/>
<path d="M132.539 469.041C132.661 469.041 132.782 469.041 132.907 469.041C133.029 473.293 133.15 477.546 133.275 481.927C134.277 481.918 135.278 481.91 136.31 481.901C137.277 481.895 138.245 481.891 139.212 481.886C139.886 481.883 140.559 481.878 141.233 481.871C142.2 481.862 143.166 481.858 144.133 481.855C144.436 481.851 144.738 481.847 145.049 481.843C145.789 481.843 146.528 481.882 147.266 481.927C148.002 482.663 148.002 482.663 148.086 483.456C148.082 483.776 148.078 484.096 148.074 484.426C148.071 484.773 148.069 485.119 148.067 485.476C148.061 485.839 148.054 486.201 148.048 486.575C148.045 486.94 148.041 487.306 148.038 487.682C148.029 488.586 148.017 489.49 148.002 490.395C147.88 490.395 147.759 490.395 147.634 490.395C147.512 487.965 147.391 485.535 147.266 483.031C139.976 482.849 139.976 482.849 132.539 482.663C132.539 478.168 132.539 473.673 132.539 469.041Z" fill="white"/>
<path d="M189.604 472.354C189.726 472.354 189.847 472.354 189.973 472.354C189.973 479.158 189.973 485.962 189.973 492.972C189.73 492.85 189.487 492.729 189.236 492.604C189.115 487.015 188.993 481.426 188.868 475.668C188.382 476.397 187.896 477.126 187.396 477.877C187.096 477.279 187.096 477.279 187.027 476.404C187.469 475.843 187.914 475.284 188.396 474.758C189.012 474.024 189.312 473.259 189.604 472.354Z" fill="white"/>
<path d="M354.542 320.303C354.542 325.891 354.542 331.48 354.542 337.238C353.631 337.421 353.631 337.421 352.701 337.606C352.701 337.363 352.701 337.12 352.701 336.87C353.066 336.87 353.43 336.87 353.806 336.87C353.815 334.622 353.821 332.374 353.826 330.127C353.828 329.361 353.83 328.596 353.833 327.831C353.838 326.733 353.84 325.636 353.842 324.538C353.844 324.194 353.845 323.849 353.847 323.494C353.847 323.178 353.847 322.861 353.847 322.534C353.848 322.254 353.849 321.973 353.85 321.684C353.876 321.029 353.876 321.029 353.438 320.671C352.884 320.626 352.329 320.605 351.773 320.595C351.243 320.584 351.243 320.584 350.701 320.573C350.317 320.567 349.932 320.561 349.536 320.554C349.144 320.547 348.752 320.539 348.349 320.531C347.092 320.507 345.835 320.485 344.579 320.464C343.729 320.448 342.879 320.432 342.029 320.416C339.942 320.376 337.854 320.339 335.766 320.303C335.766 320.181 335.766 320.06 335.766 319.935C338.203 319.863 340.64 319.798 343.078 319.737C343.907 319.715 344.736 319.692 345.565 319.668C346.757 319.633 347.949 319.604 349.14 319.575C349.511 319.563 349.882 319.551 350.264 319.539C350.611 319.532 350.957 319.524 351.314 319.517C351.618 319.508 351.922 319.5 352.235 319.492C353.069 319.566 353.069 319.566 354.542 320.303Z" fill="white"/>
<path d="M90.1999 460.941C90.1999 461.184 90.1999 461.427 90.1999 461.678C89.5398 462.181 89.5398 462.181 88.6582 462.736C88.3545 462.935 88.0508 463.134 87.7378 463.339C87.1266 463.732 86.5126 464.121 85.897 464.508C82.9572 467.448 81.6848 471.881 81.6631 475.967C81.6973 476.548 81.6973 476.548 81.7321 477.141C81.4892 477.019 81.2462 476.898 80.9958 476.772C80.7182 472.493 81.4694 468.521 84.0231 464.993C85.4597 463.373 87.8868 460.941 90.1999 460.941Z" fill="white"/>
<path d="M618.148 481.19C618.27 481.19 618.391 481.19 618.517 481.19C619.946 486.953 619.012 494.783 616.076 499.909C615.826 500.302 615.826 500.302 615.571 500.703C615.45 500.46 615.328 500.217 615.203 499.967C615.476 499.193 615.476 499.193 615.893 498.264C616.41 497.041 616.778 495.974 616.906 494.651C617.044 493.34 617.044 493.34 617.78 492.235C617.916 491.057 617.916 491.057 617.933 489.711C617.94 489.468 617.947 489.224 617.954 488.973C617.976 488.197 617.993 487.42 618.01 486.644C618.024 486.117 618.039 485.59 618.054 485.063C618.089 483.772 618.12 482.481 618.148 481.19Z" fill="white"/>
<path d="M430.016 192.55C430.198 192.914 430.198 192.914 430.384 193.286C428.646 195.367 426.781 197.285 424.829 199.163C424.336 199.645 423.86 200.146 423.389 200.649C423.389 200.892 423.389 201.135 423.389 201.386C422.759 201.978 422.102 202.542 421.433 203.089C421.07 203.389 420.707 203.69 420.333 204C419.339 204.699 419.339 204.699 418.234 204.699C418.47 204.468 418.706 204.236 418.949 203.997C421.085 201.89 421.085 201.89 423.09 199.66C425.235 197.144 427.665 194.871 430.016 192.55Z" fill="white"/>
<path d="M362.273 379.209C363.061 379.825 363.354 380.216 363.597 381.196C363.806 383.057 363.784 384.897 363.769 386.768C363.768 387.176 363.766 387.585 363.765 388.005C363.759 389.747 363.749 391.489 363.739 393.231C363.732 394.505 363.727 395.779 363.723 397.053C363.72 397.446 363.717 397.838 363.714 398.242C363.687 400.897 363.687 400.897 364.114 403.508C364.357 403.751 364.6 403.994 364.851 404.244C364.243 404.244 363.636 404.244 363.01 404.244C363.004 403.839 363.004 403.839 362.998 403.425C362.962 400.869 362.924 398.313 362.885 395.756C362.865 394.442 362.845 393.128 362.827 391.814C362.809 390.544 362.79 389.274 362.769 388.004C362.758 387.288 362.749 386.572 362.739 385.856C362.702 383.611 362.614 381.429 362.273 379.209Z" fill="white"/>
<path d="M235.258 488.186C237.244 488.495 238.166 489.959 239.308 491.499C240.808 494.032 241.215 496.087 241.217 499C241.222 499.314 241.226 499.627 241.231 499.95C241.235 501.593 241.189 502.892 240.412 504.385C240.169 504.142 239.926 503.899 239.676 503.648C239.778 502.926 239.778 502.926 240.021 502.038C240.869 498.199 240.186 494.811 238.117 491.511C237.272 490.28 236.356 489.202 235.258 488.186Z" fill="white"/>
<path d="M525.739 482.663C525.861 482.663 525.982 482.663 526.107 482.663C526.354 490.25 525.87 496.387 521.689 502.912C521.325 503.094 521.325 503.094 520.953 503.28C521.072 502.016 521.44 501.216 522.15 500.197C524.811 496.143 525.392 491.299 525.578 486.575C525.594 486.198 525.61 485.822 525.626 485.434C525.665 484.511 525.703 483.587 525.739 482.663Z" fill="white"/>
<path d="M601.581 512.484C601.581 512.727 601.581 512.97 601.581 513.221C600.83 513.46 600.078 513.698 599.326 513.934C598.907 514.066 598.489 514.199 598.058 514.335C595.597 515.033 593.285 515.129 590.743 515.131C590.406 515.135 590.069 515.14 589.721 515.144C587.758 515.148 586.134 514.971 584.277 514.325C585.549 513.931 586.693 513.93 588.019 513.96C588.463 513.966 588.907 513.972 589.364 513.979C590.29 513.995 591.216 514.014 592.143 514.036C595.489 514.075 598.487 512.484 601.581 512.484Z" fill="white"/>
<path d="M355.279 287.168C355.647 288.272 355.647 288.272 355.279 289.377C355.236 290.083 355.214 290.789 355.204 291.496C355.196 291.931 355.189 292.366 355.181 292.814C355.175 293.283 355.169 293.753 355.163 294.236C355.155 294.717 355.148 295.198 355.14 295.693C355.119 296.969 355.101 298.246 355.083 299.522C355.065 300.825 355.044 302.128 355.024 303.431C354.984 305.987 354.947 308.543 354.911 311.099C354 311.281 354 311.281 353.07 311.467C353.339 311.169 353.339 311.169 353.613 310.864C354.312 309.781 354.316 309.133 354.322 307.851C354.327 307.419 354.332 306.988 354.337 306.544C354.337 306.08 354.337 305.616 354.337 305.138C354.345 304.408 354.352 303.679 354.36 302.949C354.369 301.929 354.374 300.909 354.378 299.888C354.386 298.101 354.398 296.313 354.416 294.526C354.425 293.574 354.43 292.623 354.432 291.672C354.435 291.242 354.439 290.812 354.443 290.368C354.445 289.989 354.446 289.61 354.448 289.22C354.543 288.272 354.543 288.272 355.279 287.168Z" fill="white"/>
<path d="M389.15 233.416C389.272 233.78 389.393 234.145 389.518 234.521C389.761 234.521 390.004 234.521 390.255 234.521C390.619 235.067 390.619 235.067 390.991 235.625C391.596 236.249 392.21 236.858 392.832 237.466C393.349 237.982 393.865 238.498 394.381 239.015C394.657 239.291 394.934 239.568 395.218 239.852C396.509 241.143 397.8 242.434 399.091 243.725C398.726 243.846 398.362 243.968 397.986 244.093C396.722 242.874 395.464 241.649 394.211 240.419C393.784 240.001 393.355 239.585 392.925 239.171C392.307 238.575 391.694 237.973 391.083 237.369C390.793 237.094 390.793 237.094 390.497 236.813C389.626 235.942 389.172 235.45 389.029 234.204C389.069 233.944 389.109 233.684 389.15 233.416Z" fill="white"/>
<path d="M466.833 512.853C466.833 513.096 466.833 513.339 466.833 513.589C462.111 515.214 456.656 515.948 451.738 514.693C451.738 514.45 451.738 514.207 451.738 513.957C452.029 513.963 452.32 513.969 452.62 513.975C453.96 513.998 455.3 514.012 456.639 514.026C457.097 514.035 457.555 514.045 458.027 514.054C460.616 514.074 462.857 513.882 465.329 513.092C466.097 512.853 466.097 512.853 466.833 512.853Z" fill="white"/>
<path d="M641.711 492.235C641.954 492.235 642.197 492.235 642.447 492.235C642.639 492.622 642.83 493.009 643.027 493.407C644.255 495.881 645.485 498.341 646.857 500.739C647.239 501.449 647.551 502.165 647.855 502.912C648.213 504.052 648.213 504.052 649.074 504.385C649.304 505.512 649.304 505.512 649.442 506.594C648.103 505.701 647.691 504.711 647.026 503.303C646.77 502.773 646.512 502.243 646.254 501.714C646.117 501.433 645.98 501.151 645.838 500.861C644.891 498.961 643.878 497.094 642.871 495.225C642.72 494.942 642.568 494.659 642.413 494.367C642.277 494.115 642.142 493.863 642.002 493.604C641.711 492.972 641.711 492.972 641.711 492.235Z" fill="white"/>
<path d="M286.431 308.521C286.674 308.521 286.917 308.521 287.167 308.521C287.817 309.658 287.903 310.08 287.903 311.467C286.143 311.919 284.423 311.888 282.62 311.884C282.125 311.884 282.125 311.884 281.62 311.885C280.925 311.885 280.23 311.885 279.535 311.883C278.47 311.881 277.406 311.883 276.341 311.885C275.665 311.885 274.989 311.885 274.313 311.884C273.994 311.885 273.675 311.885 273.347 311.886C273.051 311.885 272.755 311.884 272.45 311.883C272.189 311.882 271.929 311.882 271.661 311.882C270.968 311.835 270.968 311.835 269.863 311.467C269.863 311.102 269.863 310.738 269.863 310.362C270.228 310.484 270.592 310.605 270.968 310.73C271.504 310.762 272.043 310.774 272.58 310.772C272.904 310.772 273.229 310.772 273.563 310.772C274.086 310.769 274.086 310.769 274.619 310.766C274.977 310.766 275.335 310.765 275.704 310.765C276.848 310.763 277.992 310.758 279.136 310.753C279.912 310.752 280.687 310.75 281.463 310.748C283.364 310.744 285.266 310.738 287.167 310.73C286.924 310.002 286.681 309.273 286.431 308.521Z" fill="white"/>
<path d="M360.434 512.853C360.65 512.932 360.866 513.012 361.089 513.094C364.577 514.177 371.077 515.263 374.424 513.589C374.424 513.953 374.424 514.318 374.424 514.693C369.784 515.842 364.857 515.205 360.434 513.589C360.434 513.346 360.434 513.103 360.434 512.853Z" fill="white"/>
<path d="M439.219 284.223C439.34 284.466 439.462 284.709 439.587 284.959C439.892 285.096 439.892 285.096 440.202 285.235C441.463 285.912 442.362 286.891 443.361 287.904C443.565 288.106 443.769 288.307 443.979 288.514C445.478 290.02 445.478 290.02 445.478 290.85C445.698 290.948 445.918 291.047 446.145 291.149C446.95 291.586 447.471 291.989 448.055 292.69C448.055 292.933 448.055 293.176 448.055 293.427C445.908 292.518 444.426 290.655 442.808 289.032C442.464 288.693 442.119 288.355 441.764 288.006C441.439 287.68 441.113 287.355 440.778 287.02C440.479 286.722 440.179 286.424 439.871 286.117C439.219 285.327 439.219 285.327 439.219 284.223Z" fill="white"/>
<path d="M328.402 501.071C329.771 501.527 329.89 501.915 330.588 503.142C330.779 503.473 330.969 503.805 331.165 504.146C331.347 504.468 331.529 504.79 331.716 505.121C331.871 505.382 332.026 505.643 332.186 505.912C333.188 507.603 333.188 507.603 333.188 508.435C333.431 508.435 333.674 508.435 333.925 508.435C334.031 508.769 334.137 509.103 334.247 509.447C334.575 510.394 334.924 511.238 335.397 512.116C333.994 511.648 333.882 511.21 333.177 509.937C332.866 509.381 332.866 509.381 332.549 508.814C332.227 508.227 332.227 508.227 331.9 507.629C331.686 507.246 331.472 506.862 331.251 506.466C330.262 504.686 329.305 502.898 328.402 501.071Z" fill="white"/>
<path d="M564.027 477.877C564.149 477.877 564.27 477.877 564.395 477.877C564.488 480.656 564.488 480.656 564.032 481.473C563.565 482.502 563.541 483.324 563.507 484.452C563.492 484.863 563.478 485.273 563.464 485.696C563.452 486.123 563.441 486.549 563.429 486.989C563.415 487.421 563.401 487.854 563.386 488.299C563.351 489.366 563.32 490.432 563.291 491.499C563.17 491.499 563.048 491.499 562.923 491.499C562.142 487.108 562.193 481.992 564.027 477.877Z" fill="white"/>
<path d="M305.208 284.223C305.451 284.344 305.694 284.466 305.944 284.591C305.686 284.765 305.428 284.939 305.162 285.119C301.878 287.408 299.307 289.841 297.477 293.427C297.108 292.322 297.108 292.322 297.533 291.419C299.564 288.236 301.777 285.869 305.208 284.223Z" fill="white"/>
<path d="M579.489 461.678C579.285 461.829 579.081 461.98 578.871 462.135C578.604 462.333 578.337 462.532 578.063 462.736C577.798 462.933 577.533 463.129 577.26 463.332C576.514 463.886 576.514 463.886 575.808 464.623C575.443 464.623 575.079 464.623 574.703 464.623C573.969 465.218 573.291 465.813 572.609 466.464C572.327 466.727 572.327 466.727 572.039 466.996C571.575 467.43 571.114 467.867 570.653 468.305C570.532 467.94 570.41 467.576 570.285 467.2C577.428 460.99 577.428 460.99 579.489 461.678Z" fill="white"/>
<path d="M218.321 467.937C219.663 467.893 221.005 467.867 222.348 467.845C222.912 467.826 222.912 467.826 223.488 467.807C226.155 467.773 228.694 468.042 230.695 469.984C230.864 470.159 231.033 470.334 231.207 470.514C231.98 470.947 231.98 470.947 232.68 471.25C230.961 471.519 230.038 470.831 228.689 469.884C226.413 468.526 224.25 468.582 221.681 468.627C221.322 468.63 220.963 468.633 220.594 468.637C219.713 468.646 218.833 468.658 217.953 468.673C218.075 468.43 218.196 468.187 218.321 467.937Z" fill="white"/>
<path d="M335.398 512.484C335.763 512.484 336.127 512.484 336.503 512.484C336.624 512.849 336.746 513.213 336.871 513.589C339.544 513.71 342.217 513.832 344.971 513.957C344.849 514.2 344.728 514.443 344.603 514.693C343.276 514.725 341.949 514.745 340.622 514.762C340.056 514.776 340.056 514.776 339.479 514.79C338.936 514.796 338.936 514.796 338.383 514.801C338.049 514.807 337.715 514.813 337.372 514.819C336.503 514.693 336.503 514.693 335.833 514.203C335.398 513.589 335.398 513.589 335.398 512.484Z" fill="white"/>
<path d="M204.33 475.3C205.173 476.142 205.222 476.504 205.435 477.647C205.609 478.58 205.778 479.301 206.217 480.146C206.323 480.369 206.43 480.592 206.539 480.822C206.418 481.065 206.296 481.308 206.171 481.559C206.414 481.559 206.657 481.559 206.907 481.559C206.907 481.802 206.907 482.045 206.907 482.295C207.15 482.295 207.393 482.295 207.644 482.295C208.3 483.266 208.745 484.125 209.116 485.24C206.989 484.43 206.114 482.357 205.067 480.454C204.323 478.763 204.255 477.137 204.33 475.3Z" fill="white"/>
<path d="M176.351 477.141C176.472 477.505 176.594 477.87 176.719 478.245C176.284 479.026 176.284 479.026 175.66 479.879C174.88 480.951 174.437 481.747 174.142 483.031C173.659 483.53 173.167 484.02 172.669 484.504C172.285 485.108 171.912 485.719 171.564 486.345C171.321 486.223 171.078 486.102 170.828 485.977C171.54 484.779 172.254 483.583 172.968 482.387C173.27 481.879 173.27 481.879 173.579 481.36C173.774 481.033 173.97 480.705 174.172 480.368C174.351 480.067 174.53 479.766 174.715 479.456C175.223 478.65 175.767 477.894 176.351 477.141Z" fill="white"/>
<path d="M323.984 382.154C325.559 383.029 327.077 383.956 328.586 384.939C330.086 385.902 331.523 386.679 333.188 387.309C333.188 387.552 333.188 387.795 333.188 388.045C332.207 387.799 331.225 387.554 330.243 387.309C330.243 387.066 330.243 386.823 330.243 386.572C330.03 386.53 329.817 386.487 329.597 386.443C328.711 386.187 328.091 385.833 327.321 385.33C326.462 384.771 325.623 384.254 324.721 383.765C324.478 383.598 324.235 383.431 323.984 383.259C323.984 382.894 323.984 382.53 323.984 382.154Z" fill="white"/>
<path d="M267.656 459.101C269.167 459.068 270.678 459.049 272.189 459.032C272.612 459.022 273.035 459.013 273.47 459.003C276.252 458.98 278.64 459.315 281.278 460.205C280.914 460.448 280.549 460.691 280.174 460.941C279.431 460.717 278.695 460.468 277.965 460.205C277.144 460.101 276.32 460.025 275.494 459.972C275.036 459.941 274.578 459.91 274.106 459.879C273.397 459.835 273.397 459.835 272.672 459.791C272.191 459.759 271.709 459.727 271.213 459.695C270.027 459.617 268.842 459.541 267.656 459.469C267.656 459.347 267.656 459.226 267.656 459.101Z" fill="white"/>
<path d="M81.3633 477.509C82.0996 477.877 82.0996 477.877 82.4678 478.889C82.5893 479.284 82.7108 479.679 82.8359 480.086C83.0768 480.701 83.3206 481.316 83.5723 481.927C83.8153 481.927 84.0582 481.927 84.3086 481.927C84.6907 482.532 85.0581 483.146 85.4131 483.768C85.6561 484.011 85.8991 484.254 86.1494 484.504C86.0279 484.868 85.9064 485.233 85.7812 485.608C83.4813 483.247 81.3633 480.95 81.3633 477.509Z" fill="white"/>
<path d="M356.383 253.297C356.58 253.43 356.778 253.563 356.981 253.7C359.949 255.457 362.622 255.324 365.955 255.138C365.834 255.381 365.712 255.624 365.587 255.874C362.567 256.53 359.423 256.468 356.751 254.77C356.458 253.98 356.458 253.98 356.383 253.297Z" fill="white"/>
<path d="M313.676 476.772C314.871 477.271 315.39 477.708 316.004 478.843C316.219 479.233 316.219 479.233 316.438 479.631C316.582 479.903 316.726 480.174 316.874 480.454C317.023 480.726 317.171 480.997 317.324 481.277C317.839 482.223 318.348 483.172 318.83 484.136C318.466 484.136 318.101 484.136 317.726 484.136C316.268 481.584 316.268 481.584 314.78 478.981C314.537 478.981 314.294 478.981 314.044 478.981C313.922 478.252 313.801 477.524 313.676 476.772Z" fill="white"/>
<path d="M498.402 459.032C499.057 459.039 499.057 459.039 499.725 459.047C500.788 459.06 501.85 459.078 502.912 459.101C502.912 459.222 502.912 459.344 502.912 459.469C502.688 459.476 502.464 459.483 502.233 459.491C495.858 459.613 495.858 459.613 489.658 460.941C489.415 460.698 489.172 460.455 488.922 460.205C492.136 459.23 495.055 458.958 498.402 459.032Z" fill="white"/>
<path d="M423.757 351.229C423.757 352.333 423.757 352.333 423.242 352.94C421.066 354.841 418.773 356.203 416.025 357.119C416.529 355.61 417.523 355.292 418.856 354.588C420.673 353.621 422.21 352.593 423.757 351.229Z" fill="white"/>
<path d="M204.699 505.121C204.942 505.121 205.185 505.121 205.436 505.121C205.832 505.667 206.203 506.23 206.563 506.801C207.733 508.541 208.978 509.683 210.692 510.874C210.901 511.041 211.111 511.208 211.326 511.38C211.326 511.623 211.326 511.866 211.326 512.116C208.787 511.293 206.67 509.16 205.32 506.883C205.021 506.18 205.021 506.18 204.699 505.121Z" fill="white"/>
<path d="M208.748 463.519C208.87 463.762 208.991 464.005 209.116 464.255C208.627 465.122 208.627 465.122 207.92 466.165C206.903 467.707 206.086 469.157 205.435 470.882C205.313 470.882 205.192 470.882 205.066 470.882C205.179 467.793 206.521 465.632 208.748 463.519Z" fill="white"/>
<path d="M378.473 253.297C381.417 253.489 383.903 254.801 386.204 256.61C386.083 256.853 385.961 257.096 385.836 257.347C385.441 257.081 385.046 256.815 384.639 256.541C382.697 255.319 380.604 254.5 378.473 253.665C378.473 253.544 378.473 253.422 378.473 253.297Z" fill="white"/>
<path d="M459.836 185.555C462.196 187.495 464.322 189.638 466.463 191.813C464.962 191.813 464.627 191.35 463.518 190.341C462.845 189.605 462.192 188.856 461.547 188.096C460.958 187.392 460.958 187.392 460.311 186.799C459.836 186.291 459.836 186.291 459.836 185.555Z" fill="white"/>
<path d="M471.25 495.181C472.292 496.421 472.828 497.749 473.459 499.23C473.702 499.473 473.945 499.716 474.195 499.967C474.458 500.573 474.701 501.188 474.932 501.808C475.068 502.149 475.205 502.491 475.346 502.843C475.452 503.109 475.558 503.375 475.668 503.648C473.142 501.568 471.653 498.396 471.25 495.181Z" fill="white"/>
<path d="M515.43 494.076C515.551 494.319 515.673 494.562 515.798 494.812C515.431 495.77 515.431 495.77 514.9 496.883C514.726 497.253 514.552 497.622 514.373 498.002C514.235 498.286 514.098 498.57 513.957 498.862C513.714 498.862 513.471 498.862 513.221 498.862C513.221 499.105 513.221 499.348 513.221 499.599C512.499 500.11 511.762 500.602 511.012 501.071C511.565 499.878 512.248 498.849 513.014 497.781C513.877 496.574 514.68 495.357 515.43 494.076Z" fill="white"/>
<path d="M414.921 207.645C415.285 207.766 415.65 207.888 416.025 208.013C415.808 208.204 415.59 208.395 415.365 208.592C413.455 210.27 413.455 210.27 411.63 212.039C410.871 212.799 410.871 212.799 410.135 213.167C410.728 211.667 411.806 210.676 412.942 209.577C413.132 209.391 413.322 209.204 413.517 209.012C413.983 208.555 414.452 208.099 414.921 207.645Z" fill="white"/>
<path d="M377 460.205C378.727 460.397 379.869 460.853 381.326 461.793C381.847 462.121 381.847 462.121 382.379 462.456C383.251 463.144 383.606 463.598 383.995 464.623C383.526 464.403 383.058 464.18 382.591 463.956C382.331 463.832 382.07 463.708 381.802 463.58C381.039 463.144 380.563 462.663 379.945 462.046C379.197 461.606 379.197 461.606 378.404 461.241C378.14 461.114 377.877 460.987 377.605 460.857C377.406 460.763 377.206 460.67 377 460.573C377 460.452 377 460.33 377 460.205Z" fill="white"/>
<path d="M659.751 472.354C659.994 472.354 660.237 472.354 660.487 472.354C660.497 473.436 660.505 474.517 660.51 475.599C660.513 475.906 660.516 476.213 660.52 476.529C660.521 476.824 660.522 477.12 660.523 477.424C660.525 477.696 660.527 477.968 660.529 478.248C660.487 478.981 660.487 478.981 660.119 480.086C659.876 480.086 659.633 480.086 659.383 480.086C659.409 479.713 659.436 479.34 659.463 478.956C659.498 478.458 659.532 477.96 659.567 477.463C659.584 477.218 659.602 476.973 659.62 476.721C659.72 475.262 659.769 473.816 659.751 472.354Z" fill="white"/>
<path d="M343.405 334.408C344.04 334.451 344.04 334.451 344.688 334.496C345.024 334.55 345.36 334.605 345.706 334.661C345.828 334.904 345.949 335.147 346.074 335.397C343.644 335.397 341.214 335.397 338.711 335.397C338.832 335.154 338.954 334.911 339.079 334.661C340.543 334.22 341.893 334.293 343.405 334.408Z" fill="white"/>
<path d="M498.863 224.58C500.3 225.164 501.196 226.102 502.269 227.203C502.597 227.538 502.926 227.873 503.264 228.219C503.513 228.476 503.761 228.733 504.018 228.998C503.896 229.363 503.775 229.727 503.649 230.103C503.406 229.791 503.163 229.48 502.913 229.159C501.882 227.908 500.694 226.901 499.443 225.874C499.252 225.69 499.06 225.506 498.863 225.316C498.863 225.073 498.863 224.83 498.863 224.58Z" fill="white"/>
<path d="M658.646 480.822C658.889 480.822 659.132 480.822 659.383 480.822C659.225 482.923 658.336 484.287 657.174 485.977C656.931 485.855 656.688 485.734 656.438 485.608C657.166 484.029 657.895 482.45 658.646 480.822Z" fill="white"/>
<path d="M474.562 200.281C476.784 202.116 478.803 204.117 480.821 206.172C479.717 206.172 479.717 206.172 478.855 205.418C478.54 205.09 478.224 204.761 477.899 204.423C477.584 204.098 477.27 203.774 476.945 203.439C476.645 203.126 476.345 202.813 476.035 202.49C475.754 202.223 475.472 201.955 475.182 201.679C474.562 201.018 474.562 201.018 474.562 200.281Z" fill="white"/>
<path d="M608.944 491.131C609.187 491.252 609.43 491.374 609.681 491.499C608.264 496.731 608.264 496.731 607.034 497.574C606.704 497.665 606.704 497.665 606.367 497.758C606.469 497.506 606.57 497.254 606.675 496.994C607.149 495.802 607.61 494.606 608.07 493.409C608.234 492.981 608.398 492.554 608.568 492.113C608.692 491.789 608.816 491.465 608.944 491.131Z" fill="white"/>
<path d="M492.234 217.953C494.319 219.683 496.23 221.542 498.125 223.476C498.004 223.719 497.882 223.962 497.757 224.212C496.53 222.985 495.302 221.757 494.075 220.53C493.731 220.201 493.387 219.872 493.033 219.534C492.234 218.689 492.234 218.689 492.234 217.953Z" fill="white"/>
<path d="M332.452 336.502C332.574 336.745 332.695 336.988 332.82 337.238C331.923 337.723 331.026 338.206 330.128 338.688C329.874 338.825 329.62 338.963 329.358 339.104C329.112 339.236 328.867 339.368 328.614 339.503C328.275 339.686 328.275 339.686 327.93 339.871C327.298 340.184 327.298 340.184 326.193 340.552C326.562 339.447 326.562 339.447 327.144 339.052C327.389 338.934 327.634 338.816 327.886 338.695C328.151 338.566 328.415 338.436 328.688 338.303C328.966 338.172 329.244 338.041 329.53 337.906C329.809 337.77 330.088 337.635 330.376 337.495C331.067 337.161 331.759 336.831 332.452 336.502Z" fill="white"/>
<path d="M318.094 466.096C318.337 466.096 318.58 466.096 318.83 466.096C319.394 467.06 319.953 468.027 320.51 468.995C320.752 469.407 320.752 469.407 320.998 469.828C321.149 470.091 321.299 470.354 321.455 470.626C321.595 470.869 321.736 471.112 321.881 471.362C321.968 471.568 322.054 471.774 322.144 471.986C322.022 472.229 321.901 472.472 321.775 472.723C318.39 467.693 318.39 467.693 318.094 466.096Z" fill="white"/>
<path d="M214.271 460.205C214.513 460.327 214.756 460.448 215.007 460.573C214.701 460.76 214.701 460.76 214.388 460.95C214.122 461.114 213.855 461.278 213.58 461.448C213.315 461.61 213.051 461.772 212.778 461.939C212.018 462.409 212.018 462.409 211.325 463.15C210.718 463.411 210.105 463.658 209.484 463.887C209.484 463.522 209.484 463.158 209.484 462.782C210.251 462.204 210.251 462.204 211.256 461.632C211.585 461.441 211.914 461.25 212.253 461.054C213.166 460.573 213.166 460.573 214.271 460.205Z" fill="white"/>
<path d="M566.972 471.618C567.215 471.74 567.458 471.861 567.708 471.986C567.296 472.778 566.882 473.567 566.465 474.356C566.29 474.694 566.29 474.694 566.112 475.039C565.214 476.731 565.214 476.731 564.395 477.141C564.607 475.645 565.091 474.62 565.89 473.344C566.092 473.019 566.294 472.694 566.501 472.359C566.734 471.992 566.734 471.992 566.972 471.618Z" fill="white"/>
<path d="M297.108 316.989C297.108 318.094 297.108 318.094 296.211 319.083C294.772 320.235 293.349 320.111 291.586 319.935C291.586 319.813 291.586 319.692 291.586 319.566C291.953 319.472 291.953 319.472 292.327 319.377C294.226 318.855 295.657 318.392 297.108 316.989Z" fill="white"/>
<path d="M300.421 275.755C299.641 276.257 298.858 276.755 298.074 277.251C297.852 277.394 297.63 277.538 297.401 277.686C296.826 278.047 296.231 278.376 295.635 278.7C295.392 278.579 295.149 278.457 294.898 278.332C296.647 276.859 296.647 276.859 297.476 276.859C297.476 276.616 297.476 276.373 297.476 276.123C298.633 275.42 299.14 275.37 300.421 275.755Z" fill="white"/>
<path d="M398.722 223.844C398.722 225.206 398.406 225.464 397.525 226.467C397.303 226.726 397.081 226.985 396.852 227.252C396.106 227.928 395.655 228.118 394.672 228.262C395.964 226.721 397.279 225.244 398.722 223.844Z" fill="white"/>
<path d="M374.422 492.972C377.599 495.168 377.599 495.168 378.472 497.021C377.399 496.526 376.523 495.963 375.618 495.204C375.393 495.018 375.167 494.833 374.934 494.641C374.422 494.076 374.422 494.076 374.422 492.972Z" fill="white"/>
<path d="M330.98 349.388C331.102 349.752 331.223 350.117 331.349 350.492C330.847 351.325 330.847 351.325 330.129 352.218C329.895 352.516 329.661 352.813 329.42 353.12C329.206 353.346 328.992 353.572 328.771 353.806C328.528 353.806 328.286 353.806 328.035 353.806C328.591 351.972 329.713 350.771 330.98 349.388Z" fill="white"/>
<path d="M117.076 502.912C117.444 504.017 117.444 504.017 117.036 504.997C116.837 505.357 116.637 505.717 116.432 506.088C116.236 506.449 116.041 506.811 115.839 507.183C115.235 508.066 115.235 508.066 114.131 508.435C114.727 507.219 115.368 506.032 116.018 504.845C116.216 504.482 116.414 504.12 116.619 503.746C116.77 503.471 116.921 503.196 117.076 502.912Z" fill="white"/>
<path d="M359.695 475.668C361.179 476.163 361.463 476.94 362.272 478.245C362.637 478.792 362.637 478.792 363.009 479.35C361.608 479.15 360.944 478.602 360.063 477.509C359.787 476.496 359.787 476.496 359.695 475.668Z" fill="white"/>
<path d="M515.797 465.359C517.361 465.533 518.079 466.452 519.11 467.568C518.989 467.933 518.867 468.297 518.742 468.673C518.249 468.261 517.759 467.846 517.27 467.43C516.859 467.084 516.859 467.084 516.441 466.731C516.229 466.522 516.016 466.312 515.797 466.096C515.797 465.853 515.797 465.61 515.797 465.359Z" fill="white"/>
<path d="M316.621 352.333C316.743 352.333 316.864 352.333 316.989 352.333C316.8 354.488 316.454 356.504 315.885 358.592C315.763 358.592 315.642 358.592 315.517 358.592C315.368 356.214 315.667 354.52 316.621 352.333Z" fill="white"/>
<path d="M491.867 258.083C492.604 258.083 492.604 258.083 493.239 258.701C493.47 258.968 493.7 259.235 493.938 259.51C494.171 259.774 494.403 260.039 494.643 260.312C495.181 261.028 495.181 261.028 495.181 261.765C494.938 261.765 494.695 261.765 494.444 261.765C494.323 261.522 494.201 261.279 494.076 261.028C493.723 260.857 493.723 260.857 493.363 260.683C492.604 260.292 492.604 260.292 491.867 259.188C491.867 258.823 491.867 258.459 491.867 258.083Z" fill="white"/>
<path d="M614.466 501.071C614.587 501.436 614.709 501.8 614.834 502.176C614.387 502.847 614.387 502.847 613.753 503.533C613.544 503.763 613.336 503.992 613.121 504.228C612.957 504.401 612.794 504.574 612.625 504.753C612.382 504.631 612.139 504.51 611.889 504.385C613.223 501.9 613.223 501.9 614.466 501.071Z" fill="white"/>
<path d="M246.67 498.862C246.913 498.862 247.156 498.862 247.406 498.862C247.528 499.47 247.649 500.077 247.774 500.703C248.139 500.703 248.503 500.703 248.879 500.703C248.924 500.992 248.97 501.28 249.017 501.578C249.17 502.596 249.17 502.596 249.983 503.28C249.619 503.28 249.254 503.28 248.879 503.28C248.288 502.501 248.288 502.501 247.705 501.485C247.413 500.986 247.413 500.986 247.114 500.476C246.67 499.599 246.67 499.599 246.67 498.862Z" fill="white"/>
<path d="M289.009 478.245C289.745 479.35 289.745 479.35 289.929 480.132C289.99 480.36 290.051 480.588 290.113 480.822C290.356 480.944 290.599 481.065 290.85 481.19C290.85 481.919 290.85 482.648 290.85 483.399C289.517 481.763 288.887 480.375 289.009 478.245Z" fill="white"/>
<path d="M605.999 510.275C605.999 510.518 605.999 510.761 605.999 511.012C603.643 512.507 603.643 512.507 602.524 512.392C602.335 512.301 602.145 512.21 601.949 512.116C602.806 511.545 603.606 511.089 604.526 510.644C605.263 510.275 605.263 510.275 605.999 510.275Z" fill="white"/>
<path d="M231.576 497.021C231.819 497.143 232.062 497.264 232.312 497.39C232.352 498.041 232.381 498.693 232.405 499.346C232.422 499.709 232.439 500.072 232.456 500.446C232.312 501.439 232.312 501.439 231.57 502.123C231.329 502.262 231.088 502.401 230.84 502.544C230.961 502.248 231.083 501.952 231.208 501.647C231.652 500.063 231.641 498.653 231.576 497.021Z" fill="white"/>
<path d="M179.295 472.723C179.295 473.902 179.021 474.598 178.559 475.668C178.316 475.668 178.073 475.668 177.822 475.668C177.579 476.154 177.336 476.64 177.086 477.141C177.254 475.29 178.188 474.14 179.295 472.723Z" fill="white"/>
<path d="M159.782 503.28C160.025 503.28 160.268 503.28 160.519 503.28C160.333 504.892 159.348 505.79 158.31 506.962C158.188 506.719 158.067 506.476 157.941 506.226C158.282 505.509 158.282 505.509 158.793 504.707C158.958 504.44 159.124 504.173 159.295 503.899C159.456 503.695 159.616 503.491 159.782 503.28Z" fill="white"/>
<path d="M280.172 469.777C281.614 470.066 282.883 470.658 284.222 471.25C284.222 471.614 284.222 471.979 284.222 472.354C282.709 471.821 281.472 471.083 280.172 470.146C280.172 470.024 280.172 469.903 280.172 469.777Z" fill="white"/>
<path d="M505.488 268.023C506.432 268.852 506.432 268.852 507.329 269.864C507.26 270.716 507.26 270.716 506.961 271.337C506.032 270.61 505.859 270.244 505.603 269.059C505.565 268.717 505.527 268.375 505.488 268.023Z" fill="white"/>
<path d="M427.07 347.547C427.192 347.911 427.313 348.276 427.438 348.651C426.588 349.502 425.738 350.352 424.861 351.229C424.618 351.107 424.375 350.986 424.125 350.86C425.097 349.767 426.069 348.673 427.07 347.547Z" fill="white"/>
<path d="M502.545 292.69C500.551 294.186 500.551 294.186 499.462 294.071C499.264 293.98 499.067 293.889 498.863 293.795C499.231 293.059 499.231 293.059 500.497 292.621C501.809 292.322 501.809 292.322 502.545 292.69Z" fill="white"/>
<path d="M658.646 469.041C659.192 469.405 659.192 469.405 659.75 469.777C659.819 470.928 659.819 470.928 659.75 471.986C659.629 471.622 659.507 471.257 659.382 470.882C659.017 471.003 658.653 471.125 658.277 471.25C658.399 470.521 658.52 469.792 658.646 469.041Z" fill="white"/>
<path d="M505.488 469.409C506.719 469.614 507.709 469.907 508.802 470.514C508.802 470.757 508.802 471 508.802 471.25C507.412 470.848 506.42 470.547 505.488 469.409Z" fill="white"/>
<path d="M504.385 230.103C505.933 230.656 506.498 231.68 507.33 233.048C506.092 232.517 505.271 231.852 504.385 230.839C504.385 230.596 504.385 230.353 504.385 230.103Z" fill="white"/>
<path d="M323.248 274.65C324.26 274.535 324.26 274.535 325.457 274.65C326.331 275.571 326.331 275.571 326.93 276.491C325.489 276.066 324.399 275.624 323.248 274.65Z" fill="white"/>
<path d="M157.206 507.33C157.328 507.695 157.449 508.059 157.574 508.435C156.861 509.608 156.861 509.608 156.102 510.644C155.859 510.522 155.616 510.401 155.365 510.275C155.973 509.303 156.58 508.331 157.206 507.33Z" fill="white"/>
<path d="M322.879 474.195C324.013 475.216 324.605 476.059 325.088 477.509C324.845 477.509 324.602 477.509 324.352 477.509C322.879 475.56 322.879 475.56 322.879 474.195Z" fill="white"/>
<path d="M286.801 475.3C287.905 475.668 287.905 475.668 288.365 476.358C288.642 477.141 288.642 477.141 288.273 478.245C286.801 476.128 286.801 476.128 286.801 475.3Z" fill="white"/>
<path d="M507.329 233.416C507.694 233.416 508.058 233.416 508.434 233.416C508.312 234.023 508.191 234.631 508.065 235.257C507.701 235.378 507.336 235.5 506.961 235.625C507.082 234.896 507.204 234.167 507.329 233.416Z" fill="white"/>
<path d="M430.016 192.55C430.137 192.793 430.259 193.036 430.384 193.286C428.635 195.081 428.635 195.081 427.807 195.495C428.338 194.256 429.034 193.466 430.016 192.55Z" fill="white"/>
</svg>
